%FSLAX44Y44*%
%MOMM*%
G71*
G01*
G75*
G04 Layer_Color=8421504*
%ADD10C,0.4500*%
%ADD11C,1.0000*%
G04:AMPARAMS|DCode=12|XSize=2.7mm|YSize=1.15mm|CornerRadius=0.2013mm|HoleSize=0mm|Usage=FLASHONLY|Rotation=270.000|XOffset=0mm|YOffset=0mm|HoleType=Round|Shape=RoundedRectangle|*
%AMROUNDEDRECTD12*
21,1,2.7000,0.7475,0,0,270.0*
21,1,2.2975,1.1500,0,0,270.0*
1,1,0.4025,-0.3738,-1.1487*
1,1,0.4025,-0.3738,1.1487*
1,1,0.4025,0.3738,1.1487*
1,1,0.4025,0.3738,-1.1487*
%
%ADD12ROUNDEDRECTD12*%
G04:AMPARAMS|DCode=13|XSize=1mm|YSize=0.9mm|CornerRadius=0.198mm|HoleSize=0mm|Usage=FLASHONLY|Rotation=270.000|XOffset=0mm|YOffset=0mm|HoleType=Round|Shape=RoundedRectangle|*
%AMROUNDEDRECTD13*
21,1,1.0000,0.5040,0,0,270.0*
21,1,0.6040,0.9000,0,0,270.0*
1,1,0.3960,-0.2520,-0.3020*
1,1,0.3960,-0.2520,0.3020*
1,1,0.3960,0.2520,0.3020*
1,1,0.3960,0.2520,-0.3020*
%
%ADD13ROUNDEDRECTD13*%
G04:AMPARAMS|DCode=14|XSize=1.6mm|YSize=1.5mm|CornerRadius=0.2475mm|HoleSize=0mm|Usage=FLASHONLY|Rotation=0.000|XOffset=0mm|YOffset=0mm|HoleType=Round|Shape=RoundedRectangle|*
%AMROUNDEDRECTD14*
21,1,1.6000,1.0050,0,0,0.0*
21,1,1.1050,1.5000,0,0,0.0*
1,1,0.4950,0.5525,-0.5025*
1,1,0.4950,-0.5525,-0.5025*
1,1,0.4950,-0.5525,0.5025*
1,1,0.4950,0.5525,0.5025*
%
%ADD14ROUNDEDRECTD14*%
G04:AMPARAMS|DCode=15|XSize=1mm|YSize=0.95mm|CornerRadius=0.1995mm|HoleSize=0mm|Usage=FLASHONLY|Rotation=270.000|XOffset=0mm|YOffset=0mm|HoleType=Round|Shape=RoundedRectangle|*
%AMROUNDEDRECTD15*
21,1,1.0000,0.5510,0,0,270.0*
21,1,0.6010,0.9500,0,0,270.0*
1,1,0.3990,-0.2755,-0.3005*
1,1,0.3990,-0.2755,0.3005*
1,1,0.3990,0.2755,0.3005*
1,1,0.3990,0.2755,-0.3005*
%
%ADD15ROUNDEDRECTD15*%
G04:AMPARAMS|DCode=16|XSize=1.1mm|YSize=1mm|CornerRadius=0.165mm|HoleSize=0mm|Usage=FLASHONLY|Rotation=0.000|XOffset=0mm|YOffset=0mm|HoleType=Round|Shape=RoundedRectangle|*
%AMROUNDEDRECTD16*
21,1,1.1000,0.6700,0,0,0.0*
21,1,0.7700,1.0000,0,0,0.0*
1,1,0.3300,0.3850,-0.3350*
1,1,0.3300,-0.3850,-0.3350*
1,1,0.3300,-0.3850,0.3350*
1,1,0.3300,0.3850,0.3350*
%
%ADD16ROUNDEDRECTD16*%
G04:AMPARAMS|DCode=17|XSize=1.4mm|YSize=1.2mm|CornerRadius=0.198mm|HoleSize=0mm|Usage=FLASHONLY|Rotation=0.000|XOffset=0mm|YOffset=0mm|HoleType=Round|Shape=RoundedRectangle|*
%AMROUNDEDRECTD17*
21,1,1.4000,0.8040,0,0,0.0*
21,1,1.0040,1.2000,0,0,0.0*
1,1,0.3960,0.5020,-0.4020*
1,1,0.3960,-0.5020,-0.4020*
1,1,0.3960,-0.5020,0.4020*
1,1,0.3960,0.5020,0.4020*
%
%ADD17ROUNDEDRECTD17*%
G04:AMPARAMS|DCode=18|XSize=1mm|YSize=0.9mm|CornerRadius=0.198mm|HoleSize=0mm|Usage=FLASHONLY|Rotation=180.000|XOffset=0mm|YOffset=0mm|HoleType=Round|Shape=RoundedRectangle|*
%AMROUNDEDRECTD18*
21,1,1.0000,0.5040,0,0,180.0*
21,1,0.6040,0.9000,0,0,180.0*
1,1,0.3960,-0.3020,0.2520*
1,1,0.3960,0.3020,0.2520*
1,1,0.3960,0.3020,-0.2520*
1,1,0.3960,-0.3020,-0.2520*
%
%ADD18ROUNDEDRECTD18*%
G04:AMPARAMS|DCode=19|XSize=1.6mm|YSize=1.5mm|CornerRadius=0.2475mm|HoleSize=0mm|Usage=FLASHONLY|Rotation=270.000|XOffset=0mm|YOffset=0mm|HoleType=Round|Shape=RoundedRectangle|*
%AMROUNDEDRECTD19*
21,1,1.6000,1.0050,0,0,270.0*
21,1,1.1050,1.5000,0,0,270.0*
1,1,0.4950,-0.5025,-0.5525*
1,1,0.4950,-0.5025,0.5525*
1,1,0.4950,0.5025,0.5525*
1,1,0.4950,0.5025,-0.5525*
%
%ADD19ROUNDEDRECTD19*%
G04:AMPARAMS|DCode=20|XSize=1mm|YSize=0.95mm|CornerRadius=0.1995mm|HoleSize=0mm|Usage=FLASHONLY|Rotation=180.000|XOffset=0mm|YOffset=0mm|HoleType=Round|Shape=RoundedRectangle|*
%AMROUNDEDRECTD20*
21,1,1.0000,0.5510,0,0,180.0*
21,1,0.6010,0.9500,0,0,180.0*
1,1,0.3990,-0.3005,0.2755*
1,1,0.3990,0.3005,0.2755*
1,1,0.3990,0.3005,-0.2755*
1,1,0.3990,-0.3005,-0.2755*
%
%ADD20ROUNDEDRECTD20*%
G04:AMPARAMS|DCode=21|XSize=1.1mm|YSize=1mm|CornerRadius=0.165mm|HoleSize=0mm|Usage=FLASHONLY|Rotation=270.000|XOffset=0mm|YOffset=0mm|HoleType=Round|Shape=RoundedRectangle|*
%AMROUNDEDRECTD21*
21,1,1.1000,0.6700,0,0,270.0*
21,1,0.7700,1.0000,0,0,270.0*
1,1,0.3300,-0.3350,-0.3850*
1,1,0.3300,-0.3350,0.3850*
1,1,0.3300,0.3350,0.3850*
1,1,0.3300,0.3350,-0.3850*
%
%ADD21ROUNDEDRECTD21*%
G04:AMPARAMS|DCode=22|XSize=1.4mm|YSize=1.2mm|CornerRadius=0.198mm|HoleSize=0mm|Usage=FLASHONLY|Rotation=270.000|XOffset=0mm|YOffset=0mm|HoleType=Round|Shape=RoundedRectangle|*
%AMROUNDEDRECTD22*
21,1,1.4000,0.8040,0,0,270.0*
21,1,1.0040,1.2000,0,0,270.0*
1,1,0.3960,-0.4020,-0.5020*
1,1,0.3960,-0.4020,0.5020*
1,1,0.3960,0.4020,0.5020*
1,1,0.3960,0.4020,-0.5020*
%
%ADD22ROUNDEDRECTD22*%
%ADD23R,1.3000X1.3000*%
%ADD24C,1.3000*%
G04:AMPARAMS|DCode=25|XSize=2.7mm|YSize=1.15mm|CornerRadius=0.2013mm|HoleSize=0mm|Usage=FLASHONLY|Rotation=180.000|XOffset=0mm|YOffset=0mm|HoleType=Round|Shape=RoundedRectangle|*
%AMROUNDEDRECTD25*
21,1,2.7000,0.7475,0,0,180.0*
21,1,2.2975,1.1500,0,0,180.0*
1,1,0.4025,-1.1487,0.3738*
1,1,0.4025,1.1487,0.3738*
1,1,0.4025,1.1487,-0.3738*
1,1,0.4025,-1.1487,-0.3738*
%
%ADD25ROUNDEDRECTD25*%
%ADD26C,0.6000*%
G04:AMPARAMS|DCode=27|XSize=0.7mm|YSize=0.25mm|CornerRadius=0.0838mm|HoleSize=0mm|Usage=FLASHONLY|Rotation=270.000|XOffset=0mm|YOffset=0mm|HoleType=Round|Shape=RoundedRectangle|*
%AMROUNDEDRECTD27*
21,1,0.7000,0.0825,0,0,270.0*
21,1,0.5325,0.2500,0,0,270.0*
1,1,0.1675,-0.0413,-0.2662*
1,1,0.1675,-0.0413,0.2662*
1,1,0.1675,0.0413,0.2662*
1,1,0.1675,0.0413,-0.2662*
%
%ADD27ROUNDEDRECTD27*%
G04:AMPARAMS|DCode=28|XSize=1.35mm|YSize=1.65mm|CornerRadius=0.27mm|HoleSize=0mm|Usage=FLASHONLY|Rotation=0.000|XOffset=0mm|YOffset=0mm|HoleType=Round|Shape=RoundedRectangle|*
%AMROUNDEDRECTD28*
21,1,1.3500,1.1100,0,0,0.0*
21,1,0.8100,1.6500,0,0,0.0*
1,1,0.5400,0.4050,-0.5550*
1,1,0.5400,-0.4050,-0.5550*
1,1,0.5400,-0.4050,0.5550*
1,1,0.5400,0.4050,0.5550*
%
%ADD28ROUNDEDRECTD28*%
G04:AMPARAMS|DCode=29|XSize=1.45mm|YSize=1.15mm|CornerRadius=0.2013mm|HoleSize=0mm|Usage=FLASHONLY|Rotation=270.000|XOffset=0mm|YOffset=0mm|HoleType=Round|Shape=RoundedRectangle|*
%AMROUNDEDRECTD29*
21,1,1.4500,0.7475,0,0,270.0*
21,1,1.0475,1.1500,0,0,270.0*
1,1,0.4025,-0.3738,-0.5238*
1,1,0.4025,-0.3738,0.5238*
1,1,0.4025,0.3738,0.5238*
1,1,0.4025,0.3738,-0.5238*
%
%ADD29ROUNDEDRECTD29*%
G04:AMPARAMS|DCode=30|XSize=1.05mm|YSize=0.65mm|CornerRadius=0.2015mm|HoleSize=0mm|Usage=FLASHONLY|Rotation=90.000|XOffset=0mm|YOffset=0mm|HoleType=Round|Shape=RoundedRectangle|*
%AMROUNDEDRECTD30*
21,1,1.0500,0.2470,0,0,90.0*
21,1,0.6470,0.6500,0,0,90.0*
1,1,0.4030,0.1235,0.3235*
1,1,0.4030,0.1235,-0.3235*
1,1,0.4030,-0.1235,-0.3235*
1,1,0.4030,-0.1235,0.3235*
%
%ADD30ROUNDEDRECTD30*%
G04:AMPARAMS|DCode=31|XSize=1.45mm|YSize=1.15mm|CornerRadius=0.2013mm|HoleSize=0mm|Usage=FLASHONLY|Rotation=180.000|XOffset=0mm|YOffset=0mm|HoleType=Round|Shape=RoundedRectangle|*
%AMROUNDEDRECTD31*
21,1,1.4500,0.7475,0,0,180.0*
21,1,1.0475,1.1500,0,0,180.0*
1,1,0.4025,-0.5238,0.3738*
1,1,0.4025,0.5238,0.3738*
1,1,0.4025,0.5238,-0.3738*
1,1,0.4025,-0.5238,-0.3738*
%
%ADD31ROUNDEDRECTD31*%
%ADD32O,1.3500X0.5000*%
G04:AMPARAMS|DCode=33|XSize=6.5mm|YSize=5mm|CornerRadius=0.25mm|HoleSize=0mm|Usage=FLASHONLY|Rotation=0.000|XOffset=0mm|YOffset=0mm|HoleType=Round|Shape=RoundedRectangle|*
%AMROUNDEDRECTD33*
21,1,6.5000,4.5000,0,0,0.0*
21,1,6.0000,5.0000,0,0,0.0*
1,1,0.5000,3.0000,-2.2500*
1,1,0.5000,-3.0000,-2.2500*
1,1,0.5000,-3.0000,2.2500*
1,1,0.5000,3.0000,2.2500*
%
%ADD33ROUNDEDRECTD33*%
%ADD34O,0.5000X1.3500*%
G04:AMPARAMS|DCode=35|XSize=2.5mm|YSize=1.7mm|CornerRadius=0.204mm|HoleSize=0mm|Usage=FLASHONLY|Rotation=270.000|XOffset=0mm|YOffset=0mm|HoleType=Round|Shape=RoundedRectangle|*
%AMROUNDEDRECTD35*
21,1,2.5000,1.2920,0,0,270.0*
21,1,2.0920,1.7000,0,0,270.0*
1,1,0.4080,-0.6460,-1.0460*
1,1,0.4080,-0.6460,1.0460*
1,1,0.4080,0.6460,1.0460*
1,1,0.4080,0.6460,-1.0460*
%
%ADD35ROUNDEDRECTD35*%
G04:AMPARAMS|DCode=36|XSize=1.1mm|YSize=0.8mm|CornerRadius=0.268mm|HoleSize=0mm|Usage=FLASHONLY|Rotation=90.000|XOffset=0mm|YOffset=0mm|HoleType=Round|Shape=RoundedRectangle|*
%AMROUNDEDRECTD36*
21,1,1.1000,0.2640,0,0,90.0*
21,1,0.5640,0.8000,0,0,90.0*
1,1,0.5360,0.1320,0.2820*
1,1,0.5360,0.1320,-0.2820*
1,1,0.5360,-0.1320,-0.2820*
1,1,0.5360,-0.1320,0.2820*
%
%ADD36ROUNDEDRECTD36*%
G04:AMPARAMS|DCode=37|XSize=1.1mm|YSize=0.6mm|CornerRadius=0.201mm|HoleSize=0mm|Usage=FLASHONLY|Rotation=90.000|XOffset=0mm|YOffset=0mm|HoleType=Round|Shape=RoundedRectangle|*
%AMROUNDEDRECTD37*
21,1,1.1000,0.1980,0,0,90.0*
21,1,0.6980,0.6000,0,0,90.0*
1,1,0.4020,0.0990,0.3490*
1,1,0.4020,0.0990,-0.3490*
1,1,0.4020,-0.0990,-0.3490*
1,1,0.4020,-0.0990,0.3490*
%
%ADD37ROUNDEDRECTD37*%
G04:AMPARAMS|DCode=38|XSize=1.2mm|YSize=1.2mm|CornerRadius=0.198mm|HoleSize=0mm|Usage=FLASHONLY|Rotation=0.000|XOffset=0mm|YOffset=0mm|HoleType=Round|Shape=RoundedRectangle|*
%AMROUNDEDRECTD38*
21,1,1.2000,0.8040,0,0,0.0*
21,1,0.8040,1.2000,0,0,0.0*
1,1,0.3960,0.4020,-0.4020*
1,1,0.3960,-0.4020,-0.4020*
1,1,0.3960,-0.4020,0.4020*
1,1,0.3960,0.4020,0.4020*
%
%ADD38ROUNDEDRECTD38*%
G04:AMPARAMS|DCode=39|XSize=3.3mm|YSize=2.5mm|CornerRadius=0.2mm|HoleSize=0mm|Usage=FLASHONLY|Rotation=0.000|XOffset=0mm|YOffset=0mm|HoleType=Round|Shape=RoundedRectangle|*
%AMROUNDEDRECTD39*
21,1,3.3000,2.1000,0,0,0.0*
21,1,2.9000,2.5000,0,0,0.0*
1,1,0.4000,1.4500,-1.0500*
1,1,0.4000,-1.4500,-1.0500*
1,1,0.4000,-1.4500,1.0500*
1,1,0.4000,1.4500,1.0500*
%
%ADD39ROUNDEDRECTD39*%
G04:AMPARAMS|DCode=40|XSize=1.75mm|YSize=1.05mm|CornerRadius=0.1995mm|HoleSize=0mm|Usage=FLASHONLY|Rotation=0.000|XOffset=0mm|YOffset=0mm|HoleType=Round|Shape=RoundedRectangle|*
%AMROUNDEDRECTD40*
21,1,1.7500,0.6510,0,0,0.0*
21,1,1.3510,1.0500,0,0,0.0*
1,1,0.3990,0.6755,-0.3255*
1,1,0.3990,-0.6755,-0.3255*
1,1,0.3990,-0.6755,0.3255*
1,1,0.3990,0.6755,0.3255*
%
%ADD40ROUNDEDRECTD40*%
%ADD41O,1.5500X0.6000*%
G04:AMPARAMS|DCode=42|XSize=3.95mm|YSize=1.2mm|CornerRadius=0.198mm|HoleSize=0mm|Usage=FLASHONLY|Rotation=90.000|XOffset=0mm|YOffset=0mm|HoleType=Round|Shape=RoundedRectangle|*
%AMROUNDEDRECTD42*
21,1,3.9500,0.8040,0,0,90.0*
21,1,3.5540,1.2000,0,0,90.0*
1,1,0.3960,0.4020,1.7770*
1,1,0.3960,0.4020,-1.7770*
1,1,0.3960,-0.4020,-1.7770*
1,1,0.3960,-0.4020,1.7770*
%
%ADD42ROUNDEDRECTD42*%
G04:AMPARAMS|DCode=43|XSize=11.3mm|YSize=10.75mm|CornerRadius=0.215mm|HoleSize=0mm|Usage=FLASHONLY|Rotation=90.000|XOffset=0mm|YOffset=0mm|HoleType=Round|Shape=RoundedRectangle|*
%AMROUNDEDRECTD43*
21,1,11.3000,10.3200,0,0,90.0*
21,1,10.8700,10.7500,0,0,90.0*
1,1,0.4300,5.1600,5.4350*
1,1,0.4300,5.1600,-5.4350*
1,1,0.4300,-5.1600,-5.4350*
1,1,0.4300,-5.1600,5.4350*
%
%ADD43ROUNDEDRECTD43*%
G04:AMPARAMS|DCode=44|XSize=2.85mm|YSize=1mm|CornerRadius=0.2mm|HoleSize=0mm|Usage=FLASHONLY|Rotation=90.000|XOffset=0mm|YOffset=0mm|HoleType=Round|Shape=RoundedRectangle|*
%AMROUNDEDRECTD44*
21,1,2.8500,0.6000,0,0,90.0*
21,1,2.4500,1.0000,0,0,90.0*
1,1,0.4000,0.3000,1.2250*
1,1,0.4000,0.3000,-1.2250*
1,1,0.4000,-0.3000,-1.2250*
1,1,0.4000,-0.3000,1.2250*
%
%ADD44ROUNDEDRECTD44*%
G04:AMPARAMS|DCode=45|XSize=6.45mm|YSize=6mm|CornerRadius=0.21mm|HoleSize=0mm|Usage=FLASHONLY|Rotation=90.000|XOffset=0mm|YOffset=0mm|HoleType=Round|Shape=RoundedRectangle|*
%AMROUNDEDRECTD45*
21,1,6.4500,5.5800,0,0,90.0*
21,1,6.0300,6.0000,0,0,90.0*
1,1,0.4200,2.7900,3.0150*
1,1,0.4200,2.7900,-3.0150*
1,1,0.4200,-2.7900,-3.0150*
1,1,0.4200,-2.7900,3.0150*
%
%ADD45ROUNDEDRECTD45*%
%ADD46O,0.6000X1.5500*%
G04:AMPARAMS|DCode=47|XSize=4.9mm|YSize=1.6mm|CornerRadius=0.2mm|HoleSize=0mm|Usage=FLASHONLY|Rotation=270.000|XOffset=0mm|YOffset=0mm|HoleType=Round|Shape=RoundedRectangle|*
%AMROUNDEDRECTD47*
21,1,4.9000,1.2000,0,0,270.0*
21,1,4.5000,1.6000,0,0,270.0*
1,1,0.4000,-0.6000,-2.2500*
1,1,0.4000,-0.6000,2.2500*
1,1,0.4000,0.6000,2.2500*
1,1,0.4000,0.6000,-2.2500*
%
%ADD47ROUNDEDRECTD47*%
%ADD48O,0.3000X1.5000*%
%ADD49O,1.5000X0.3000*%
G04:AMPARAMS|DCode=50|XSize=2.5mm|YSize=2mm|CornerRadius=0.2mm|HoleSize=0mm|Usage=FLASHONLY|Rotation=270.000|XOffset=0mm|YOffset=0mm|HoleType=Round|Shape=RoundedRectangle|*
%AMROUNDEDRECTD50*
21,1,2.5000,1.6000,0,0,270.0*
21,1,2.1000,2.0000,0,0,270.0*
1,1,0.4000,-0.8000,-1.0500*
1,1,0.4000,-0.8000,1.0500*
1,1,0.4000,0.8000,1.0500*
1,1,0.4000,0.8000,-1.0500*
%
%ADD50ROUNDEDRECTD50*%
G04:AMPARAMS|DCode=51|XSize=2.3mm|YSize=0.5mm|CornerRadius=0.2mm|HoleSize=0mm|Usage=FLASHONLY|Rotation=270.000|XOffset=0mm|YOffset=0mm|HoleType=Round|Shape=RoundedRectangle|*
%AMROUNDEDRECTD51*
21,1,2.3000,0.1000,0,0,270.0*
21,1,1.9000,0.5000,0,0,270.0*
1,1,0.4000,-0.0500,-0.9500*
1,1,0.4000,-0.0500,0.9500*
1,1,0.4000,0.0500,0.9500*
1,1,0.4000,0.0500,-0.9500*
%
%ADD51ROUNDEDRECTD51*%
G04:AMPARAMS|DCode=52|XSize=1.2mm|YSize=1.2mm|CornerRadius=0.198mm|HoleSize=0mm|Usage=FLASHONLY|Rotation=270.000|XOffset=0mm|YOffset=0mm|HoleType=Round|Shape=RoundedRectangle|*
%AMROUNDEDRECTD52*
21,1,1.2000,0.8040,0,0,270.0*
21,1,0.8040,1.2000,0,0,270.0*
1,1,0.3960,-0.4020,-0.4020*
1,1,0.3960,-0.4020,0.4020*
1,1,0.3960,0.4020,0.4020*
1,1,0.3960,0.4020,-0.4020*
%
%ADD52ROUNDEDRECTD52*%
G04:AMPARAMS|DCode=53|XSize=1.6mm|YSize=1.25mm|CornerRadius=0.2mm|HoleSize=0mm|Usage=FLASHONLY|Rotation=90.000|XOffset=0mm|YOffset=0mm|HoleType=Round|Shape=RoundedRectangle|*
%AMROUNDEDRECTD53*
21,1,1.6000,0.8500,0,0,90.0*
21,1,1.2000,1.2500,0,0,90.0*
1,1,0.4000,0.4250,0.6000*
1,1,0.4000,0.4250,-0.6000*
1,1,0.4000,-0.4250,-0.6000*
1,1,0.4000,-0.4250,0.6000*
%
%ADD53ROUNDEDRECTD53*%
G04:AMPARAMS|DCode=54|XSize=1.6mm|YSize=1.25mm|CornerRadius=0.2mm|HoleSize=0mm|Usage=FLASHONLY|Rotation=180.000|XOffset=0mm|YOffset=0mm|HoleType=Round|Shape=RoundedRectangle|*
%AMROUNDEDRECTD54*
21,1,1.6000,0.8500,0,0,180.0*
21,1,1.2000,1.2500,0,0,180.0*
1,1,0.4000,-0.6000,0.4250*
1,1,0.4000,0.6000,0.4250*
1,1,0.4000,0.6000,-0.4250*
1,1,0.4000,-0.6000,-0.4250*
%
%ADD54ROUNDEDRECTD54*%
G04:AMPARAMS|DCode=55|XSize=1.05mm|YSize=0.65mm|CornerRadius=0.2015mm|HoleSize=0mm|Usage=FLASHONLY|Rotation=180.000|XOffset=0mm|YOffset=0mm|HoleType=Round|Shape=RoundedRectangle|*
%AMROUNDEDRECTD55*
21,1,1.0500,0.2470,0,0,180.0*
21,1,0.6470,0.6500,0,0,180.0*
1,1,0.4030,-0.3235,0.1235*
1,1,0.4030,0.3235,0.1235*
1,1,0.4030,0.3235,-0.1235*
1,1,0.4030,-0.3235,-0.1235*
%
%ADD55ROUNDEDRECTD55*%
G04:AMPARAMS|DCode=56|XSize=4.9mm|YSize=1.6mm|CornerRadius=0.2mm|HoleSize=0mm|Usage=FLASHONLY|Rotation=0.000|XOffset=0mm|YOffset=0mm|HoleType=Round|Shape=RoundedRectangle|*
%AMROUNDEDRECTD56*
21,1,4.9000,1.2000,0,0,0.0*
21,1,4.5000,1.6000,0,0,0.0*
1,1,0.4000,2.2500,-0.6000*
1,1,0.4000,-2.2500,-0.6000*
1,1,0.4000,-2.2500,0.6000*
1,1,0.4000,2.2500,0.6000*
%
%ADD56ROUNDEDRECTD56*%
%ADD57C,0.6000*%
%ADD58C,0.4500*%
%ADD59C,0.2000*%
%ADD60C,0.2500*%
%ADD61C,0.5000*%
%ADD62C,0.2540*%
%ADD63C,0.3500*%
%ADD64C,0.3000*%
%ADD65C,0.4000*%
%ADD66C,1.8500*%
%ADD67C,2.5000*%
%ADD68C,9.0000*%
%ADD69C,0.5000*%
%ADD70C,6.0000*%
%ADD71C,0.1000*%
%ADD72C,0.1500*%
%ADD73C,0.1524*%
%ADD74C,0.1200*%
%ADD75C,0.0000*%
G36*
X1490000Y1137001D02*
X1485000D01*
Y1142001D01*
X1490000D01*
Y1137001D01*
D02*
G37*
G36*
X1382552Y1137001D02*
X1377552D01*
Y1142001D01*
X1382552D01*
Y1137001D01*
D02*
G37*
G36*
X1467500Y1137001D02*
X1462500D01*
Y1142001D01*
X1467500D01*
Y1137001D01*
D02*
G37*
G36*
X1475000D02*
X1470000D01*
Y1142001D01*
X1475000D01*
Y1137001D01*
D02*
G37*
G36*
X1390052Y1137001D02*
X1385052D01*
Y1142001D01*
X1390052D01*
Y1137001D01*
D02*
G37*
G36*
X1445000D02*
X1440000D01*
Y1142001D01*
X1445000D01*
Y1137001D01*
D02*
G37*
G36*
X1452500D02*
X1447500D01*
Y1142001D01*
X1452500D01*
Y1137001D01*
D02*
G37*
G36*
X1397552D02*
X1392552D01*
Y1142001D01*
X1397552D01*
Y1137001D01*
D02*
G37*
G36*
X1420052D02*
X1415052D01*
Y1142001D01*
X1420052D01*
Y1137001D01*
D02*
G37*
G36*
X1320002Y1129501D02*
X1315002D01*
Y1134501D01*
X1320002D01*
Y1129501D01*
D02*
G37*
G36*
X1327502D02*
X1322502D01*
Y1134501D01*
X1327502D01*
Y1129501D01*
D02*
G37*
G36*
X1482500Y1129501D02*
X1477500D01*
Y1134501D01*
X1482500D01*
Y1129501D01*
D02*
G37*
G36*
X1490000D02*
X1485000D01*
Y1134501D01*
X1490000D01*
Y1129501D01*
D02*
G37*
G36*
X1335002Y1129501D02*
X1330002D01*
Y1134501D01*
X1335002D01*
Y1129501D01*
D02*
G37*
G36*
X1412552Y1137001D02*
X1407552D01*
Y1142001D01*
X1412552D01*
Y1137001D01*
D02*
G37*
G36*
X1427552D02*
X1422552D01*
Y1142001D01*
X1427552D01*
Y1137001D01*
D02*
G37*
G36*
X1342502Y1129501D02*
X1337502D01*
Y1134501D01*
X1342502D01*
Y1129501D01*
D02*
G37*
G36*
X1405052Y1137001D02*
X1400052D01*
Y1142001D01*
X1405052D01*
Y1137001D01*
D02*
G37*
G36*
X1460000Y1137001D02*
X1455000D01*
Y1142001D01*
X1460000D01*
Y1137001D01*
D02*
G37*
G36*
X1162497Y1183001D02*
X1157497D01*
Y1188001D01*
X1162497D01*
Y1183001D01*
D02*
G37*
G36*
X1169997D02*
X1164997D01*
Y1188001D01*
X1169997D01*
Y1183001D01*
D02*
G37*
G36*
X1335002Y1152001D02*
X1330002D01*
Y1157001D01*
X1335002D01*
Y1152001D01*
D02*
G37*
G36*
X1342502D02*
X1337502D01*
Y1157001D01*
X1342502D01*
Y1152001D01*
D02*
G37*
G36*
X1177497Y1183001D02*
X1172497D01*
Y1188001D01*
X1177497D01*
Y1183001D01*
D02*
G37*
G36*
X1177497Y1190501D02*
X1172497D01*
Y1195501D01*
X1177497D01*
Y1190501D01*
D02*
G37*
G36*
X1184997Y1193001D02*
X1179997D01*
Y1198001D01*
X1184997D01*
Y1193001D01*
D02*
G37*
G36*
X1162497Y1190501D02*
X1157497D01*
Y1195501D01*
X1162497D01*
Y1190501D01*
D02*
G37*
G36*
X1169997D02*
X1164997D01*
Y1195501D01*
X1169997D01*
Y1190501D01*
D02*
G37*
G36*
X1335002Y1137001D02*
X1330002D01*
Y1142001D01*
X1335002D01*
Y1137001D01*
D02*
G37*
G36*
X1342502D02*
X1337502D01*
Y1142001D01*
X1342502D01*
Y1137001D01*
D02*
G37*
G36*
X1482500Y1137001D02*
X1477500D01*
Y1142001D01*
X1482500D01*
Y1137001D01*
D02*
G37*
G36*
X1327502Y1137001D02*
X1322502D01*
Y1142001D01*
X1327502D01*
Y1137001D01*
D02*
G37*
G36*
X1320002Y1142001D02*
X1315002D01*
Y1147001D01*
X1320002D01*
Y1142001D01*
D02*
G37*
G36*
X1342502Y1144501D02*
X1337502D01*
Y1149501D01*
X1342502D01*
Y1144501D01*
D02*
G37*
G36*
X1327502Y1152001D02*
X1322502D01*
Y1157001D01*
X1327502D01*
Y1152001D01*
D02*
G37*
G36*
Y1144501D02*
X1322502D01*
Y1149501D01*
X1327502D01*
Y1144501D01*
D02*
G37*
G36*
X1335002D02*
X1330002D01*
Y1149501D01*
X1335002D01*
Y1144501D01*
D02*
G37*
G36*
X1397552Y1122001D02*
X1392552D01*
Y1127001D01*
X1397552D01*
Y1122001D01*
D02*
G37*
G36*
X1420052D02*
X1415052D01*
Y1127001D01*
X1420052D01*
Y1122001D01*
D02*
G37*
G36*
X1445000Y1122001D02*
X1440000D01*
Y1127001D01*
X1445000D01*
Y1122001D01*
D02*
G37*
G36*
X1390052Y1122001D02*
X1385052D01*
Y1127001D01*
X1390052D01*
Y1122001D01*
D02*
G37*
G36*
X1452500D02*
X1447500D01*
Y1127001D01*
X1452500D01*
Y1122001D01*
D02*
G37*
G36*
X1405052Y1122001D02*
X1400052D01*
Y1127001D01*
X1405052D01*
Y1122001D01*
D02*
G37*
G36*
X1412552D02*
X1407552D01*
Y1127001D01*
X1412552D01*
Y1122001D01*
D02*
G37*
G36*
X1460000Y1122001D02*
X1455000D01*
Y1127001D01*
X1460000D01*
Y1122001D01*
D02*
G37*
G36*
X1482500D02*
X1477500D01*
Y1127001D01*
X1482500D01*
Y1122001D01*
D02*
G37*
G36*
X1455000Y1114501D02*
X1450000D01*
Y1119501D01*
X1455000D01*
Y1114501D01*
D02*
G37*
G36*
X1467500D02*
X1462500D01*
Y1119501D01*
X1467500D01*
Y1114501D01*
D02*
G37*
G36*
X1392552D02*
X1387552D01*
Y1119501D01*
X1392552D01*
Y1114501D01*
D02*
G37*
G36*
X1405052D02*
X1400052D01*
Y1119501D01*
X1405052D01*
Y1114501D01*
D02*
G37*
G36*
X1327502Y1114501D02*
X1322502D01*
Y1119501D01*
X1327502D01*
Y1114501D01*
D02*
G37*
G36*
X1320002Y1117001D02*
X1315002D01*
Y1122001D01*
X1320002D01*
Y1117001D01*
D02*
G37*
G36*
X1382552Y1122001D02*
X1377552D01*
Y1127001D01*
X1382552D01*
Y1122001D01*
D02*
G37*
G36*
X1335002Y1114501D02*
X1330002D01*
Y1119501D01*
X1335002D01*
Y1114501D01*
D02*
G37*
G36*
X1342502D02*
X1337502D01*
Y1119501D01*
X1342502D01*
Y1114501D01*
D02*
G37*
G36*
X1427552Y1122001D02*
X1422552D01*
Y1127001D01*
X1427552D01*
Y1122001D01*
D02*
G37*
G36*
X1405052Y1129501D02*
X1400052D01*
Y1134501D01*
X1405052D01*
Y1129501D01*
D02*
G37*
G36*
X1412552D02*
X1407552D01*
Y1134501D01*
X1412552D01*
Y1129501D01*
D02*
G37*
G36*
X1452500Y1129501D02*
X1447500D01*
Y1134501D01*
X1452500D01*
Y1129501D01*
D02*
G37*
G36*
X1397552Y1129501D02*
X1392552D01*
Y1134501D01*
X1397552D01*
Y1129501D01*
D02*
G37*
G36*
X1420052D02*
X1415052D01*
Y1134501D01*
X1420052D01*
Y1129501D01*
D02*
G37*
G36*
X1467500D02*
X1462500D01*
Y1134501D01*
X1467500D01*
Y1129501D01*
D02*
G37*
G36*
X1475000D02*
X1470000D01*
Y1134501D01*
X1475000D01*
Y1129501D01*
D02*
G37*
G36*
X1427552D02*
X1422552D01*
Y1134501D01*
X1427552D01*
Y1129501D01*
D02*
G37*
G36*
X1460000D02*
X1455000D01*
Y1134501D01*
X1460000D01*
Y1129501D01*
D02*
G37*
G36*
X1490000Y1122001D02*
X1485000D01*
Y1127001D01*
X1490000D01*
Y1122001D01*
D02*
G37*
G36*
X1327502Y1122001D02*
X1322502D01*
Y1127001D01*
X1327502D01*
Y1122001D01*
D02*
G37*
G36*
X1467500Y1122001D02*
X1462500D01*
Y1127001D01*
X1467500D01*
Y1122001D01*
D02*
G37*
G36*
X1475000D02*
X1470000D01*
Y1127001D01*
X1475000D01*
Y1122001D01*
D02*
G37*
G36*
X1335002Y1122001D02*
X1330002D01*
Y1127001D01*
X1335002D01*
Y1122001D01*
D02*
G37*
G36*
X1390052Y1129501D02*
X1385052D01*
Y1134501D01*
X1390052D01*
Y1129501D01*
D02*
G37*
G36*
X1445000D02*
X1440000D01*
Y1134501D01*
X1445000D01*
Y1129501D01*
D02*
G37*
G36*
X1342502Y1122001D02*
X1337502D01*
Y1127001D01*
X1342502D01*
Y1122001D01*
D02*
G37*
G36*
X1382552Y1129501D02*
X1377552D01*
Y1134501D01*
X1382552D01*
Y1129501D01*
D02*
G37*
G36*
X1107447Y1198000D02*
X1102447D01*
Y1203000D01*
X1107447D01*
Y1198000D01*
D02*
G37*
G36*
X1044999Y1213001D02*
X1039999D01*
Y1218001D01*
X1044999D01*
Y1213001D01*
D02*
G37*
G36*
X1052499Y1213001D02*
X1047499D01*
Y1218001D01*
X1052499D01*
Y1213001D01*
D02*
G37*
G36*
X1029999Y1213001D02*
X1024999D01*
Y1218001D01*
X1029999D01*
Y1213001D01*
D02*
G37*
G36*
X1037499D02*
X1032499D01*
Y1218001D01*
X1037499D01*
Y1213001D01*
D02*
G37*
G36*
X1059999Y1213001D02*
X1054999D01*
Y1218001D01*
X1059999D01*
Y1213001D01*
D02*
G37*
G36*
X1087447Y1220500D02*
X1082447D01*
Y1225500D01*
X1087447D01*
Y1220500D01*
D02*
G37*
G36*
X1112447D02*
X1107447D01*
Y1225500D01*
X1112447D01*
Y1220500D01*
D02*
G37*
G36*
X1184997Y1218001D02*
X1179997D01*
Y1223001D01*
X1184997D01*
Y1218001D01*
D02*
G37*
G36*
X1099947Y1220500D02*
X1094947D01*
Y1225500D01*
X1099947D01*
Y1220500D01*
D02*
G37*
G36*
X1114947Y1213000D02*
X1109947D01*
Y1218000D01*
X1114947D01*
Y1213000D01*
D02*
G37*
G36*
X1122447D02*
X1117447D01*
Y1218000D01*
X1122447D01*
Y1213000D01*
D02*
G37*
G36*
X1099947Y1213000D02*
X1094947D01*
Y1218000D01*
X1099947D01*
Y1213000D01*
D02*
G37*
G36*
X1107447D02*
X1102447D01*
Y1218000D01*
X1107447D01*
Y1213000D01*
D02*
G37*
G36*
X1162497Y1213001D02*
X1157497D01*
Y1218001D01*
X1162497D01*
Y1213001D01*
D02*
G37*
G36*
X1014999Y1213001D02*
X1009999D01*
Y1218001D01*
X1014999D01*
Y1213001D01*
D02*
G37*
G36*
X1022499D02*
X1017499D01*
Y1218001D01*
X1022499D01*
Y1213001D01*
D02*
G37*
G36*
X1169997Y1213001D02*
X1164997D01*
Y1218001D01*
X1169997D01*
Y1213001D01*
D02*
G37*
G36*
X1177497D02*
X1172497D01*
Y1218001D01*
X1177497D01*
Y1213001D01*
D02*
G37*
G36*
X1162497Y1220501D02*
X1157497D01*
Y1225501D01*
X1162497D01*
Y1220501D01*
D02*
G37*
G36*
X1417552Y1273501D02*
X1412552D01*
Y1278501D01*
X1417552D01*
Y1273501D01*
D02*
G37*
G36*
X1480000D02*
X1475000D01*
Y1278501D01*
X1480000D01*
Y1273501D01*
D02*
G37*
G36*
X1335002Y1266001D02*
X1330002D01*
Y1271001D01*
X1335002D01*
Y1266001D01*
D02*
G37*
G36*
X1342502D02*
X1337502D01*
Y1271001D01*
X1342502D01*
Y1266001D01*
D02*
G37*
G36*
X1392552Y1273501D02*
X1387552D01*
Y1278501D01*
X1392552D01*
Y1273501D01*
D02*
G37*
G36*
X1467500D02*
X1462500D01*
Y1278501D01*
X1467500D01*
Y1273501D01*
D02*
G37*
G36*
X1327502Y1273501D02*
X1322502D01*
Y1278501D01*
X1327502D01*
Y1273501D01*
D02*
G37*
G36*
X1405052Y1273501D02*
X1400052D01*
Y1278501D01*
X1405052D01*
Y1273501D01*
D02*
G37*
G36*
X1455000D02*
X1450000D01*
Y1278501D01*
X1455000D01*
Y1273501D01*
D02*
G37*
G36*
X1037499Y1220501D02*
X1032499D01*
Y1225501D01*
X1037499D01*
Y1220501D01*
D02*
G37*
G36*
X1024999Y1220501D02*
X1019999D01*
Y1225501D01*
X1024999D01*
Y1220501D01*
D02*
G37*
G36*
X1169997Y1220501D02*
X1164997D01*
Y1225501D01*
X1169997D01*
Y1220501D01*
D02*
G37*
G36*
X1177497D02*
X1172497D01*
Y1225501D01*
X1177497D01*
Y1220501D01*
D02*
G37*
G36*
X1049999Y1220501D02*
X1044999D01*
Y1225501D01*
X1049999D01*
Y1220501D01*
D02*
G37*
G36*
X1177497Y1228001D02*
X1172497D01*
Y1233001D01*
X1177497D01*
Y1228001D01*
D02*
G37*
G36*
X1327502Y1266001D02*
X1322502D01*
Y1271001D01*
X1327502D01*
Y1266001D01*
D02*
G37*
G36*
X1162497Y1228001D02*
X1157497D01*
Y1233001D01*
X1162497D01*
Y1228001D01*
D02*
G37*
G36*
X1169997D02*
X1164997D01*
Y1233001D01*
X1169997D01*
Y1228001D01*
D02*
G37*
G36*
X1059999Y1198001D02*
X1054999D01*
Y1203001D01*
X1059999D01*
Y1198001D01*
D02*
G37*
G36*
X1014999Y1198001D02*
X1009999D01*
Y1203001D01*
X1014999D01*
Y1198001D01*
D02*
G37*
G36*
X1044999Y1198001D02*
X1039999D01*
Y1203001D01*
X1044999D01*
Y1198001D01*
D02*
G37*
G36*
X1052499D02*
X1047499D01*
Y1203001D01*
X1052499D01*
Y1198001D01*
D02*
G37*
G36*
X1022499Y1198001D02*
X1017499D01*
Y1203001D01*
X1022499D01*
Y1198001D01*
D02*
G37*
G36*
X1107447Y1205500D02*
X1102447D01*
Y1210500D01*
X1107447D01*
Y1205500D01*
D02*
G37*
G36*
X1077447Y1205500D02*
X1072447D01*
Y1210500D01*
X1077447D01*
Y1205500D01*
D02*
G37*
G36*
X1029999Y1198001D02*
X1024999D01*
Y1203001D01*
X1029999D01*
Y1198001D01*
D02*
G37*
G36*
X1037499D02*
X1032499D01*
Y1203001D01*
X1037499D01*
Y1198001D01*
D02*
G37*
G36*
X1077447Y1198000D02*
X1072447D01*
Y1203000D01*
X1077447D01*
Y1198000D01*
D02*
G37*
G36*
X1084947D02*
X1079947D01*
Y1203000D01*
X1084947D01*
Y1198000D01*
D02*
G37*
G36*
X1114947Y1198000D02*
X1109947D01*
Y1203000D01*
X1114947D01*
Y1198000D01*
D02*
G37*
G36*
X1122447D02*
X1117447D01*
Y1203000D01*
X1122447D01*
Y1198000D01*
D02*
G37*
G36*
X1092447Y1198000D02*
X1087447D01*
Y1203000D01*
X1092447D01*
Y1198000D01*
D02*
G37*
G36*
X1169997Y1198001D02*
X1164997D01*
Y1203001D01*
X1169997D01*
Y1198001D01*
D02*
G37*
G36*
X1177497D02*
X1172497D01*
Y1203001D01*
X1177497D01*
Y1198001D01*
D02*
G37*
G36*
X1099947Y1198000D02*
X1094947D01*
Y1203000D01*
X1099947D01*
Y1198000D01*
D02*
G37*
G36*
X1162497Y1198001D02*
X1157497D01*
Y1203001D01*
X1162497D01*
Y1198001D01*
D02*
G37*
G36*
X1084947Y1205500D02*
X1079947D01*
Y1210500D01*
X1084947D01*
Y1205500D01*
D02*
G37*
G36*
X1029999Y1205501D02*
X1024999D01*
Y1210501D01*
X1029999D01*
Y1205501D01*
D02*
G37*
G36*
X1037499D02*
X1032499D01*
Y1210501D01*
X1037499D01*
Y1205501D01*
D02*
G37*
G36*
X1014999D02*
X1009999D01*
Y1210501D01*
X1014999D01*
Y1205501D01*
D02*
G37*
G36*
X1022499D02*
X1017499D01*
Y1210501D01*
X1022499D01*
Y1205501D01*
D02*
G37*
G36*
X1052499D02*
X1047499D01*
Y1210501D01*
X1052499D01*
Y1205501D01*
D02*
G37*
G36*
X1084947Y1213000D02*
X1079947D01*
Y1218000D01*
X1084947D01*
Y1213000D01*
D02*
G37*
G36*
X1092447D02*
X1087447D01*
Y1218000D01*
X1092447D01*
Y1213000D01*
D02*
G37*
G36*
X1059999Y1205501D02*
X1054999D01*
Y1210501D01*
X1059999D01*
Y1205501D01*
D02*
G37*
G36*
X1077447Y1213000D02*
X1072447D01*
Y1218000D01*
X1077447D01*
Y1213000D01*
D02*
G37*
G36*
X1114947Y1205500D02*
X1109947D01*
Y1210500D01*
X1114947D01*
Y1205500D01*
D02*
G37*
G36*
X1122447D02*
X1117447D01*
Y1210500D01*
X1122447D01*
Y1205500D01*
D02*
G37*
G36*
X1092447D02*
X1087447D01*
Y1210500D01*
X1092447D01*
Y1205500D01*
D02*
G37*
G36*
X1099947D02*
X1094947D01*
Y1210500D01*
X1099947D01*
Y1205500D01*
D02*
G37*
G36*
X1177497Y1205501D02*
X1172497D01*
Y1210501D01*
X1177497D01*
Y1205501D01*
D02*
G37*
G36*
X1169997Y1205501D02*
X1164997D01*
Y1210501D01*
X1169997D01*
Y1205501D01*
D02*
G37*
G36*
X1044999Y1205501D02*
X1039999D01*
Y1210501D01*
X1044999D01*
Y1205501D01*
D02*
G37*
G36*
X1184997Y1205501D02*
X1179997D01*
Y1210501D01*
X1184997D01*
Y1205501D01*
D02*
G37*
G36*
X1162497Y1205501D02*
X1157497D01*
Y1210501D01*
X1162497D01*
Y1205501D01*
D02*
G37*
G36*
X1405052Y977001D02*
X1400052D01*
Y982001D01*
X1405052D01*
Y977001D01*
D02*
G37*
G36*
X1412552D02*
X1407552D01*
Y982001D01*
X1412552D01*
Y977001D01*
D02*
G37*
G36*
X1335002Y969501D02*
X1330002D01*
Y974501D01*
X1335002D01*
Y969501D01*
D02*
G37*
G36*
X1342502D02*
X1337502D01*
Y974501D01*
X1342502D01*
Y969501D01*
D02*
G37*
G36*
X1427552Y977001D02*
X1422552D01*
Y982001D01*
X1427552D01*
Y977001D01*
D02*
G37*
G36*
X1490000D02*
X1485000D01*
Y982001D01*
X1490000D01*
Y977001D01*
D02*
G37*
G36*
X1382552Y977001D02*
X1377552D01*
Y982001D01*
X1382552D01*
Y977001D01*
D02*
G37*
G36*
X1467500Y977001D02*
X1462500D01*
Y982001D01*
X1467500D01*
Y977001D01*
D02*
G37*
G36*
X1475000D02*
X1470000D01*
Y982001D01*
X1475000D01*
Y977001D01*
D02*
G37*
G36*
X1460000Y969501D02*
X1455000D01*
Y974501D01*
X1460000D01*
Y969501D01*
D02*
G37*
G36*
X1467500D02*
X1462500D01*
Y974501D01*
X1467500D01*
Y969501D01*
D02*
G37*
G36*
X1420052D02*
X1415052D01*
Y974501D01*
X1420052D01*
Y969501D01*
D02*
G37*
G36*
X1427552D02*
X1422552D01*
Y974501D01*
X1427552D01*
Y969501D01*
D02*
G37*
G36*
X1475000D02*
X1470000D01*
Y974501D01*
X1475000D01*
Y969501D01*
D02*
G37*
G36*
X1320002Y969501D02*
X1315002D01*
Y974501D01*
X1320002D01*
Y969501D01*
D02*
G37*
G36*
X1327502D02*
X1322502D01*
Y974501D01*
X1327502D01*
Y969501D01*
D02*
G37*
G36*
X1482500Y969501D02*
X1477500D01*
Y974501D01*
X1482500D01*
Y969501D01*
D02*
G37*
G36*
X1490000D02*
X1485000D01*
Y974501D01*
X1490000D01*
Y969501D01*
D02*
G37*
G36*
X1390052Y977001D02*
X1385052D01*
Y982001D01*
X1390052D01*
Y977001D01*
D02*
G37*
G36*
X1335002Y984501D02*
X1330002D01*
Y989501D01*
X1335002D01*
Y984501D01*
D02*
G37*
G36*
X1342502D02*
X1337502D01*
Y989501D01*
X1342502D01*
Y984501D01*
D02*
G37*
G36*
X1320002Y982001D02*
X1315002D01*
Y987001D01*
X1320002D01*
Y982001D01*
D02*
G37*
G36*
X1327502Y984501D02*
X1322502D01*
Y989501D01*
X1327502D01*
Y984501D01*
D02*
G37*
G36*
Y992001D02*
X1322502D01*
Y997001D01*
X1327502D01*
Y992001D01*
D02*
G37*
G36*
X1162497Y1023001D02*
X1157497D01*
Y1028001D01*
X1162497D01*
Y1023001D01*
D02*
G37*
G36*
X1169997D02*
X1164997D01*
Y1028001D01*
X1169997D01*
Y1023001D01*
D02*
G37*
G36*
X1335002Y992001D02*
X1330002D01*
Y997001D01*
X1335002D01*
Y992001D01*
D02*
G37*
G36*
X1342502D02*
X1337502D01*
Y997001D01*
X1342502D01*
Y992001D01*
D02*
G37*
G36*
X1445000Y977001D02*
X1440000D01*
Y982001D01*
X1445000D01*
Y977001D01*
D02*
G37*
G36*
X1452500D02*
X1447500D01*
Y982001D01*
X1452500D01*
Y977001D01*
D02*
G37*
G36*
X1397552D02*
X1392552D01*
Y982001D01*
X1397552D01*
Y977001D01*
D02*
G37*
G36*
X1420052D02*
X1415052D01*
Y982001D01*
X1420052D01*
Y977001D01*
D02*
G37*
G36*
X1460000D02*
X1455000D01*
Y982001D01*
X1460000D01*
Y977001D01*
D02*
G37*
G36*
X1335002Y977001D02*
X1330002D01*
Y982001D01*
X1335002D01*
Y977001D01*
D02*
G37*
G36*
X1342502D02*
X1337502D01*
Y982001D01*
X1342502D01*
Y977001D01*
D02*
G37*
G36*
X1482500Y977001D02*
X1477500D01*
Y982001D01*
X1482500D01*
Y977001D01*
D02*
G37*
G36*
X1327502Y977001D02*
X1322502D01*
Y982001D01*
X1327502D01*
Y977001D01*
D02*
G37*
G36*
X1342502Y954501D02*
X1337502D01*
Y959501D01*
X1342502D01*
Y954501D01*
D02*
G37*
G36*
X1320002Y957001D02*
X1315002D01*
Y962001D01*
X1320002D01*
Y957001D01*
D02*
G37*
G36*
X1327502Y954501D02*
X1322502D01*
Y959501D01*
X1327502D01*
Y954501D01*
D02*
G37*
G36*
X1335002D02*
X1330002D01*
Y959501D01*
X1335002D01*
Y954501D01*
D02*
G37*
G36*
X1382552Y962001D02*
X1377552D01*
Y967001D01*
X1382552D01*
Y962001D01*
D02*
G37*
G36*
X1397552Y962001D02*
X1392552D01*
Y967001D01*
X1397552D01*
Y962001D01*
D02*
G37*
G36*
X1420052D02*
X1415052D01*
Y967001D01*
X1420052D01*
Y962001D01*
D02*
G37*
G36*
X1445000Y962001D02*
X1440000D01*
Y967001D01*
X1445000D01*
Y962001D01*
D02*
G37*
G36*
X1390052Y962001D02*
X1385052D01*
Y967001D01*
X1390052D01*
Y962001D01*
D02*
G37*
G36*
X1342502Y947001D02*
X1337502D01*
Y952001D01*
X1342502D01*
Y947001D01*
D02*
G37*
G36*
X1417552Y954501D02*
X1412552D01*
Y959501D01*
X1417552D01*
Y954501D01*
D02*
G37*
G36*
X1327502Y947001D02*
X1322502D01*
Y952001D01*
X1327502D01*
Y947001D01*
D02*
G37*
G36*
X1335002D02*
X1330002D01*
Y952001D01*
X1335002D01*
Y947001D01*
D02*
G37*
G36*
X1480000Y954501D02*
X1475000D01*
Y959501D01*
X1480000D01*
Y954501D01*
D02*
G37*
G36*
X1455000Y954501D02*
X1450000D01*
Y959501D01*
X1455000D01*
Y954501D01*
D02*
G37*
G36*
X1467500D02*
X1462500D01*
Y959501D01*
X1467500D01*
Y954501D01*
D02*
G37*
G36*
X1392552D02*
X1387552D01*
Y959501D01*
X1392552D01*
Y954501D01*
D02*
G37*
G36*
X1405052D02*
X1400052D01*
Y959501D01*
X1405052D01*
Y954501D01*
D02*
G37*
G36*
X1452500Y962001D02*
X1447500D01*
Y967001D01*
X1452500D01*
Y962001D01*
D02*
G37*
G36*
X1382552Y969501D02*
X1377552D01*
Y974501D01*
X1382552D01*
Y969501D01*
D02*
G37*
G36*
X1390052D02*
X1385052D01*
Y974501D01*
X1390052D01*
Y969501D01*
D02*
G37*
G36*
X1335002Y962001D02*
X1330002D01*
Y967001D01*
X1335002D01*
Y962001D01*
D02*
G37*
G36*
X1342502D02*
X1337502D01*
Y967001D01*
X1342502D01*
Y962001D01*
D02*
G37*
G36*
X1445000Y969501D02*
X1440000D01*
Y974501D01*
X1445000D01*
Y969501D01*
D02*
G37*
G36*
X1405052Y969501D02*
X1400052D01*
Y974501D01*
X1405052D01*
Y969501D01*
D02*
G37*
G36*
X1412552D02*
X1407552D01*
Y974501D01*
X1412552D01*
Y969501D01*
D02*
G37*
G36*
X1452500Y969501D02*
X1447500D01*
Y974501D01*
X1452500D01*
Y969501D01*
D02*
G37*
G36*
X1397552Y969501D02*
X1392552D01*
Y974501D01*
X1397552D01*
Y969501D01*
D02*
G37*
G36*
X1405052Y962001D02*
X1400052D01*
Y967001D01*
X1405052D01*
Y962001D01*
D02*
G37*
G36*
X1412552D02*
X1407552D01*
Y967001D01*
X1412552D01*
Y962001D01*
D02*
G37*
G36*
X1460000Y962001D02*
X1455000D01*
Y967001D01*
X1460000D01*
Y962001D01*
D02*
G37*
G36*
X1482500D02*
X1477500D01*
Y967001D01*
X1482500D01*
Y962001D01*
D02*
G37*
G36*
X1427552Y962001D02*
X1422552D01*
Y967001D01*
X1427552D01*
Y962001D01*
D02*
G37*
G36*
X1490000D02*
X1485000D01*
Y967001D01*
X1490000D01*
Y962001D01*
D02*
G37*
G36*
X1327502Y962001D02*
X1322502D01*
Y967001D01*
X1327502D01*
Y962001D01*
D02*
G37*
G36*
X1467500Y962001D02*
X1462500D01*
Y967001D01*
X1467500D01*
Y962001D01*
D02*
G37*
G36*
X1475000D02*
X1470000D01*
Y967001D01*
X1475000D01*
Y962001D01*
D02*
G37*
G36*
X1177497Y1023001D02*
X1172497D01*
Y1028001D01*
X1177497D01*
Y1023001D01*
D02*
G37*
G36*
X1177497Y1053001D02*
X1172497D01*
Y1058001D01*
X1177497D01*
Y1053001D01*
D02*
G37*
G36*
X1077447Y1053001D02*
X1072447D01*
Y1058001D01*
X1077447D01*
Y1053001D01*
D02*
G37*
G36*
X1162497Y1053001D02*
X1157497D01*
Y1058001D01*
X1162497D01*
Y1053001D01*
D02*
G37*
G36*
X1169997D02*
X1164997D01*
Y1058001D01*
X1169997D01*
Y1053001D01*
D02*
G37*
G36*
X1084947Y1053001D02*
X1079947D01*
Y1058001D01*
X1084947D01*
Y1053001D01*
D02*
G37*
G36*
X1107447D02*
X1102447D01*
Y1058001D01*
X1107447D01*
Y1053001D01*
D02*
G37*
G36*
X1114947Y1053001D02*
X1109947D01*
Y1058001D01*
X1114947D01*
Y1053001D01*
D02*
G37*
G36*
X1092447Y1053001D02*
X1087447D01*
Y1058001D01*
X1092447D01*
Y1053001D01*
D02*
G37*
G36*
X1099947D02*
X1094947D01*
Y1058001D01*
X1099947D01*
Y1053001D01*
D02*
G37*
G36*
X1015000Y1053000D02*
X1010000D01*
Y1058000D01*
X1015000D01*
Y1053000D01*
D02*
G37*
G36*
X1022500D02*
X1017500D01*
Y1058000D01*
X1022500D01*
Y1053000D01*
D02*
G37*
G36*
X1114947Y1045501D02*
X1109947D01*
Y1050501D01*
X1114947D01*
Y1045501D01*
D02*
G37*
G36*
X1122447D02*
X1117447D01*
Y1050501D01*
X1122447D01*
Y1045501D01*
D02*
G37*
G36*
X1030000Y1053000D02*
X1025000D01*
Y1058000D01*
X1030000D01*
Y1053000D01*
D02*
G37*
G36*
X1052500Y1053000D02*
X1047500D01*
Y1058000D01*
X1052500D01*
Y1053000D01*
D02*
G37*
G36*
X1060000D02*
X1055000D01*
Y1058000D01*
X1060000D01*
Y1053000D01*
D02*
G37*
G36*
X1037500Y1053000D02*
X1032500D01*
Y1058000D01*
X1037500D01*
Y1053000D01*
D02*
G37*
G36*
X1045000D02*
X1040000D01*
Y1058000D01*
X1045000D01*
Y1053000D01*
D02*
G37*
G36*
X1122447Y1053001D02*
X1117447D01*
Y1058001D01*
X1122447D01*
Y1053001D01*
D02*
G37*
G36*
X1169997Y1068001D02*
X1164997D01*
Y1073001D01*
X1169997D01*
Y1068001D01*
D02*
G37*
G36*
X1177497D02*
X1172497D01*
Y1073001D01*
X1177497D01*
Y1068001D01*
D02*
G37*
G36*
X1112447Y1060501D02*
X1107447D01*
Y1065501D01*
X1112447D01*
Y1060501D01*
D02*
G37*
G36*
X1162497Y1068001D02*
X1157497D01*
Y1073001D01*
X1162497D01*
Y1068001D01*
D02*
G37*
G36*
X1327502Y1107001D02*
X1322502D01*
Y1112001D01*
X1327502D01*
Y1107001D01*
D02*
G37*
G36*
X1417552Y1114501D02*
X1412552D01*
Y1119501D01*
X1417552D01*
Y1114501D01*
D02*
G37*
G36*
X1480000D02*
X1475000D01*
Y1119501D01*
X1480000D01*
Y1114501D01*
D02*
G37*
G36*
X1335002Y1107001D02*
X1330002D01*
Y1112001D01*
X1335002D01*
Y1107001D01*
D02*
G37*
G36*
X1342502D02*
X1337502D01*
Y1112001D01*
X1342502D01*
Y1107001D01*
D02*
G37*
G36*
X1025000Y1060500D02*
X1020000D01*
Y1065500D01*
X1025000D01*
Y1060500D01*
D02*
G37*
G36*
X1050000D02*
X1045000D01*
Y1065500D01*
X1050000D01*
Y1060500D01*
D02*
G37*
G36*
X1184997Y1058001D02*
X1179997D01*
Y1063001D01*
X1184997D01*
Y1058001D01*
D02*
G37*
G36*
X1037500Y1060500D02*
X1032500D01*
Y1065500D01*
X1037500D01*
Y1060500D01*
D02*
G37*
G36*
X1162497Y1060501D02*
X1157497D01*
Y1065501D01*
X1162497D01*
Y1060501D01*
D02*
G37*
G36*
X1099947Y1060501D02*
X1094947D01*
Y1065501D01*
X1099947D01*
Y1060501D01*
D02*
G37*
G36*
X1087447Y1060501D02*
X1082447D01*
Y1065501D01*
X1087447D01*
Y1060501D01*
D02*
G37*
G36*
X1169997Y1060501D02*
X1164997D01*
Y1065501D01*
X1169997D01*
Y1060501D01*
D02*
G37*
G36*
X1177497D02*
X1172497D01*
Y1065501D01*
X1177497D01*
Y1060501D01*
D02*
G37*
G36*
X1162497Y1038001D02*
X1157497D01*
Y1043001D01*
X1162497D01*
Y1038001D01*
D02*
G37*
G36*
X1169997Y1038001D02*
X1164997D01*
Y1043001D01*
X1169997D01*
Y1038001D01*
D02*
G37*
G36*
X1030000Y1038000D02*
X1025000D01*
Y1043000D01*
X1030000D01*
Y1038000D01*
D02*
G37*
G36*
X1037500D02*
X1032500D01*
Y1043000D01*
X1037500D01*
Y1038000D01*
D02*
G37*
G36*
X1177497Y1038001D02*
X1172497D01*
Y1043001D01*
X1177497D01*
Y1038001D01*
D02*
G37*
G36*
X1122447Y1038001D02*
X1117447D01*
Y1043001D01*
X1122447D01*
Y1038001D01*
D02*
G37*
G36*
X1077447Y1038001D02*
X1072447D01*
Y1043001D01*
X1077447D01*
Y1038001D01*
D02*
G37*
G36*
X1107447Y1038001D02*
X1102447D01*
Y1043001D01*
X1107447D01*
Y1038001D01*
D02*
G37*
G36*
X1114947D02*
X1109947D01*
Y1043001D01*
X1114947D01*
Y1038001D01*
D02*
G37*
G36*
X1177497Y1030501D02*
X1172497D01*
Y1035501D01*
X1177497D01*
Y1030501D01*
D02*
G37*
G36*
X1184997Y1033001D02*
X1179997D01*
Y1038001D01*
X1184997D01*
Y1033001D01*
D02*
G37*
G36*
X1162497Y1030501D02*
X1157497D01*
Y1035501D01*
X1162497D01*
Y1030501D01*
D02*
G37*
G36*
X1169997D02*
X1164997D01*
Y1035501D01*
X1169997D01*
Y1030501D01*
D02*
G37*
G36*
X1045000Y1038000D02*
X1040000D01*
Y1043000D01*
X1045000D01*
Y1038000D01*
D02*
G37*
G36*
X1015000Y1038000D02*
X1010000D01*
Y1043000D01*
X1015000D01*
Y1038000D01*
D02*
G37*
G36*
X1022500D02*
X1017500D01*
Y1043000D01*
X1022500D01*
Y1038000D01*
D02*
G37*
G36*
X1052500Y1038000D02*
X1047500D01*
Y1043000D01*
X1052500D01*
Y1038000D01*
D02*
G37*
G36*
X1060000D02*
X1055000D01*
Y1043000D01*
X1060000D01*
Y1038000D01*
D02*
G37*
G36*
X1084947Y1038001D02*
X1079947D01*
Y1043001D01*
X1084947D01*
Y1038001D01*
D02*
G37*
G36*
X1162497Y1045501D02*
X1157497D01*
Y1050501D01*
X1162497D01*
Y1045501D01*
D02*
G37*
G36*
X1169997D02*
X1164997D01*
Y1050501D01*
X1169997D01*
Y1045501D01*
D02*
G37*
G36*
X1177497Y1045501D02*
X1172497D01*
Y1050501D01*
X1177497D01*
Y1045501D01*
D02*
G37*
G36*
X1184997D02*
X1179997D01*
Y1050501D01*
X1184997D01*
Y1045501D01*
D02*
G37*
G36*
X1107447Y1045501D02*
X1102447D01*
Y1050501D01*
X1107447D01*
Y1045501D01*
D02*
G37*
G36*
X1092447Y1045501D02*
X1087447D01*
Y1050501D01*
X1092447D01*
Y1045501D01*
D02*
G37*
G36*
X1099947D02*
X1094947D01*
Y1050501D01*
X1099947D01*
Y1045501D01*
D02*
G37*
G36*
X1077447D02*
X1072447D01*
Y1050501D01*
X1077447D01*
Y1045501D01*
D02*
G37*
G36*
X1084947D02*
X1079947D01*
Y1050501D01*
X1084947D01*
Y1045501D01*
D02*
G37*
G36*
X1045000Y1045500D02*
X1040000D01*
Y1050500D01*
X1045000D01*
Y1045500D01*
D02*
G37*
G36*
X1015000Y1045500D02*
X1010000D01*
Y1050500D01*
X1015000D01*
Y1045500D01*
D02*
G37*
G36*
X1092447Y1038001D02*
X1087447D01*
Y1043001D01*
X1092447D01*
Y1038001D01*
D02*
G37*
G36*
X1099947D02*
X1094947D01*
Y1043001D01*
X1099947D01*
Y1038001D01*
D02*
G37*
G36*
X1022500Y1045500D02*
X1017500D01*
Y1050500D01*
X1022500D01*
Y1045500D01*
D02*
G37*
G36*
X1052500D02*
X1047500D01*
Y1050500D01*
X1052500D01*
Y1045500D01*
D02*
G37*
G36*
X1060000D02*
X1055000D01*
Y1050500D01*
X1060000D01*
Y1045500D01*
D02*
G37*
G36*
X1030000D02*
X1025000D01*
Y1050500D01*
X1030000D01*
Y1045500D01*
D02*
G37*
G36*
X1037500D02*
X1032500D01*
Y1050500D01*
X1037500D01*
Y1045500D01*
D02*
G37*
G36*
X1335002Y1273501D02*
X1330002D01*
Y1278501D01*
X1335002D01*
Y1273501D01*
D02*
G37*
G36*
X1327505Y1457002D02*
X1322505D01*
Y1462002D01*
X1327505D01*
Y1457002D01*
D02*
G37*
G36*
X1335005D02*
X1330005D01*
Y1462002D01*
X1335005D01*
Y1457002D01*
D02*
G37*
G36*
X1460000Y1457000D02*
X1455000D01*
Y1462000D01*
X1460000D01*
Y1457000D01*
D02*
G37*
G36*
X1482500D02*
X1477500D01*
Y1462000D01*
X1482500D01*
Y1457000D01*
D02*
G37*
G36*
X1342505Y1457002D02*
X1337505D01*
Y1462002D01*
X1342505D01*
Y1457002D01*
D02*
G37*
G36*
X1335005Y1464502D02*
X1330005D01*
Y1469502D01*
X1335005D01*
Y1464502D01*
D02*
G37*
G36*
X1342505D02*
X1337505D01*
Y1469502D01*
X1342505D01*
Y1464502D01*
D02*
G37*
G36*
X1320005Y1462002D02*
X1315005D01*
Y1467002D01*
X1320005D01*
Y1462002D01*
D02*
G37*
G36*
X1327505Y1464502D02*
X1322505D01*
Y1469502D01*
X1327505D01*
Y1464502D01*
D02*
G37*
G36*
X1490000Y1457000D02*
X1485000D01*
Y1462000D01*
X1490000D01*
Y1457000D01*
D02*
G37*
G36*
X1382550Y1457000D02*
X1377550D01*
Y1462000D01*
X1382550D01*
Y1457000D01*
D02*
G37*
G36*
X1467500Y1457000D02*
X1462500D01*
Y1462000D01*
X1467500D01*
Y1457000D01*
D02*
G37*
G36*
X1475000D02*
X1470000D01*
Y1462000D01*
X1475000D01*
Y1457000D01*
D02*
G37*
G36*
X1390050Y1457000D02*
X1385050D01*
Y1462000D01*
X1390050D01*
Y1457000D01*
D02*
G37*
G36*
X1445000D02*
X1440000D01*
Y1462000D01*
X1445000D01*
Y1457000D01*
D02*
G37*
G36*
X1452500D02*
X1447500D01*
Y1462000D01*
X1452500D01*
Y1457000D01*
D02*
G37*
G36*
X1397550D02*
X1392550D01*
Y1462000D01*
X1397550D01*
Y1457000D01*
D02*
G37*
G36*
X1420050D02*
X1415050D01*
Y1462000D01*
X1420050D01*
Y1457000D01*
D02*
G37*
G36*
X1169997Y1518001D02*
X1164997D01*
Y1523001D01*
X1169997D01*
Y1518001D01*
D02*
G37*
G36*
X1177497D02*
X1172497D01*
Y1523001D01*
X1177497D01*
Y1518001D01*
D02*
G37*
G36*
X1184997Y1513001D02*
X1179997D01*
Y1518001D01*
X1184997D01*
Y1513001D01*
D02*
G37*
G36*
X1162497Y1518001D02*
X1157497D01*
Y1523001D01*
X1162497D01*
Y1518001D01*
D02*
G37*
G36*
X1044999Y1518001D02*
X1039999D01*
Y1523001D01*
X1044999D01*
Y1518001D01*
D02*
G37*
G36*
X1107447D02*
X1102447D01*
Y1523001D01*
X1107447D01*
Y1518001D01*
D02*
G37*
G36*
X1114947D02*
X1109947D01*
Y1523001D01*
X1114947D01*
Y1518001D01*
D02*
G37*
G36*
X1052499D02*
X1047499D01*
Y1523001D01*
X1052499D01*
Y1518001D01*
D02*
G37*
G36*
X1059999D02*
X1054999D01*
Y1523001D01*
X1059999D01*
Y1518001D01*
D02*
G37*
G36*
X1342505Y1472002D02*
X1337505D01*
Y1477002D01*
X1342505D01*
Y1472002D01*
D02*
G37*
G36*
X1162497Y1503001D02*
X1157497D01*
Y1508001D01*
X1162497D01*
Y1503001D01*
D02*
G37*
G36*
X1327505Y1472002D02*
X1322505D01*
Y1477002D01*
X1327505D01*
Y1472002D01*
D02*
G37*
G36*
X1335005D02*
X1330005D01*
Y1477002D01*
X1335005D01*
Y1472002D01*
D02*
G37*
G36*
X1169997Y1503001D02*
X1164997D01*
Y1508001D01*
X1169997D01*
Y1503001D01*
D02*
G37*
G36*
Y1510501D02*
X1164997D01*
Y1515501D01*
X1169997D01*
Y1510501D01*
D02*
G37*
G36*
X1177497D02*
X1172497D01*
Y1515501D01*
X1177497D01*
Y1510501D01*
D02*
G37*
G36*
X1177497Y1503001D02*
X1172497D01*
Y1508001D01*
X1177497D01*
Y1503001D01*
D02*
G37*
G36*
X1162497Y1510501D02*
X1157497D01*
Y1515501D01*
X1162497D01*
Y1510501D01*
D02*
G37*
G36*
X1427550Y1457000D02*
X1422550D01*
Y1462000D01*
X1427550D01*
Y1457000D01*
D02*
G37*
G36*
X1475000Y1442000D02*
X1470000D01*
Y1447000D01*
X1475000D01*
Y1442000D01*
D02*
G37*
G36*
X1490000D02*
X1485000D01*
Y1447000D01*
X1490000D01*
Y1442000D01*
D02*
G37*
G36*
X1427550D02*
X1422550D01*
Y1447000D01*
X1427550D01*
Y1442000D01*
D02*
G37*
G36*
X1467500D02*
X1462500D01*
Y1447000D01*
X1467500D01*
Y1442000D01*
D02*
G37*
G36*
X1327505Y1442002D02*
X1322505D01*
Y1447002D01*
X1327505D01*
Y1442002D01*
D02*
G37*
G36*
X1382550Y1449500D02*
X1377550D01*
Y1454500D01*
X1382550D01*
Y1449500D01*
D02*
G37*
G36*
X1390050D02*
X1385050D01*
Y1454500D01*
X1390050D01*
Y1449500D01*
D02*
G37*
G36*
X1335005Y1442002D02*
X1330005D01*
Y1447002D01*
X1335005D01*
Y1442002D01*
D02*
G37*
G36*
X1342505D02*
X1337505D01*
Y1447002D01*
X1342505D01*
Y1442002D01*
D02*
G37*
G36*
X1397550Y1442000D02*
X1392550D01*
Y1447000D01*
X1397550D01*
Y1442000D01*
D02*
G37*
G36*
X1420050D02*
X1415050D01*
Y1447000D01*
X1420050D01*
Y1442000D01*
D02*
G37*
G36*
X1445000Y1442000D02*
X1440000D01*
Y1447000D01*
X1445000D01*
Y1442000D01*
D02*
G37*
G36*
X1390050Y1442000D02*
X1385050D01*
Y1447000D01*
X1390050D01*
Y1442000D01*
D02*
G37*
G36*
X1452500D02*
X1447500D01*
Y1447000D01*
X1452500D01*
Y1442000D01*
D02*
G37*
G36*
X1405050Y1442000D02*
X1400050D01*
Y1447000D01*
X1405050D01*
Y1442000D01*
D02*
G37*
G36*
X1412550D02*
X1407550D01*
Y1447000D01*
X1412550D01*
Y1442000D01*
D02*
G37*
G36*
X1460000Y1442000D02*
X1455000D01*
Y1447000D01*
X1460000D01*
Y1442000D01*
D02*
G37*
G36*
X1482500D02*
X1477500D01*
Y1447000D01*
X1482500D01*
Y1442000D01*
D02*
G37*
G36*
X1490000Y1449500D02*
X1485000D01*
Y1454500D01*
X1490000D01*
Y1449500D01*
D02*
G37*
G36*
X1320005Y1449502D02*
X1315005D01*
Y1454502D01*
X1320005D01*
Y1449502D01*
D02*
G37*
G36*
X1475000Y1449500D02*
X1470000D01*
Y1454500D01*
X1475000D01*
Y1449500D01*
D02*
G37*
G36*
X1482500D02*
X1477500D01*
Y1454500D01*
X1482500D01*
Y1449500D01*
D02*
G37*
G36*
X1327505Y1449502D02*
X1322505D01*
Y1454502D01*
X1327505D01*
Y1449502D01*
D02*
G37*
G36*
X1405050Y1457000D02*
X1400050D01*
Y1462000D01*
X1405050D01*
Y1457000D01*
D02*
G37*
G36*
X1412550D02*
X1407550D01*
Y1462000D01*
X1412550D01*
Y1457000D01*
D02*
G37*
G36*
X1335005Y1449502D02*
X1330005D01*
Y1454502D01*
X1335005D01*
Y1449502D01*
D02*
G37*
G36*
X1342505D02*
X1337505D01*
Y1454502D01*
X1342505D01*
Y1449502D01*
D02*
G37*
G36*
X1397550Y1449500D02*
X1392550D01*
Y1454500D01*
X1397550D01*
Y1449500D01*
D02*
G37*
G36*
X1405050D02*
X1400050D01*
Y1454500D01*
X1405050D01*
Y1449500D01*
D02*
G37*
G36*
X1445000Y1449500D02*
X1440000D01*
Y1454500D01*
X1445000D01*
Y1449500D01*
D02*
G37*
G36*
X1452500D02*
X1447500D01*
Y1454500D01*
X1452500D01*
Y1449500D01*
D02*
G37*
G36*
X1412550Y1449500D02*
X1407550D01*
Y1454500D01*
X1412550D01*
Y1449500D01*
D02*
G37*
G36*
X1460000D02*
X1455000D01*
Y1454500D01*
X1460000D01*
Y1449500D01*
D02*
G37*
G36*
X1467500D02*
X1462500D01*
Y1454500D01*
X1467500D01*
Y1449500D01*
D02*
G37*
G36*
X1420050D02*
X1415050D01*
Y1454500D01*
X1420050D01*
Y1449500D01*
D02*
G37*
G36*
X1427550D02*
X1422550D01*
Y1454500D01*
X1427550D01*
Y1449500D01*
D02*
G37*
G36*
X1122447Y1518001D02*
X1117447D01*
Y1523001D01*
X1122447D01*
Y1518001D01*
D02*
G37*
G36*
X1099947Y1540501D02*
X1094947D01*
Y1545501D01*
X1099947D01*
Y1540501D01*
D02*
G37*
G36*
X1024999Y1540501D02*
X1019999D01*
Y1545501D01*
X1024999D01*
Y1540501D01*
D02*
G37*
G36*
X1177497Y1540501D02*
X1172497D01*
Y1545501D01*
X1177497D01*
Y1540501D01*
D02*
G37*
G36*
X1037499Y1540501D02*
X1032499D01*
Y1545501D01*
X1037499D01*
Y1540501D01*
D02*
G37*
G36*
X1049999Y1540501D02*
X1044999D01*
Y1545501D01*
X1049999D01*
Y1540501D01*
D02*
G37*
G36*
X1162497Y1548001D02*
X1157497D01*
Y1553001D01*
X1162497D01*
Y1548001D01*
D02*
G37*
G36*
X1169997D02*
X1164997D01*
Y1553001D01*
X1169997D01*
Y1548001D01*
D02*
G37*
G36*
X1087447Y1540501D02*
X1082447D01*
Y1545501D01*
X1087447D01*
Y1540501D01*
D02*
G37*
G36*
X1112447D02*
X1107447D01*
Y1545501D01*
X1112447D01*
Y1540501D01*
D02*
G37*
G36*
X1052499Y1533001D02*
X1047499D01*
Y1538001D01*
X1052499D01*
Y1533001D01*
D02*
G37*
G36*
X1059999D02*
X1054999D01*
Y1538001D01*
X1059999D01*
Y1533001D01*
D02*
G37*
G36*
X1099947Y1533001D02*
X1094947D01*
Y1538001D01*
X1099947D01*
Y1533001D01*
D02*
G37*
G36*
X1107447D02*
X1102447D01*
Y1538001D01*
X1107447D01*
Y1533001D01*
D02*
G37*
G36*
X1114947Y1533001D02*
X1109947D01*
Y1538001D01*
X1114947D01*
Y1533001D01*
D02*
G37*
G36*
X1162497Y1540501D02*
X1157497D01*
Y1545501D01*
X1162497D01*
Y1540501D01*
D02*
G37*
G36*
X1169997D02*
X1164997D01*
Y1545501D01*
X1169997D01*
Y1540501D01*
D02*
G37*
G36*
X1122447Y1533001D02*
X1117447D01*
Y1538001D01*
X1122447D01*
Y1533001D01*
D02*
G37*
G36*
X1184997Y1538001D02*
X1179997D01*
Y1543001D01*
X1184997D01*
Y1538001D01*
D02*
G37*
G36*
X1679600Y2088750D02*
X1661600D01*
Y2106750D01*
X1679600D01*
Y2088750D01*
D02*
G37*
G36*
X1700600D02*
X1682600D01*
Y2106750D01*
X1700600D01*
Y2088750D01*
D02*
G37*
G36*
X1637600D02*
X1619600D01*
Y2106750D01*
X1637600D01*
Y2088750D01*
D02*
G37*
G36*
X1658600D02*
X1640600D01*
Y2106750D01*
X1658600D01*
Y2088750D01*
D02*
G37*
G36*
X1616600Y2109750D02*
X1598600D01*
Y2127750D01*
X1616600D01*
Y2109750D01*
D02*
G37*
G36*
X1679600D02*
X1661600D01*
Y2127750D01*
X1679600D01*
Y2109750D01*
D02*
G37*
G36*
X1700600D02*
X1682600D01*
Y2127750D01*
X1700600D01*
Y2109750D01*
D02*
G37*
G36*
X1637600D02*
X1619600D01*
Y2127750D01*
X1637600D01*
Y2109750D01*
D02*
G37*
G36*
X1658600D02*
X1640600D01*
Y2127750D01*
X1658600D01*
Y2109750D01*
D02*
G37*
G36*
X1700600Y2025750D02*
X1682600D01*
Y2043750D01*
X1700600D01*
Y2025750D01*
D02*
G37*
G36*
X1616600Y2046750D02*
X1598600D01*
Y2064750D01*
X1616600D01*
Y2046750D01*
D02*
G37*
G36*
X1177497Y1548001D02*
X1172497D01*
Y1553001D01*
X1177497D01*
Y1548001D01*
D02*
G37*
G36*
X1616600Y2025750D02*
X1598600D01*
Y2043750D01*
X1616600D01*
Y2025750D01*
D02*
G37*
G36*
X1700600Y2046750D02*
X1682600D01*
Y2064750D01*
X1700600D01*
Y2046750D01*
D02*
G37*
G36*
X1674605Y2085750D02*
X1679600D01*
Y2067750D01*
X1674605D01*
Y2064750D01*
X1679600D01*
Y2046750D01*
X1674605D01*
Y2043750D01*
X1679600D01*
Y2025750D01*
X1661600D01*
Y2030751D01*
X1658600D01*
Y2025750D01*
X1640600D01*
Y2030751D01*
X1637600D01*
Y2025750D01*
X1619600D01*
Y2043750D01*
X1624605D01*
Y2046750D01*
X1619600D01*
Y2064750D01*
X1624605D01*
Y2067750D01*
X1619600D01*
Y2085750D01*
X1624605D01*
Y2085751D01*
X1646605D01*
Y2085750D01*
X1652605D01*
Y2085751D01*
X1674605D01*
Y2085750D01*
D02*
G37*
G36*
X1616600Y2088750D02*
X1598600D01*
Y2106750D01*
X1616600D01*
Y2088750D01*
D02*
G37*
G36*
Y2067750D02*
X1598600D01*
Y2085750D01*
X1616600D01*
Y2067750D01*
D02*
G37*
G36*
X1700600D02*
X1682600D01*
Y2085750D01*
X1700600D01*
Y2067750D01*
D02*
G37*
G36*
X1092447Y1533001D02*
X1087447D01*
Y1538001D01*
X1092447D01*
Y1533001D01*
D02*
G37*
G36*
X1169997Y1525501D02*
X1164997D01*
Y1530501D01*
X1169997D01*
Y1525501D01*
D02*
G37*
G36*
X1044999Y1525501D02*
X1039999D01*
Y1530501D01*
X1044999D01*
Y1525501D01*
D02*
G37*
G36*
X1184997Y1525501D02*
X1179997D01*
Y1530501D01*
X1184997D01*
Y1525501D01*
D02*
G37*
G36*
X1162497Y1525501D02*
X1157497D01*
Y1530501D01*
X1162497D01*
Y1525501D01*
D02*
G37*
G36*
X1107447Y1525501D02*
X1102447D01*
Y1530501D01*
X1107447D01*
Y1525501D01*
D02*
G37*
G36*
X1029999Y1525501D02*
X1024999D01*
Y1530501D01*
X1029999D01*
Y1525501D01*
D02*
G37*
G36*
X1037499D02*
X1032499D01*
Y1530501D01*
X1037499D01*
Y1525501D01*
D02*
G37*
G36*
X1014999D02*
X1009999D01*
Y1530501D01*
X1014999D01*
Y1525501D01*
D02*
G37*
G36*
X1022499D02*
X1017499D01*
Y1530501D01*
X1022499D01*
Y1525501D01*
D02*
G37*
G36*
X1029999Y1518001D02*
X1024999D01*
Y1523001D01*
X1029999D01*
Y1518001D01*
D02*
G37*
G36*
X1037499D02*
X1032499D01*
Y1523001D01*
X1037499D01*
Y1518001D01*
D02*
G37*
G36*
X1014999D02*
X1009999D01*
Y1523001D01*
X1014999D01*
Y1518001D01*
D02*
G37*
G36*
X1022499D02*
X1017499D01*
Y1523001D01*
X1022499D01*
Y1518001D01*
D02*
G37*
G36*
X1077447D02*
X1072447D01*
Y1523001D01*
X1077447D01*
Y1518001D01*
D02*
G37*
G36*
X1099947D02*
X1094947D01*
Y1523001D01*
X1099947D01*
Y1518001D01*
D02*
G37*
G36*
X1177497Y1525501D02*
X1172497D01*
Y1530501D01*
X1177497D01*
Y1525501D01*
D02*
G37*
G36*
X1084947Y1518001D02*
X1079947D01*
Y1523001D01*
X1084947D01*
Y1518001D01*
D02*
G37*
G36*
X1092447D02*
X1087447D01*
Y1523001D01*
X1092447D01*
Y1518001D01*
D02*
G37*
G36*
X1014999Y1533001D02*
X1009999D01*
Y1538001D01*
X1014999D01*
Y1533001D01*
D02*
G37*
G36*
X1022499D02*
X1017499D01*
Y1538001D01*
X1022499D01*
Y1533001D01*
D02*
G37*
G36*
X1169997Y1533001D02*
X1164997D01*
Y1538001D01*
X1169997D01*
Y1533001D01*
D02*
G37*
G36*
X1177497D02*
X1172497D01*
Y1538001D01*
X1177497D01*
Y1533001D01*
D02*
G37*
G36*
X1029999Y1533001D02*
X1024999D01*
Y1538001D01*
X1029999D01*
Y1533001D01*
D02*
G37*
G36*
X1077447D02*
X1072447D01*
Y1538001D01*
X1077447D01*
Y1533001D01*
D02*
G37*
G36*
X1084947D02*
X1079947D01*
Y1538001D01*
X1084947D01*
Y1533001D01*
D02*
G37*
G36*
X1037499D02*
X1032499D01*
Y1538001D01*
X1037499D01*
Y1533001D01*
D02*
G37*
G36*
X1044999D02*
X1039999D01*
Y1538001D01*
X1044999D01*
Y1533001D01*
D02*
G37*
G36*
X1077447Y1525501D02*
X1072447D01*
Y1530501D01*
X1077447D01*
Y1525501D01*
D02*
G37*
G36*
X1084947D02*
X1079947D01*
Y1530501D01*
X1084947D01*
Y1525501D01*
D02*
G37*
G36*
X1052499D02*
X1047499D01*
Y1530501D01*
X1052499D01*
Y1525501D01*
D02*
G37*
G36*
X1059999D02*
X1054999D01*
Y1530501D01*
X1059999D01*
Y1525501D01*
D02*
G37*
G36*
X1092447D02*
X1087447D01*
Y1530501D01*
X1092447D01*
Y1525501D01*
D02*
G37*
G36*
X1122447D02*
X1117447D01*
Y1530501D01*
X1122447D01*
Y1525501D01*
D02*
G37*
G36*
X1162497Y1533001D02*
X1157497D01*
Y1538001D01*
X1162497D01*
Y1533001D01*
D02*
G37*
G36*
X1099947Y1525501D02*
X1094947D01*
Y1530501D01*
X1099947D01*
Y1525501D01*
D02*
G37*
G36*
X1114947D02*
X1109947D01*
Y1530501D01*
X1114947D01*
Y1525501D01*
D02*
G37*
G36*
X1452500Y1296001D02*
X1447500D01*
Y1301001D01*
X1452500D01*
Y1296001D01*
D02*
G37*
G36*
X1460000D02*
X1455000D01*
Y1301001D01*
X1460000D01*
Y1296001D01*
D02*
G37*
G36*
X1420052D02*
X1415052D01*
Y1301001D01*
X1420052D01*
Y1296001D01*
D02*
G37*
G36*
X1445000D02*
X1440000D01*
Y1301001D01*
X1445000D01*
Y1296001D01*
D02*
G37*
G36*
X1482500D02*
X1477500D01*
Y1301001D01*
X1482500D01*
Y1296001D01*
D02*
G37*
G36*
X1342502Y1296001D02*
X1337502D01*
Y1301001D01*
X1342502D01*
Y1296001D01*
D02*
G37*
G36*
X1320002Y1301001D02*
X1315002D01*
Y1306001D01*
X1320002D01*
Y1301001D01*
D02*
G37*
G36*
X1327502Y1296001D02*
X1322502D01*
Y1301001D01*
X1327502D01*
Y1296001D01*
D02*
G37*
G36*
X1335002D02*
X1330002D01*
Y1301001D01*
X1335002D01*
Y1296001D01*
D02*
G37*
G36*
X1427552Y1296001D02*
X1422552D01*
Y1301001D01*
X1427552D01*
Y1296001D01*
D02*
G37*
G36*
X1467500D02*
X1462500D01*
Y1301001D01*
X1467500D01*
Y1296001D01*
D02*
G37*
G36*
X1405052D02*
X1400052D01*
Y1301001D01*
X1405052D01*
Y1296001D01*
D02*
G37*
G36*
X1412552D02*
X1407552D01*
Y1301001D01*
X1412552D01*
Y1296001D01*
D02*
G37*
G36*
X1475000D02*
X1470000D01*
Y1301001D01*
X1475000D01*
Y1296001D01*
D02*
G37*
G36*
X1390052Y1296001D02*
X1385052D01*
Y1301001D01*
X1390052D01*
Y1296001D01*
D02*
G37*
G36*
X1397552D02*
X1392552D01*
Y1301001D01*
X1397552D01*
Y1296001D01*
D02*
G37*
G36*
X1490000Y1296001D02*
X1485000D01*
Y1301001D01*
X1490000D01*
Y1296001D01*
D02*
G37*
G36*
X1382552Y1296001D02*
X1377552D01*
Y1301001D01*
X1382552D01*
Y1296001D01*
D02*
G37*
G36*
X1177497Y1350500D02*
X1172497D01*
Y1355500D01*
X1177497D01*
Y1350500D01*
D02*
G37*
G36*
X1184997Y1353000D02*
X1179997D01*
Y1358000D01*
X1184997D01*
Y1353000D01*
D02*
G37*
G36*
X1162497Y1350500D02*
X1157497D01*
Y1355500D01*
X1162497D01*
Y1350500D01*
D02*
G37*
G36*
X1169997D02*
X1164997D01*
Y1355500D01*
X1169997D01*
Y1350500D01*
D02*
G37*
G36*
X1162497Y1358000D02*
X1157497D01*
Y1363000D01*
X1162497D01*
Y1358000D01*
D02*
G37*
G36*
X1044999Y1358001D02*
X1039999D01*
Y1363001D01*
X1044999D01*
Y1358001D01*
D02*
G37*
G36*
X1052499D02*
X1047499D01*
Y1363001D01*
X1052499D01*
Y1358001D01*
D02*
G37*
G36*
X1169997Y1358000D02*
X1164997D01*
Y1363000D01*
X1169997D01*
Y1358000D01*
D02*
G37*
G36*
X1177497D02*
X1172497D01*
Y1363000D01*
X1177497D01*
Y1358000D01*
D02*
G37*
G36*
X1342502Y1303501D02*
X1337502D01*
Y1308501D01*
X1342502D01*
Y1303501D01*
D02*
G37*
G36*
X1327502Y1311001D02*
X1322502D01*
Y1316001D01*
X1327502D01*
Y1311001D01*
D02*
G37*
G36*
Y1303501D02*
X1322502D01*
Y1308501D01*
X1327502D01*
Y1303501D01*
D02*
G37*
G36*
X1335002D02*
X1330002D01*
Y1308501D01*
X1335002D01*
Y1303501D01*
D02*
G37*
G36*
Y1311001D02*
X1330002D01*
Y1316001D01*
X1335002D01*
Y1311001D01*
D02*
G37*
G36*
X1169997Y1343000D02*
X1164997D01*
Y1348000D01*
X1169997D01*
Y1343000D01*
D02*
G37*
G36*
X1177497D02*
X1172497D01*
Y1348000D01*
X1177497D01*
Y1343000D01*
D02*
G37*
G36*
X1342502Y1311001D02*
X1337502D01*
Y1316001D01*
X1342502D01*
Y1311001D01*
D02*
G37*
G36*
X1162497Y1343000D02*
X1157497D01*
Y1348000D01*
X1162497D01*
Y1343000D01*
D02*
G37*
G36*
X1342502Y1288501D02*
X1337502D01*
Y1293501D01*
X1342502D01*
Y1288501D01*
D02*
G37*
G36*
X1412552Y1281001D02*
X1407552D01*
Y1286001D01*
X1412552D01*
Y1281001D01*
D02*
G37*
G36*
X1427552D02*
X1422552D01*
Y1286001D01*
X1427552D01*
Y1281001D01*
D02*
G37*
G36*
X1482500Y1281001D02*
X1477500D01*
Y1286001D01*
X1482500D01*
Y1281001D01*
D02*
G37*
G36*
X1405052Y1281001D02*
X1400052D01*
Y1286001D01*
X1405052D01*
Y1281001D01*
D02*
G37*
G36*
X1467500D02*
X1462500D01*
Y1286001D01*
X1467500D01*
Y1281001D01*
D02*
G37*
G36*
X1327502Y1281001D02*
X1322502D01*
Y1286001D01*
X1327502D01*
Y1281001D01*
D02*
G37*
G36*
X1335002D02*
X1330002D01*
Y1286001D01*
X1335002D01*
Y1281001D01*
D02*
G37*
G36*
X1475000Y1281001D02*
X1470000D01*
Y1286001D01*
X1475000D01*
Y1281001D01*
D02*
G37*
G36*
X1490000D02*
X1485000D01*
Y1286001D01*
X1490000D01*
Y1281001D01*
D02*
G37*
G36*
X1382552Y1281001D02*
X1377552D01*
Y1286001D01*
X1382552D01*
Y1281001D01*
D02*
G37*
G36*
X1445000D02*
X1440000D01*
Y1286001D01*
X1445000D01*
Y1281001D01*
D02*
G37*
G36*
X1342502Y1273501D02*
X1337502D01*
Y1278501D01*
X1342502D01*
Y1273501D01*
D02*
G37*
G36*
X1320002Y1276001D02*
X1315002D01*
Y1281001D01*
X1320002D01*
Y1276001D01*
D02*
G37*
G36*
X1390052Y1281001D02*
X1385052D01*
Y1286001D01*
X1390052D01*
Y1281001D01*
D02*
G37*
G36*
X1452500D02*
X1447500D01*
Y1286001D01*
X1452500D01*
Y1281001D01*
D02*
G37*
G36*
X1460000D02*
X1455000D01*
Y1286001D01*
X1460000D01*
Y1281001D01*
D02*
G37*
G36*
X1397552D02*
X1392552D01*
Y1286001D01*
X1397552D01*
Y1281001D01*
D02*
G37*
G36*
X1420052D02*
X1415052D01*
Y1286001D01*
X1420052D01*
Y1281001D01*
D02*
G37*
G36*
X1467500Y1288501D02*
X1462500D01*
Y1293501D01*
X1467500D01*
Y1288501D01*
D02*
G37*
G36*
X1475000D02*
X1470000D01*
Y1293501D01*
X1475000D01*
Y1288501D01*
D02*
G37*
G36*
X1427552D02*
X1422552D01*
Y1293501D01*
X1427552D01*
Y1288501D01*
D02*
G37*
G36*
X1460000D02*
X1455000D01*
Y1293501D01*
X1460000D01*
Y1288501D01*
D02*
G37*
G36*
X1482500D02*
X1477500D01*
Y1293501D01*
X1482500D01*
Y1288501D01*
D02*
G37*
G36*
X1327502Y1288501D02*
X1322502D01*
Y1293501D01*
X1327502D01*
Y1288501D01*
D02*
G37*
G36*
X1335002D02*
X1330002D01*
Y1293501D01*
X1335002D01*
Y1288501D01*
D02*
G37*
G36*
X1490000Y1288501D02*
X1485000D01*
Y1293501D01*
X1490000D01*
Y1288501D01*
D02*
G37*
G36*
X1320002Y1288501D02*
X1315002D01*
Y1293501D01*
X1320002D01*
Y1288501D01*
D02*
G37*
G36*
X1390052Y1288501D02*
X1385052D01*
Y1293501D01*
X1390052D01*
Y1288501D01*
D02*
G37*
G36*
X1445000D02*
X1440000D01*
Y1293501D01*
X1445000D01*
Y1288501D01*
D02*
G37*
G36*
X1342502Y1281001D02*
X1337502D01*
Y1286001D01*
X1342502D01*
Y1281001D01*
D02*
G37*
G36*
X1382552Y1288501D02*
X1377552D01*
Y1293501D01*
X1382552D01*
Y1288501D01*
D02*
G37*
G36*
X1452500D02*
X1447500D01*
Y1293501D01*
X1452500D01*
Y1288501D01*
D02*
G37*
G36*
X1412552Y1288501D02*
X1407552D01*
Y1293501D01*
X1412552D01*
Y1288501D01*
D02*
G37*
G36*
X1420052D02*
X1415052D01*
Y1293501D01*
X1420052D01*
Y1288501D01*
D02*
G37*
G36*
X1397552D02*
X1392552D01*
Y1293501D01*
X1397552D01*
Y1288501D01*
D02*
G37*
G36*
X1405052D02*
X1400052D01*
Y1293501D01*
X1405052D01*
Y1288501D01*
D02*
G37*
G36*
X1059999Y1358001D02*
X1054999D01*
Y1363001D01*
X1059999D01*
Y1358001D01*
D02*
G37*
G36*
X1169997Y1380500D02*
X1164997D01*
Y1385500D01*
X1169997D01*
Y1380500D01*
D02*
G37*
G36*
X1177497D02*
X1172497D01*
Y1385500D01*
X1177497D01*
Y1380500D01*
D02*
G37*
G36*
X1184997Y1378000D02*
X1179997D01*
Y1383000D01*
X1184997D01*
Y1378000D01*
D02*
G37*
G36*
X1162497Y1380500D02*
X1157497D01*
Y1385500D01*
X1162497D01*
Y1380500D01*
D02*
G37*
G36*
X1037499Y1380501D02*
X1032499D01*
Y1385501D01*
X1037499D01*
Y1380501D01*
D02*
G37*
G36*
X1049999Y1380501D02*
X1044999D01*
Y1385501D01*
X1049999D01*
Y1380501D01*
D02*
G37*
G36*
X1087447D02*
X1082447D01*
Y1385501D01*
X1087447D01*
Y1380501D01*
D02*
G37*
G36*
X1099947Y1380501D02*
X1094947D01*
Y1385501D01*
X1099947D01*
Y1380501D01*
D02*
G37*
G36*
X1024999Y1380501D02*
X1019999D01*
Y1385501D01*
X1024999D01*
Y1380501D01*
D02*
G37*
G36*
X1092447Y1373001D02*
X1087447D01*
Y1378001D01*
X1092447D01*
Y1373001D01*
D02*
G37*
G36*
X1099947D02*
X1094947D01*
Y1378001D01*
X1099947D01*
Y1373001D01*
D02*
G37*
G36*
X1077447D02*
X1072447D01*
Y1378001D01*
X1077447D01*
Y1373001D01*
D02*
G37*
G36*
X1084947D02*
X1079947D01*
Y1378001D01*
X1084947D01*
Y1373001D01*
D02*
G37*
G36*
X1107447D02*
X1102447D01*
Y1378001D01*
X1107447D01*
Y1373001D01*
D02*
G37*
G36*
X1114947Y1373001D02*
X1109947D01*
Y1378001D01*
X1114947D01*
Y1373001D01*
D02*
G37*
G36*
X1122447D02*
X1117447D01*
Y1378001D01*
X1122447D01*
Y1373001D01*
D02*
G37*
G36*
X1052499D02*
X1047499D01*
Y1378001D01*
X1052499D01*
Y1373001D01*
D02*
G37*
G36*
X1059999D02*
X1054999D01*
Y1378001D01*
X1059999D01*
Y1373001D01*
D02*
G37*
G36*
X1455000Y1434500D02*
X1450000D01*
Y1439500D01*
X1455000D01*
Y1434500D01*
D02*
G37*
G36*
X1467500D02*
X1462500D01*
Y1439500D01*
X1467500D01*
Y1434500D01*
D02*
G37*
G36*
X1392550D02*
X1387550D01*
Y1439500D01*
X1392550D01*
Y1434500D01*
D02*
G37*
G36*
X1405050D02*
X1400050D01*
Y1439500D01*
X1405050D01*
Y1434500D01*
D02*
G37*
G36*
X1327505Y1434502D02*
X1322505D01*
Y1439502D01*
X1327505D01*
Y1434502D01*
D02*
G37*
G36*
X1320005Y1437002D02*
X1315005D01*
Y1442002D01*
X1320005D01*
Y1437002D01*
D02*
G37*
G36*
X1382550Y1442000D02*
X1377550D01*
Y1447000D01*
X1382550D01*
Y1442000D01*
D02*
G37*
G36*
X1335005Y1434502D02*
X1330005D01*
Y1439502D01*
X1335005D01*
Y1434502D01*
D02*
G37*
G36*
X1342505D02*
X1337505D01*
Y1439502D01*
X1342505D01*
Y1434502D01*
D02*
G37*
G36*
X1169997Y1388000D02*
X1164997D01*
Y1393000D01*
X1169997D01*
Y1388000D01*
D02*
G37*
G36*
X1177497D02*
X1172497D01*
Y1393000D01*
X1177497D01*
Y1388000D01*
D02*
G37*
G36*
X1112447Y1380501D02*
X1107447D01*
Y1385501D01*
X1112447D01*
Y1380501D01*
D02*
G37*
G36*
X1162497Y1388000D02*
X1157497D01*
Y1393000D01*
X1162497D01*
Y1388000D01*
D02*
G37*
G36*
X1327505Y1427002D02*
X1322505D01*
Y1432002D01*
X1327505D01*
Y1427002D01*
D02*
G37*
G36*
X1417550Y1434500D02*
X1412550D01*
Y1439500D01*
X1417550D01*
Y1434500D01*
D02*
G37*
G36*
X1480000D02*
X1475000D01*
Y1439500D01*
X1480000D01*
Y1434500D01*
D02*
G37*
G36*
X1335005Y1427002D02*
X1330005D01*
Y1432002D01*
X1335005D01*
Y1427002D01*
D02*
G37*
G36*
X1342505D02*
X1337505D01*
Y1432002D01*
X1342505D01*
Y1427002D01*
D02*
G37*
G36*
X1044999Y1373001D02*
X1039999D01*
Y1378001D01*
X1044999D01*
Y1373001D01*
D02*
G37*
G36*
X1177497Y1365500D02*
X1172497D01*
Y1370500D01*
X1177497D01*
Y1365500D01*
D02*
G37*
G36*
X1184997D02*
X1179997D01*
Y1370500D01*
X1184997D01*
Y1365500D01*
D02*
G37*
G36*
X1092447Y1358001D02*
X1087447D01*
Y1363001D01*
X1092447D01*
Y1358001D01*
D02*
G37*
G36*
X1099947D02*
X1094947D01*
Y1363001D01*
X1099947D01*
Y1358001D01*
D02*
G37*
G36*
X1162497Y1365500D02*
X1157497D01*
Y1370500D01*
X1162497D01*
Y1365500D01*
D02*
G37*
G36*
X1107447Y1365501D02*
X1102447D01*
Y1370501D01*
X1107447D01*
Y1365501D01*
D02*
G37*
G36*
X1014999Y1365501D02*
X1009999D01*
Y1370501D01*
X1014999D01*
Y1365501D01*
D02*
G37*
G36*
X1169997Y1365500D02*
X1164997D01*
Y1370500D01*
X1169997D01*
Y1365500D01*
D02*
G37*
G36*
X1044999Y1365501D02*
X1039999D01*
Y1370501D01*
X1044999D01*
Y1365501D01*
D02*
G37*
G36*
X1122447Y1358001D02*
X1117447D01*
Y1363001D01*
X1122447D01*
Y1358001D01*
D02*
G37*
G36*
X1014999Y1358001D02*
X1009999D01*
Y1363001D01*
X1014999D01*
Y1358001D01*
D02*
G37*
G36*
X1107447Y1358001D02*
X1102447D01*
Y1363001D01*
X1107447D01*
Y1358001D01*
D02*
G37*
G36*
X1114947D02*
X1109947D01*
Y1363001D01*
X1114947D01*
Y1358001D01*
D02*
G37*
G36*
X1022499Y1358001D02*
X1017499D01*
Y1363001D01*
X1022499D01*
Y1358001D01*
D02*
G37*
G36*
X1077447D02*
X1072447D01*
Y1363001D01*
X1077447D01*
Y1358001D01*
D02*
G37*
G36*
X1084947D02*
X1079947D01*
Y1363001D01*
X1084947D01*
Y1358001D01*
D02*
G37*
G36*
X1029999D02*
X1024999D01*
Y1363001D01*
X1029999D01*
Y1358001D01*
D02*
G37*
G36*
X1037499D02*
X1032499D01*
Y1363001D01*
X1037499D01*
Y1358001D01*
D02*
G37*
G36*
X1122447Y1365501D02*
X1117447D01*
Y1370501D01*
X1122447D01*
Y1365501D01*
D02*
G37*
G36*
X1162497Y1373000D02*
X1157497D01*
Y1378000D01*
X1162497D01*
Y1373000D01*
D02*
G37*
G36*
X1114947Y1365501D02*
X1109947D01*
Y1370501D01*
X1114947D01*
Y1365501D01*
D02*
G37*
G36*
X1092447D02*
X1087447D01*
Y1370501D01*
X1092447D01*
Y1365501D01*
D02*
G37*
G36*
X1099947D02*
X1094947D01*
Y1370501D01*
X1099947D01*
Y1365501D01*
D02*
G37*
G36*
X1169997Y1373000D02*
X1164997D01*
Y1378000D01*
X1169997D01*
Y1373000D01*
D02*
G37*
G36*
X1029999Y1373001D02*
X1024999D01*
Y1378001D01*
X1029999D01*
Y1373001D01*
D02*
G37*
G36*
X1037499D02*
X1032499D01*
Y1378001D01*
X1037499D01*
Y1373001D01*
D02*
G37*
G36*
X1022499D02*
X1017499D01*
Y1378001D01*
X1022499D01*
Y1373001D01*
D02*
G37*
G36*
X1177497Y1373000D02*
X1172497D01*
Y1378000D01*
X1177497D01*
Y1373000D01*
D02*
G37*
G36*
X1014999Y1373001D02*
X1009999D01*
Y1378001D01*
X1014999D01*
Y1373001D01*
D02*
G37*
G36*
X1052499Y1365501D02*
X1047499D01*
Y1370501D01*
X1052499D01*
Y1365501D01*
D02*
G37*
G36*
X1059999D02*
X1054999D01*
Y1370501D01*
X1059999D01*
Y1365501D01*
D02*
G37*
G36*
X1037499D02*
X1032499D01*
Y1370501D01*
X1037499D01*
Y1365501D01*
D02*
G37*
G36*
X1022499D02*
X1017499D01*
Y1370501D01*
X1022499D01*
Y1365501D01*
D02*
G37*
G36*
X1029999D02*
X1024999D01*
Y1370501D01*
X1029999D01*
Y1365501D01*
D02*
G37*
G36*
X1077447D02*
X1072447D01*
Y1370501D01*
X1077447D01*
Y1365501D01*
D02*
G37*
G36*
X1084947D02*
X1079947D01*
Y1370501D01*
X1084947D01*
Y1365501D01*
D02*
G37*
%LPC*%
G36*
X1652605Y2067750D02*
X1646605D01*
Y2064750D01*
X1652605D01*
Y2067750D01*
D02*
G37*
G36*
X1640600Y2060751D02*
X1637600D01*
Y2055751D01*
X1640600D01*
Y2060751D01*
D02*
G37*
G36*
X1661600D02*
X1658600D01*
Y2055751D01*
X1661600D01*
Y2060751D01*
D02*
G37*
G36*
X1652605Y2046750D02*
X1646605D01*
Y2043750D01*
X1652605D01*
Y2046750D01*
D02*
G37*
%LPD*%
D10*
X566000Y566000D02*
D03*
Y558000D02*
D03*
Y550000D02*
D03*
Y542000D02*
D03*
Y534000D02*
D03*
Y526000D02*
D03*
Y518000D02*
D03*
Y510000D02*
D03*
Y502000D02*
D03*
Y494000D02*
D03*
Y486000D02*
D03*
Y478000D02*
D03*
Y470000D02*
D03*
Y462000D02*
D03*
Y454000D02*
D03*
Y446000D02*
D03*
Y438000D02*
D03*
Y430000D02*
D03*
Y422000D02*
D03*
Y414000D02*
D03*
Y406000D02*
D03*
Y398000D02*
D03*
Y390000D02*
D03*
Y382000D02*
D03*
Y374000D02*
D03*
Y366000D02*
D03*
Y358000D02*
D03*
Y350000D02*
D03*
Y342000D02*
D03*
Y334000D02*
D03*
X558000Y566000D02*
D03*
Y558000D02*
D03*
Y550000D02*
D03*
Y542000D02*
D03*
Y534000D02*
D03*
Y526000D02*
D03*
Y518000D02*
D03*
Y510000D02*
D03*
Y502000D02*
D03*
Y494000D02*
D03*
Y486000D02*
D03*
Y478000D02*
D03*
Y470000D02*
D03*
Y462000D02*
D03*
Y454000D02*
D03*
Y446000D02*
D03*
Y438000D02*
D03*
Y430000D02*
D03*
Y422000D02*
D03*
Y414000D02*
D03*
Y406000D02*
D03*
Y398000D02*
D03*
Y390000D02*
D03*
Y382000D02*
D03*
Y374000D02*
D03*
Y366000D02*
D03*
Y358000D02*
D03*
Y350000D02*
D03*
Y342000D02*
D03*
Y334000D02*
D03*
X550000Y566000D02*
D03*
Y558000D02*
D03*
Y550000D02*
D03*
Y542000D02*
D03*
Y534000D02*
D03*
Y526000D02*
D03*
Y518000D02*
D03*
Y510000D02*
D03*
Y502000D02*
D03*
Y494000D02*
D03*
Y486000D02*
D03*
Y478000D02*
D03*
Y470000D02*
D03*
Y462000D02*
D03*
Y454000D02*
D03*
Y446000D02*
D03*
Y438000D02*
D03*
Y430000D02*
D03*
Y422000D02*
D03*
Y414000D02*
D03*
Y406000D02*
D03*
Y398000D02*
D03*
Y390000D02*
D03*
Y382000D02*
D03*
Y374000D02*
D03*
Y366000D02*
D03*
Y358000D02*
D03*
Y350000D02*
D03*
Y342000D02*
D03*
Y334000D02*
D03*
X542000Y566000D02*
D03*
Y558000D02*
D03*
Y550000D02*
D03*
Y542000D02*
D03*
Y534000D02*
D03*
Y526000D02*
D03*
Y518000D02*
D03*
Y510000D02*
D03*
Y502000D02*
D03*
Y494000D02*
D03*
Y486000D02*
D03*
Y478000D02*
D03*
Y470000D02*
D03*
Y462000D02*
D03*
Y454000D02*
D03*
Y446000D02*
D03*
Y438000D02*
D03*
Y430000D02*
D03*
Y422000D02*
D03*
Y414000D02*
D03*
Y406000D02*
D03*
Y398000D02*
D03*
Y390000D02*
D03*
Y382000D02*
D03*
Y374000D02*
D03*
Y366000D02*
D03*
Y358000D02*
D03*
Y350000D02*
D03*
Y342000D02*
D03*
Y334000D02*
D03*
X534000Y566000D02*
D03*
Y558000D02*
D03*
Y550000D02*
D03*
Y542000D02*
D03*
Y534000D02*
D03*
Y526000D02*
D03*
Y518000D02*
D03*
Y510000D02*
D03*
Y502000D02*
D03*
Y494000D02*
D03*
Y486000D02*
D03*
Y478000D02*
D03*
Y470000D02*
D03*
Y462000D02*
D03*
Y454000D02*
D03*
Y446000D02*
D03*
Y438000D02*
D03*
Y430000D02*
D03*
Y422000D02*
D03*
Y414000D02*
D03*
Y406000D02*
D03*
Y398000D02*
D03*
Y390000D02*
D03*
Y382000D02*
D03*
Y374000D02*
D03*
Y366000D02*
D03*
Y358000D02*
D03*
Y350000D02*
D03*
Y342000D02*
D03*
Y334000D02*
D03*
X526000Y566000D02*
D03*
Y558000D02*
D03*
Y550000D02*
D03*
Y542000D02*
D03*
Y534000D02*
D03*
Y526000D02*
D03*
Y518000D02*
D03*
Y510000D02*
D03*
Y502000D02*
D03*
Y494000D02*
D03*
Y486000D02*
D03*
Y478000D02*
D03*
Y470000D02*
D03*
Y462000D02*
D03*
Y454000D02*
D03*
Y446000D02*
D03*
Y438000D02*
D03*
Y430000D02*
D03*
Y422000D02*
D03*
Y414000D02*
D03*
Y406000D02*
D03*
Y398000D02*
D03*
Y390000D02*
D03*
Y382000D02*
D03*
Y374000D02*
D03*
Y366000D02*
D03*
Y358000D02*
D03*
Y350000D02*
D03*
Y342000D02*
D03*
Y334000D02*
D03*
X518000Y566000D02*
D03*
Y558000D02*
D03*
Y550000D02*
D03*
Y542000D02*
D03*
Y534000D02*
D03*
Y526000D02*
D03*
Y518000D02*
D03*
Y510000D02*
D03*
Y502000D02*
D03*
Y494000D02*
D03*
Y486000D02*
D03*
Y478000D02*
D03*
Y470000D02*
D03*
Y462000D02*
D03*
Y454000D02*
D03*
Y446000D02*
D03*
Y438000D02*
D03*
Y430000D02*
D03*
Y422000D02*
D03*
Y414000D02*
D03*
Y406000D02*
D03*
Y398000D02*
D03*
Y390000D02*
D03*
Y382000D02*
D03*
Y374000D02*
D03*
Y366000D02*
D03*
Y358000D02*
D03*
Y350000D02*
D03*
Y342000D02*
D03*
Y334000D02*
D03*
X510000Y566000D02*
D03*
Y558000D02*
D03*
Y550000D02*
D03*
Y542000D02*
D03*
Y534000D02*
D03*
Y526000D02*
D03*
Y518000D02*
D03*
Y510000D02*
D03*
Y502000D02*
D03*
Y494000D02*
D03*
Y486000D02*
D03*
Y478000D02*
D03*
Y470000D02*
D03*
Y462000D02*
D03*
Y454000D02*
D03*
Y446000D02*
D03*
Y438000D02*
D03*
Y430000D02*
D03*
Y422000D02*
D03*
Y414000D02*
D03*
Y406000D02*
D03*
Y398000D02*
D03*
Y390000D02*
D03*
Y382000D02*
D03*
Y374000D02*
D03*
Y366000D02*
D03*
Y358000D02*
D03*
Y350000D02*
D03*
Y342000D02*
D03*
Y334000D02*
D03*
X502000Y566000D02*
D03*
Y558000D02*
D03*
Y550000D02*
D03*
Y542000D02*
D03*
Y534000D02*
D03*
Y526000D02*
D03*
Y518000D02*
D03*
Y510000D02*
D03*
Y502000D02*
D03*
Y494000D02*
D03*
Y486000D02*
D03*
Y478000D02*
D03*
Y470000D02*
D03*
Y462000D02*
D03*
Y454000D02*
D03*
Y446000D02*
D03*
Y438000D02*
D03*
Y430000D02*
D03*
Y422000D02*
D03*
Y414000D02*
D03*
Y406000D02*
D03*
Y398000D02*
D03*
Y390000D02*
D03*
Y382000D02*
D03*
Y374000D02*
D03*
Y366000D02*
D03*
Y358000D02*
D03*
Y350000D02*
D03*
Y342000D02*
D03*
Y334000D02*
D03*
X494000Y566000D02*
D03*
Y558000D02*
D03*
Y550000D02*
D03*
Y542000D02*
D03*
Y534000D02*
D03*
Y526000D02*
D03*
Y518000D02*
D03*
Y510000D02*
D03*
Y502000D02*
D03*
Y494000D02*
D03*
Y486000D02*
D03*
Y478000D02*
D03*
Y470000D02*
D03*
Y462000D02*
D03*
Y454000D02*
D03*
Y446000D02*
D03*
Y438000D02*
D03*
Y430000D02*
D03*
Y422000D02*
D03*
Y414000D02*
D03*
Y406000D02*
D03*
Y398000D02*
D03*
Y390000D02*
D03*
Y382000D02*
D03*
Y374000D02*
D03*
Y366000D02*
D03*
Y358000D02*
D03*
Y350000D02*
D03*
Y342000D02*
D03*
Y334000D02*
D03*
X486000Y566000D02*
D03*
Y558000D02*
D03*
Y550000D02*
D03*
Y542000D02*
D03*
Y534000D02*
D03*
Y526000D02*
D03*
Y518000D02*
D03*
Y510000D02*
D03*
Y502000D02*
D03*
Y494000D02*
D03*
Y486000D02*
D03*
Y478000D02*
D03*
Y470000D02*
D03*
Y462000D02*
D03*
Y454000D02*
D03*
Y446000D02*
D03*
Y438000D02*
D03*
Y430000D02*
D03*
Y422000D02*
D03*
Y414000D02*
D03*
Y406000D02*
D03*
Y398000D02*
D03*
Y390000D02*
D03*
Y382000D02*
D03*
Y374000D02*
D03*
Y366000D02*
D03*
Y358000D02*
D03*
Y350000D02*
D03*
Y342000D02*
D03*
Y334000D02*
D03*
X478000Y566000D02*
D03*
Y558000D02*
D03*
Y550000D02*
D03*
Y542000D02*
D03*
Y534000D02*
D03*
Y526000D02*
D03*
Y518000D02*
D03*
Y510000D02*
D03*
Y502000D02*
D03*
Y494000D02*
D03*
Y486000D02*
D03*
Y478000D02*
D03*
Y470000D02*
D03*
Y462000D02*
D03*
Y454000D02*
D03*
Y446000D02*
D03*
Y438000D02*
D03*
Y430000D02*
D03*
Y422000D02*
D03*
Y414000D02*
D03*
Y406000D02*
D03*
Y398000D02*
D03*
Y390000D02*
D03*
Y382000D02*
D03*
Y374000D02*
D03*
Y366000D02*
D03*
Y358000D02*
D03*
Y350000D02*
D03*
Y342000D02*
D03*
Y334000D02*
D03*
X470000Y566000D02*
D03*
Y558000D02*
D03*
Y550000D02*
D03*
Y542000D02*
D03*
Y534000D02*
D03*
Y526000D02*
D03*
Y518000D02*
D03*
Y510000D02*
D03*
Y502000D02*
D03*
Y494000D02*
D03*
Y486000D02*
D03*
Y478000D02*
D03*
Y470000D02*
D03*
Y462000D02*
D03*
Y454000D02*
D03*
Y446000D02*
D03*
Y438000D02*
D03*
Y430000D02*
D03*
Y422000D02*
D03*
Y414000D02*
D03*
Y406000D02*
D03*
Y398000D02*
D03*
Y390000D02*
D03*
Y382000D02*
D03*
Y374000D02*
D03*
Y366000D02*
D03*
Y358000D02*
D03*
Y350000D02*
D03*
Y342000D02*
D03*
Y334000D02*
D03*
X462000Y566000D02*
D03*
Y558000D02*
D03*
Y550000D02*
D03*
Y542000D02*
D03*
Y534000D02*
D03*
Y526000D02*
D03*
Y518000D02*
D03*
Y510000D02*
D03*
Y502000D02*
D03*
Y494000D02*
D03*
Y486000D02*
D03*
Y478000D02*
D03*
Y470000D02*
D03*
Y462000D02*
D03*
Y454000D02*
D03*
Y446000D02*
D03*
Y438000D02*
D03*
Y430000D02*
D03*
Y422000D02*
D03*
Y414000D02*
D03*
Y406000D02*
D03*
Y398000D02*
D03*
Y390000D02*
D03*
Y382000D02*
D03*
Y374000D02*
D03*
Y366000D02*
D03*
Y358000D02*
D03*
Y350000D02*
D03*
Y342000D02*
D03*
Y334000D02*
D03*
X454000Y566000D02*
D03*
Y558000D02*
D03*
Y550000D02*
D03*
Y542000D02*
D03*
Y534000D02*
D03*
Y526000D02*
D03*
Y518000D02*
D03*
Y510000D02*
D03*
Y502000D02*
D03*
Y494000D02*
D03*
Y486000D02*
D03*
Y478000D02*
D03*
Y470000D02*
D03*
Y462000D02*
D03*
Y454000D02*
D03*
Y446000D02*
D03*
Y438000D02*
D03*
Y430000D02*
D03*
Y422000D02*
D03*
Y414000D02*
D03*
Y406000D02*
D03*
Y398000D02*
D03*
Y390000D02*
D03*
Y382000D02*
D03*
Y374000D02*
D03*
Y366000D02*
D03*
Y358000D02*
D03*
Y350000D02*
D03*
Y342000D02*
D03*
Y334000D02*
D03*
X446000Y566000D02*
D03*
Y558000D02*
D03*
Y550000D02*
D03*
Y542000D02*
D03*
Y534000D02*
D03*
Y526000D02*
D03*
Y518000D02*
D03*
Y510000D02*
D03*
Y502000D02*
D03*
Y494000D02*
D03*
Y486000D02*
D03*
Y478000D02*
D03*
Y470000D02*
D03*
Y462000D02*
D03*
Y454000D02*
D03*
Y446000D02*
D03*
Y438000D02*
D03*
Y430000D02*
D03*
Y422000D02*
D03*
Y414000D02*
D03*
Y406000D02*
D03*
Y398000D02*
D03*
Y390000D02*
D03*
Y382000D02*
D03*
Y374000D02*
D03*
Y366000D02*
D03*
Y358000D02*
D03*
Y350000D02*
D03*
Y342000D02*
D03*
Y334000D02*
D03*
X438000Y566000D02*
D03*
Y558000D02*
D03*
Y550000D02*
D03*
Y542000D02*
D03*
Y534000D02*
D03*
Y526000D02*
D03*
Y518000D02*
D03*
Y510000D02*
D03*
Y502000D02*
D03*
Y494000D02*
D03*
Y486000D02*
D03*
Y478000D02*
D03*
Y470000D02*
D03*
Y462000D02*
D03*
Y454000D02*
D03*
Y446000D02*
D03*
Y438000D02*
D03*
Y430000D02*
D03*
Y422000D02*
D03*
Y414000D02*
D03*
Y406000D02*
D03*
Y398000D02*
D03*
Y390000D02*
D03*
Y382000D02*
D03*
Y374000D02*
D03*
Y366000D02*
D03*
Y358000D02*
D03*
Y350000D02*
D03*
Y342000D02*
D03*
Y334000D02*
D03*
X430000Y566000D02*
D03*
Y558000D02*
D03*
Y550000D02*
D03*
Y542000D02*
D03*
Y534000D02*
D03*
Y526000D02*
D03*
Y518000D02*
D03*
Y510000D02*
D03*
Y502000D02*
D03*
Y494000D02*
D03*
Y486000D02*
D03*
Y478000D02*
D03*
Y470000D02*
D03*
Y462000D02*
D03*
Y454000D02*
D03*
Y446000D02*
D03*
Y438000D02*
D03*
Y430000D02*
D03*
Y422000D02*
D03*
Y414000D02*
D03*
Y406000D02*
D03*
Y398000D02*
D03*
Y390000D02*
D03*
Y382000D02*
D03*
Y374000D02*
D03*
Y366000D02*
D03*
Y358000D02*
D03*
Y350000D02*
D03*
Y342000D02*
D03*
Y334000D02*
D03*
X422000Y566000D02*
D03*
Y558000D02*
D03*
Y550000D02*
D03*
Y542000D02*
D03*
Y534000D02*
D03*
Y526000D02*
D03*
Y518000D02*
D03*
Y510000D02*
D03*
Y502000D02*
D03*
Y494000D02*
D03*
Y486000D02*
D03*
Y478000D02*
D03*
Y470000D02*
D03*
Y462000D02*
D03*
Y454000D02*
D03*
Y446000D02*
D03*
Y438000D02*
D03*
Y430000D02*
D03*
Y422000D02*
D03*
Y414000D02*
D03*
Y406000D02*
D03*
Y398000D02*
D03*
Y390000D02*
D03*
Y382000D02*
D03*
Y374000D02*
D03*
Y366000D02*
D03*
Y358000D02*
D03*
Y350000D02*
D03*
Y342000D02*
D03*
Y334000D02*
D03*
X414000Y566000D02*
D03*
Y558000D02*
D03*
Y550000D02*
D03*
Y542000D02*
D03*
Y534000D02*
D03*
Y526000D02*
D03*
Y518000D02*
D03*
Y510000D02*
D03*
Y502000D02*
D03*
Y494000D02*
D03*
Y486000D02*
D03*
Y478000D02*
D03*
Y470000D02*
D03*
Y462000D02*
D03*
Y454000D02*
D03*
Y446000D02*
D03*
Y438000D02*
D03*
Y430000D02*
D03*
Y422000D02*
D03*
Y414000D02*
D03*
Y406000D02*
D03*
Y398000D02*
D03*
Y390000D02*
D03*
Y382000D02*
D03*
Y374000D02*
D03*
Y366000D02*
D03*
Y358000D02*
D03*
Y350000D02*
D03*
Y342000D02*
D03*
Y334000D02*
D03*
X406000Y566000D02*
D03*
Y558000D02*
D03*
Y550000D02*
D03*
Y542000D02*
D03*
Y534000D02*
D03*
Y526000D02*
D03*
Y518000D02*
D03*
Y510000D02*
D03*
Y502000D02*
D03*
Y494000D02*
D03*
Y486000D02*
D03*
Y478000D02*
D03*
Y470000D02*
D03*
Y462000D02*
D03*
Y454000D02*
D03*
Y446000D02*
D03*
Y438000D02*
D03*
Y430000D02*
D03*
Y422000D02*
D03*
Y414000D02*
D03*
Y406000D02*
D03*
Y398000D02*
D03*
Y390000D02*
D03*
Y382000D02*
D03*
Y374000D02*
D03*
Y366000D02*
D03*
Y358000D02*
D03*
Y350000D02*
D03*
Y342000D02*
D03*
Y334000D02*
D03*
X398000Y566000D02*
D03*
Y558000D02*
D03*
Y550000D02*
D03*
Y542000D02*
D03*
Y534000D02*
D03*
Y526000D02*
D03*
Y518000D02*
D03*
Y510000D02*
D03*
Y502000D02*
D03*
Y494000D02*
D03*
Y486000D02*
D03*
Y478000D02*
D03*
Y470000D02*
D03*
Y462000D02*
D03*
Y454000D02*
D03*
Y446000D02*
D03*
Y438000D02*
D03*
Y430000D02*
D03*
Y422000D02*
D03*
Y414000D02*
D03*
Y406000D02*
D03*
Y398000D02*
D03*
Y390000D02*
D03*
Y382000D02*
D03*
Y374000D02*
D03*
Y366000D02*
D03*
Y358000D02*
D03*
Y350000D02*
D03*
Y342000D02*
D03*
Y334000D02*
D03*
X390000Y566000D02*
D03*
Y558000D02*
D03*
Y550000D02*
D03*
Y542000D02*
D03*
Y534000D02*
D03*
Y526000D02*
D03*
Y518000D02*
D03*
Y510000D02*
D03*
Y502000D02*
D03*
Y494000D02*
D03*
Y486000D02*
D03*
Y478000D02*
D03*
Y470000D02*
D03*
Y462000D02*
D03*
Y454000D02*
D03*
Y446000D02*
D03*
Y438000D02*
D03*
Y430000D02*
D03*
Y422000D02*
D03*
Y414000D02*
D03*
Y406000D02*
D03*
Y398000D02*
D03*
Y390000D02*
D03*
Y382000D02*
D03*
Y374000D02*
D03*
Y366000D02*
D03*
Y358000D02*
D03*
Y350000D02*
D03*
Y342000D02*
D03*
Y334000D02*
D03*
X382000Y566000D02*
D03*
Y558000D02*
D03*
Y550000D02*
D03*
Y542000D02*
D03*
Y534000D02*
D03*
Y526000D02*
D03*
Y518000D02*
D03*
Y510000D02*
D03*
Y502000D02*
D03*
Y494000D02*
D03*
Y486000D02*
D03*
Y478000D02*
D03*
Y470000D02*
D03*
Y462000D02*
D03*
Y454000D02*
D03*
Y446000D02*
D03*
Y438000D02*
D03*
Y430000D02*
D03*
Y422000D02*
D03*
Y414000D02*
D03*
Y406000D02*
D03*
Y398000D02*
D03*
Y390000D02*
D03*
Y382000D02*
D03*
Y374000D02*
D03*
Y366000D02*
D03*
Y358000D02*
D03*
Y350000D02*
D03*
Y342000D02*
D03*
Y334000D02*
D03*
X374000Y566000D02*
D03*
Y558000D02*
D03*
Y550000D02*
D03*
Y542000D02*
D03*
Y534000D02*
D03*
Y526000D02*
D03*
Y518000D02*
D03*
Y510000D02*
D03*
Y502000D02*
D03*
Y494000D02*
D03*
Y486000D02*
D03*
Y478000D02*
D03*
Y470000D02*
D03*
Y462000D02*
D03*
Y454000D02*
D03*
Y446000D02*
D03*
Y438000D02*
D03*
Y430000D02*
D03*
Y422000D02*
D03*
Y414000D02*
D03*
Y406000D02*
D03*
Y398000D02*
D03*
Y390000D02*
D03*
Y382000D02*
D03*
Y374000D02*
D03*
Y366000D02*
D03*
Y358000D02*
D03*
Y350000D02*
D03*
Y342000D02*
D03*
Y334000D02*
D03*
X366000Y566000D02*
D03*
Y558000D02*
D03*
Y550000D02*
D03*
Y542000D02*
D03*
Y534000D02*
D03*
Y526000D02*
D03*
Y518000D02*
D03*
Y510000D02*
D03*
Y502000D02*
D03*
Y494000D02*
D03*
Y486000D02*
D03*
Y478000D02*
D03*
Y470000D02*
D03*
Y462000D02*
D03*
Y454000D02*
D03*
Y446000D02*
D03*
Y438000D02*
D03*
Y430000D02*
D03*
Y422000D02*
D03*
Y414000D02*
D03*
Y406000D02*
D03*
Y398000D02*
D03*
Y390000D02*
D03*
Y382000D02*
D03*
Y374000D02*
D03*
Y366000D02*
D03*
Y358000D02*
D03*
Y350000D02*
D03*
Y342000D02*
D03*
Y334000D02*
D03*
X358000Y566000D02*
D03*
Y558000D02*
D03*
Y550000D02*
D03*
Y542000D02*
D03*
Y534000D02*
D03*
Y526000D02*
D03*
Y518000D02*
D03*
Y510000D02*
D03*
Y502000D02*
D03*
Y494000D02*
D03*
Y486000D02*
D03*
Y478000D02*
D03*
Y470000D02*
D03*
Y462000D02*
D03*
Y454000D02*
D03*
Y446000D02*
D03*
Y438000D02*
D03*
Y430000D02*
D03*
Y422000D02*
D03*
Y414000D02*
D03*
Y406000D02*
D03*
Y398000D02*
D03*
Y390000D02*
D03*
Y382000D02*
D03*
Y374000D02*
D03*
Y366000D02*
D03*
Y358000D02*
D03*
Y350000D02*
D03*
Y342000D02*
D03*
Y334000D02*
D03*
X350000Y566000D02*
D03*
Y558000D02*
D03*
Y550000D02*
D03*
Y542000D02*
D03*
Y534000D02*
D03*
Y526000D02*
D03*
Y518000D02*
D03*
Y510000D02*
D03*
Y502000D02*
D03*
Y494000D02*
D03*
Y486000D02*
D03*
Y478000D02*
D03*
Y470000D02*
D03*
Y462000D02*
D03*
Y454000D02*
D03*
Y446000D02*
D03*
Y438000D02*
D03*
Y430000D02*
D03*
Y422000D02*
D03*
Y414000D02*
D03*
Y406000D02*
D03*
Y398000D02*
D03*
Y390000D02*
D03*
Y382000D02*
D03*
Y374000D02*
D03*
Y366000D02*
D03*
Y358000D02*
D03*
Y350000D02*
D03*
Y342000D02*
D03*
Y334000D02*
D03*
X342000Y566000D02*
D03*
Y558000D02*
D03*
Y550000D02*
D03*
Y542000D02*
D03*
Y534000D02*
D03*
Y526000D02*
D03*
Y518000D02*
D03*
Y510000D02*
D03*
Y502000D02*
D03*
Y494000D02*
D03*
Y486000D02*
D03*
Y478000D02*
D03*
Y470000D02*
D03*
Y462000D02*
D03*
Y454000D02*
D03*
Y446000D02*
D03*
Y438000D02*
D03*
Y430000D02*
D03*
Y422000D02*
D03*
Y414000D02*
D03*
Y406000D02*
D03*
Y398000D02*
D03*
Y390000D02*
D03*
Y382000D02*
D03*
Y374000D02*
D03*
Y366000D02*
D03*
Y358000D02*
D03*
Y350000D02*
D03*
Y342000D02*
D03*
Y334000D02*
D03*
X334000Y566000D02*
D03*
Y558000D02*
D03*
Y550000D02*
D03*
Y542000D02*
D03*
Y534000D02*
D03*
Y526000D02*
D03*
Y518000D02*
D03*
Y510000D02*
D03*
Y502000D02*
D03*
Y494000D02*
D03*
Y486000D02*
D03*
Y478000D02*
D03*
Y470000D02*
D03*
Y462000D02*
D03*
Y454000D02*
D03*
Y446000D02*
D03*
Y438000D02*
D03*
Y430000D02*
D03*
Y422000D02*
D03*
Y414000D02*
D03*
Y406000D02*
D03*
Y398000D02*
D03*
Y390000D02*
D03*
Y382000D02*
D03*
Y374000D02*
D03*
Y366000D02*
D03*
Y358000D02*
D03*
Y350000D02*
D03*
Y342000D02*
D03*
Y334000D02*
D03*
X1934000Y566000D02*
D03*
X1942000D02*
D03*
X1950000D02*
D03*
X1958000D02*
D03*
X1966000D02*
D03*
X1974000D02*
D03*
X1982000D02*
D03*
X1990000D02*
D03*
X1998000D02*
D03*
X2006000D02*
D03*
X2014000D02*
D03*
X2022000D02*
D03*
X2030000D02*
D03*
X2038000D02*
D03*
X2046000D02*
D03*
X2054000D02*
D03*
X2062000D02*
D03*
X2070000D02*
D03*
X2078000D02*
D03*
X2086000D02*
D03*
X2094000D02*
D03*
X2102000D02*
D03*
X2110000D02*
D03*
X2118000D02*
D03*
X2126000D02*
D03*
X2134000D02*
D03*
X2142000D02*
D03*
X2150000D02*
D03*
X2158000D02*
D03*
X2166000D02*
D03*
X1934000Y558000D02*
D03*
X1942000D02*
D03*
X1950000D02*
D03*
X1958000D02*
D03*
X1966000D02*
D03*
X1974000D02*
D03*
X1982000D02*
D03*
X1990000D02*
D03*
X1998000D02*
D03*
X2006000D02*
D03*
X2014000D02*
D03*
X2022000D02*
D03*
X2030000D02*
D03*
X2038000D02*
D03*
X2046000D02*
D03*
X2054000D02*
D03*
X2062000D02*
D03*
X2070000D02*
D03*
X2078000D02*
D03*
X2086000D02*
D03*
X2094000D02*
D03*
X2102000D02*
D03*
X2110000D02*
D03*
X2118000D02*
D03*
X2126000D02*
D03*
X2134000D02*
D03*
X2142000D02*
D03*
X2150000D02*
D03*
X2158000D02*
D03*
X2166000D02*
D03*
X1934000Y550000D02*
D03*
X1942000D02*
D03*
X1950000D02*
D03*
X1958000D02*
D03*
X1966000D02*
D03*
X1974000D02*
D03*
X1982000D02*
D03*
X1990000D02*
D03*
X1998000D02*
D03*
X2006000D02*
D03*
X2014000D02*
D03*
X2022000D02*
D03*
X2030000D02*
D03*
X2038000D02*
D03*
X2046000D02*
D03*
X2054000D02*
D03*
X2062000D02*
D03*
X2070000D02*
D03*
X2078000D02*
D03*
X2086000D02*
D03*
X2094000D02*
D03*
X2102000D02*
D03*
X2110000D02*
D03*
X2118000D02*
D03*
X2126000D02*
D03*
X2134000D02*
D03*
X2142000D02*
D03*
X2150000D02*
D03*
X2158000D02*
D03*
X2166000D02*
D03*
X1934000Y542000D02*
D03*
X1942000D02*
D03*
X1950000D02*
D03*
X1958000D02*
D03*
X1966000D02*
D03*
X1974000D02*
D03*
X1982000D02*
D03*
X1990000D02*
D03*
X1998000D02*
D03*
X2006000D02*
D03*
X2014000D02*
D03*
X2022000D02*
D03*
X2030000D02*
D03*
X2038000D02*
D03*
X2046000D02*
D03*
X2054000D02*
D03*
X2062000D02*
D03*
X2070000D02*
D03*
X2078000D02*
D03*
X2086000D02*
D03*
X2094000D02*
D03*
X2102000D02*
D03*
X2110000D02*
D03*
X2118000D02*
D03*
X2126000D02*
D03*
X2134000D02*
D03*
X2142000D02*
D03*
X2150000D02*
D03*
X2158000D02*
D03*
X2166000D02*
D03*
X1934000Y534000D02*
D03*
X1942000D02*
D03*
X1950000D02*
D03*
X1958000D02*
D03*
X1966000D02*
D03*
X1974000D02*
D03*
X1982000D02*
D03*
X1990000D02*
D03*
X1998000D02*
D03*
X2006000D02*
D03*
X2014000D02*
D03*
X2022000D02*
D03*
X2030000D02*
D03*
X2038000D02*
D03*
X2046000D02*
D03*
X2054000D02*
D03*
X2062000D02*
D03*
X2070000D02*
D03*
X2078000D02*
D03*
X2086000D02*
D03*
X2094000D02*
D03*
X2102000D02*
D03*
X2110000D02*
D03*
X2118000D02*
D03*
X2126000D02*
D03*
X2134000D02*
D03*
X2142000D02*
D03*
X2150000D02*
D03*
X2158000D02*
D03*
X2166000D02*
D03*
X1934000Y526000D02*
D03*
X1942000D02*
D03*
X1950000D02*
D03*
X1958000D02*
D03*
X1966000D02*
D03*
X1974000D02*
D03*
X1982000D02*
D03*
X1990000D02*
D03*
X1998000D02*
D03*
X2006000D02*
D03*
X2014000D02*
D03*
X2022000D02*
D03*
X2030000D02*
D03*
X2038000D02*
D03*
X2046000D02*
D03*
X2054000D02*
D03*
X2062000D02*
D03*
X2070000D02*
D03*
X2078000D02*
D03*
X2086000D02*
D03*
X2094000D02*
D03*
X2102000D02*
D03*
X2110000D02*
D03*
X2118000D02*
D03*
X2126000D02*
D03*
X2134000D02*
D03*
X2142000D02*
D03*
X2150000D02*
D03*
X2158000D02*
D03*
X2166000D02*
D03*
X1934000Y518000D02*
D03*
X1942000D02*
D03*
X1950000D02*
D03*
X1958000D02*
D03*
X1966000D02*
D03*
X1974000D02*
D03*
X1982000D02*
D03*
X1990000D02*
D03*
X1998000D02*
D03*
X2006000D02*
D03*
X2014000D02*
D03*
X2022000D02*
D03*
X2030000D02*
D03*
X2038000D02*
D03*
X2046000D02*
D03*
X2054000D02*
D03*
X2062000D02*
D03*
X2070000D02*
D03*
X2078000D02*
D03*
X2086000D02*
D03*
X2094000D02*
D03*
X2102000D02*
D03*
X2110000D02*
D03*
X2118000D02*
D03*
X2126000D02*
D03*
X2134000D02*
D03*
X2142000D02*
D03*
X2150000D02*
D03*
X2158000D02*
D03*
X2166000D02*
D03*
X1934000Y510000D02*
D03*
X1942000D02*
D03*
X1950000D02*
D03*
X1958000D02*
D03*
X1966000D02*
D03*
X1974000D02*
D03*
X1982000D02*
D03*
X1990000D02*
D03*
X1998000D02*
D03*
X2006000D02*
D03*
X2014000D02*
D03*
X2022000D02*
D03*
X2030000D02*
D03*
X2038000D02*
D03*
X2046000D02*
D03*
X2054000D02*
D03*
X2062000D02*
D03*
X2070000D02*
D03*
X2078000D02*
D03*
X2086000D02*
D03*
X2094000D02*
D03*
X2102000D02*
D03*
X2110000D02*
D03*
X2118000D02*
D03*
X2126000D02*
D03*
X2134000D02*
D03*
X2142000D02*
D03*
X2150000D02*
D03*
X2158000D02*
D03*
X2166000D02*
D03*
X1934000Y502000D02*
D03*
X1942000D02*
D03*
X1950000D02*
D03*
X1958000D02*
D03*
X1966000D02*
D03*
X1974000D02*
D03*
X1982000D02*
D03*
X1990000D02*
D03*
X1998000D02*
D03*
X2006000D02*
D03*
X2014000D02*
D03*
X2022000D02*
D03*
X2030000D02*
D03*
X2038000D02*
D03*
X2046000D02*
D03*
X2054000D02*
D03*
X2062000D02*
D03*
X2070000D02*
D03*
X2078000D02*
D03*
X2086000D02*
D03*
X2094000D02*
D03*
X2102000D02*
D03*
X2110000D02*
D03*
X2118000D02*
D03*
X2126000D02*
D03*
X2134000D02*
D03*
X2142000D02*
D03*
X2150000D02*
D03*
X2158000D02*
D03*
X2166000D02*
D03*
X1934000Y494000D02*
D03*
X1942000D02*
D03*
X1950000D02*
D03*
X1958000D02*
D03*
X1966000D02*
D03*
X1974000D02*
D03*
X1982000D02*
D03*
X1990000D02*
D03*
X1998000D02*
D03*
X2006000D02*
D03*
X2014000D02*
D03*
X2022000D02*
D03*
X2030000D02*
D03*
X2038000D02*
D03*
X2046000D02*
D03*
X2054000D02*
D03*
X2062000D02*
D03*
X2070000D02*
D03*
X2078000D02*
D03*
X2086000D02*
D03*
X2094000D02*
D03*
X2102000D02*
D03*
X2110000D02*
D03*
X2118000D02*
D03*
X2126000D02*
D03*
X2134000D02*
D03*
X2142000D02*
D03*
X2150000D02*
D03*
X2158000D02*
D03*
X2166000D02*
D03*
X1934000Y486000D02*
D03*
X1942000D02*
D03*
X1950000D02*
D03*
X1958000D02*
D03*
X1966000D02*
D03*
X1974000D02*
D03*
X1982000D02*
D03*
X1990000D02*
D03*
X1998000D02*
D03*
X2006000D02*
D03*
X2014000D02*
D03*
X2022000D02*
D03*
X2030000D02*
D03*
X2038000D02*
D03*
X2046000D02*
D03*
X2054000D02*
D03*
X2062000D02*
D03*
X2070000D02*
D03*
X2078000D02*
D03*
X2086000D02*
D03*
X2094000D02*
D03*
X2102000D02*
D03*
X2110000D02*
D03*
X2118000D02*
D03*
X2126000D02*
D03*
X2134000D02*
D03*
X2142000D02*
D03*
X2150000D02*
D03*
X2158000D02*
D03*
X2166000D02*
D03*
X1934000Y478000D02*
D03*
X1942000D02*
D03*
X1950000D02*
D03*
X1958000D02*
D03*
X1966000D02*
D03*
X1974000D02*
D03*
X1982000D02*
D03*
X1990000D02*
D03*
X1998000D02*
D03*
X2006000D02*
D03*
X2014000D02*
D03*
X2022000D02*
D03*
X2030000D02*
D03*
X2038000D02*
D03*
X2046000D02*
D03*
X2054000D02*
D03*
X2062000D02*
D03*
X2070000D02*
D03*
X2078000D02*
D03*
X2086000D02*
D03*
X2094000D02*
D03*
X2102000D02*
D03*
X2110000D02*
D03*
X2118000D02*
D03*
X2126000D02*
D03*
X2134000D02*
D03*
X2142000D02*
D03*
X2150000D02*
D03*
X2158000D02*
D03*
X2166000D02*
D03*
X1934000Y470000D02*
D03*
X1942000D02*
D03*
X1950000D02*
D03*
X1958000D02*
D03*
X1966000D02*
D03*
X1974000D02*
D03*
X1982000D02*
D03*
X1990000D02*
D03*
X1998000D02*
D03*
X2006000D02*
D03*
X2014000D02*
D03*
X2022000D02*
D03*
X2030000D02*
D03*
X2038000D02*
D03*
X2046000D02*
D03*
X2054000D02*
D03*
X2062000D02*
D03*
X2070000D02*
D03*
X2078000D02*
D03*
X2086000D02*
D03*
X2094000D02*
D03*
X2102000D02*
D03*
X2110000D02*
D03*
X2118000D02*
D03*
X2126000D02*
D03*
X2134000D02*
D03*
X2142000D02*
D03*
X2150000D02*
D03*
X2158000D02*
D03*
X2166000D02*
D03*
X1934000Y462000D02*
D03*
X1942000D02*
D03*
X1950000D02*
D03*
X1958000D02*
D03*
X1966000D02*
D03*
X1974000D02*
D03*
X1982000D02*
D03*
X1990000D02*
D03*
X1998000D02*
D03*
X2006000D02*
D03*
X2014000D02*
D03*
X2022000D02*
D03*
X2030000D02*
D03*
X2038000D02*
D03*
X2046000D02*
D03*
X2054000D02*
D03*
X2062000D02*
D03*
X2070000D02*
D03*
X2078000D02*
D03*
X2086000D02*
D03*
X2094000D02*
D03*
X2102000D02*
D03*
X2110000D02*
D03*
X2118000D02*
D03*
X2126000D02*
D03*
X2134000D02*
D03*
X2142000D02*
D03*
X2150000D02*
D03*
X2158000D02*
D03*
X2166000D02*
D03*
X1934000Y454000D02*
D03*
X1942000D02*
D03*
X1950000D02*
D03*
X1958000D02*
D03*
X1966000D02*
D03*
X1974000D02*
D03*
X1982000D02*
D03*
X1990000D02*
D03*
X1998000D02*
D03*
X2006000D02*
D03*
X2014000D02*
D03*
X2022000D02*
D03*
X2030000D02*
D03*
X2038000D02*
D03*
X2046000D02*
D03*
X2054000D02*
D03*
X2062000D02*
D03*
X2070000D02*
D03*
X2078000D02*
D03*
X2086000D02*
D03*
X2094000D02*
D03*
X2102000D02*
D03*
X2110000D02*
D03*
X2118000D02*
D03*
X2126000D02*
D03*
X2134000D02*
D03*
X2142000D02*
D03*
X2150000D02*
D03*
X2158000D02*
D03*
X2166000D02*
D03*
X1934000Y446000D02*
D03*
X1942000D02*
D03*
X1950000D02*
D03*
X1958000D02*
D03*
X1966000D02*
D03*
X1974000D02*
D03*
X1982000D02*
D03*
X1990000D02*
D03*
X1998000D02*
D03*
X2006000D02*
D03*
X2014000D02*
D03*
X2022000D02*
D03*
X2030000D02*
D03*
X2038000D02*
D03*
X2046000D02*
D03*
X2054000D02*
D03*
X2062000D02*
D03*
X2070000D02*
D03*
X2078000D02*
D03*
X2086000D02*
D03*
X2094000D02*
D03*
X2102000D02*
D03*
X2110000D02*
D03*
X2118000D02*
D03*
X2126000D02*
D03*
X2134000D02*
D03*
X2142000D02*
D03*
X2150000D02*
D03*
X2158000D02*
D03*
X2166000D02*
D03*
X1934000Y438000D02*
D03*
X1942000D02*
D03*
X1950000D02*
D03*
X1958000D02*
D03*
X1966000D02*
D03*
X1974000D02*
D03*
X1982000D02*
D03*
X1990000D02*
D03*
X1998000D02*
D03*
X2006000D02*
D03*
X2014000D02*
D03*
X2022000D02*
D03*
X2030000D02*
D03*
X2038000D02*
D03*
X2046000D02*
D03*
X2054000D02*
D03*
X2062000D02*
D03*
X2070000D02*
D03*
X2078000D02*
D03*
X2086000D02*
D03*
X2094000D02*
D03*
X2102000D02*
D03*
X2110000D02*
D03*
X2118000D02*
D03*
X2126000D02*
D03*
X2134000D02*
D03*
X2142000D02*
D03*
X2150000D02*
D03*
X2158000D02*
D03*
X2166000D02*
D03*
X1934000Y430000D02*
D03*
X1942000D02*
D03*
X1950000D02*
D03*
X1958000D02*
D03*
X1966000D02*
D03*
X1974000D02*
D03*
X1982000D02*
D03*
X1990000D02*
D03*
X1998000D02*
D03*
X2006000D02*
D03*
X2014000D02*
D03*
X2022000D02*
D03*
X2030000D02*
D03*
X2038000D02*
D03*
X2046000D02*
D03*
X2054000D02*
D03*
X2062000D02*
D03*
X2070000D02*
D03*
X2078000D02*
D03*
X2086000D02*
D03*
X2094000D02*
D03*
X2102000D02*
D03*
X2110000D02*
D03*
X2118000D02*
D03*
X2126000D02*
D03*
X2134000D02*
D03*
X2142000D02*
D03*
X2150000D02*
D03*
X2158000D02*
D03*
X2166000D02*
D03*
X1934000Y422000D02*
D03*
X1942000D02*
D03*
X1950000D02*
D03*
X1958000D02*
D03*
X1966000D02*
D03*
X1974000D02*
D03*
X1982000D02*
D03*
X1990000D02*
D03*
X1998000D02*
D03*
X2006000D02*
D03*
X2014000D02*
D03*
X2022000D02*
D03*
X2030000D02*
D03*
X2038000D02*
D03*
X2046000D02*
D03*
X2054000D02*
D03*
X2062000D02*
D03*
X2070000D02*
D03*
X2078000D02*
D03*
X2086000D02*
D03*
X2094000D02*
D03*
X2102000D02*
D03*
X2110000D02*
D03*
X2118000D02*
D03*
X2126000D02*
D03*
X2134000D02*
D03*
X2142000D02*
D03*
X2150000D02*
D03*
X2158000D02*
D03*
X2166000D02*
D03*
X1934000Y414000D02*
D03*
X1942000D02*
D03*
X1950000D02*
D03*
X1958000D02*
D03*
X1966000D02*
D03*
X1974000D02*
D03*
X1982000D02*
D03*
X1990000D02*
D03*
X1998000D02*
D03*
X2006000D02*
D03*
X2014000D02*
D03*
X2022000D02*
D03*
X2030000D02*
D03*
X2038000D02*
D03*
X2046000D02*
D03*
X2054000D02*
D03*
X2062000D02*
D03*
X2070000D02*
D03*
X2078000D02*
D03*
X2086000D02*
D03*
X2094000D02*
D03*
X2102000D02*
D03*
X2110000D02*
D03*
X2118000D02*
D03*
X2126000D02*
D03*
X2134000D02*
D03*
X2142000D02*
D03*
X2150000D02*
D03*
X2158000D02*
D03*
X2166000D02*
D03*
X1934000Y406000D02*
D03*
X1942000D02*
D03*
X1950000D02*
D03*
X1958000D02*
D03*
X1966000D02*
D03*
X1974000D02*
D03*
X1982000D02*
D03*
X1990000D02*
D03*
X1998000D02*
D03*
X2006000D02*
D03*
X2014000D02*
D03*
X2022000D02*
D03*
X2030000D02*
D03*
X2038000D02*
D03*
X2046000D02*
D03*
X2054000D02*
D03*
X2062000D02*
D03*
X2070000D02*
D03*
X2078000D02*
D03*
X2086000D02*
D03*
X2094000D02*
D03*
X2102000D02*
D03*
X2110000D02*
D03*
X2118000D02*
D03*
X2126000D02*
D03*
X2134000D02*
D03*
X2142000D02*
D03*
X2150000D02*
D03*
X2158000D02*
D03*
X2166000D02*
D03*
X1934000Y398000D02*
D03*
X1942000D02*
D03*
X1950000D02*
D03*
X1958000D02*
D03*
X1966000D02*
D03*
X1974000D02*
D03*
X1982000D02*
D03*
X1990000D02*
D03*
X1998000D02*
D03*
X2006000D02*
D03*
X2014000D02*
D03*
X2022000D02*
D03*
X2030000D02*
D03*
X2038000D02*
D03*
X2046000D02*
D03*
X2054000D02*
D03*
X2062000D02*
D03*
X2070000D02*
D03*
X2078000D02*
D03*
X2086000D02*
D03*
X2094000D02*
D03*
X2102000D02*
D03*
X2110000D02*
D03*
X2118000D02*
D03*
X2126000D02*
D03*
X2134000D02*
D03*
X2142000D02*
D03*
X2150000D02*
D03*
X2158000D02*
D03*
X2166000D02*
D03*
X1934000Y390000D02*
D03*
X1942000D02*
D03*
X1950000D02*
D03*
X1958000D02*
D03*
X1966000D02*
D03*
X1974000D02*
D03*
X1982000D02*
D03*
X1990000D02*
D03*
X1998000D02*
D03*
X2006000D02*
D03*
X2014000D02*
D03*
X2022000D02*
D03*
X2030000D02*
D03*
X2038000D02*
D03*
X2046000D02*
D03*
X2054000D02*
D03*
X2062000D02*
D03*
X2070000D02*
D03*
X2078000D02*
D03*
X2086000D02*
D03*
X2094000D02*
D03*
X2102000D02*
D03*
X2110000D02*
D03*
X2118000D02*
D03*
X2126000D02*
D03*
X2134000D02*
D03*
X2142000D02*
D03*
X2150000D02*
D03*
X2158000D02*
D03*
X2166000D02*
D03*
X1934000Y382000D02*
D03*
X1942000D02*
D03*
X1950000D02*
D03*
X1958000D02*
D03*
X1966000D02*
D03*
X1974000D02*
D03*
X1982000D02*
D03*
X1990000D02*
D03*
X1998000D02*
D03*
X2006000D02*
D03*
X2014000D02*
D03*
X2022000D02*
D03*
X2030000D02*
D03*
X2038000D02*
D03*
X2046000D02*
D03*
X2054000D02*
D03*
X2062000D02*
D03*
X2070000D02*
D03*
X2078000D02*
D03*
X2086000D02*
D03*
X2094000D02*
D03*
X2102000D02*
D03*
X2110000D02*
D03*
X2118000D02*
D03*
X2126000D02*
D03*
X2134000D02*
D03*
X2142000D02*
D03*
X2150000D02*
D03*
X2158000D02*
D03*
X2166000D02*
D03*
X1934000Y374000D02*
D03*
X1942000D02*
D03*
X1950000D02*
D03*
X1958000D02*
D03*
X1966000D02*
D03*
X1974000D02*
D03*
X1982000D02*
D03*
X1990000D02*
D03*
X1998000D02*
D03*
X2006000D02*
D03*
X2014000D02*
D03*
X2022000D02*
D03*
X2030000D02*
D03*
X2038000D02*
D03*
X2046000D02*
D03*
X2054000D02*
D03*
X2062000D02*
D03*
X2070000D02*
D03*
X2078000D02*
D03*
X2086000D02*
D03*
X2094000D02*
D03*
X2102000D02*
D03*
X2110000D02*
D03*
X2118000D02*
D03*
X2126000D02*
D03*
X2134000D02*
D03*
X2142000D02*
D03*
X2150000D02*
D03*
X2158000D02*
D03*
X2166000D02*
D03*
X1934000Y366000D02*
D03*
X1942000D02*
D03*
X1950000D02*
D03*
X1958000D02*
D03*
X1966000D02*
D03*
X1974000D02*
D03*
X1982000D02*
D03*
X1990000D02*
D03*
X1998000D02*
D03*
X2006000D02*
D03*
X2014000D02*
D03*
X2022000D02*
D03*
X2030000D02*
D03*
X2038000D02*
D03*
X2046000D02*
D03*
X2054000D02*
D03*
X2062000D02*
D03*
X2070000D02*
D03*
X2078000D02*
D03*
X2086000D02*
D03*
X2094000D02*
D03*
X2102000D02*
D03*
X2110000D02*
D03*
X2118000D02*
D03*
X2126000D02*
D03*
X2134000D02*
D03*
X2142000D02*
D03*
X2150000D02*
D03*
X2158000D02*
D03*
X2166000D02*
D03*
X1934000Y358000D02*
D03*
X1942000D02*
D03*
X1950000D02*
D03*
X1958000D02*
D03*
X1966000D02*
D03*
X1974000D02*
D03*
X1982000D02*
D03*
X1990000D02*
D03*
X1998000D02*
D03*
X2006000D02*
D03*
X2014000D02*
D03*
X2022000D02*
D03*
X2030000D02*
D03*
X2038000D02*
D03*
X2046000D02*
D03*
X2054000D02*
D03*
X2062000D02*
D03*
X2070000D02*
D03*
X2078000D02*
D03*
X2086000D02*
D03*
X2094000D02*
D03*
X2102000D02*
D03*
X2110000D02*
D03*
X2118000D02*
D03*
X2126000D02*
D03*
X2134000D02*
D03*
X2142000D02*
D03*
X2150000D02*
D03*
X2158000D02*
D03*
X2166000D02*
D03*
X1934000Y350000D02*
D03*
X1942000D02*
D03*
X1950000D02*
D03*
X1958000D02*
D03*
X1966000D02*
D03*
X1974000D02*
D03*
X1982000D02*
D03*
X1990000D02*
D03*
X1998000D02*
D03*
X2006000D02*
D03*
X2014000D02*
D03*
X2022000D02*
D03*
X2030000D02*
D03*
X2038000D02*
D03*
X2046000D02*
D03*
X2054000D02*
D03*
X2062000D02*
D03*
X2070000D02*
D03*
X2078000D02*
D03*
X2086000D02*
D03*
X2094000D02*
D03*
X2102000D02*
D03*
X2110000D02*
D03*
X2118000D02*
D03*
X2126000D02*
D03*
X2134000D02*
D03*
X2142000D02*
D03*
X2150000D02*
D03*
X2158000D02*
D03*
X2166000D02*
D03*
X1934000Y342000D02*
D03*
X1942000D02*
D03*
X1950000D02*
D03*
X1958000D02*
D03*
X1966000D02*
D03*
X1974000D02*
D03*
X1982000D02*
D03*
X1990000D02*
D03*
X1998000D02*
D03*
X2006000D02*
D03*
X2014000D02*
D03*
X2022000D02*
D03*
X2030000D02*
D03*
X2038000D02*
D03*
X2046000D02*
D03*
X2054000D02*
D03*
X2062000D02*
D03*
X2070000D02*
D03*
X2078000D02*
D03*
X2086000D02*
D03*
X2094000D02*
D03*
X2102000D02*
D03*
X2110000D02*
D03*
X2118000D02*
D03*
X2126000D02*
D03*
X2134000D02*
D03*
X2142000D02*
D03*
X2150000D02*
D03*
X2158000D02*
D03*
X2166000D02*
D03*
X1934000Y334000D02*
D03*
X1942000D02*
D03*
X1950000D02*
D03*
X1958000D02*
D03*
X1966000D02*
D03*
X1974000D02*
D03*
X1982000D02*
D03*
X1990000D02*
D03*
X1998000D02*
D03*
X2006000D02*
D03*
X2014000D02*
D03*
X2022000D02*
D03*
X2030000D02*
D03*
X2038000D02*
D03*
X2046000D02*
D03*
X2054000D02*
D03*
X2062000D02*
D03*
X2070000D02*
D03*
X2078000D02*
D03*
X2086000D02*
D03*
X2094000D02*
D03*
X2102000D02*
D03*
X2110000D02*
D03*
X2118000D02*
D03*
X2126000D02*
D03*
X2134000D02*
D03*
X2142000D02*
D03*
X2150000D02*
D03*
X2158000D02*
D03*
X2166000D02*
D03*
X1934000Y1934000D02*
D03*
Y1942000D02*
D03*
Y1950000D02*
D03*
Y1958000D02*
D03*
Y1966000D02*
D03*
Y1974000D02*
D03*
Y1982000D02*
D03*
Y1990000D02*
D03*
Y1998000D02*
D03*
Y2006000D02*
D03*
Y2014000D02*
D03*
Y2022000D02*
D03*
Y2030000D02*
D03*
Y2038000D02*
D03*
Y2046000D02*
D03*
Y2054000D02*
D03*
Y2062000D02*
D03*
Y2070000D02*
D03*
Y2078000D02*
D03*
Y2086000D02*
D03*
Y2094000D02*
D03*
Y2102000D02*
D03*
Y2110000D02*
D03*
Y2118000D02*
D03*
Y2126000D02*
D03*
Y2134000D02*
D03*
Y2142000D02*
D03*
Y2150000D02*
D03*
Y2158000D02*
D03*
Y2166000D02*
D03*
X1942000Y1934000D02*
D03*
Y1942000D02*
D03*
Y1950000D02*
D03*
Y1958000D02*
D03*
Y1966000D02*
D03*
Y1974000D02*
D03*
Y1982000D02*
D03*
Y1990000D02*
D03*
Y1998000D02*
D03*
Y2006000D02*
D03*
Y2014000D02*
D03*
Y2022000D02*
D03*
Y2030000D02*
D03*
Y2038000D02*
D03*
Y2046000D02*
D03*
Y2054000D02*
D03*
Y2062000D02*
D03*
Y2070000D02*
D03*
Y2078000D02*
D03*
Y2086000D02*
D03*
Y2094000D02*
D03*
Y2102000D02*
D03*
Y2110000D02*
D03*
Y2118000D02*
D03*
Y2126000D02*
D03*
Y2134000D02*
D03*
Y2142000D02*
D03*
Y2150000D02*
D03*
Y2158000D02*
D03*
Y2166000D02*
D03*
X1950000Y1934000D02*
D03*
Y1942000D02*
D03*
Y1950000D02*
D03*
Y1958000D02*
D03*
Y1966000D02*
D03*
Y1974000D02*
D03*
Y1982000D02*
D03*
Y1990000D02*
D03*
Y1998000D02*
D03*
Y2006000D02*
D03*
Y2014000D02*
D03*
Y2022000D02*
D03*
Y2030000D02*
D03*
Y2038000D02*
D03*
Y2046000D02*
D03*
Y2054000D02*
D03*
Y2062000D02*
D03*
Y2070000D02*
D03*
Y2078000D02*
D03*
Y2086000D02*
D03*
Y2094000D02*
D03*
Y2102000D02*
D03*
Y2110000D02*
D03*
Y2118000D02*
D03*
Y2126000D02*
D03*
Y2134000D02*
D03*
Y2142000D02*
D03*
Y2150000D02*
D03*
Y2158000D02*
D03*
Y2166000D02*
D03*
X1958000Y1934000D02*
D03*
Y1942000D02*
D03*
Y1950000D02*
D03*
Y1958000D02*
D03*
Y1966000D02*
D03*
Y1974000D02*
D03*
Y1982000D02*
D03*
Y1990000D02*
D03*
Y1998000D02*
D03*
Y2006000D02*
D03*
Y2014000D02*
D03*
Y2022000D02*
D03*
Y2030000D02*
D03*
Y2038000D02*
D03*
Y2046000D02*
D03*
Y2054000D02*
D03*
Y2062000D02*
D03*
Y2070000D02*
D03*
Y2078000D02*
D03*
Y2086000D02*
D03*
Y2094000D02*
D03*
Y2102000D02*
D03*
Y2110000D02*
D03*
Y2118000D02*
D03*
Y2126000D02*
D03*
Y2134000D02*
D03*
Y2142000D02*
D03*
Y2150000D02*
D03*
Y2158000D02*
D03*
Y2166000D02*
D03*
X1966000Y1934000D02*
D03*
Y1942000D02*
D03*
Y1950000D02*
D03*
Y1958000D02*
D03*
Y1966000D02*
D03*
Y1974000D02*
D03*
Y1982000D02*
D03*
Y1990000D02*
D03*
Y1998000D02*
D03*
Y2006000D02*
D03*
Y2014000D02*
D03*
Y2022000D02*
D03*
Y2030000D02*
D03*
Y2038000D02*
D03*
Y2046000D02*
D03*
Y2054000D02*
D03*
Y2062000D02*
D03*
Y2070000D02*
D03*
Y2078000D02*
D03*
Y2086000D02*
D03*
Y2094000D02*
D03*
Y2102000D02*
D03*
Y2110000D02*
D03*
Y2118000D02*
D03*
Y2126000D02*
D03*
Y2134000D02*
D03*
Y2142000D02*
D03*
Y2150000D02*
D03*
Y2158000D02*
D03*
Y2166000D02*
D03*
X1974000Y1934000D02*
D03*
Y1942000D02*
D03*
Y1950000D02*
D03*
Y1958000D02*
D03*
Y1966000D02*
D03*
Y1974000D02*
D03*
Y1982000D02*
D03*
Y1990000D02*
D03*
Y1998000D02*
D03*
Y2006000D02*
D03*
Y2014000D02*
D03*
Y2022000D02*
D03*
Y2030000D02*
D03*
Y2038000D02*
D03*
Y2046000D02*
D03*
Y2054000D02*
D03*
Y2062000D02*
D03*
Y2070000D02*
D03*
Y2078000D02*
D03*
Y2086000D02*
D03*
Y2094000D02*
D03*
Y2102000D02*
D03*
Y2110000D02*
D03*
Y2118000D02*
D03*
Y2126000D02*
D03*
Y2134000D02*
D03*
Y2142000D02*
D03*
Y2150000D02*
D03*
Y2158000D02*
D03*
Y2166000D02*
D03*
X1982000Y1934000D02*
D03*
Y1942000D02*
D03*
Y1950000D02*
D03*
Y1958000D02*
D03*
Y1966000D02*
D03*
Y1974000D02*
D03*
Y1982000D02*
D03*
Y1990000D02*
D03*
Y1998000D02*
D03*
Y2006000D02*
D03*
Y2014000D02*
D03*
Y2022000D02*
D03*
Y2030000D02*
D03*
Y2038000D02*
D03*
Y2046000D02*
D03*
Y2054000D02*
D03*
Y2062000D02*
D03*
Y2070000D02*
D03*
Y2078000D02*
D03*
Y2086000D02*
D03*
Y2094000D02*
D03*
Y2102000D02*
D03*
Y2110000D02*
D03*
Y2118000D02*
D03*
Y2126000D02*
D03*
Y2134000D02*
D03*
Y2142000D02*
D03*
Y2150000D02*
D03*
Y2158000D02*
D03*
Y2166000D02*
D03*
X1990000Y1934000D02*
D03*
Y1942000D02*
D03*
Y1950000D02*
D03*
Y1958000D02*
D03*
Y1966000D02*
D03*
Y1974000D02*
D03*
Y1982000D02*
D03*
Y1990000D02*
D03*
Y1998000D02*
D03*
Y2006000D02*
D03*
Y2014000D02*
D03*
Y2022000D02*
D03*
Y2030000D02*
D03*
Y2038000D02*
D03*
Y2046000D02*
D03*
Y2054000D02*
D03*
Y2062000D02*
D03*
Y2070000D02*
D03*
Y2078000D02*
D03*
Y2086000D02*
D03*
Y2094000D02*
D03*
Y2102000D02*
D03*
Y2110000D02*
D03*
Y2118000D02*
D03*
Y2126000D02*
D03*
Y2134000D02*
D03*
Y2142000D02*
D03*
Y2150000D02*
D03*
Y2158000D02*
D03*
Y2166000D02*
D03*
X1998000Y1934000D02*
D03*
Y1942000D02*
D03*
Y1950000D02*
D03*
Y1958000D02*
D03*
Y1966000D02*
D03*
Y1974000D02*
D03*
Y1982000D02*
D03*
Y1990000D02*
D03*
Y1998000D02*
D03*
Y2006000D02*
D03*
Y2014000D02*
D03*
Y2022000D02*
D03*
Y2030000D02*
D03*
Y2038000D02*
D03*
Y2046000D02*
D03*
Y2054000D02*
D03*
Y2062000D02*
D03*
Y2070000D02*
D03*
Y2078000D02*
D03*
Y2086000D02*
D03*
Y2094000D02*
D03*
Y2102000D02*
D03*
Y2110000D02*
D03*
Y2118000D02*
D03*
Y2126000D02*
D03*
Y2134000D02*
D03*
Y2142000D02*
D03*
Y2150000D02*
D03*
Y2158000D02*
D03*
Y2166000D02*
D03*
X2006000Y1934000D02*
D03*
Y1942000D02*
D03*
Y1950000D02*
D03*
Y1958000D02*
D03*
Y1966000D02*
D03*
Y1974000D02*
D03*
Y1982000D02*
D03*
Y1990000D02*
D03*
Y1998000D02*
D03*
Y2006000D02*
D03*
Y2014000D02*
D03*
Y2022000D02*
D03*
Y2030000D02*
D03*
Y2038000D02*
D03*
Y2046000D02*
D03*
Y2054000D02*
D03*
Y2062000D02*
D03*
Y2070000D02*
D03*
Y2078000D02*
D03*
Y2086000D02*
D03*
Y2094000D02*
D03*
Y2102000D02*
D03*
Y2110000D02*
D03*
Y2118000D02*
D03*
Y2126000D02*
D03*
Y2134000D02*
D03*
Y2142000D02*
D03*
Y2150000D02*
D03*
Y2158000D02*
D03*
Y2166000D02*
D03*
X2014000Y1934000D02*
D03*
Y1942000D02*
D03*
Y1950000D02*
D03*
Y1958000D02*
D03*
Y1966000D02*
D03*
Y1974000D02*
D03*
Y1982000D02*
D03*
Y1990000D02*
D03*
Y1998000D02*
D03*
Y2006000D02*
D03*
Y2014000D02*
D03*
Y2022000D02*
D03*
Y2030000D02*
D03*
Y2038000D02*
D03*
Y2046000D02*
D03*
Y2054000D02*
D03*
Y2062000D02*
D03*
Y2070000D02*
D03*
Y2078000D02*
D03*
Y2086000D02*
D03*
Y2094000D02*
D03*
Y2102000D02*
D03*
Y2110000D02*
D03*
Y2118000D02*
D03*
Y2126000D02*
D03*
Y2134000D02*
D03*
Y2142000D02*
D03*
Y2150000D02*
D03*
Y2158000D02*
D03*
Y2166000D02*
D03*
X2022000Y1934000D02*
D03*
Y1942000D02*
D03*
Y1950000D02*
D03*
Y1958000D02*
D03*
Y1966000D02*
D03*
Y1974000D02*
D03*
Y1982000D02*
D03*
Y1990000D02*
D03*
Y1998000D02*
D03*
Y2006000D02*
D03*
Y2014000D02*
D03*
Y2022000D02*
D03*
Y2030000D02*
D03*
Y2038000D02*
D03*
Y2046000D02*
D03*
Y2054000D02*
D03*
Y2062000D02*
D03*
Y2070000D02*
D03*
Y2078000D02*
D03*
Y2086000D02*
D03*
Y2094000D02*
D03*
Y2102000D02*
D03*
Y2110000D02*
D03*
Y2118000D02*
D03*
Y2126000D02*
D03*
Y2134000D02*
D03*
Y2142000D02*
D03*
Y2150000D02*
D03*
Y2158000D02*
D03*
Y2166000D02*
D03*
X2030000Y1934000D02*
D03*
Y1942000D02*
D03*
Y1950000D02*
D03*
Y1958000D02*
D03*
Y1966000D02*
D03*
Y1974000D02*
D03*
Y1982000D02*
D03*
Y1990000D02*
D03*
Y1998000D02*
D03*
Y2006000D02*
D03*
Y2014000D02*
D03*
Y2022000D02*
D03*
Y2030000D02*
D03*
Y2038000D02*
D03*
Y2046000D02*
D03*
Y2054000D02*
D03*
Y2062000D02*
D03*
Y2070000D02*
D03*
Y2078000D02*
D03*
Y2086000D02*
D03*
Y2094000D02*
D03*
Y2102000D02*
D03*
Y2110000D02*
D03*
Y2118000D02*
D03*
Y2126000D02*
D03*
Y2134000D02*
D03*
Y2142000D02*
D03*
Y2150000D02*
D03*
Y2158000D02*
D03*
Y2166000D02*
D03*
X2038000Y1934000D02*
D03*
Y1942000D02*
D03*
Y1950000D02*
D03*
Y1958000D02*
D03*
Y1966000D02*
D03*
Y1974000D02*
D03*
Y1982000D02*
D03*
Y1990000D02*
D03*
Y1998000D02*
D03*
Y2006000D02*
D03*
Y2014000D02*
D03*
Y2022000D02*
D03*
Y2030000D02*
D03*
Y2038000D02*
D03*
Y2046000D02*
D03*
Y2054000D02*
D03*
Y2062000D02*
D03*
Y2070000D02*
D03*
Y2078000D02*
D03*
Y2086000D02*
D03*
Y2094000D02*
D03*
Y2102000D02*
D03*
Y2110000D02*
D03*
Y2118000D02*
D03*
Y2126000D02*
D03*
Y2134000D02*
D03*
Y2142000D02*
D03*
Y2150000D02*
D03*
Y2158000D02*
D03*
Y2166000D02*
D03*
X2046000Y1934000D02*
D03*
Y1942000D02*
D03*
Y1950000D02*
D03*
Y1958000D02*
D03*
Y1966000D02*
D03*
Y1974000D02*
D03*
Y1982000D02*
D03*
Y1990000D02*
D03*
Y1998000D02*
D03*
Y2006000D02*
D03*
Y2014000D02*
D03*
Y2022000D02*
D03*
Y2030000D02*
D03*
Y2038000D02*
D03*
Y2046000D02*
D03*
Y2054000D02*
D03*
Y2062000D02*
D03*
Y2070000D02*
D03*
Y2078000D02*
D03*
Y2086000D02*
D03*
Y2094000D02*
D03*
Y2102000D02*
D03*
Y2110000D02*
D03*
Y2118000D02*
D03*
Y2126000D02*
D03*
Y2134000D02*
D03*
Y2142000D02*
D03*
Y2150000D02*
D03*
Y2158000D02*
D03*
Y2166000D02*
D03*
X2054000Y1934000D02*
D03*
Y1942000D02*
D03*
Y1950000D02*
D03*
Y1958000D02*
D03*
Y1966000D02*
D03*
Y1974000D02*
D03*
Y1982000D02*
D03*
Y1990000D02*
D03*
Y1998000D02*
D03*
Y2006000D02*
D03*
Y2014000D02*
D03*
Y2022000D02*
D03*
Y2030000D02*
D03*
Y2038000D02*
D03*
Y2046000D02*
D03*
Y2054000D02*
D03*
Y2062000D02*
D03*
Y2070000D02*
D03*
Y2078000D02*
D03*
Y2086000D02*
D03*
Y2094000D02*
D03*
Y2102000D02*
D03*
Y2110000D02*
D03*
Y2118000D02*
D03*
Y2126000D02*
D03*
Y2134000D02*
D03*
Y2142000D02*
D03*
Y2150000D02*
D03*
Y2158000D02*
D03*
Y2166000D02*
D03*
X2062000Y1934000D02*
D03*
Y1942000D02*
D03*
Y1950000D02*
D03*
Y1958000D02*
D03*
Y1966000D02*
D03*
Y1974000D02*
D03*
Y1982000D02*
D03*
Y1990000D02*
D03*
Y1998000D02*
D03*
Y2006000D02*
D03*
Y2014000D02*
D03*
Y2022000D02*
D03*
Y2030000D02*
D03*
Y2038000D02*
D03*
Y2046000D02*
D03*
Y2054000D02*
D03*
Y2062000D02*
D03*
Y2070000D02*
D03*
Y2078000D02*
D03*
Y2086000D02*
D03*
Y2094000D02*
D03*
Y2102000D02*
D03*
Y2110000D02*
D03*
Y2118000D02*
D03*
Y2126000D02*
D03*
Y2134000D02*
D03*
Y2142000D02*
D03*
Y2150000D02*
D03*
Y2158000D02*
D03*
Y2166000D02*
D03*
X2070000Y1934000D02*
D03*
Y1942000D02*
D03*
Y1950000D02*
D03*
Y1958000D02*
D03*
Y1966000D02*
D03*
Y1974000D02*
D03*
Y1982000D02*
D03*
Y1990000D02*
D03*
Y1998000D02*
D03*
Y2006000D02*
D03*
Y2014000D02*
D03*
Y2022000D02*
D03*
Y2030000D02*
D03*
Y2038000D02*
D03*
Y2046000D02*
D03*
Y2054000D02*
D03*
Y2062000D02*
D03*
Y2070000D02*
D03*
Y2078000D02*
D03*
Y2086000D02*
D03*
Y2094000D02*
D03*
Y2102000D02*
D03*
Y2110000D02*
D03*
Y2118000D02*
D03*
Y2126000D02*
D03*
Y2134000D02*
D03*
Y2142000D02*
D03*
Y2150000D02*
D03*
Y2158000D02*
D03*
Y2166000D02*
D03*
X2078000Y1934000D02*
D03*
Y1942000D02*
D03*
Y1950000D02*
D03*
Y1958000D02*
D03*
Y1966000D02*
D03*
Y1974000D02*
D03*
Y1982000D02*
D03*
Y1990000D02*
D03*
Y1998000D02*
D03*
Y2006000D02*
D03*
Y2014000D02*
D03*
Y2022000D02*
D03*
Y2030000D02*
D03*
Y2038000D02*
D03*
Y2046000D02*
D03*
Y2054000D02*
D03*
Y2062000D02*
D03*
Y2070000D02*
D03*
Y2078000D02*
D03*
Y2086000D02*
D03*
Y2094000D02*
D03*
Y2102000D02*
D03*
Y2110000D02*
D03*
Y2118000D02*
D03*
Y2126000D02*
D03*
Y2134000D02*
D03*
Y2142000D02*
D03*
Y2150000D02*
D03*
Y2158000D02*
D03*
Y2166000D02*
D03*
X2086000Y1934000D02*
D03*
Y1942000D02*
D03*
Y1950000D02*
D03*
Y1958000D02*
D03*
Y1966000D02*
D03*
Y1974000D02*
D03*
Y1982000D02*
D03*
Y1990000D02*
D03*
Y1998000D02*
D03*
Y2006000D02*
D03*
Y2014000D02*
D03*
Y2022000D02*
D03*
Y2030000D02*
D03*
Y2038000D02*
D03*
Y2046000D02*
D03*
Y2054000D02*
D03*
Y2062000D02*
D03*
Y2070000D02*
D03*
Y2078000D02*
D03*
Y2086000D02*
D03*
Y2094000D02*
D03*
Y2102000D02*
D03*
Y2110000D02*
D03*
Y2118000D02*
D03*
Y2126000D02*
D03*
Y2134000D02*
D03*
Y2142000D02*
D03*
Y2150000D02*
D03*
Y2158000D02*
D03*
Y2166000D02*
D03*
X2094000Y1934000D02*
D03*
Y1942000D02*
D03*
Y1950000D02*
D03*
Y1958000D02*
D03*
Y1966000D02*
D03*
Y1974000D02*
D03*
Y1982000D02*
D03*
Y1990000D02*
D03*
Y1998000D02*
D03*
Y2006000D02*
D03*
Y2014000D02*
D03*
Y2022000D02*
D03*
Y2030000D02*
D03*
Y2038000D02*
D03*
Y2046000D02*
D03*
Y2054000D02*
D03*
Y2062000D02*
D03*
Y2070000D02*
D03*
Y2078000D02*
D03*
Y2086000D02*
D03*
Y2094000D02*
D03*
Y2102000D02*
D03*
Y2110000D02*
D03*
Y2118000D02*
D03*
Y2126000D02*
D03*
Y2134000D02*
D03*
Y2142000D02*
D03*
Y2150000D02*
D03*
Y2158000D02*
D03*
Y2166000D02*
D03*
X2102000Y1934000D02*
D03*
Y1942000D02*
D03*
Y1950000D02*
D03*
Y1958000D02*
D03*
Y1966000D02*
D03*
Y1974000D02*
D03*
Y1982000D02*
D03*
Y1990000D02*
D03*
Y1998000D02*
D03*
Y2006000D02*
D03*
Y2014000D02*
D03*
Y2022000D02*
D03*
Y2030000D02*
D03*
Y2038000D02*
D03*
Y2046000D02*
D03*
Y2054000D02*
D03*
Y2062000D02*
D03*
Y2070000D02*
D03*
Y2078000D02*
D03*
Y2086000D02*
D03*
Y2094000D02*
D03*
Y2102000D02*
D03*
Y2110000D02*
D03*
Y2118000D02*
D03*
Y2126000D02*
D03*
Y2134000D02*
D03*
Y2142000D02*
D03*
Y2150000D02*
D03*
Y2158000D02*
D03*
Y2166000D02*
D03*
X2110000Y1934000D02*
D03*
Y1942000D02*
D03*
Y1950000D02*
D03*
Y1958000D02*
D03*
Y1966000D02*
D03*
Y1974000D02*
D03*
Y1982000D02*
D03*
Y1990000D02*
D03*
Y1998000D02*
D03*
Y2006000D02*
D03*
Y2014000D02*
D03*
Y2022000D02*
D03*
Y2030000D02*
D03*
Y2038000D02*
D03*
Y2046000D02*
D03*
Y2054000D02*
D03*
Y2062000D02*
D03*
Y2070000D02*
D03*
Y2078000D02*
D03*
Y2086000D02*
D03*
Y2094000D02*
D03*
Y2102000D02*
D03*
Y2110000D02*
D03*
Y2118000D02*
D03*
Y2126000D02*
D03*
Y2134000D02*
D03*
Y2142000D02*
D03*
Y2150000D02*
D03*
Y2158000D02*
D03*
Y2166000D02*
D03*
X2118000Y1934000D02*
D03*
Y1942000D02*
D03*
Y1950000D02*
D03*
Y1958000D02*
D03*
Y1966000D02*
D03*
Y1974000D02*
D03*
Y1982000D02*
D03*
Y1990000D02*
D03*
Y1998000D02*
D03*
Y2006000D02*
D03*
Y2014000D02*
D03*
Y2022000D02*
D03*
Y2030000D02*
D03*
Y2038000D02*
D03*
Y2046000D02*
D03*
Y2054000D02*
D03*
Y2062000D02*
D03*
Y2070000D02*
D03*
Y2078000D02*
D03*
Y2086000D02*
D03*
Y2094000D02*
D03*
Y2102000D02*
D03*
Y2110000D02*
D03*
Y2118000D02*
D03*
Y2126000D02*
D03*
Y2134000D02*
D03*
Y2142000D02*
D03*
Y2150000D02*
D03*
Y2158000D02*
D03*
Y2166000D02*
D03*
X2126000Y1934000D02*
D03*
Y1942000D02*
D03*
Y1950000D02*
D03*
Y1958000D02*
D03*
Y1966000D02*
D03*
Y1974000D02*
D03*
Y1982000D02*
D03*
Y1990000D02*
D03*
Y1998000D02*
D03*
Y2006000D02*
D03*
Y2014000D02*
D03*
Y2022000D02*
D03*
Y2030000D02*
D03*
Y2038000D02*
D03*
Y2046000D02*
D03*
Y2054000D02*
D03*
Y2062000D02*
D03*
Y2070000D02*
D03*
Y2078000D02*
D03*
Y2086000D02*
D03*
Y2094000D02*
D03*
Y2102000D02*
D03*
Y2110000D02*
D03*
Y2118000D02*
D03*
Y2126000D02*
D03*
Y2134000D02*
D03*
Y2142000D02*
D03*
Y2150000D02*
D03*
Y2158000D02*
D03*
Y2166000D02*
D03*
X2134000Y1934000D02*
D03*
Y1942000D02*
D03*
Y1950000D02*
D03*
Y1958000D02*
D03*
Y1966000D02*
D03*
Y1974000D02*
D03*
Y1982000D02*
D03*
Y1990000D02*
D03*
Y1998000D02*
D03*
Y2006000D02*
D03*
Y2014000D02*
D03*
Y2022000D02*
D03*
Y2030000D02*
D03*
Y2038000D02*
D03*
Y2046000D02*
D03*
Y2054000D02*
D03*
Y2062000D02*
D03*
Y2070000D02*
D03*
Y2078000D02*
D03*
Y2086000D02*
D03*
Y2094000D02*
D03*
Y2102000D02*
D03*
Y2110000D02*
D03*
Y2118000D02*
D03*
Y2126000D02*
D03*
Y2134000D02*
D03*
Y2142000D02*
D03*
Y2150000D02*
D03*
Y2158000D02*
D03*
Y2166000D02*
D03*
X2142000Y1934000D02*
D03*
Y1942000D02*
D03*
Y1950000D02*
D03*
Y1958000D02*
D03*
Y1966000D02*
D03*
Y1974000D02*
D03*
Y1982000D02*
D03*
Y1990000D02*
D03*
Y1998000D02*
D03*
Y2006000D02*
D03*
Y2014000D02*
D03*
Y2022000D02*
D03*
Y2030000D02*
D03*
Y2038000D02*
D03*
Y2046000D02*
D03*
Y2054000D02*
D03*
Y2062000D02*
D03*
Y2070000D02*
D03*
Y2078000D02*
D03*
Y2086000D02*
D03*
Y2094000D02*
D03*
Y2102000D02*
D03*
Y2110000D02*
D03*
Y2118000D02*
D03*
Y2126000D02*
D03*
Y2134000D02*
D03*
Y2142000D02*
D03*
Y2150000D02*
D03*
Y2158000D02*
D03*
Y2166000D02*
D03*
X2150000Y1934000D02*
D03*
Y1942000D02*
D03*
Y1950000D02*
D03*
Y1958000D02*
D03*
Y1966000D02*
D03*
Y1974000D02*
D03*
Y1982000D02*
D03*
Y1990000D02*
D03*
Y1998000D02*
D03*
Y2006000D02*
D03*
Y2014000D02*
D03*
Y2022000D02*
D03*
Y2030000D02*
D03*
Y2038000D02*
D03*
Y2046000D02*
D03*
Y2054000D02*
D03*
Y2062000D02*
D03*
Y2070000D02*
D03*
Y2078000D02*
D03*
Y2086000D02*
D03*
Y2094000D02*
D03*
Y2102000D02*
D03*
Y2110000D02*
D03*
Y2118000D02*
D03*
Y2126000D02*
D03*
Y2134000D02*
D03*
Y2142000D02*
D03*
Y2150000D02*
D03*
Y2158000D02*
D03*
Y2166000D02*
D03*
X2158000Y1934000D02*
D03*
Y1942000D02*
D03*
Y1950000D02*
D03*
Y1958000D02*
D03*
Y1966000D02*
D03*
Y1974000D02*
D03*
Y1982000D02*
D03*
Y1990000D02*
D03*
Y1998000D02*
D03*
Y2006000D02*
D03*
Y2014000D02*
D03*
Y2022000D02*
D03*
Y2030000D02*
D03*
Y2038000D02*
D03*
Y2046000D02*
D03*
Y2054000D02*
D03*
Y2062000D02*
D03*
Y2070000D02*
D03*
Y2078000D02*
D03*
Y2086000D02*
D03*
Y2094000D02*
D03*
Y2102000D02*
D03*
Y2110000D02*
D03*
Y2118000D02*
D03*
Y2126000D02*
D03*
Y2134000D02*
D03*
Y2142000D02*
D03*
Y2150000D02*
D03*
Y2158000D02*
D03*
Y2166000D02*
D03*
X2166000Y1934000D02*
D03*
Y1942000D02*
D03*
Y1950000D02*
D03*
Y1958000D02*
D03*
Y1966000D02*
D03*
Y1974000D02*
D03*
Y1982000D02*
D03*
Y1990000D02*
D03*
Y1998000D02*
D03*
Y2006000D02*
D03*
Y2014000D02*
D03*
Y2022000D02*
D03*
Y2030000D02*
D03*
Y2038000D02*
D03*
Y2046000D02*
D03*
Y2054000D02*
D03*
Y2062000D02*
D03*
Y2070000D02*
D03*
Y2078000D02*
D03*
Y2086000D02*
D03*
Y2094000D02*
D03*
Y2102000D02*
D03*
Y2110000D02*
D03*
Y2118000D02*
D03*
Y2126000D02*
D03*
Y2134000D02*
D03*
Y2142000D02*
D03*
Y2150000D02*
D03*
Y2158000D02*
D03*
Y2166000D02*
D03*
X566000Y1934000D02*
D03*
X558000D02*
D03*
X550000D02*
D03*
X542000D02*
D03*
X534000D02*
D03*
X526000D02*
D03*
X518000D02*
D03*
X510000D02*
D03*
X502000D02*
D03*
X494000D02*
D03*
X486000D02*
D03*
X478000D02*
D03*
X470000D02*
D03*
X462000D02*
D03*
X454000D02*
D03*
X446000D02*
D03*
X438000D02*
D03*
X430000D02*
D03*
X422000D02*
D03*
X414000D02*
D03*
X406000D02*
D03*
X398000D02*
D03*
X390000D02*
D03*
X382000D02*
D03*
X374000D02*
D03*
X366000D02*
D03*
X358000D02*
D03*
X350000D02*
D03*
X342000D02*
D03*
X334000D02*
D03*
X566000Y1942000D02*
D03*
X558000D02*
D03*
X550000D02*
D03*
X542000D02*
D03*
X534000D02*
D03*
X526000D02*
D03*
X518000D02*
D03*
X510000D02*
D03*
X502000D02*
D03*
X494000D02*
D03*
X486000D02*
D03*
X478000D02*
D03*
X470000D02*
D03*
X462000D02*
D03*
X454000D02*
D03*
X446000D02*
D03*
X438000D02*
D03*
X430000D02*
D03*
X422000D02*
D03*
X414000D02*
D03*
X406000D02*
D03*
X398000D02*
D03*
X390000D02*
D03*
X382000D02*
D03*
X374000D02*
D03*
X366000D02*
D03*
X358000D02*
D03*
X350000D02*
D03*
X342000D02*
D03*
X334000D02*
D03*
X566000Y1950000D02*
D03*
X558000D02*
D03*
X550000D02*
D03*
X542000D02*
D03*
X534000D02*
D03*
X526000D02*
D03*
X518000D02*
D03*
X510000D02*
D03*
X502000D02*
D03*
X494000D02*
D03*
X486000D02*
D03*
X478000D02*
D03*
X470000D02*
D03*
X462000D02*
D03*
X454000D02*
D03*
X446000D02*
D03*
X438000D02*
D03*
X430000D02*
D03*
X422000D02*
D03*
X414000D02*
D03*
X406000D02*
D03*
X398000D02*
D03*
X390000D02*
D03*
X382000D02*
D03*
X374000D02*
D03*
X366000D02*
D03*
X358000D02*
D03*
X350000D02*
D03*
X342000D02*
D03*
X334000D02*
D03*
X566000Y1958000D02*
D03*
X558000D02*
D03*
X550000D02*
D03*
X542000D02*
D03*
X534000D02*
D03*
X526000D02*
D03*
X518000D02*
D03*
X510000D02*
D03*
X502000D02*
D03*
X494000D02*
D03*
X486000D02*
D03*
X478000D02*
D03*
X470000D02*
D03*
X462000D02*
D03*
X454000D02*
D03*
X446000D02*
D03*
X438000D02*
D03*
X430000D02*
D03*
X422000D02*
D03*
X414000D02*
D03*
X406000D02*
D03*
X398000D02*
D03*
X390000D02*
D03*
X382000D02*
D03*
X374000D02*
D03*
X366000D02*
D03*
X358000D02*
D03*
X350000D02*
D03*
X342000D02*
D03*
X334000D02*
D03*
X566000Y1966000D02*
D03*
X558000D02*
D03*
X550000D02*
D03*
X542000D02*
D03*
X534000D02*
D03*
X526000D02*
D03*
X518000D02*
D03*
X510000D02*
D03*
X502000D02*
D03*
X494000D02*
D03*
X486000D02*
D03*
X478000D02*
D03*
X470000D02*
D03*
X462000D02*
D03*
X454000D02*
D03*
X446000D02*
D03*
X438000D02*
D03*
X430000D02*
D03*
X422000D02*
D03*
X414000D02*
D03*
X406000D02*
D03*
X398000D02*
D03*
X390000D02*
D03*
X382000D02*
D03*
X374000D02*
D03*
X366000D02*
D03*
X358000D02*
D03*
X350000D02*
D03*
X342000D02*
D03*
X334000D02*
D03*
X566000Y1974000D02*
D03*
X558000D02*
D03*
X550000D02*
D03*
X542000D02*
D03*
X534000D02*
D03*
X526000D02*
D03*
X518000D02*
D03*
X510000D02*
D03*
X502000D02*
D03*
X494000D02*
D03*
X486000D02*
D03*
X478000D02*
D03*
X470000D02*
D03*
X462000D02*
D03*
X454000D02*
D03*
X446000D02*
D03*
X438000D02*
D03*
X430000D02*
D03*
X422000D02*
D03*
X414000D02*
D03*
X406000D02*
D03*
X398000D02*
D03*
X390000D02*
D03*
X382000D02*
D03*
X374000D02*
D03*
X366000D02*
D03*
X358000D02*
D03*
X350000D02*
D03*
X342000D02*
D03*
X334000D02*
D03*
X566000Y1982000D02*
D03*
X558000D02*
D03*
X550000D02*
D03*
X542000D02*
D03*
X534000D02*
D03*
X526000D02*
D03*
X518000D02*
D03*
X510000D02*
D03*
X502000D02*
D03*
X494000D02*
D03*
X486000D02*
D03*
X478000D02*
D03*
X470000D02*
D03*
X462000D02*
D03*
X454000D02*
D03*
X446000D02*
D03*
X438000D02*
D03*
X430000D02*
D03*
X422000D02*
D03*
X414000D02*
D03*
X406000D02*
D03*
X398000D02*
D03*
X390000D02*
D03*
X382000D02*
D03*
X374000D02*
D03*
X366000D02*
D03*
X358000D02*
D03*
X350000D02*
D03*
X342000D02*
D03*
X334000D02*
D03*
X566000Y1990000D02*
D03*
X558000D02*
D03*
X550000D02*
D03*
X542000D02*
D03*
X534000D02*
D03*
X526000D02*
D03*
X518000D02*
D03*
X510000D02*
D03*
X502000D02*
D03*
X494000D02*
D03*
X486000D02*
D03*
X478000D02*
D03*
X470000D02*
D03*
X462000D02*
D03*
X454000D02*
D03*
X446000D02*
D03*
X438000D02*
D03*
X430000D02*
D03*
X422000D02*
D03*
X414000D02*
D03*
X406000D02*
D03*
X398000D02*
D03*
X390000D02*
D03*
X382000D02*
D03*
X374000D02*
D03*
X366000D02*
D03*
X358000D02*
D03*
X350000D02*
D03*
X342000D02*
D03*
X334000D02*
D03*
X566000Y1998000D02*
D03*
X558000D02*
D03*
X550000D02*
D03*
X542000D02*
D03*
X534000D02*
D03*
X526000D02*
D03*
X518000D02*
D03*
X510000D02*
D03*
X502000D02*
D03*
X494000D02*
D03*
X486000D02*
D03*
X478000D02*
D03*
X470000D02*
D03*
X462000D02*
D03*
X454000D02*
D03*
X446000D02*
D03*
X438000D02*
D03*
X430000D02*
D03*
X422000D02*
D03*
X414000D02*
D03*
X406000D02*
D03*
X398000D02*
D03*
X390000D02*
D03*
X382000D02*
D03*
X374000D02*
D03*
X366000D02*
D03*
X358000D02*
D03*
X350000D02*
D03*
X342000D02*
D03*
X334000D02*
D03*
X566000Y2006000D02*
D03*
X558000D02*
D03*
X550000D02*
D03*
X542000D02*
D03*
X534000D02*
D03*
X526000D02*
D03*
X518000D02*
D03*
X510000D02*
D03*
X502000D02*
D03*
X494000D02*
D03*
X486000D02*
D03*
X478000D02*
D03*
X470000D02*
D03*
X462000D02*
D03*
X454000D02*
D03*
X446000D02*
D03*
X438000D02*
D03*
X430000D02*
D03*
X422000D02*
D03*
X414000D02*
D03*
X406000D02*
D03*
X398000D02*
D03*
X390000D02*
D03*
X382000D02*
D03*
X374000D02*
D03*
X366000D02*
D03*
X358000D02*
D03*
X350000D02*
D03*
X342000D02*
D03*
X334000D02*
D03*
X566000Y2014000D02*
D03*
X558000D02*
D03*
X550000D02*
D03*
X542000D02*
D03*
X534000D02*
D03*
X526000D02*
D03*
X518000D02*
D03*
X510000D02*
D03*
X502000D02*
D03*
X494000D02*
D03*
X486000D02*
D03*
X478000D02*
D03*
X470000D02*
D03*
X462000D02*
D03*
X454000D02*
D03*
X446000D02*
D03*
X438000D02*
D03*
X430000D02*
D03*
X422000D02*
D03*
X414000D02*
D03*
X406000D02*
D03*
X398000D02*
D03*
X390000D02*
D03*
X382000D02*
D03*
X374000D02*
D03*
X366000D02*
D03*
X358000D02*
D03*
X350000D02*
D03*
X342000D02*
D03*
X334000D02*
D03*
X566000Y2022000D02*
D03*
X558000D02*
D03*
X550000D02*
D03*
X542000D02*
D03*
X534000D02*
D03*
X526000D02*
D03*
X518000D02*
D03*
X510000D02*
D03*
X502000D02*
D03*
X494000D02*
D03*
X486000D02*
D03*
X478000D02*
D03*
X470000D02*
D03*
X462000D02*
D03*
X454000D02*
D03*
X446000D02*
D03*
X438000D02*
D03*
X430000D02*
D03*
X422000D02*
D03*
X414000D02*
D03*
X406000D02*
D03*
X398000D02*
D03*
X390000D02*
D03*
X382000D02*
D03*
X374000D02*
D03*
X366000D02*
D03*
X358000D02*
D03*
X350000D02*
D03*
X342000D02*
D03*
X334000D02*
D03*
X566000Y2030000D02*
D03*
X558000D02*
D03*
X550000D02*
D03*
X542000D02*
D03*
X534000D02*
D03*
X526000D02*
D03*
X518000D02*
D03*
X510000D02*
D03*
X502000D02*
D03*
X494000D02*
D03*
X486000D02*
D03*
X478000D02*
D03*
X470000D02*
D03*
X462000D02*
D03*
X454000D02*
D03*
X446000D02*
D03*
X438000D02*
D03*
X430000D02*
D03*
X422000D02*
D03*
X414000D02*
D03*
X406000D02*
D03*
X398000D02*
D03*
X390000D02*
D03*
X382000D02*
D03*
X374000D02*
D03*
X366000D02*
D03*
X358000D02*
D03*
X350000D02*
D03*
X342000D02*
D03*
X334000D02*
D03*
X566000Y2038000D02*
D03*
X558000D02*
D03*
X550000D02*
D03*
X542000D02*
D03*
X534000D02*
D03*
X526000D02*
D03*
X518000D02*
D03*
X510000D02*
D03*
X502000D02*
D03*
X494000D02*
D03*
X486000D02*
D03*
X478000D02*
D03*
X470000D02*
D03*
X462000D02*
D03*
X454000D02*
D03*
X446000D02*
D03*
X438000D02*
D03*
X430000D02*
D03*
X422000D02*
D03*
X414000D02*
D03*
X406000D02*
D03*
X398000D02*
D03*
X390000D02*
D03*
X382000D02*
D03*
X374000D02*
D03*
X366000D02*
D03*
X358000D02*
D03*
X350000D02*
D03*
X342000D02*
D03*
X334000D02*
D03*
X566000Y2046000D02*
D03*
X558000D02*
D03*
X550000D02*
D03*
X542000D02*
D03*
X534000D02*
D03*
X526000D02*
D03*
X518000D02*
D03*
X510000D02*
D03*
X502000D02*
D03*
X494000D02*
D03*
X486000D02*
D03*
X478000D02*
D03*
X470000D02*
D03*
X462000D02*
D03*
X454000D02*
D03*
X446000D02*
D03*
X438000D02*
D03*
X430000D02*
D03*
X422000D02*
D03*
X414000D02*
D03*
X406000D02*
D03*
X398000D02*
D03*
X390000D02*
D03*
X382000D02*
D03*
X374000D02*
D03*
X366000D02*
D03*
X358000D02*
D03*
X350000D02*
D03*
X342000D02*
D03*
X334000D02*
D03*
X566000Y2054000D02*
D03*
X558000D02*
D03*
X550000D02*
D03*
X542000D02*
D03*
X534000D02*
D03*
X526000D02*
D03*
X518000D02*
D03*
X510000D02*
D03*
X502000D02*
D03*
X494000D02*
D03*
X486000D02*
D03*
X478000D02*
D03*
X470000D02*
D03*
X462000D02*
D03*
X454000D02*
D03*
X446000D02*
D03*
X438000D02*
D03*
X430000D02*
D03*
X422000D02*
D03*
X414000D02*
D03*
X406000D02*
D03*
X398000D02*
D03*
X390000D02*
D03*
X382000D02*
D03*
X374000D02*
D03*
X366000D02*
D03*
X358000D02*
D03*
X350000D02*
D03*
X342000D02*
D03*
X334000D02*
D03*
X566000Y2062000D02*
D03*
X558000D02*
D03*
X550000D02*
D03*
X542000D02*
D03*
X534000D02*
D03*
X526000D02*
D03*
X518000D02*
D03*
X510000D02*
D03*
X502000D02*
D03*
X494000D02*
D03*
X486000D02*
D03*
X478000D02*
D03*
X470000D02*
D03*
X462000D02*
D03*
X454000D02*
D03*
X446000D02*
D03*
X438000D02*
D03*
X430000D02*
D03*
X422000D02*
D03*
X414000D02*
D03*
X406000D02*
D03*
X398000D02*
D03*
X390000D02*
D03*
X382000D02*
D03*
X374000D02*
D03*
X366000D02*
D03*
X358000D02*
D03*
X350000D02*
D03*
X342000D02*
D03*
X334000D02*
D03*
X566000Y2070000D02*
D03*
X558000D02*
D03*
X550000D02*
D03*
X542000D02*
D03*
X534000D02*
D03*
X526000D02*
D03*
X518000D02*
D03*
X510000D02*
D03*
X502000D02*
D03*
X494000D02*
D03*
X486000D02*
D03*
X478000D02*
D03*
X470000D02*
D03*
X462000D02*
D03*
X454000D02*
D03*
X446000D02*
D03*
X438000D02*
D03*
X430000D02*
D03*
X422000D02*
D03*
X414000D02*
D03*
X406000D02*
D03*
X398000D02*
D03*
X390000D02*
D03*
X382000D02*
D03*
X374000D02*
D03*
X366000D02*
D03*
X358000D02*
D03*
X350000D02*
D03*
X342000D02*
D03*
X334000D02*
D03*
X566000Y2078000D02*
D03*
X558000D02*
D03*
X550000D02*
D03*
X542000D02*
D03*
X534000D02*
D03*
X526000D02*
D03*
X518000D02*
D03*
X510000D02*
D03*
X502000D02*
D03*
X494000D02*
D03*
X486000D02*
D03*
X478000D02*
D03*
X470000D02*
D03*
X462000D02*
D03*
X454000D02*
D03*
X446000D02*
D03*
X438000D02*
D03*
X430000D02*
D03*
X422000D02*
D03*
X414000D02*
D03*
X406000D02*
D03*
X398000D02*
D03*
X390000D02*
D03*
X382000D02*
D03*
X374000D02*
D03*
X366000D02*
D03*
X358000D02*
D03*
X350000D02*
D03*
X342000D02*
D03*
X334000D02*
D03*
X566000Y2086000D02*
D03*
X558000D02*
D03*
X550000D02*
D03*
X542000D02*
D03*
X534000D02*
D03*
X526000D02*
D03*
X518000D02*
D03*
X510000D02*
D03*
X502000D02*
D03*
X494000D02*
D03*
X486000D02*
D03*
X478000D02*
D03*
X470000D02*
D03*
X462000D02*
D03*
X454000D02*
D03*
X446000D02*
D03*
X438000D02*
D03*
X430000D02*
D03*
X422000D02*
D03*
X414000D02*
D03*
X406000D02*
D03*
X398000D02*
D03*
X390000D02*
D03*
X382000D02*
D03*
X374000D02*
D03*
X366000D02*
D03*
X358000D02*
D03*
X350000D02*
D03*
X342000D02*
D03*
X334000D02*
D03*
X566000Y2094000D02*
D03*
X558000D02*
D03*
X550000D02*
D03*
X542000D02*
D03*
X534000D02*
D03*
X526000D02*
D03*
X518000D02*
D03*
X510000D02*
D03*
X502000D02*
D03*
X494000D02*
D03*
X486000D02*
D03*
X478000D02*
D03*
X470000D02*
D03*
X462000D02*
D03*
X454000D02*
D03*
X446000D02*
D03*
X438000D02*
D03*
X430000D02*
D03*
X422000D02*
D03*
X414000D02*
D03*
X406000D02*
D03*
X398000D02*
D03*
X390000D02*
D03*
X382000D02*
D03*
X374000D02*
D03*
X366000D02*
D03*
X358000D02*
D03*
X350000D02*
D03*
X342000D02*
D03*
X334000D02*
D03*
X566000Y2102000D02*
D03*
X558000D02*
D03*
X550000D02*
D03*
X542000D02*
D03*
X534000D02*
D03*
X526000D02*
D03*
X518000D02*
D03*
X510000D02*
D03*
X502000D02*
D03*
X494000D02*
D03*
X486000D02*
D03*
X478000D02*
D03*
X470000D02*
D03*
X462000D02*
D03*
X454000D02*
D03*
X446000D02*
D03*
X438000D02*
D03*
X430000D02*
D03*
X422000D02*
D03*
X414000D02*
D03*
X406000D02*
D03*
X398000D02*
D03*
X390000D02*
D03*
X382000D02*
D03*
X374000D02*
D03*
X366000D02*
D03*
X358000D02*
D03*
X350000D02*
D03*
X342000D02*
D03*
X334000D02*
D03*
X566000Y2110000D02*
D03*
X558000D02*
D03*
X550000D02*
D03*
X542000D02*
D03*
X534000D02*
D03*
X526000D02*
D03*
X518000D02*
D03*
X510000D02*
D03*
X502000D02*
D03*
X494000D02*
D03*
X486000D02*
D03*
X478000D02*
D03*
X470000D02*
D03*
X462000D02*
D03*
X454000D02*
D03*
X446000D02*
D03*
X438000D02*
D03*
X430000D02*
D03*
X422000D02*
D03*
X414000D02*
D03*
X406000D02*
D03*
X398000D02*
D03*
X390000D02*
D03*
X382000D02*
D03*
X374000D02*
D03*
X366000D02*
D03*
X358000D02*
D03*
X350000D02*
D03*
X342000D02*
D03*
X334000D02*
D03*
X566000Y2118000D02*
D03*
X558000D02*
D03*
X550000D02*
D03*
X542000D02*
D03*
X534000D02*
D03*
X526000D02*
D03*
X518000D02*
D03*
X510000D02*
D03*
X502000D02*
D03*
X494000D02*
D03*
X486000D02*
D03*
X478000D02*
D03*
X470000D02*
D03*
X462000D02*
D03*
X454000D02*
D03*
X446000D02*
D03*
X438000D02*
D03*
X430000D02*
D03*
X422000D02*
D03*
X414000D02*
D03*
X406000D02*
D03*
X398000D02*
D03*
X390000D02*
D03*
X382000D02*
D03*
X374000D02*
D03*
X366000D02*
D03*
X358000D02*
D03*
X350000D02*
D03*
X342000D02*
D03*
X334000D02*
D03*
X566000Y2126000D02*
D03*
X558000D02*
D03*
X550000D02*
D03*
X542000D02*
D03*
X534000D02*
D03*
X526000D02*
D03*
X518000D02*
D03*
X510000D02*
D03*
X502000D02*
D03*
X494000D02*
D03*
X486000D02*
D03*
X478000D02*
D03*
X470000D02*
D03*
X462000D02*
D03*
X454000D02*
D03*
X446000D02*
D03*
X438000D02*
D03*
X430000D02*
D03*
X422000D02*
D03*
X414000D02*
D03*
X406000D02*
D03*
X398000D02*
D03*
X390000D02*
D03*
X382000D02*
D03*
X374000D02*
D03*
X366000D02*
D03*
X358000D02*
D03*
X350000D02*
D03*
X342000D02*
D03*
X334000D02*
D03*
X566000Y2134000D02*
D03*
X558000D02*
D03*
X550000D02*
D03*
X542000D02*
D03*
X534000D02*
D03*
X526000D02*
D03*
X518000D02*
D03*
X510000D02*
D03*
X502000D02*
D03*
X494000D02*
D03*
X486000D02*
D03*
X478000D02*
D03*
X470000D02*
D03*
X462000D02*
D03*
X454000D02*
D03*
X446000D02*
D03*
X438000D02*
D03*
X430000D02*
D03*
X422000D02*
D03*
X414000D02*
D03*
X406000D02*
D03*
X398000D02*
D03*
X390000D02*
D03*
X382000D02*
D03*
X374000D02*
D03*
X366000D02*
D03*
X358000D02*
D03*
X350000D02*
D03*
X342000D02*
D03*
X334000D02*
D03*
X566000Y2142000D02*
D03*
X558000D02*
D03*
X550000D02*
D03*
X542000D02*
D03*
X534000D02*
D03*
X526000D02*
D03*
X518000D02*
D03*
X510000D02*
D03*
X502000D02*
D03*
X494000D02*
D03*
X486000D02*
D03*
X478000D02*
D03*
X470000D02*
D03*
X462000D02*
D03*
X454000D02*
D03*
X446000D02*
D03*
X438000D02*
D03*
X430000D02*
D03*
X422000D02*
D03*
X414000D02*
D03*
X406000D02*
D03*
X398000D02*
D03*
X390000D02*
D03*
X382000D02*
D03*
X374000D02*
D03*
X366000D02*
D03*
X358000D02*
D03*
X350000D02*
D03*
X342000D02*
D03*
X334000D02*
D03*
X566000Y2150000D02*
D03*
X558000D02*
D03*
X550000D02*
D03*
X542000D02*
D03*
X534000D02*
D03*
X526000D02*
D03*
X518000D02*
D03*
X510000D02*
D03*
X502000D02*
D03*
X494000D02*
D03*
X486000D02*
D03*
X478000D02*
D03*
X470000D02*
D03*
X462000D02*
D03*
X454000D02*
D03*
X446000D02*
D03*
X438000D02*
D03*
X430000D02*
D03*
X422000D02*
D03*
X414000D02*
D03*
X406000D02*
D03*
X398000D02*
D03*
X390000D02*
D03*
X382000D02*
D03*
X374000D02*
D03*
X366000D02*
D03*
X358000D02*
D03*
X350000D02*
D03*
X342000D02*
D03*
X334000D02*
D03*
X566000Y2158000D02*
D03*
X558000D02*
D03*
X550000D02*
D03*
X542000D02*
D03*
X534000D02*
D03*
X526000D02*
D03*
X518000D02*
D03*
X510000D02*
D03*
X502000D02*
D03*
X494000D02*
D03*
X486000D02*
D03*
X478000D02*
D03*
X470000D02*
D03*
X462000D02*
D03*
X454000D02*
D03*
X446000D02*
D03*
X438000D02*
D03*
X430000D02*
D03*
X422000D02*
D03*
X414000D02*
D03*
X406000D02*
D03*
X398000D02*
D03*
X390000D02*
D03*
X382000D02*
D03*
X374000D02*
D03*
X366000D02*
D03*
X358000D02*
D03*
X350000D02*
D03*
X342000D02*
D03*
X334000D02*
D03*
X566000Y2166000D02*
D03*
X558000D02*
D03*
X550000D02*
D03*
X542000D02*
D03*
X534000D02*
D03*
X526000D02*
D03*
X518000D02*
D03*
X510000D02*
D03*
X502000D02*
D03*
X494000D02*
D03*
X486000D02*
D03*
X478000D02*
D03*
X470000D02*
D03*
X462000D02*
D03*
X454000D02*
D03*
X446000D02*
D03*
X438000D02*
D03*
X430000D02*
D03*
X422000D02*
D03*
X414000D02*
D03*
X406000D02*
D03*
X398000D02*
D03*
X390000D02*
D03*
X382000D02*
D03*
X374000D02*
D03*
X366000D02*
D03*
X358000D02*
D03*
X350000D02*
D03*
X342000D02*
D03*
X334000D02*
D03*
D11*
X316500Y583500D02*
D03*
X583500Y316500D02*
D03*
X1916500D02*
D03*
X2183500Y583500D02*
D03*
Y1916500D02*
D03*
X1916500Y2183500D02*
D03*
X583500D02*
D03*
X316500Y1916500D02*
D03*
D12*
X1289000Y907000D02*
D03*
X1259000D02*
D03*
X1211000D02*
D03*
X1241000D02*
D03*
X1211000Y939000D02*
D03*
X1241000D02*
D03*
X1210999Y1035011D02*
D03*
X1240999D02*
D03*
X1241000Y1258000D02*
D03*
X1211000D02*
D03*
X1259000D02*
D03*
X1289000D02*
D03*
X1211000Y1418000D02*
D03*
X1241000D02*
D03*
X1211000Y1514000D02*
D03*
X1241000D02*
D03*
X1289000Y1418000D02*
D03*
X1259000D02*
D03*
X1289000Y1450000D02*
D03*
X1259000D02*
D03*
X1211000Y1193991D02*
D03*
X1241000D02*
D03*
X1210999Y1226009D02*
D03*
X1240999D02*
D03*
X1289001Y1193991D02*
D03*
X1259001D02*
D03*
X1289000Y1226000D02*
D03*
X1259000D02*
D03*
X1289001Y938991D02*
D03*
X1259001D02*
D03*
X1289000Y1035000D02*
D03*
X1259000D02*
D03*
X1211000Y971000D02*
D03*
X1241000D02*
D03*
Y1003255D02*
D03*
X1211000D02*
D03*
Y1130000D02*
D03*
X1241000D02*
D03*
Y1162000D02*
D03*
X1211000D02*
D03*
Y1290000D02*
D03*
X1241000D02*
D03*
X1211000Y1322000D02*
D03*
X1241000D02*
D03*
X1211000Y1450000D02*
D03*
X1241000D02*
D03*
Y1482000D02*
D03*
X1211000D02*
D03*
X1289000Y1514000D02*
D03*
X1259000D02*
D03*
Y1482000D02*
D03*
X1289000D02*
D03*
Y1322000D02*
D03*
X1259000D02*
D03*
X1289000Y1290000D02*
D03*
X1259000D02*
D03*
Y1162000D02*
D03*
X1289000D02*
D03*
Y1130000D02*
D03*
X1259000D02*
D03*
Y1003000D02*
D03*
X1289000D02*
D03*
Y971000D02*
D03*
X1259000D02*
D03*
X1785000Y1890000D02*
D03*
X1815000D02*
D03*
X1785000Y2210000D02*
D03*
X1815000D02*
D03*
X1785000Y2170000D02*
D03*
X1815000D02*
D03*
X1785000Y2130000D02*
D03*
X1815000D02*
D03*
X1785000Y2090000D02*
D03*
X1815000D02*
D03*
X1785000Y2050000D02*
D03*
X1815000D02*
D03*
X1785000Y1970000D02*
D03*
X1815000D02*
D03*
X1785000Y1930000D02*
D03*
X1815000D02*
D03*
X185000Y2170000D02*
D03*
X215000D02*
D03*
X185000Y2130000D02*
D03*
X215000D02*
D03*
X185000Y2050000D02*
D03*
X215000D02*
D03*
X185000Y2090000D02*
D03*
X215000D02*
D03*
X185000Y2010000D02*
D03*
X215000D02*
D03*
X1785000Y2010000D02*
D03*
X1815000D02*
D03*
X185000Y1970000D02*
D03*
X215000D02*
D03*
X185000Y1930000D02*
D03*
X215000D02*
D03*
X715000Y1890000D02*
D03*
X685000D02*
D03*
X185000D02*
D03*
X215000D02*
D03*
X715000Y2210000D02*
D03*
X685000D02*
D03*
X715000Y330000D02*
D03*
X685000D02*
D03*
X185000Y2210000D02*
D03*
X215000D02*
D03*
X715000Y1930000D02*
D03*
X685000D02*
D03*
X715000Y1970000D02*
D03*
X685000D02*
D03*
X715000Y2010000D02*
D03*
X685000D02*
D03*
X715000Y2090000D02*
D03*
X685000D02*
D03*
X715000Y2050000D02*
D03*
X685000D02*
D03*
X715000Y2130000D02*
D03*
X685000D02*
D03*
X715000Y2170000D02*
D03*
X685000D02*
D03*
X715000Y290000D02*
D03*
X685000D02*
D03*
X715000Y610000D02*
D03*
X685000D02*
D03*
X715000Y370000D02*
D03*
X685000D02*
D03*
X715000Y410000D02*
D03*
X685000D02*
D03*
X715000Y450000D02*
D03*
X685000D02*
D03*
X715000Y530000D02*
D03*
X685000D02*
D03*
X715000Y490000D02*
D03*
X685000D02*
D03*
X715000Y570000D02*
D03*
X685000D02*
D03*
X2315000Y330000D02*
D03*
X2285000D02*
D03*
X2315000Y370000D02*
D03*
X2285000D02*
D03*
X2315000Y410000D02*
D03*
X2285000D02*
D03*
X2315000Y490000D02*
D03*
X2285000D02*
D03*
X2315000Y450000D02*
D03*
X2285000D02*
D03*
X2315000Y530000D02*
D03*
X2285000D02*
D03*
X2315000Y570000D02*
D03*
X2285000D02*
D03*
X1785000D02*
D03*
X1815000D02*
D03*
X1785000Y530000D02*
D03*
X1815000D02*
D03*
X1785000Y490000D02*
D03*
X1815000D02*
D03*
X1785000Y450000D02*
D03*
X1815000D02*
D03*
X1785000Y410000D02*
D03*
X1815000D02*
D03*
X1785000Y370000D02*
D03*
X1815000D02*
D03*
X1785000Y330000D02*
D03*
X1815000D02*
D03*
X1785000Y290000D02*
D03*
X1815000D02*
D03*
X2315000D02*
D03*
X2285000D02*
D03*
X2315000Y610000D02*
D03*
X2285000D02*
D03*
X1785000D02*
D03*
X1815000D02*
D03*
X985000Y2210000D02*
D03*
X1015000D02*
D03*
X1515000Y1890000D02*
D03*
X1485000D02*
D03*
X985000D02*
D03*
X1015000D02*
D03*
X1515000Y2210000D02*
D03*
X1485000D02*
D03*
X985000Y2170000D02*
D03*
X1015000D02*
D03*
X985000Y2130000D02*
D03*
X1015000D02*
D03*
X985000Y2090000D02*
D03*
X1015000D02*
D03*
X985000Y2050000D02*
D03*
X1015000D02*
D03*
X985000Y2010000D02*
D03*
X1015000D02*
D03*
X985000Y1970002D02*
D03*
X1015000D02*
D03*
X985000Y1930000D02*
D03*
X1015000D02*
D03*
X1515000D02*
D03*
X1485000D02*
D03*
X1515000Y1970000D02*
D03*
X1485000D02*
D03*
X1515000Y2010000D02*
D03*
X1485000D02*
D03*
X1515000Y2050000D02*
D03*
X1485000D02*
D03*
X1515000Y2090000D02*
D03*
X1485000D02*
D03*
X1515000Y2169998D02*
D03*
X1485000D02*
D03*
X1515000Y2130000D02*
D03*
X1485000D02*
D03*
X715000Y1410000D02*
D03*
X685000D02*
D03*
X715000Y1090000D02*
D03*
X685000D02*
D03*
X715000Y1130000D02*
D03*
X685000D02*
D03*
X715000Y1170000D02*
D03*
X685000D02*
D03*
X715000Y1210000D02*
D03*
X685000D02*
D03*
X715000Y1250000D02*
D03*
X685000D02*
D03*
X715000Y1290000D02*
D03*
X685000D02*
D03*
X715000Y1330000D02*
D03*
X685000D02*
D03*
X715000Y1370000D02*
D03*
X685000D02*
D03*
X1785000Y1090000D02*
D03*
X1815000D02*
D03*
X1785000Y1410000D02*
D03*
X1815000D02*
D03*
X1164000Y1003000D02*
D03*
X1194000D02*
D03*
X1164000Y971000D02*
D03*
X1194000D02*
D03*
X1164000Y1130000D02*
D03*
X1194000D02*
D03*
X1164000Y1162000D02*
D03*
X1194000D02*
D03*
X1164000Y1322000D02*
D03*
X1194000D02*
D03*
X1164000Y1290000D02*
D03*
X1194000D02*
D03*
X1164000Y1482000D02*
D03*
X1194000D02*
D03*
X1164000Y1450000D02*
D03*
X1194000D02*
D03*
X1335750Y1498000D02*
D03*
X1305750D02*
D03*
X1336000Y1530000D02*
D03*
X1306000D02*
D03*
X1515000Y330000D02*
D03*
X1485000D02*
D03*
X1785000Y1290000D02*
D03*
X1815000D02*
D03*
X1785000Y1210000D02*
D03*
X1815000D02*
D03*
X1785000Y1130000D02*
D03*
X1815000D02*
D03*
X1515000Y570000D02*
D03*
X1485000D02*
D03*
X1515000Y490000D02*
D03*
X1485000D02*
D03*
X985000Y290000D02*
D03*
X1015000D02*
D03*
X985000Y610000D02*
D03*
X1015000D02*
D03*
X985000Y530000D02*
D03*
X1015000D02*
D03*
X985000Y490000D02*
D03*
X1015000D02*
D03*
X985000Y450000D02*
D03*
X1015000D02*
D03*
X1515000Y370000D02*
D03*
X1485000D02*
D03*
X1785000Y1370000D02*
D03*
X1815000D02*
D03*
X1785000Y1330000D02*
D03*
X1815000D02*
D03*
X1785000Y1250000D02*
D03*
X1815000D02*
D03*
X1785000Y1170000D02*
D03*
X1815000D02*
D03*
X1515000Y410000D02*
D03*
X1485000D02*
D03*
X1515000Y450000D02*
D03*
X1485000D02*
D03*
X1515000Y530000D02*
D03*
X1485000D02*
D03*
X1515000Y290000D02*
D03*
X1485000D02*
D03*
X1515000Y610000D02*
D03*
X1485000D02*
D03*
X985000Y570000D02*
D03*
X1015000D02*
D03*
X985000Y330000D02*
D03*
X1015000D02*
D03*
X985000Y370000D02*
D03*
X1015000D02*
D03*
X985000Y410000D02*
D03*
X1015000D02*
D03*
X1306000Y1051000D02*
D03*
X1336000D02*
D03*
X1306000Y1178000D02*
D03*
X1336000D02*
D03*
X1306000Y1370000D02*
D03*
X1336000D02*
D03*
X1306000Y1019000D02*
D03*
X1336000D02*
D03*
X1306000Y1210000D02*
D03*
X1336000D02*
D03*
X1306000Y1338000D02*
D03*
X1336000D02*
D03*
X1599000Y1786000D02*
D03*
X1629000D02*
D03*
X189000Y632000D02*
D03*
X219000D02*
D03*
X2311000Y1868000D02*
D03*
X2281000D02*
D03*
D13*
X319000Y2407000D02*
D03*
X335000D02*
D03*
X2181000Y93000D02*
D03*
X2165000D02*
D03*
X1287000Y1740000D02*
D03*
X1303000D02*
D03*
X1337000Y1595000D02*
D03*
X1353000D02*
D03*
X1678618Y1875000D02*
D03*
X1662618D02*
D03*
X1721618Y1893000D02*
D03*
X1737618D02*
D03*
X1262000Y1770000D02*
D03*
X1278000D02*
D03*
X1337000Y1580000D02*
D03*
X1353000D02*
D03*
X1337000Y1610000D02*
D03*
X1353000D02*
D03*
X1337000Y1625000D02*
D03*
X1353000D02*
D03*
X2308000Y1950000D02*
D03*
X2292000D02*
D03*
X192000Y550000D02*
D03*
X208000D02*
D03*
X2308000Y2110000D02*
D03*
X2292000D02*
D03*
X192000Y390000D02*
D03*
X208000D02*
D03*
X2189000Y190000D02*
D03*
X2173000D02*
D03*
X2088000Y263000D02*
D03*
X2072000D02*
D03*
X312000Y2310000D02*
D03*
X328000D02*
D03*
X411000Y2237000D02*
D03*
X427000D02*
D03*
D14*
X434000Y2267001D02*
D03*
X410000D02*
D03*
Y2245001D02*
D03*
X434000D02*
D03*
X2066000Y226000D02*
D03*
X2090000D02*
D03*
Y248000D02*
D03*
X2066000D02*
D03*
D15*
X445000Y2222000D02*
D03*
X429000D02*
D03*
X350000Y2407000D02*
D03*
X366000D02*
D03*
X2053000Y278000D02*
D03*
X2069000D02*
D03*
X2150000Y93000D02*
D03*
X2134000D02*
D03*
X1287000Y1755000D02*
D03*
X1303000D02*
D03*
X1353000Y1660000D02*
D03*
X1337000D02*
D03*
X1260000Y1538000D02*
D03*
X1244000D02*
D03*
X196000Y569000D02*
D03*
X212000D02*
D03*
X196000Y586110D02*
D03*
X212000D02*
D03*
X1975000Y244000D02*
D03*
X1991000D02*
D03*
X2182000D02*
D03*
X2166000D02*
D03*
X2304000Y1914000D02*
D03*
X2288000D02*
D03*
X2304000Y1930999D02*
D03*
X2288000D02*
D03*
X525000Y2256000D02*
D03*
X509000D02*
D03*
X319000D02*
D03*
X335000D02*
D03*
D16*
X431500Y2263501D02*
D03*
X412500D02*
D03*
Y2248501D02*
D03*
X431500D02*
D03*
X2068500Y229500D02*
D03*
X2087500D02*
D03*
Y244500D02*
D03*
X2068500D02*
D03*
D17*
X433000Y2247001D02*
D03*
X411000D02*
D03*
Y2265001D02*
D03*
X433000D02*
D03*
X2067000Y246000D02*
D03*
X2089000D02*
D03*
Y228000D02*
D03*
X2067000D02*
D03*
D18*
X2407000Y2180000D02*
D03*
Y2164000D02*
D03*
X93000Y319000D02*
D03*
Y335000D02*
D03*
X1662000Y1803501D02*
D03*
Y1819501D02*
D03*
X1405000Y1629500D02*
D03*
Y1613500D02*
D03*
X1350000Y1742000D02*
D03*
Y1758000D02*
D03*
X1110000Y1638000D02*
D03*
Y1622000D02*
D03*
X1320000Y1758000D02*
D03*
Y1742000D02*
D03*
X1282500Y1569000D02*
D03*
Y1553000D02*
D03*
X1297500Y1569000D02*
D03*
Y1553000D02*
D03*
X1165000Y1732000D02*
D03*
Y1748000D02*
D03*
X1678118Y1819750D02*
D03*
Y1803750D02*
D03*
X1252500Y1553000D02*
D03*
Y1569000D02*
D03*
X1267500Y1553000D02*
D03*
Y1569000D02*
D03*
X550000Y2308000D02*
D03*
Y2292000D02*
D03*
X1950000Y192000D02*
D03*
Y208000D02*
D03*
X390000Y2308000D02*
D03*
Y2292000D02*
D03*
X2110000Y192000D02*
D03*
Y208000D02*
D03*
X189500Y312000D02*
D03*
Y328000D02*
D03*
X263000Y412000D02*
D03*
Y428000D02*
D03*
X2310000Y2188000D02*
D03*
Y2172000D02*
D03*
X2237000Y2089000D02*
D03*
Y2073000D02*
D03*
D19*
X2266000Y2066000D02*
D03*
Y2090000D02*
D03*
X2244000D02*
D03*
Y2066000D02*
D03*
X233000Y434000D02*
D03*
Y410000D02*
D03*
X255000D02*
D03*
Y434000D02*
D03*
D20*
X2221000Y2053000D02*
D03*
Y2069000D02*
D03*
X2407000Y2150000D02*
D03*
Y2134000D02*
D03*
X278000Y447000D02*
D03*
Y431000D02*
D03*
X93000Y350000D02*
D03*
Y366000D02*
D03*
X1335000Y1758000D02*
D03*
Y1742000D02*
D03*
X1422499Y1629501D02*
D03*
Y1613501D02*
D03*
X1405000Y1662000D02*
D03*
Y1646000D02*
D03*
X1240000Y1748000D02*
D03*
Y1732000D02*
D03*
X1110000Y1678000D02*
D03*
Y1662000D02*
D03*
Y1713000D02*
D03*
Y1697000D02*
D03*
Y1587000D02*
D03*
Y1603000D02*
D03*
X244000Y525000D02*
D03*
Y509000D02*
D03*
Y319000D02*
D03*
Y335000D02*
D03*
X1914000Y198000D02*
D03*
Y214000D02*
D03*
X1931000Y198000D02*
D03*
Y214000D02*
D03*
X2256000Y1974000D02*
D03*
Y1990000D02*
D03*
Y2181000D02*
D03*
Y2165000D02*
D03*
X569000Y2303999D02*
D03*
Y2287999D02*
D03*
X586013Y2304000D02*
D03*
Y2288000D02*
D03*
D21*
X2262500Y2068500D02*
D03*
Y2087500D02*
D03*
X2247500D02*
D03*
Y2068500D02*
D03*
X236500Y431500D02*
D03*
Y412500D02*
D03*
X251500D02*
D03*
Y431500D02*
D03*
D22*
X2246000Y2067000D02*
D03*
Y2089000D02*
D03*
X2264000D02*
D03*
Y2067000D02*
D03*
X253000Y433000D02*
D03*
Y411000D02*
D03*
X235000D02*
D03*
Y433000D02*
D03*
D23*
X1379000Y1609500D02*
D03*
D24*
Y1635000D02*
D03*
Y1660000D02*
D03*
Y1685500D02*
D03*
Y1711000D02*
D03*
D25*
X2170000Y2315000D02*
D03*
Y2285000D02*
D03*
X2130000Y2315000D02*
D03*
Y2285000D02*
D03*
X2090000Y2315000D02*
D03*
Y2285000D02*
D03*
X2050000Y2315000D02*
D03*
Y2285000D02*
D03*
X2010000Y2315000D02*
D03*
Y2285000D02*
D03*
X1930000Y2315000D02*
D03*
Y2285000D02*
D03*
X2210000Y1785000D02*
D03*
Y1815000D02*
D03*
Y2315000D02*
D03*
Y2285000D02*
D03*
X1890000Y1785000D02*
D03*
Y1815000D02*
D03*
X1970000Y2315000D02*
D03*
Y2285000D02*
D03*
X1700000Y1485000D02*
D03*
Y1515000D02*
D03*
X1930000Y1785000D02*
D03*
Y1815000D02*
D03*
X1970000Y1785000D02*
D03*
Y1815000D02*
D03*
X2010000Y1785000D02*
D03*
Y1815000D02*
D03*
X2050000Y1785000D02*
D03*
Y1815000D02*
D03*
X2090000Y1785000D02*
D03*
Y1815000D02*
D03*
X2130000Y1785000D02*
D03*
Y1815000D02*
D03*
X2170000Y1785000D02*
D03*
Y1815000D02*
D03*
X1890000Y2315000D02*
D03*
Y2285000D02*
D03*
X610000Y1785000D02*
D03*
Y1815000D02*
D03*
X290000Y1785000D02*
D03*
Y1815000D02*
D03*
X530000Y185000D02*
D03*
Y215000D02*
D03*
X800000Y1495000D02*
D03*
Y1465000D02*
D03*
X330000Y185000D02*
D03*
Y215000D02*
D03*
X410000Y1785000D02*
D03*
Y1815000D02*
D03*
X330000Y1785000D02*
D03*
Y1815000D02*
D03*
X370000Y1785000D02*
D03*
Y1815000D02*
D03*
X450000Y1785000D02*
D03*
Y1815000D02*
D03*
X490000Y1785000D02*
D03*
Y1815000D02*
D03*
X530000Y1785000D02*
D03*
Y1815000D02*
D03*
X570000Y1785000D02*
D03*
Y1815000D02*
D03*
X370000Y185000D02*
D03*
Y215000D02*
D03*
X410000Y185000D02*
D03*
Y215000D02*
D03*
X450000Y185000D02*
D03*
Y215000D02*
D03*
X490000Y185000D02*
D03*
Y215000D02*
D03*
X570000Y185000D02*
D03*
Y215000D02*
D03*
X290000Y715000D02*
D03*
Y685000D02*
D03*
Y185000D02*
D03*
Y215000D02*
D03*
X610000Y715000D02*
D03*
Y685000D02*
D03*
Y185000D02*
D03*
Y215000D02*
D03*
X800000Y1015000D02*
D03*
Y985000D02*
D03*
X570000Y715000D02*
D03*
Y685000D02*
D03*
X490000Y715000D02*
D03*
Y685000D02*
D03*
X530000Y715000D02*
D03*
Y685000D02*
D03*
X450000Y715000D02*
D03*
Y685000D02*
D03*
X410000Y715000D02*
D03*
Y685000D02*
D03*
X370000Y715000D02*
D03*
Y685000D02*
D03*
X330000Y715000D02*
D03*
Y685000D02*
D03*
X1890000Y715000D02*
D03*
Y685000D02*
D03*
X2210000Y715000D02*
D03*
Y685000D02*
D03*
X1700000Y1005000D02*
D03*
Y1035000D02*
D03*
X2170000Y715000D02*
D03*
Y685000D02*
D03*
X2090000Y715000D02*
D03*
Y685000D02*
D03*
X2050000Y715000D02*
D03*
Y685000D02*
D03*
X2130000Y715000D02*
D03*
Y685000D02*
D03*
X2010000Y715000D02*
D03*
Y685000D02*
D03*
X1970000Y715000D02*
D03*
Y685000D02*
D03*
X1930000Y715000D02*
D03*
Y685000D02*
D03*
X330000Y1515000D02*
D03*
Y1485000D02*
D03*
X330002Y985000D02*
D03*
Y1015000D02*
D03*
X370000Y985000D02*
D03*
Y1015000D02*
D03*
X1410000Y1785000D02*
D03*
Y1815000D02*
D03*
X800000Y1335000D02*
D03*
Y1305000D02*
D03*
X1090000Y1785000D02*
D03*
Y1815000D02*
D03*
X410000Y985000D02*
D03*
Y1015000D02*
D03*
X1130000Y1785000D02*
D03*
Y1815000D02*
D03*
X1170000Y1785000D02*
D03*
Y1815000D02*
D03*
X1210000Y1785000D02*
D03*
Y1815000D02*
D03*
X1250000Y1785000D02*
D03*
Y1815000D02*
D03*
X1290000Y1785000D02*
D03*
Y1815000D02*
D03*
X1329998Y1785000D02*
D03*
Y1815000D02*
D03*
X1370000Y1785000D02*
D03*
Y1815000D02*
D03*
X290000Y1515000D02*
D03*
Y1485000D02*
D03*
Y985000D02*
D03*
Y1015000D02*
D03*
X610000Y1515000D02*
D03*
Y1485000D02*
D03*
Y985000D02*
D03*
Y1015000D02*
D03*
X800000Y1175000D02*
D03*
Y1145000D02*
D03*
X450000Y985000D02*
D03*
Y1015000D02*
D03*
X1930000Y985000D02*
D03*
Y1015000D02*
D03*
X1970000Y985000D02*
D03*
Y1015000D02*
D03*
X2010000Y985000D02*
D03*
Y1015000D02*
D03*
X2050000Y985000D02*
D03*
Y1015000D02*
D03*
X2090000Y985000D02*
D03*
Y1015000D02*
D03*
X2130000Y985000D02*
D03*
Y1015000D02*
D03*
X2170000Y985000D02*
D03*
Y1015000D02*
D03*
X490000Y985000D02*
D03*
Y1015000D02*
D03*
X530000Y985000D02*
D03*
Y1015000D02*
D03*
X1370000Y715000D02*
D03*
Y685000D02*
D03*
X1330000Y715000D02*
D03*
Y685000D02*
D03*
X1290000Y715000D02*
D03*
Y685000D02*
D03*
X1250000Y715000D02*
D03*
Y685000D02*
D03*
X1210000Y715000D02*
D03*
Y685000D02*
D03*
X1170000Y715000D02*
D03*
Y685000D02*
D03*
X1130000Y715000D02*
D03*
Y685000D02*
D03*
X2210000Y985000D02*
D03*
Y1015000D02*
D03*
X1890000Y985000D02*
D03*
Y1015000D02*
D03*
X2210000Y1515000D02*
D03*
Y1485000D02*
D03*
X1890000Y1515000D02*
D03*
Y1485000D02*
D03*
X1700000Y1165000D02*
D03*
Y1195000D02*
D03*
X1087499Y1000501D02*
D03*
Y970501D02*
D03*
X1022499Y1000501D02*
D03*
Y970501D02*
D03*
X1054999Y1000501D02*
D03*
Y970501D02*
D03*
X1087499Y1160501D02*
D03*
Y1130501D02*
D03*
X1022499Y1160501D02*
D03*
Y1130501D02*
D03*
X1054999Y1160501D02*
D03*
Y1130501D02*
D03*
X1087500Y1320500D02*
D03*
Y1290500D02*
D03*
X1022499Y1320501D02*
D03*
Y1290501D02*
D03*
X1054999Y1320501D02*
D03*
Y1290501D02*
D03*
X1087499Y1480501D02*
D03*
Y1450501D02*
D03*
X1022499Y1480501D02*
D03*
Y1450501D02*
D03*
X1054999Y1480501D02*
D03*
Y1450501D02*
D03*
X1477500Y1499500D02*
D03*
Y1529500D02*
D03*
X1445000Y1499500D02*
D03*
Y1529500D02*
D03*
X1412500Y1499500D02*
D03*
Y1529500D02*
D03*
X370000Y1515000D02*
D03*
Y1485000D02*
D03*
X410000Y1515000D02*
D03*
Y1485000D02*
D03*
X450000Y1514999D02*
D03*
Y1484999D02*
D03*
X570000Y1515000D02*
D03*
Y1485000D02*
D03*
X530000Y1514999D02*
D03*
Y1484999D02*
D03*
X2130000Y1515000D02*
D03*
Y1485000D02*
D03*
X2010000Y1515000D02*
D03*
Y1485000D02*
D03*
X1970000Y1515000D02*
D03*
Y1485000D02*
D03*
X1930000Y1515000D02*
D03*
Y1485000D02*
D03*
X570000Y985000D02*
D03*
Y1015000D02*
D03*
X1090000Y715000D02*
D03*
Y685000D02*
D03*
X1700000Y1325000D02*
D03*
Y1355000D02*
D03*
X490000Y1514999D02*
D03*
Y1484999D02*
D03*
X2170000Y1515000D02*
D03*
Y1485000D02*
D03*
X2090000Y1515000D02*
D03*
Y1485000D02*
D03*
X2050000Y1515000D02*
D03*
Y1485000D02*
D03*
X1410000Y715000D02*
D03*
Y685000D02*
D03*
X1445000Y1049501D02*
D03*
Y1019501D02*
D03*
Y1209501D02*
D03*
Y1179501D02*
D03*
Y1368501D02*
D03*
Y1338501D02*
D03*
X1477500Y1049501D02*
D03*
Y1019501D02*
D03*
Y1209501D02*
D03*
Y1179501D02*
D03*
Y1368501D02*
D03*
Y1338501D02*
D03*
X1412500Y1049501D02*
D03*
Y1019501D02*
D03*
Y1209501D02*
D03*
Y1179501D02*
D03*
Y1368501D02*
D03*
Y1338501D02*
D03*
X1868000Y189000D02*
D03*
Y219000D02*
D03*
X632000Y2311000D02*
D03*
Y2281000D02*
D03*
D26*
X1098502Y1111000D02*
D03*
Y951000D02*
D03*
X1022501Y970499D02*
D03*
X1055001D02*
D03*
X1087501D02*
D03*
X1137498Y1214350D02*
D03*
X1087500Y1130500D02*
D03*
X1055000D02*
D03*
X1022500D02*
D03*
X1098500Y1111000D02*
D03*
X1129000Y1125000D02*
D03*
X1120000Y1150000D02*
D03*
X1142000Y1143000D02*
D03*
X1165000Y1130000D02*
D03*
Y1162000D02*
D03*
X1155000Y1104000D02*
D03*
X1091098Y1178000D02*
D03*
X1028650D02*
D03*
Y1018000D02*
D03*
X1091098D02*
D03*
X1155000Y944000D02*
D03*
X1197000Y970000D02*
D03*
Y1002000D02*
D03*
X1142000Y983000D02*
D03*
X1120000Y990000D02*
D03*
X1129000Y965000D02*
D03*
X1098500Y951000D02*
D03*
X1022500Y970500D02*
D03*
X1055000D02*
D03*
X1087500D02*
D03*
X1137498Y1054350D02*
D03*
X1098502Y1431000D02*
D03*
Y1271000D02*
D03*
X1022501Y1290499D02*
D03*
X1055001D02*
D03*
X1087501D02*
D03*
X1137498Y1534350D02*
D03*
X1087500Y1450500D02*
D03*
X1055000D02*
D03*
X1022500D02*
D03*
X1098500Y1431000D02*
D03*
X1129000Y1445000D02*
D03*
X1120000Y1470000D02*
D03*
X1142000Y1463000D02*
D03*
X1196000Y1480000D02*
D03*
Y1448000D02*
D03*
X1155000Y1424000D02*
D03*
X1091098Y1498000D02*
D03*
X1028650D02*
D03*
Y1338000D02*
D03*
X1091098D02*
D03*
X1155000Y1264000D02*
D03*
X1196249Y1289001D02*
D03*
Y1321001D02*
D03*
X1142000Y1303000D02*
D03*
X1120000Y1310000D02*
D03*
X1129000Y1285000D02*
D03*
X1098500Y1271000D02*
D03*
X1022500Y1290500D02*
D03*
X1055000D02*
D03*
X1087500D02*
D03*
X1137498Y1374350D02*
D03*
X1362501Y1284652D02*
D03*
X1412499Y1368502D02*
D03*
X1444999D02*
D03*
X1477499D02*
D03*
X1401499Y1388002D02*
D03*
X1370999Y1374002D02*
D03*
X1379999Y1349002D02*
D03*
X1357999Y1356002D02*
D03*
X1304001Y1337999D02*
D03*
Y1369999D02*
D03*
X1408901Y1321002D02*
D03*
X1471349D02*
D03*
X1362501Y1125652D02*
D03*
X1412499Y1209502D02*
D03*
X1444999D02*
D03*
X1477499D02*
D03*
X1401499Y1229002D02*
D03*
X1370999Y1215002D02*
D03*
X1379999Y1190002D02*
D03*
X1357999Y1197002D02*
D03*
X1335000Y1210000D02*
D03*
X1336999Y1178002D02*
D03*
X1344999Y1236002D02*
D03*
X1408901Y1162002D02*
D03*
X1471349D02*
D03*
Y1002002D02*
D03*
X1408901D02*
D03*
X1344999Y1076002D02*
D03*
X1305001Y1050999D02*
D03*
Y1018999D02*
D03*
X1357999Y1037002D02*
D03*
X1379999Y1030002D02*
D03*
X1370999Y1055002D02*
D03*
X1401499Y1069002D02*
D03*
X1477499Y1049502D02*
D03*
X1444999D02*
D03*
X1412499D02*
D03*
X1362501Y965652D02*
D03*
X1412499Y1209502D02*
D03*
X1444999D02*
D03*
X1477499D02*
D03*
X1412499Y1368503D02*
D03*
X1444999D02*
D03*
X1477499D02*
D03*
X1401498Y1229002D02*
D03*
Y1069002D02*
D03*
X1344999Y1395002D02*
D03*
X1362505Y1445652D02*
D03*
X1358003Y1517002D02*
D03*
X1304997Y1497998D02*
D03*
Y1529998D02*
D03*
X1408905Y1482002D02*
D03*
X1471353D02*
D03*
X1345003Y1556002D02*
D03*
X1371003Y1535002D02*
D03*
X1380000Y1510000D02*
D03*
X1401497Y1549000D02*
D03*
X1401499Y1549000D02*
D03*
X1477498Y1529501D02*
D03*
X1444998D02*
D03*
X1412498D02*
D03*
X1477498Y1529500D02*
D03*
X1444998D02*
D03*
X1412498D02*
D03*
D27*
X1113250Y976000D02*
D03*
Y1004000D02*
D03*
X1126750D02*
D03*
X1122250D02*
D03*
X1117750D02*
D03*
Y976000D02*
D03*
X1122250D02*
D03*
X1126750D02*
D03*
X1113251Y1136001D02*
D03*
Y1164001D02*
D03*
X1126751D02*
D03*
X1122251D02*
D03*
X1117751D02*
D03*
Y1136001D02*
D03*
X1122251D02*
D03*
X1126751D02*
D03*
X1113249Y1296001D02*
D03*
Y1324001D02*
D03*
X1126749D02*
D03*
X1122249D02*
D03*
X1117749D02*
D03*
Y1296001D02*
D03*
X1122249D02*
D03*
X1126749D02*
D03*
X1113251Y1456001D02*
D03*
Y1484001D02*
D03*
X1126751D02*
D03*
X1122251D02*
D03*
X1117751D02*
D03*
Y1456001D02*
D03*
X1122251D02*
D03*
X1126751D02*
D03*
X1386750Y1524000D02*
D03*
Y1496000D02*
D03*
X1373250D02*
D03*
X1377750D02*
D03*
X1382250D02*
D03*
Y1524000D02*
D03*
X1377750D02*
D03*
X1373250D02*
D03*
X1386748Y1044001D02*
D03*
Y1016001D02*
D03*
X1373248D02*
D03*
X1377748D02*
D03*
X1382248D02*
D03*
Y1044001D02*
D03*
X1377748D02*
D03*
X1373248D02*
D03*
X1373250Y1204001D02*
D03*
X1377750D02*
D03*
X1382250D02*
D03*
Y1176001D02*
D03*
X1377750D02*
D03*
X1373250D02*
D03*
X1386750D02*
D03*
Y1204001D02*
D03*
Y1363001D02*
D03*
Y1335001D02*
D03*
X1373250D02*
D03*
X1377750D02*
D03*
X1382250D02*
D03*
Y1363001D02*
D03*
X1377750D02*
D03*
X1373250D02*
D03*
D28*
X1120000Y990000D02*
D03*
X1120001Y1150001D02*
D03*
X1119999Y1310001D02*
D03*
X1120001Y1470001D02*
D03*
X1380000Y1510000D02*
D03*
X1379998Y1030001D02*
D03*
X1380000Y1190001D02*
D03*
Y1349001D02*
D03*
D29*
X1155000Y944000D02*
D03*
X1173000D02*
D03*
X1154998Y1104000D02*
D03*
X1172998D02*
D03*
X1154998Y1264000D02*
D03*
X1172998D02*
D03*
X1154998Y1424000D02*
D03*
X1172998D02*
D03*
X1345000Y1556000D02*
D03*
X1327000D02*
D03*
X1080498Y951000D02*
D03*
X1098499D02*
D03*
X1080500Y1111000D02*
D03*
X1098500D02*
D03*
X1080498Y1271000D02*
D03*
X1098499D02*
D03*
X1080500Y1431000D02*
D03*
X1098500D02*
D03*
X1419500Y1549000D02*
D03*
X1401500D02*
D03*
X1327001Y1076002D02*
D03*
X1345001D02*
D03*
X1327001Y1236002D02*
D03*
X1345001D02*
D03*
X1327001Y1395002D02*
D03*
X1345001D02*
D03*
X1401501Y1069002D02*
D03*
X1419501D02*
D03*
X1401501Y1229002D02*
D03*
X1419501D02*
D03*
X1401501Y1388002D02*
D03*
X1419501D02*
D03*
X1659118Y1857500D02*
D03*
X1677118D02*
D03*
Y1837250D02*
D03*
X1659118D02*
D03*
X212000Y605000D02*
D03*
X194000D02*
D03*
X2287000Y1895000D02*
D03*
X2305000D02*
D03*
D30*
X1119499Y942001D02*
D03*
X1138499D02*
D03*
X1128999Y965001D02*
D03*
X1119499Y1102001D02*
D03*
X1138499D02*
D03*
X1128999Y1125001D02*
D03*
X1119500Y1262000D02*
D03*
X1138500D02*
D03*
X1129000Y1285000D02*
D03*
X1119499Y1422001D02*
D03*
X1138499D02*
D03*
X1128999Y1445001D02*
D03*
X1380500Y1558000D02*
D03*
X1361500D02*
D03*
X1371000Y1535000D02*
D03*
X1371000Y1055001D02*
D03*
X1361500Y1078001D02*
D03*
X1380500D02*
D03*
X1371000Y1215001D02*
D03*
X1361500Y1238001D02*
D03*
X1380500D02*
D03*
X1371000Y1374001D02*
D03*
X1361500Y1397001D02*
D03*
X1380500D02*
D03*
X208500Y311500D02*
D03*
X227500D02*
D03*
X218000Y334500D02*
D03*
X2291500Y2188500D02*
D03*
X2272500D02*
D03*
X2282000Y2165500D02*
D03*
D31*
X1141998Y1001002D02*
D03*
Y983001D02*
D03*
Y1161002D02*
D03*
Y1143002D02*
D03*
X1142000Y1321000D02*
D03*
Y1303000D02*
D03*
X1141998Y1481002D02*
D03*
Y1463002D02*
D03*
X1358000Y1499000D02*
D03*
Y1517000D02*
D03*
X1232500Y1570000D02*
D03*
Y1552000D02*
D03*
X1358001Y1037000D02*
D03*
Y1019000D02*
D03*
Y1197000D02*
D03*
Y1179000D02*
D03*
Y1356000D02*
D03*
Y1338000D02*
D03*
X1650000Y1980000D02*
D03*
Y1998000D02*
D03*
X1704000Y1893000D02*
D03*
Y1911000D02*
D03*
X1258000Y1750000D02*
D03*
Y1732000D02*
D03*
X1895000Y213000D02*
D03*
Y195000D02*
D03*
X605000Y2287000D02*
D03*
Y2305000D02*
D03*
D32*
X1137497Y1067051D02*
D03*
Y1054351D02*
D03*
Y1041651D02*
D03*
Y1028951D02*
D03*
X1192497D02*
D03*
Y1041651D02*
D03*
Y1054351D02*
D03*
Y1067051D02*
D03*
X1137497Y1227051D02*
D03*
Y1214351D02*
D03*
Y1201651D02*
D03*
Y1188951D02*
D03*
X1192497D02*
D03*
Y1201651D02*
D03*
Y1214351D02*
D03*
Y1227051D02*
D03*
X1137497Y1387050D02*
D03*
Y1374350D02*
D03*
Y1361650D02*
D03*
Y1348950D02*
D03*
X1192497D02*
D03*
Y1361650D02*
D03*
Y1374350D02*
D03*
Y1387050D02*
D03*
X1137497Y1547051D02*
D03*
Y1534351D02*
D03*
Y1521651D02*
D03*
Y1508951D02*
D03*
X1192497D02*
D03*
Y1521651D02*
D03*
Y1534351D02*
D03*
Y1547051D02*
D03*
X1362505Y1432952D02*
D03*
Y1445652D02*
D03*
Y1458352D02*
D03*
Y1471052D02*
D03*
X1307505D02*
D03*
Y1458352D02*
D03*
Y1445652D02*
D03*
Y1432952D02*
D03*
X1307502Y952951D02*
D03*
Y965651D02*
D03*
Y978351D02*
D03*
Y991051D02*
D03*
X1362502D02*
D03*
Y978351D02*
D03*
Y965651D02*
D03*
Y952951D02*
D03*
X1307502Y1112951D02*
D03*
Y1125651D02*
D03*
Y1138351D02*
D03*
Y1151051D02*
D03*
X1362502D02*
D03*
Y1138351D02*
D03*
Y1125651D02*
D03*
Y1112951D02*
D03*
X1307502Y1271951D02*
D03*
Y1284651D02*
D03*
Y1297351D02*
D03*
Y1310051D02*
D03*
X1362502D02*
D03*
Y1297351D02*
D03*
Y1284651D02*
D03*
Y1271951D02*
D03*
D33*
X937500Y1057750D02*
D03*
Y958250D02*
D03*
Y1217750D02*
D03*
Y1118250D02*
D03*
Y1377750D02*
D03*
Y1278250D02*
D03*
Y1537250D02*
D03*
Y1437750D02*
D03*
X1562500Y1442250D02*
D03*
Y1541750D02*
D03*
X1562500Y1061751D02*
D03*
Y962251D02*
D03*
Y1221751D02*
D03*
Y1122251D02*
D03*
Y1380751D02*
D03*
Y1281251D02*
D03*
D34*
X1015950Y1018000D02*
D03*
X1028650D02*
D03*
X1041350D02*
D03*
X1054050D02*
D03*
Y1073000D02*
D03*
X1041350D02*
D03*
X1028650D02*
D03*
X1015950D02*
D03*
X1078397Y1018001D02*
D03*
X1091097D02*
D03*
X1103797D02*
D03*
X1116497D02*
D03*
Y1073001D02*
D03*
X1103797D02*
D03*
X1091097D02*
D03*
X1078397D02*
D03*
X1015949Y1178001D02*
D03*
X1028649D02*
D03*
X1041349D02*
D03*
X1054049D02*
D03*
Y1233001D02*
D03*
X1041349D02*
D03*
X1028649D02*
D03*
X1015949D02*
D03*
X1078397Y1178000D02*
D03*
X1091097D02*
D03*
X1103797D02*
D03*
X1116497D02*
D03*
Y1233000D02*
D03*
X1103797D02*
D03*
X1091097D02*
D03*
X1078397D02*
D03*
X1015949Y1338001D02*
D03*
X1028649D02*
D03*
X1041349D02*
D03*
X1054049D02*
D03*
Y1393001D02*
D03*
X1041349D02*
D03*
X1028649D02*
D03*
X1015949D02*
D03*
X1078397Y1338001D02*
D03*
X1091097D02*
D03*
X1103797D02*
D03*
X1116497D02*
D03*
Y1393001D02*
D03*
X1103797D02*
D03*
X1091097D02*
D03*
X1078397D02*
D03*
X1015949Y1498001D02*
D03*
X1028649D02*
D03*
X1041349D02*
D03*
X1054049D02*
D03*
Y1553001D02*
D03*
X1041349D02*
D03*
X1028649D02*
D03*
X1015949D02*
D03*
X1078397Y1498001D02*
D03*
X1091097D02*
D03*
X1103797D02*
D03*
X1116497D02*
D03*
Y1553001D02*
D03*
X1103797D02*
D03*
X1091097D02*
D03*
X1078397D02*
D03*
X1484050Y1482000D02*
D03*
X1471350D02*
D03*
X1458650D02*
D03*
X1445950D02*
D03*
Y1427000D02*
D03*
X1458650D02*
D03*
X1471350D02*
D03*
X1484050D02*
D03*
X1421600Y1482000D02*
D03*
X1408900D02*
D03*
X1396200D02*
D03*
X1383500D02*
D03*
Y1427000D02*
D03*
X1396200D02*
D03*
X1408900D02*
D03*
X1421600D02*
D03*
X1421602Y947001D02*
D03*
X1408902D02*
D03*
X1396202D02*
D03*
X1383502D02*
D03*
Y1002001D02*
D03*
X1396202D02*
D03*
X1408902D02*
D03*
X1421602D02*
D03*
Y1107001D02*
D03*
X1408902D02*
D03*
X1396202D02*
D03*
X1383502D02*
D03*
Y1162001D02*
D03*
X1396202D02*
D03*
X1408902D02*
D03*
X1421602D02*
D03*
Y1266001D02*
D03*
X1408902D02*
D03*
X1396202D02*
D03*
X1383502D02*
D03*
Y1321001D02*
D03*
X1396202D02*
D03*
X1408902D02*
D03*
X1421602D02*
D03*
X1484050Y947001D02*
D03*
X1471350D02*
D03*
X1458650D02*
D03*
X1445950D02*
D03*
Y1002001D02*
D03*
X1458650D02*
D03*
X1471350D02*
D03*
X1484050D02*
D03*
Y1107001D02*
D03*
X1471350D02*
D03*
X1458650D02*
D03*
X1445950D02*
D03*
Y1162001D02*
D03*
X1458650D02*
D03*
X1471350D02*
D03*
X1484050D02*
D03*
Y1266001D02*
D03*
X1471350D02*
D03*
X1458650D02*
D03*
X1445950D02*
D03*
Y1321001D02*
D03*
X1458650D02*
D03*
X1471350D02*
D03*
X1484050D02*
D03*
D35*
X1675000Y1940000D02*
D03*
Y1900000D02*
D03*
X1675000Y1900000D02*
D03*
Y1940000D02*
D03*
X1625000Y1945000D02*
D03*
Y1905000D02*
D03*
D36*
X1185500Y1758000D02*
D03*
X1204500D02*
D03*
Y1732000D02*
D03*
X1185500D02*
D03*
D37*
X1195000Y1758000D02*
D03*
Y1732000D02*
D03*
X1627450Y1858001D02*
D03*
X1617950D02*
D03*
X1608450D02*
D03*
Y1832001D02*
D03*
X1627450D02*
D03*
D38*
X1080500Y1660000D02*
D03*
X1059500D02*
D03*
Y1680000D02*
D03*
X1080500D02*
D03*
X1059500Y1620000D02*
D03*
X1080500D02*
D03*
X1059500Y1640000D02*
D03*
X1080500D02*
D03*
X2310500Y2150000D02*
D03*
X2289500D02*
D03*
X2310500Y2010000D02*
D03*
X2289500D02*
D03*
X189500Y350000D02*
D03*
X210500D02*
D03*
X189500Y490000D02*
D03*
X210500D02*
D03*
X2310500Y2030000D02*
D03*
X2289500D02*
D03*
X2310500Y1970000D02*
D03*
X2289500D02*
D03*
X2310500Y2130000D02*
D03*
X2289500D02*
D03*
X189500Y470000D02*
D03*
X210500D02*
D03*
X189500Y530000D02*
D03*
X210500D02*
D03*
X189500Y370000D02*
D03*
X210500D02*
D03*
X2310500Y1990000D02*
D03*
X2289500D02*
D03*
X2310500Y2090000D02*
D03*
X2289500D02*
D03*
X189500Y510000D02*
D03*
X210500D02*
D03*
X189500Y410000D02*
D03*
X210500D02*
D03*
X2310500Y2070000D02*
D03*
X2289500D02*
D03*
X2310500Y2050000D02*
D03*
X2289500D02*
D03*
X189500Y430000D02*
D03*
X210500D02*
D03*
X189500Y450000D02*
D03*
X210500D02*
D03*
D39*
X1144000Y814000D02*
D03*
Y746000D02*
D03*
X1356000Y846000D02*
D03*
Y914000D02*
D03*
X1144000Y846000D02*
D03*
Y914000D02*
D03*
X1356000Y814000D02*
D03*
Y746000D02*
D03*
D40*
X1674999Y1935001D02*
D03*
Y1905001D02*
D03*
X1594000Y1935000D02*
D03*
Y1905000D02*
D03*
D41*
X1677605Y2009201D02*
D03*
Y2021901D02*
D03*
Y2034601D02*
D03*
Y2047301D02*
D03*
X1621605D02*
D03*
Y2034601D02*
D03*
Y2021901D02*
D03*
Y2009201D02*
D03*
X1524000Y1810950D02*
D03*
Y1823650D02*
D03*
Y1836350D02*
D03*
Y1849050D02*
D03*
X1468000D02*
D03*
Y1836350D02*
D03*
Y1823650D02*
D03*
Y1810950D02*
D03*
X1433000Y1837951D02*
D03*
Y1850651D02*
D03*
Y1863351D02*
D03*
Y1876051D02*
D03*
X1377000D02*
D03*
Y1863351D02*
D03*
Y1850651D02*
D03*
Y1837951D02*
D03*
D42*
X1624200Y1988750D02*
D03*
X1675000D02*
D03*
D44*
X1626705Y1994251D02*
D03*
X1672505D02*
D03*
D46*
X1695950Y1817501D02*
D03*
X1708650D02*
D03*
X1721350D02*
D03*
X1734050D02*
D03*
Y1873501D02*
D03*
X1721350D02*
D03*
X1708650D02*
D03*
X1695950D02*
D03*
X1598900Y1817000D02*
D03*
X1611600D02*
D03*
X1624300D02*
D03*
X1637000D02*
D03*
Y1873000D02*
D03*
X1624300D02*
D03*
X1611600D02*
D03*
X1598900D02*
D03*
D47*
X1150000Y1603500D02*
D03*
Y1696500D02*
D03*
X244000Y375500D02*
D03*
Y468500D02*
D03*
X2255000Y2124500D02*
D03*
Y2031500D02*
D03*
D48*
X1287500Y1592500D02*
D03*
X1282500D02*
D03*
X1277500D02*
D03*
X1272500D02*
D03*
X1267500D02*
D03*
X1262500D02*
D03*
X1257500D02*
D03*
X1252500D02*
D03*
X1247500D02*
D03*
X1242500D02*
D03*
X1237500D02*
D03*
X1232500D02*
D03*
X1227500D02*
D03*
X1222500D02*
D03*
X1217500D02*
D03*
X1212500D02*
D03*
Y1707500D02*
D03*
X1217500D02*
D03*
X1222500D02*
D03*
X1227500D02*
D03*
X1232500D02*
D03*
X1237500D02*
D03*
X1242500D02*
D03*
X1247500D02*
D03*
X1252500D02*
D03*
X1257500D02*
D03*
X1262500D02*
D03*
X1267500D02*
D03*
X1272500D02*
D03*
X1277500D02*
D03*
X1282500D02*
D03*
X1287500D02*
D03*
D49*
X1192500Y1612500D02*
D03*
Y1617500D02*
D03*
Y1622500D02*
D03*
Y1627500D02*
D03*
Y1632500D02*
D03*
Y1637500D02*
D03*
Y1642500D02*
D03*
Y1647500D02*
D03*
Y1652500D02*
D03*
Y1657500D02*
D03*
Y1662500D02*
D03*
Y1667500D02*
D03*
Y1672500D02*
D03*
Y1677500D02*
D03*
Y1682500D02*
D03*
Y1687500D02*
D03*
X1307500D02*
D03*
Y1682500D02*
D03*
Y1677500D02*
D03*
Y1672500D02*
D03*
Y1667500D02*
D03*
Y1662500D02*
D03*
Y1657500D02*
D03*
Y1652500D02*
D03*
Y1647500D02*
D03*
Y1642500D02*
D03*
Y1637500D02*
D03*
Y1632500D02*
D03*
Y1627500D02*
D03*
Y1622500D02*
D03*
Y1617500D02*
D03*
Y1612500D02*
D03*
D50*
X1494500Y2420000D02*
D03*
Y2475000D02*
D03*
X1405500D02*
D03*
Y2420000D02*
D03*
D51*
X1434000Y2419000D02*
D03*
X1442000D02*
D03*
X1450000D02*
D03*
X1458000D02*
D03*
X1466000D02*
D03*
D52*
X350000Y2310500D02*
D03*
Y2289500D02*
D03*
X490000Y2310500D02*
D03*
Y2289500D02*
D03*
X2150000Y189500D02*
D03*
Y210500D02*
D03*
X2010000Y189500D02*
D03*
Y210500D02*
D03*
X470000Y2310500D02*
D03*
Y2289500D02*
D03*
X530000Y2310500D02*
D03*
Y2289500D02*
D03*
X370000Y2310500D02*
D03*
Y2289500D02*
D03*
X2030000Y189500D02*
D03*
Y210500D02*
D03*
X1970000Y189500D02*
D03*
Y210500D02*
D03*
X2130000Y189500D02*
D03*
Y210500D02*
D03*
X510000Y2310500D02*
D03*
Y2289500D02*
D03*
X410000Y2310500D02*
D03*
Y2289500D02*
D03*
X1990000Y189500D02*
D03*
Y210500D02*
D03*
X2090000Y189500D02*
D03*
Y210500D02*
D03*
X430000Y2310500D02*
D03*
Y2289500D02*
D03*
X450000Y2310500D02*
D03*
Y2289500D02*
D03*
X2070000Y189500D02*
D03*
Y210500D02*
D03*
X2050000Y189500D02*
D03*
Y210500D02*
D03*
D53*
X225000Y447000D02*
D03*
Y397000D02*
D03*
X263000D02*
D03*
Y447000D02*
D03*
X2274000Y2053000D02*
D03*
Y2103000D02*
D03*
X2236000D02*
D03*
Y2053000D02*
D03*
D54*
X2053000Y225000D02*
D03*
X2103000D02*
D03*
Y263000D02*
D03*
X2053000D02*
D03*
X445000Y2275000D02*
D03*
X395000D02*
D03*
Y2237000D02*
D03*
X445000D02*
D03*
D55*
X2188500Y208500D02*
D03*
Y227500D02*
D03*
X2165500Y218000D02*
D03*
X311500Y2291500D02*
D03*
Y2272500D02*
D03*
X334500Y2282000D02*
D03*
D56*
X2124500Y244000D02*
D03*
X2031500D02*
D03*
X375500Y2256000D02*
D03*
X468500D02*
D03*
D75*
X1192500Y1592500D02*
D03*
X1307500Y1707500D02*
D03*
M02*
