%
T1C.2F0S0
X36000Y94300
X36000Y92700
X36000Y91100
X36000Y89500
X36000Y93500
X36000Y91900
X36000Y90300
X36800Y91900
X36800Y90300
X36800Y94300
X36800Y93500
X36800Y92700
X36800Y91100
X36800Y89500
X37600Y91100
X37600Y92700
X37600Y89500
X37600Y93500
X37600Y94300
X37600Y91900
X37600Y90300
X38400Y94300
X38400Y92700
X38400Y93500
X38400Y90300
X38400Y91900
X38400Y91100
X38400Y89500
X39200Y93500
X39200Y94300
X39200Y91100
X39200Y89500
X39200Y91900
X39200Y92700
X39200Y90300
X40000Y91100
X40000Y93500
X40000Y90300
X40000Y92700
X40000Y91900
X40000Y94300
X40000Y89500
X40800Y89500
X40800Y91100
X40800Y91900
X40800Y90300
X40800Y92700
X40800Y94300
X40800Y93500
X41600Y93500
X41600Y91900
X41600Y90300
X41600Y94300
X41600Y92700
X41600Y91100
X41600Y89500
X42400Y92700
X42400Y91100
X42400Y89500
X42400Y93500
X42400Y91900
X42400Y90300
X42400Y94300
X43200Y91900
X43200Y90300
X43200Y94300
X43200Y92700
X43200Y91100
X43200Y93500
X43200Y89500
X44000Y91100
X44000Y89500
X44000Y93500
X44000Y91900
X44000Y94300
X44000Y90300
X44000Y92700
X44800Y90300
X44800Y94300
X44800Y92700
X44800Y93500
X44800Y91100
X44800Y91900
X44800Y89500
X45600Y89500
X45600Y93500
X45600Y94300
X45600Y91900
X45600Y92700
X45600Y91100
X45600Y90300
X46400Y94300
X46400Y93500
X46400Y92700
X46400Y91900
X46400Y91100
X46400Y90300
X46400Y89500
X47200Y93500
X47200Y92700
X47200Y91900
X47200Y94300
X47200Y89500
X47200Y90300
X47200Y91100
X48800Y91900
X48800Y92700
X48800Y94300
X48800Y91100
X48800Y90300
X48800Y93500
X48800Y89500
X49600Y91900
X49600Y93500
X49600Y91100
X49600Y89500
X49600Y94300
X49600Y90300
X49600Y92700
X50400Y92700
X50400Y91100
X50400Y91900
X50400Y94300
X50400Y93500
X50400Y90300
X50400Y89500
X51200Y90300
X51200Y92700
X51200Y94300
X51200Y89500
X51200Y91100
X51200Y93500
X51200Y91900
X52000Y93500
X52000Y91900
X52000Y90300
X52000Y94300
X52000Y92700
X52000Y91100
X52000Y89500
X52800Y92700
X52800Y91100
X52800Y89500
X52800Y93500
X52800Y91900
X52800Y94300
X52800Y90300
X53600Y91900
X53600Y90300
X53600Y94300
X53600Y92700
X53600Y91100
X53600Y93500
X53600Y89500
X54400Y91100
X54400Y89500
X54400Y94300
X54400Y93500
X54400Y91900
X54400Y92700
X54400Y90300
X55200Y90300
X55200Y94300
X55200Y92700
X55200Y93500
X55200Y91900
X55200Y91100
X55200Y89500
X56000Y89500
X56000Y91100
X56000Y93500
X56000Y91900
X56000Y92700
X56000Y94300
X56000Y90300
X56800Y90300
X56800Y92700
X56800Y91100
X56800Y94300
X56800Y91900
X56800Y93500
X56800Y89500
X57600Y92700
X57600Y91100
X57600Y94300
X57600Y91900
X57600Y89500
X57600Y90300
X57600Y93500
X58400Y94300
X58400Y93500
X58400Y91100
X58400Y92700
X58400Y91900
X58400Y90300
X58400Y89500
X59200Y92700
X59200Y91900
X59200Y90300
X59200Y89500
X59200Y91100
X59200Y93500
X59200Y94300
X60000Y91100
X60000Y91900
X60000Y93500
X60000Y90300
X60000Y94300
X60000Y92700
X60000Y89500
X82000Y94300
X82000Y92700
X82000Y91100
X82000Y89500
X82000Y93500
X82000Y91900
X82000Y90300
X82800Y93500
X82800Y91900
X82800Y90300
X82800Y94300
X82800Y92700
X82800Y91100
X82800Y89500
X83600Y92700
X83600Y91100
X83600Y89500
X83600Y93500
X83600Y91900
X83600Y90300
X83600Y94300
X84400Y91900
X84400Y90300
X84400Y94300
X84400Y92700
X84400Y91100
X84400Y93500
X84400Y89500
X85200Y91100
X85200Y89500
X85200Y93500
X85200Y91900
X85200Y90300
X85200Y94300
X85200Y92700
X86000Y90300
X86000Y94300
X86000Y92700
X86000Y91100
X86000Y93500
X86000Y91900
X86000Y89500
X86800Y89500
X86800Y93500
X86800Y91900
X86800Y90300
X86800Y94300
X86800Y92700
X86800Y91100
X87600Y94300
X87600Y92700
X87600Y91100
X87600Y93500
X87600Y91900
X87600Y90300
X87600Y89500
X88400Y93500
X88400Y91900
X88400Y90300
X88400Y94300
X88400Y92700
X88400Y91100
X88400Y89500
X89200Y92700
X89200Y91100
X89200Y93500
X89200Y91900
X89200Y90300
X89200Y94300
X89200Y89500
X90000Y91900
X90000Y90300
X90000Y94300
X90000Y92700
X90000Y91100
X90000Y89500
X90000Y93500
X90800Y91100
X90800Y93500
X90800Y91900
X90800Y90300
X90800Y94300
X90800Y92700
X90800Y89500
X91600Y90300
X91600Y94300
X91600Y92700
X91600Y91100
X91600Y89500
X91600Y93500
X91600Y91900
X92400Y93500
X92400Y91900
X92400Y90300
X92400Y94300
X92400Y92700
X92400Y91100
X92400Y89500
X93200Y92700
X93200Y91100
X93200Y89500
X93200Y93500
X93200Y91900
X93200Y90300
X93200Y94300
X94800Y91900
X94800Y90300
X94800Y94300
X94800Y92700
X94800Y91100
X94800Y93500
X94800Y89500
X95600Y91100
X95600Y89500
X95600Y93500
X95600Y91900
X95600Y94300
X95600Y90300
X95600Y92700
X96400Y90300
X96400Y94300
X96400Y92700
X96400Y93500
X96400Y91100
X96400Y91900
X96400Y89500
X97200Y89500
X97200Y93500
X97200Y94300
X97200Y91900
X97200Y92700
X97200Y91100
X97200Y90300
X98000Y94300
X98000Y93500
X98000Y92700
X98000Y91900
X98000Y91100
X98000Y90300
X98000Y89500
X98800Y93500
X98800Y92700
X98800Y91900
X98800Y94300
X98800Y89500
X98800Y90300
X98800Y91100
X99600Y91900
X99600Y92700
X99600Y94300
X99600Y91100
X99600Y90300
X99600Y93500
X99600Y89500
X100400Y91900
X100400Y93500
X100400Y91100
X100400Y89500
X100400Y94300
X100400Y90300
X100400Y92700
X101200Y92700
X101200Y91100
X101200Y91900
X101200Y94300
X101200Y93500
X101200Y90300
X101200Y89500
X102000Y90300
X102000Y92700
X102000Y94300
X102000Y89500
X102000Y91100
X102000Y93500
X102000Y91900
X102800Y93500
X102800Y91900
X102800Y90300
X102800Y94300
X102800Y92700
X102800Y91100
X102800Y89500
X103600Y91100
X103600Y94300
X103600Y89500
X103600Y93500
X103600Y91900
X103600Y92700
X103600Y90300
X104400Y93500
X104400Y94300
X104400Y92700
X104400Y91900
X104400Y91100
X104400Y90300
X104400Y89500
X105200Y93500
X105200Y89500
X105200Y91100
X105200Y91900
X105200Y90300
X105200Y92700
X105200Y94300
X106000Y91900
X106000Y91100
X106000Y94300
X106000Y93500
X106000Y92700
X106000Y90300
X106000Y89500
X106000Y95100
X106000Y95900
X106000Y99900
X106000Y98300
X106000Y96700
X106000Y100700
X106000Y99100
X106000Y97500
X105200Y95900
X105200Y95100
X105200Y100700
X105200Y99100
X105200Y97500
X105200Y99900
X105200Y98300
X105200Y96700
X104400Y95100
X104400Y95900
X104400Y99900
X104400Y98300
X104400Y96700
X104400Y100700
X104400Y99100
X104400Y97500
X103600Y95900
X103600Y95100
X103600Y100700
X103600Y99100
X103600Y97500
X103600Y99900
X103600Y98300
X103600Y96700
X102800Y95100
X102800Y95900
X102800Y99900
X102800Y98300
X102800Y96700
X102800Y100700
X102800Y99100
X102800Y97500
X102000Y95100
X102000Y95900
X102000Y100700
X102000Y99100
X102000Y97500
X102000Y99900
X102000Y98300
X102000Y96700
X101200Y95100
X101200Y99900
X101200Y98300
X101200Y96700
X101200Y100700
X101200Y99100
X101200Y97500
X101200Y95900
X100400Y95900
X100400Y100700
X100400Y99100
X100400Y97500
X100400Y99900
X100400Y98300
X100400Y96700
X100400Y95100
X99600Y95100
X99600Y95900
X99600Y99900
X99600Y98300
X99600Y96700
X99600Y100700
X99600Y99100
X99600Y97500
X98800Y95900
X98800Y100700
X98800Y99100
X98800Y97500
X98800Y99900
X98800Y98300
X98800Y96700
X98800Y95100
X98000Y95100
X98000Y99900
X98000Y98300
X98000Y95900
X98000Y96700
X98000Y100700
X98000Y99100
X98000Y97500
X97200Y100700
X97200Y99100
X97200Y97500
X97200Y95900
X97200Y99900
X97200Y98300
X97200Y96700
X97200Y95100
X96400Y99900
X96400Y98300
X96400Y95100
X96400Y96700
X96400Y100700
X96400Y99100
X96400Y97500
X96400Y95900
X95600Y100700
X95600Y99100
X95600Y97500
X95600Y95900
X95600Y99900
X95600Y98300
X95600Y96700
X95600Y95100
X94800Y99900
X94800Y95100
X94800Y98300
X94800Y96700
X94800Y100700
X94800Y99100
X94800Y97500
X94800Y95900
X93200Y100700
X93200Y99100
X93200Y95900
X93200Y97500
X93200Y99900
X93200Y98300
X93200Y96700
X93200Y95100
X92400Y95100
X92400Y99900
X92400Y98300
X92400Y96700
X92400Y100700
X92400Y99100
X92400Y97500
X92400Y95900
X91600Y100700
X91600Y99100
X91600Y97500
X91600Y99900
X91600Y98300
X91600Y96700
X91600Y95900
X91600Y95100
X90800Y99900
X90800Y98300
X90800Y96700
X90800Y100700
X90800Y99100
X90800Y97500
X90800Y95100
X90800Y95900
X90000Y100700
X90000Y99100
X90000Y97500
X90000Y99900
X90000Y98300
X90000Y96700
X90000Y95900
X90000Y95100
X89200Y99900
X89200Y98300
X89200Y96700
X89200Y100700
X89200Y99100
X89200Y97500
X89200Y95100
X89200Y95900
X88400Y100700
X88400Y99100
X88400Y97500
X88400Y99900
X88400Y98300
X88400Y96700
X88400Y95900
X88400Y95100
X87600Y99900
X87600Y98300
X87600Y96700
X87600Y100700
X87600Y99100
X87600Y97500
X87600Y95100
X87600Y95900
X86800Y100700
X86800Y99100
X86800Y97500
X86800Y99900
X86800Y98300
X86800Y96700
X86800Y95900
X86800Y95100
X86000Y99900
X86000Y98300
X86000Y96700
X86000Y100700
X86000Y99100
X86000Y97500
X86000Y95900
X86000Y95100
X85200Y100700
X85200Y99100
X85200Y97500
X85200Y99900
X85200Y98300
X85200Y96700
X85200Y95900
X85200Y95100
X84400Y99900
X84400Y98300
X84400Y96700
X84400Y100700
X84400Y99100
X84400Y97500
X84400Y95900
X84400Y95100
X83600Y100700
X83600Y99100
X83600Y97500
X83600Y99900
X83600Y98300
X83600Y96700
X83600Y95900
X83600Y95100
X82800Y99900
X82800Y98300
X82800Y96700
X82800Y100700
X82800Y99100
X82800Y97500
X82800Y95100
X82800Y95900
X82000Y100700
X82000Y99100
X82000Y97500
X82000Y99900
X82000Y98300
X82000Y96700
X82000Y95900
X82000Y95100
X60000Y99900
X60000Y98300
X60000Y96700
X60000Y100700
X60000Y99100
X60000Y97500
X60000Y95100
X60000Y95900
X59200Y99100
X59200Y97500
X59200Y99900
X59200Y98300
X59200Y96700
X59200Y95100
X59200Y95900
X59200Y100700
X58400Y96700
X58400Y100700
X58400Y99900
X58400Y99100
X58400Y97500
X58400Y95900
X58400Y98300
X58400Y95100
X57600Y99900
X57600Y97500
X57600Y98300
X57600Y99100
X57600Y96700
X57600Y100700
X57600Y95900
X57600Y95100
X56800Y96700
X56800Y99100
X56800Y99900
X56800Y97500
X56800Y98300
X56800Y100700
X56800Y95900
X56800Y95100
X56000Y98300
X56000Y99900
X56000Y96700
X56000Y100700
X56000Y95900
X56000Y97500
X56000Y99100
X56000Y95100
X55200Y97500
X55200Y98300
X55200Y100700
X55200Y99100
X55200Y95100
X55200Y99900
X55200Y95900
X55200Y96700
X54400Y96700
X54400Y100700
X54400Y99100
X54400Y98300
X54400Y95100
X54400Y99900
X54400Y97500
X54400Y95900
X53600Y99900
X53600Y97500
X53600Y100700
X53600Y98300
X53600Y96700
X53600Y95100
X53600Y95900
X53600Y99100
X52800Y100700
X52800Y97500
X52800Y98300
X52800Y95100
X52800Y99900
X52800Y95900
X52800Y99100
X52800Y96700
X52000Y96700
X52000Y97500
X52000Y98300
X52000Y95100
X52000Y99100
X52000Y95900
X52000Y100700
X52000Y99900
X51200Y99100
X51200Y96700
X51200Y98300
X51200Y99900
X51200Y95900
X51200Y95100
X51200Y97500
X51200Y100700
X50400Y97500
X50400Y100700
X50400Y96700
X50400Y99900
X50400Y95900
X50400Y98300
X50400Y95100
X50400Y99100
X49600Y98300
X49600Y99100
X49600Y100700
X49600Y96700
X49600Y97500
X49600Y95900
X49600Y99900
X49600Y95100
X48800Y96700
X48800Y99900
X48800Y95900
X48800Y97500
X48800Y99100
X48800Y95100
X48800Y100700
X48800Y98300
X47200Y100700
X47200Y97500
X47200Y98300
X47200Y95900
X47200Y99100
X47200Y95100
X47200Y96700
X47200Y99900
X46400Y97500
X46400Y95900
X46400Y99900
X46400Y100700
X46400Y95100
X46400Y96700
X46400Y98300
X46400Y99100
X45600Y95900
X45600Y100700
X45600Y99100
X45600Y96700
X45600Y99900
X45600Y95100
X45600Y97500
X45600Y98300
X44800Y97500
X44800Y95100
X44800Y99900
X44800Y98300
X44800Y99100
X44800Y96700
X44800Y100700
X44800Y95900
X44000Y99100
X44000Y95100
X44000Y98300
X44000Y99900
X44000Y100700
X44000Y96700
X44000Y97500
X44000Y95900
X43200Y99100
X43200Y98300
X43200Y99900
X43200Y95900
X43200Y95100
X43200Y100700
X43200Y96700
X43200Y97500
X42400Y100700
X42400Y99900
X42400Y99100
X42400Y98300
X42400Y95100
X42400Y95900
X42400Y96700
X42400Y97500
X41600Y96700
X41600Y98300
X41600Y100700
X41600Y95900
X41600Y99900
X41600Y99100
X41600Y95100
X41600Y97500
X40800Y100700
X40800Y99100
X40800Y96700
X40800Y95900
X40800Y95100
X40800Y97500
X40800Y99900
X40800Y98300
X40000Y99900
X40000Y97500
X40000Y98300
X40000Y96700
X40000Y100700
X40000Y95900
X40000Y95100
X40000Y99100
X39200Y99100
X39200Y98300
X39200Y96700
X39200Y97500
X39200Y95900
X39200Y95100
X39200Y100700
X39200Y99900
X38400Y100700
X38400Y97500
X38400Y99900
X38400Y95900
X38400Y95100
X38400Y98300
X38400Y96700
X38400Y99100
X37600Y99100
X37600Y95900
X37600Y97500
X37600Y100700
X37600Y95100
X37600Y96700
X37600Y98300
X37600Y99900
X36800Y99100
X36800Y97500
X36800Y95100
X36800Y96700
X36800Y98300
X36800Y100700
X36800Y99900
X36800Y95900
X36000Y95900
X36000Y99900
X36000Y98300
X36000Y97500
X36000Y100700
X36000Y96700
X36000Y95100
X36000Y99100
X36000Y105500
X36000Y103900
X36000Y102300
X36000Y106300
X36000Y104700
X36000Y103100
X36000Y107100
X36800Y102300
X36800Y106300
X36800Y104700
X36800Y103100
X36800Y105500
X36800Y103900
X36800Y107100
X37600Y103100
X37600Y105500
X37600Y103900
X37600Y102300
X37600Y106300
X37600Y104700
X37600Y107100
X38400Y102300
X38400Y106300
X38400Y104700
X38400Y103100
X38400Y105500
X38400Y103900
X38400Y107100
X39200Y103100
X39200Y105500
X39200Y103900
X39200Y102300
X39200Y106300
X39200Y104700
X39200Y107100
X40000Y102300
X40000Y106300
X40000Y104700
X40000Y103100
X40000Y105500
X40000Y103900
X40000Y107100
X40800Y103100
X40800Y105500
X40800Y103900
X40800Y102300
X40800Y106300
X40800Y104700
X40800Y107100
X41600Y105500
X41600Y103900
X41600Y102300
X41600Y103100
X41600Y106300
X41600Y104700
X41600Y107100
X42400Y106300
X42400Y104700
X42400Y103100
X42400Y102300
X42400Y105500
X42400Y103900
X42400Y107100
X43200Y105500
X43200Y103900
X43200Y102300
X43200Y103100
X43200Y106300
X43200Y104700
X43200Y107100
X44000Y104700
X44000Y106300
X44000Y103100
X44000Y102300
X44000Y105500
X44000Y103900
X44000Y107100
X44800Y103900
X44800Y105500
X44800Y102300
X44800Y106300
X44800Y104700
X44800Y103100
X44800Y107100
X45600Y104700
X45600Y103100
X45600Y106300
X45600Y102300
X45600Y105500
X45600Y103900
X45600Y107100
X46400Y103900
X46400Y102300
X46400Y105500
X46400Y103100
X46400Y106300
X46400Y104700
X46400Y107100
X47200Y104700
X47200Y103100
X47200Y106300
X47200Y105500
X47200Y103900
X47200Y102300
X47200Y107100
X48800Y103900
X48800Y102300
X48800Y103100
X48800Y105500
X48800Y106300
X48800Y104700
X48800Y107100
X49600Y103100
X49600Y104700
X49600Y105500
X49600Y106300
X49600Y103900
X49600Y102300
X49600Y107100
X50400Y103900
X50400Y102300
X50400Y103100
X50400Y106300
X50400Y105500
X50400Y104700
X50400Y107100
X51200Y104700
X51200Y105500
X51200Y102300
X51200Y103900
X51200Y103100
X51200Y106300
X51200Y107100
X52000Y103900
X52000Y102300
X52000Y106300
X52000Y104700
X52000Y103100
X52000Y105500
X52000Y107100
X52800Y103100
X52800Y105500
X52800Y103900
X52800Y104700
X52800Y102300
X52800Y106300
X52800Y107100
X53600Y102300
X53600Y106300
X53600Y104700
X53600Y103900
X53600Y103100
X53600Y105500
X53600Y107100
X54400Y105500
X54400Y103100
X54400Y103900
X54400Y102300
X54400Y106300
X54400Y104700
X54400Y107100
X55200Y106300
X55200Y102300
X55200Y104700
X55200Y105500
X55200Y103100
X55200Y103900
X55200Y107100
X56000Y105500
X56000Y103900
X56000Y103100
X56000Y102300
X56000Y106300
X56000Y104700
X56000Y107100
X56800Y102300
X56800Y106300
X56800Y104700
X56800Y103100
X56800Y103900
X56800Y105500
X56800Y107100
X57600Y104700
X57600Y105500
X57600Y103900
X57600Y103100
X57600Y102300
X57600Y106300
X57600Y107100
X58400Y102300
X58400Y105500
X58400Y106300
X58400Y104700
X58400Y103100
X58400Y107100
X58400Y103900
X59200Y104700
X59200Y105500
X59200Y103900
X59200Y102300
X59200Y106300
X59200Y103100
X59200Y107100
X60000Y106300
X60000Y103900
X60000Y105500
X60000Y104700
X60000Y103100
X60000Y102300
X60000Y107100
X82000Y106300
X82000Y103100
X82000Y102300
X82000Y104700
X82000Y103900
X82000Y105500
X82000Y107100
X82800Y106300
X82800Y102300
X82800Y105500
X82800Y103900
X82800Y104700
X82800Y103100
X82800Y107100
X83600Y106300
X83600Y105500
X83600Y103100
X83600Y103900
X83600Y102300
X83600Y104700
X83600Y107100
X84400Y106300
X84400Y104700
X84400Y102300
X84400Y103900
X84400Y103100
X84400Y105500
X84400Y107100
X85200Y104700
X85200Y103100
X85200Y106300
X85200Y103900
X85200Y102300
X85200Y105500
X85200Y107100
X86000Y103100
X86000Y104700
X86000Y106300
X86000Y102300
X86000Y105500
X86000Y103900
X86000Y107100
X86800Y103100
X86800Y105500
X86800Y102300
X86800Y103900
X86800Y104700
X86800Y106300
X86800Y107100
X87600Y102300
X87600Y103100
X87600Y104700
X87600Y106300
X87600Y105500
X87600Y103900
X87600Y107100
X88400Y106300
X88400Y105500
X88400Y103900
X88400Y102300
X88400Y104700
X88400Y103100
X88400Y107100
X89200Y103100
X89200Y104700
X89200Y102300
X89200Y105500
X89200Y106300
X89200Y107100
X89200Y103900
X90000Y106300
X90000Y102300
X90000Y105500
X90000Y103900
X90000Y103100
X90000Y104700
X90000Y107100
X90800Y105500
X90800Y103100
X90800Y102300
X90800Y104700
X90800Y106300
X90800Y103900
X90800Y107100
X91600Y104700
X91600Y103100
X91600Y102300
X91600Y106300
X91600Y103900
X91600Y105500
X91600Y107100
X92400Y104700
X92400Y102300
X92400Y103100
X92400Y105500
X92400Y106300
X92400Y103900
X92400Y107100
X93200Y103900
X93200Y106300
X93200Y105500
X93200Y103100
X93200Y102300
X93200Y104700
X93200Y107100
X94800Y103100
X94800Y104700
X94800Y102300
X94800Y105500
X94800Y106300
X94800Y103900
X94800Y107100
X95600Y103900
X95600Y102300
X95600Y104700
X95600Y105500
X95600Y103100
X95600Y106300
X95600Y107100
X96400Y103900
X96400Y104700
X96400Y105500
X96400Y103100
X96400Y102300
X96400Y106300
X96400Y107100
X97200Y106300
X97200Y103900
X97200Y102300
X97200Y105500
X97200Y103100
X97200Y104700
X97200Y107100
X98000Y102300
X98000Y106300
X98000Y104700
X98000Y105500
X98000Y103900
X98000Y103100
X98000Y107100
X98800Y106300
X98800Y104700
X98800Y103100
X98800Y103900
X98800Y105500
X98800Y102300
X98800Y107100
X99600Y105500
X99600Y103100
X99600Y102300
X99600Y106300
X99600Y103900
X99600Y104700
X99600Y107100
X100400Y103100
X100400Y102300
X100400Y106300
X100400Y103900
X100400Y105500
X100400Y104700
X100400Y107100
X101200Y106300
X101200Y102300
X101200Y103100
X101200Y104700
X101200Y105500
X101200Y107100
X101200Y103900
X102000Y104700
X102000Y103100
X102000Y106300
X102000Y103900
X102000Y105500
X102000Y102300
X102000Y107100
X102800Y103100
X102800Y105500
X102800Y102300
X102800Y103900
X102800Y104700
X102800Y106300
X102800Y107100
X103600Y102300
X103600Y106300
X103600Y105500
X103600Y103900
X103600Y103100
X103600Y104700
X103600Y107100
X104400Y102300
X104400Y103100
X104400Y103900
X104400Y104700
X104400Y105500
X104400Y106300
X104400Y107100
X105200Y106300
X105200Y105500
X105200Y102300
X105200Y103900
X105200Y104700
X105200Y103100
X105200Y107100
X106000Y106300
X106000Y102300
X106000Y105500
X106000Y104700
X106000Y107100
X106000Y103100
X106000Y103900
X106000Y113500
X106000Y111900
X106000Y110300
X106000Y108700
X106000Y112700
X106000Y111100
X106000Y109500
X106000Y107900
X105200Y112700
X105200Y111100
X105200Y109500
X105200Y107900
X105200Y113500
X105200Y111900
X105200Y110300
X105200Y108700
X104400Y111900
X104400Y110300
X104400Y108700
X104400Y112700
X104400Y111100
X104400Y109500
X104400Y107900
X103600Y113500
X103600Y111100
X103600Y109500
X103600Y107900
X103600Y112700
X103600Y111900
X103600Y110300
X103600Y108700
X102800Y111900
X102800Y110300
X102800Y108700
X102800Y111100
X102800Y109500
X102800Y107900
X102000Y113500
X102000Y111100
X102000Y109500
X102000Y107900
X102000Y112700
X102000Y111900
X102000Y110300
X102000Y108700
X101200Y111900
X101200Y110300
X101200Y108700
X101200Y111100
X101200Y109500
X101200Y107900
X100400Y111100
X100400Y109500
X100400Y107900
X100400Y111900
X100400Y110300
X100400Y108700
X99600Y111900
X99600Y110300
X99600Y108700
X99600Y112700
X99600Y111100
X99600Y109500
X99600Y107900
X98800Y113500
X98800Y112700
X98800Y111100
X98800Y109500
X98800Y107900
X98800Y111900
X98800Y110300
X98800Y108700
X98000Y111900
X98000Y110300
X98000Y108700
X98000Y113500
X98000Y112700
X98000Y111100
X98000Y109500
X98000Y107900
X97200Y112700
X97200Y111100
X97200Y109500
X97200Y107900
X97200Y113500
X97200Y111900
X97200Y110300
X97200Y108700
X96400Y112700
X96400Y113500
X96400Y111900
X96400Y110300
X96400Y108700
X96400Y111100
X96400Y109500
X96400Y107900
X95600Y112700
X95600Y111100
X95600Y109500
X95600Y107900
X95600Y111900
X95600Y110300
X95600Y108700
X94800Y112700
X94800Y111900
X94800Y110300
X94800Y108700
X94800Y113500
X94800Y111100
X94800Y109500
X94800Y107900
X93200Y112700
X93200Y111100
X93200Y109500
X93200Y107900
X93200Y113500
X93200Y111900
X93200Y110300
X93200Y108700
X92400Y111900
X92400Y110300
X92400Y108700
X92400Y113500
X92400Y112700
X92400Y111100
X92400Y109500
X92400Y107900
X91600Y112700
X91600Y111100
X91600Y109500
X91600Y107900
X91600Y111900
X91600Y110300
X91600Y108700
X90800Y112700
X90800Y111900
X90800Y110300
X90800Y108700
X90800Y111100
X90800Y109500
X90800Y107900
X90000Y112700
X90000Y111100
X90000Y109500
X90000Y107900
X90000Y113500
X90000Y111900
X90000Y110300
X90000Y108700
X89200Y113500
X89200Y111900
X89200Y110300
X89200Y108700
X89200Y112700
X89200Y111100
X89200Y109500
X89200Y107900
X88400Y111100
X88400Y109500
X88400Y107900
X88400Y113500
X88400Y112700
X88400Y111900
X88400Y110300
X88400Y108700
X87600Y112700
X87600Y111900
X87600Y110300
X87600Y108700
X87600Y111100
X87600Y109500
X87600Y107900
X86800Y112700
X86800Y111100
X86800Y109500
X86800Y107900
X86800Y111900
X86800Y110300
X86800Y108700
X86000Y113500
X86000Y112700
X86000Y111900
X86000Y110300
X86000Y108700
X86000Y111100
X86000Y109500
X86000Y107900
X85200Y113500
X85200Y111100
X85200Y109500
X85200Y107900
X85200Y112700
X85200Y111900
X85200Y110300
X85200Y108700
X84400Y113500
X84400Y111900
X84400Y110300
X84400Y108700
X84400Y112700
X84400Y111100
X84400Y109500
X84400Y107900
X83600Y113500
X83600Y112700
X83600Y111100
X83600Y109500
X83600Y107900
X83600Y111900
X83600Y110300
X83600Y108700
X82800Y111900
X82800Y110300
X82800Y108700
X82800Y112700
X82800Y113500
X82800Y111100
X82800Y109500
X82800Y107900
X82000Y111100
X82000Y109500
X82000Y107900
X82000Y113500
X82000Y111900
X82000Y110300
X82000Y108700
X82000Y112700
X60000Y109500
X60000Y108700
X60000Y110300
X60000Y112700
X60000Y107900
X60000Y111100
X60000Y113500
X60000Y111900
X59200Y110300
X59200Y107900
X59200Y113500
X59200Y108700
X59200Y109500
X59200Y111900
X59200Y112700
X59200Y111100
X58400Y112700
X58400Y109500
X58400Y107900
X58400Y110300
X58400Y111100
X58400Y108700
X58400Y113500
X58400Y111900
X57600Y107900
X57600Y112700
X57600Y109500
X57600Y111900
X57600Y108700
X57600Y110300
X57600Y111100
X57600Y113500
X56800Y107900
X56800Y111100
X56800Y108700
X56800Y110300
X56800Y109500
X56800Y112700
X56800Y111900
X56000Y112700
X56000Y110300
X56000Y111900
X56000Y108700
X56000Y109500
X56000Y111100
X56000Y113500
X56000Y107900
X55200Y108700
X55200Y107900
X55200Y109500
X55200Y110300
X55200Y111900
X55200Y111100
X54400Y109500
X54400Y108700
X54400Y107900
X54400Y111900
X54400Y111100
X54400Y110300
X53600Y108700
X53600Y111100
X53600Y109500
X53600Y112700
X53600Y107900
X53600Y111900
X53600Y110300
X52800Y112700
X52800Y111100
X52800Y108700
X52800Y111900
X52800Y107900
X52800Y113500
X52800Y109500
X52800Y110300
X52000Y108700
X52000Y112700
X52000Y109500
X52000Y111900
X52000Y107900
X52000Y113500
X52000Y110300
X52000Y111100
X51200Y110300
X51200Y113500
X51200Y107900
X51200Y111900
X51200Y108700
X51200Y111100
X51200Y112700
X51200Y109500
X50400Y107900
X50400Y111100
X50400Y108700
X50400Y109500
X50400Y111900
X50400Y112700
X50400Y113500
X50400Y110300
X49600Y107900
X49600Y108700
X49600Y111900
X49600Y112700
X49600Y109500
X49600Y110300
X49600Y111100
X48800Y113500
X48800Y107900
X48800Y111100
X48800Y108700
X48800Y109500
X48800Y111900
X48800Y112700
X48800Y110300
X47200Y111900
X47200Y107900
X47200Y108700
X47200Y110300
X47200Y112700
X47200Y109500
X47200Y113500
X47200Y111100
X46400Y109500
X46400Y111100
X46400Y113500
X46400Y112700
X46400Y108700
X46400Y107900
X46400Y110300
X46400Y111900
X45600Y110300
X45600Y107900
X45600Y109500
X45600Y112700
X45600Y108700
X45600Y111100
X45600Y111900
X44800Y109500
X44800Y107900
X44800Y112700
X44800Y108700
X44800Y110300
X44800Y111100
X44800Y111900
X44000Y108700
X44000Y110300
X44000Y113500
X44000Y107900
X44000Y112700
X44000Y111900
X44000Y109500
X44000Y111100
X43200Y112700
X43200Y111100
X43200Y107900
X43200Y108700
X43200Y110300
X43200Y109500
X43200Y111900
X43200Y113500
X42400Y108700
X42400Y112700
X42400Y113500
X42400Y111100
X42400Y107900
X42400Y110300
X42400Y111900
X42400Y109500
X41600Y111100
X41600Y110300
X41600Y111900
X41600Y107900
X41600Y109500
X41600Y108700
X41600Y112700
X40800Y108700
X40800Y112700
X40800Y107900
X40800Y109500
X40800Y111900
X40800Y110300
X40800Y111100
X40000Y109500
X40000Y111100
X40000Y113500
X40000Y107900
X40000Y110300
X40000Y111900
X40000Y108700
X40000Y112700
X39200Y113500
X39200Y110300
X39200Y107900
X39200Y111900
X39200Y108700
X39200Y109500
X39200Y111100
X39200Y112700
X38400Y110300
X38400Y113500
X38400Y107900
X38400Y108700
X38400Y109500
X38400Y112700
X38400Y111900
X38400Y111100
X37600Y110300
X37600Y108700
X37600Y111900
X37600Y112700
X37600Y111100
X37600Y107900
X37600Y109500
X37600Y113500
X36800Y112700
X36800Y109500
X36800Y107900
X36800Y111900
X36800Y111100
X36800Y110300
X36800Y113500
X36800Y108700
X36000Y110300
X36000Y111900
X36000Y111100
X36000Y108700
X36000Y109500
X36000Y112700
X36000Y113500
X36000Y107900
X37600Y125600
X38400Y125100
X40000Y124100
X40600Y123600
X41100Y124600
X54900Y124600
X55400Y123600
X56000Y124100
X57600Y125100
X58400Y125600
X83600Y125600
X84400Y125100
X86000Y124100
X86600Y123600
X87100Y124600
X100900Y124600
X101400Y123600
X102000Y124100
X103600Y125100
X104400Y125600
X111600Y136100
X111000Y135600
X110400Y135100
X109800Y134600
X109200Y134100
X106000Y136300
X106000Y137100
X106000Y135500
X106000Y137900
X106000Y138700
X105200Y137100
X105200Y135500
X105200Y136300
X105200Y138700
X105200Y137900
X104400Y135500
X104400Y136300
X104400Y137100
X104400Y137900
X104400Y138700
X103600Y135500
X103600Y137100
X103600Y136300
X103600Y138700
X103600Y137900
X102800Y135500
X102800Y137100
X102800Y136300
X102800Y137900
X102800Y138700
X102000Y135500
X102000Y136300
X102000Y137100
X102000Y138700
X102000Y137900
X101200Y136300
X101200Y137100
X101200Y137900
X101200Y138700
X100400Y136300
X100400Y137100
X100400Y138700
X100400Y137900
X99600Y137100
X99600Y136300
X99600Y135500
X99600Y137900
X99600Y138700
X98800Y137100
X98800Y136300
X98800Y135500
X98800Y138700
X98800Y137900
X98000Y137100
X98000Y136300
X98000Y135500
X98000Y137900
X98000Y138700
X97200Y136300
X97200Y137100
X97200Y138700
X97200Y137900
X96400Y136300
X96400Y137100
X96400Y137900
X96400Y138700
X95600Y137100
X95600Y136300
X95600Y135500
X95600Y138700
X95600Y137900
X94800Y136300
X94800Y137100
X94800Y135500
X94800Y137900
X94800Y138700
X93200Y136300
X93200Y137100
X93200Y135500
X93200Y138700
X93200Y137900
X92400Y136300
X92400Y137100
X92400Y137900
X92400Y138700
X91600Y137100
X91600Y136300
X91600Y138700
X91600Y137900
X91600Y135500
X90800Y137100
X90800Y135500
X90800Y136300
X90800Y137900
X90800Y138700
X90000Y136300
X90000Y135500
X90000Y138700
X90000Y137100
X90000Y137900
X89200Y136300
X89200Y137900
X89200Y138700
X89200Y137100
X89200Y135500
X88400Y138700
X88400Y137900
X88400Y137100
X88400Y136300
X87600Y137900
X87600Y138700
X87600Y137100
X86800Y137100
X86800Y138700
X86800Y137900
X86000Y135500
X86000Y137100
X86000Y137900
X86000Y138700
X86000Y136300
X85200Y138700
X85200Y137900
X85200Y137100
X84400Y135500
X84400Y137100
X84400Y137900
X84400Y138700
X84400Y136300
X83600Y136300
X83600Y138700
X83600Y137900
X83600Y137100
X82800Y135500
X82800Y137900
X82800Y136300
X82800Y137100
X82800Y138700
X82000Y138700
X82000Y137100
X82000Y136300
X82000Y137900
X82000Y135500
X60000Y137900
X60000Y138700
X60000Y136300
X60000Y137100
X60000Y135500
X59200Y138700
X59200Y137900
X59200Y136300
X59200Y137100
X59200Y135500
X58400Y137900
X58400Y138700
X58400Y136300
X58400Y135500
X58400Y137100
X57600Y138700
X57600Y137900
X57600Y135500
X57600Y136300
X57600Y137100
X56800Y137900
X56800Y138700
X56800Y137100
X56800Y136300
X56800Y135500
X56000Y138700
X56000Y137900
X56000Y137100
X56000Y135500
X56000Y136300
X55200Y137900
X55200Y138700
X55200Y137100
X55200Y136300
X54400Y138700
X54400Y137900
X54400Y137100
X54400Y136300
X53600Y137900
X53600Y138700
X53600Y137100
X53600Y135500
X53600Y136300
X52800Y138700
X52800Y137900
X52800Y135500
X52800Y136300
X52800Y137100
X52000Y137900
X52000Y138700
X52000Y135500
X52000Y136300
X52000Y137100
X51200Y138700
X51200Y137900
X51200Y137100
X51200Y136300
X50400Y137900
X50400Y136300
X50400Y137100
X50400Y138700
X49600Y137100
X49600Y135500
X49600Y138700
X49600Y136300
X49600Y137900
X48800Y137900
X48800Y138700
X48800Y137100
X48800Y136300
X48800Y135500
X47200Y137900
X47200Y137100
X47200Y138700
X47200Y136300
X47200Y135500
X46400Y137900
X46400Y138700
X46400Y136300
X46400Y137100
X45600Y137100
X45600Y138700
X45600Y135500
X45600Y137900
X45600Y136300
X44800Y137900
X44800Y137100
X44800Y136300
X44800Y135500
X44800Y138700
X44000Y137900
X44000Y135500
X44000Y138700
X44000Y136300
X44000Y137100
X43200Y137100
X43200Y137900
X43200Y136300
X43200Y135500
X43200Y138700
X42400Y138700
X42400Y137900
X42400Y136300
X42400Y137100
X41600Y137900
X41600Y137100
X41600Y138700
X41600Y136300
X40800Y136300
X40800Y138700
X40800Y137100
X40800Y137900
X40000Y138700
X40000Y136300
X40000Y137900
X40000Y137100
X40000Y135500
X39200Y138700
X39200Y137900
X39200Y137100
X39200Y136300
X38400Y137900
X38400Y138700
X38400Y136300
X38400Y137100
X38400Y135500
X37600Y138700
X37600Y137900
X37600Y136300
X37600Y137100
X36800Y136300
X36800Y137100
X36800Y135500
X36800Y138700
X36800Y137900
X36000Y135500
X36000Y137900
X36000Y138700
X36000Y136300
X36000Y137100
X36000Y143500
X36000Y145100
X36000Y140300
X36000Y139500
X36000Y141100
X36000Y142700
X36000Y144300
X36000Y141900
X36800Y144300
X36800Y139500
X36800Y140300
X36800Y141900
X36800Y143500
X36800Y145100
X36800Y141100
X36800Y142700
X37600Y143500
X37600Y145100
X37600Y140300
X37600Y139500
X37600Y141100
X37600Y142700
X37600Y144300
X37600Y141900
X38400Y144300
X38400Y139500
X38400Y140300
X38400Y141900
X38400Y143500
X38400Y145100
X38400Y141100
X38400Y142700
X39200Y140300
X39200Y139500
X39200Y141100
X39200Y142700
X39200Y144300
X39200Y145100
X39200Y141900
X39200Y143500
X40000Y139500
X40000Y140300
X40000Y144300
X40000Y141900
X40000Y143500
X40000Y145100
X40000Y141100
X40000Y142700
X40800Y140300
X40800Y139500
X40800Y141100
X40800Y142700
X40800Y144300
X40800Y145100
X40800Y141900
X40800Y143500
X41600Y141900
X41600Y143500
X41600Y145100
X41600Y142700
X41600Y140300
X41600Y144300
X41600Y139500
X41600Y141100
X42400Y144300
X42400Y141100
X42400Y143500
X42400Y139500
X42400Y145100
X42400Y142700
X42400Y140300
X42400Y141900
X43200Y145100
X43200Y142700
X43200Y140300
X43200Y144300
X43200Y143500
X43200Y141900
X43200Y139500
X43200Y141100
X44000Y141100
X44000Y143500
X44000Y144300
X44000Y145100
X44000Y139500
X44000Y142700
X44000Y140300
X44000Y141900
X44800Y142700
X44800Y140300
X44800Y143500
X44800Y141900
X44800Y144300
X44800Y139500
X44800Y145100
X44800Y141100
X45600Y145100
X45600Y142700
X45600Y139500
X45600Y143500
X45600Y141100
X45600Y140300
X45600Y144300
X45600Y141900
X46400Y140300
X46400Y143500
X46400Y141900
X46400Y144300
X46400Y145100
X46400Y139500
X46400Y141100
X46400Y142700
X47200Y145100
X47200Y139500
X47200Y142700
X47200Y143500
X47200Y141100
X47200Y140300
X47200Y141900
X47200Y144300
X48800Y140300
X48800Y143500
X48800Y141900
X48800Y144300
X48800Y145100
X48800Y142700
X48800Y139500
X48800Y141100
X49600Y142700
X49600Y145100
X49600Y139500
X49600Y141100
X49600Y143500
X49600Y140300
X49600Y144300
X49600Y141900
X50400Y142700
X50400Y145100
X50400Y141900
X50400Y144300
X50400Y140300
X50400Y139500
X50400Y141100
X50400Y143500
X51200Y143500
X51200Y141100
X51200Y142700
X51200Y144300
X51200Y140300
X51200Y139500
X51200Y145100
X51200Y141900
X52000Y140300
X52000Y141900
X52000Y143500
X52000Y145100
X52000Y142700
X52000Y144300
X52000Y139500
X52000Y141100
X52800Y142700
X52800Y144300
X52800Y143500
X52800Y140300
X52800Y145100
X52800Y141900
X52800Y141100
X52800Y139500
X53600Y143500
X53600Y145100
X53600Y142700
X53600Y141900
X53600Y140300
X53600Y144300
X53600Y139500
X53600Y141100
X54400Y144300
X54400Y140300
X54400Y139500
X54400Y142700
X54400Y141900
X54400Y145100
X54400Y141100
X54400Y143500
X55200Y145100
X55200Y141900
X55200Y142700
X55200Y139500
X55200Y144300
X55200Y143500
X55200Y141100
X55200Y140300
X56000Y140300
X56000Y141100
X56000Y139500
X56000Y141900
X56000Y144300
X56000Y142700
X56000Y145100
X56000Y143500
X56800Y139500
X56800Y144300
X56800Y143500
X56800Y141900
X56800Y142700
X56800Y141100
X56800Y140300
X56800Y145100
X57600Y141100
X57600Y144300
X57600Y139500
X57600Y141900
X57600Y145100
X57600Y142700
X57600Y143500
X57600Y140300
X58400Y139500
X58400Y141900
X58400Y144300
X58400Y143500
X58400Y141100
X58400Y145100
X58400Y140300
X58400Y142700
X59200Y141900
X59200Y143500
X59200Y144300
X59200Y142700
X59200Y140300
X59200Y145100
X59200Y139500
X59200Y141100
X60000Y144300
X60000Y141100
X60000Y145100
X60000Y140300
X60000Y141900
X60000Y142700
X60000Y143500
X60000Y139500
X82000Y145100
X82000Y143500
X82000Y141900
X82000Y140300
X82000Y144300
X82000Y142700
X82000Y141100
X82000Y139500
X82800Y144300
X82800Y142700
X82800Y145100
X82800Y143500
X82800Y141900
X82800Y140300
X82800Y141100
X82800Y139500
X83600Y144300
X83600Y142700
X83600Y141100
X83600Y139500
X83600Y140300
X83600Y145100
X83600Y143500
X83600Y141900
X84400Y145100
X84400Y143500
X84400Y141900
X84400Y140300
X84400Y141100
X84400Y139500
X84400Y144300
X84400Y142700
X85200Y144300
X85200Y142700
X85200Y141100
X85200Y139500
X85200Y145100
X85200Y140300
X85200Y143500
X85200Y141900
X86000Y141900
X86000Y140300
X86000Y139500
X86000Y141100
X86000Y145100
X86000Y144300
X86000Y143500
X86000Y142700
X86800Y140300
X86800Y141100
X86800Y139500
X86800Y141900
X86800Y143500
X86800Y145100
X86800Y142700
X86800Y144300
X87600Y144300
X87600Y140300
X87600Y142700
X87600Y141100
X87600Y139500
X87600Y141900
X87600Y145100
X87600Y143500
X88400Y140300
X88400Y145100
X88400Y139500
X88400Y141100
X88400Y143500
X88400Y144300
X88400Y142700
X88400Y141900
X89200Y145100
X89200Y144300
X89200Y143500
X89200Y140300
X89200Y141100
X89200Y139500
X89200Y142700
X89200Y141900
X90000Y144300
X90000Y142700
X90000Y141900
X90000Y139500
X90000Y141100
X90000Y145100
X90000Y143500
X90000Y140300
X90800Y144300
X90800Y143500
X90800Y139500
X90800Y142700
X90800Y141900
X90800Y140300
X90800Y145100
X90800Y141100
X91600Y141900
X91600Y145100
X91600Y143500
X91600Y142700
X91600Y141100
X91600Y140300
X91600Y144300
X91600Y139500
X92400Y139500
X92400Y142700
X92400Y144300
X92400Y145100
X92400Y143500
X92400Y141900
X92400Y140300
X92400Y141100
X93200Y144300
X93200Y142700
X93200Y141100
X93200Y139500
X93200Y140300
X93200Y143500
X93200Y141900
X93200Y145100
X94800Y142700
X94800Y144300
X94800Y145100
X94800Y143500
X94800Y139500
X94800Y141900
X94800Y140300
X94800Y141100
X95600Y144300
X95600Y142700
X95600Y141100
X95600Y139500
X95600Y143500
X95600Y140300
X95600Y145100
X95600Y141900
X96400Y143500
X96400Y141900
X96400Y139500
X96400Y140300
X96400Y142700
X96400Y145100
X96400Y144300
X96400Y141100
X97200Y141100
X97200Y141900
X97200Y139500
X97200Y145100
X97200Y140300
X97200Y143500
X97200Y142700
X97200Y144300
X98000Y145100
X98000Y140300
X98000Y143500
X98000Y139500
X98000Y142700
X98000Y144300
X98000Y141100
X98000Y141900
X98800Y142700
X98800Y139500
X98800Y140300
X98800Y141900
X98800Y145100
X98800Y144300
X98800Y143500
X98800Y141100
X99600Y144300
X99600Y141900
X99600Y142700
X99600Y139500
X99600Y141100
X99600Y145100
X99600Y140300
X99600Y143500
X100400Y140300
X100400Y144300
X100400Y142700
X100400Y143500
X100400Y141900
X100400Y141100
X100400Y145100
X100400Y139500
X101200Y143500
X101200Y142700
X101200Y144300
X101200Y141900
X101200Y139500
X101200Y141100
X101200Y145100
X101200Y140300
X102000Y144300
X102000Y139500
X102000Y142700
X102000Y141100
X102000Y143500
X102000Y141900
X102000Y145100
X102000Y140300
X102800Y145100
X102800Y143500
X102800Y141900
X102800Y140300
X102800Y141100
X102800Y144300
X102800Y139500
X102800Y142700
X103600Y143500
X103600Y141900
X103600Y140300
X103600Y144300
X103600Y142700
X103600Y141100
X103600Y139500
X103600Y145100
X104400Y142700
X104400Y141100
X104400Y139500
X104400Y144300
X104400Y145100
X104400Y143500
X104400Y141900
X104400Y140300
X105200Y140300
X105200Y145100
X105200Y144300
X105200Y142700
X105200Y141100
X105200Y139500
X105200Y143500
X105200Y141900
X106000Y144300
X106000Y142700
X106000Y141100
X106000Y145100
X106000Y143500
X106000Y141900
X106000Y140300
X106000Y139500
X106000Y145900
X106000Y146700
X106000Y148300
X106000Y149900
X106000Y151500
X106000Y149100
X106000Y150700
X105200Y146700
X105200Y145900
X105200Y149100
X105200Y150700
X105200Y148300
X105200Y149900
X105200Y151500
X104400Y145900
X104400Y146700
X104400Y148300
X104400Y149900
X104400Y151500
X104400Y149100
X104400Y150700
X103600Y146700
X103600Y145900
X103600Y149100
X103600Y150700
X103600Y148300
X103600Y149900
X103600Y151500
X102800Y145900
X102800Y146700
X102800Y148300
X102800Y149900
X102800Y151500
X102800Y149100
X102800Y150700
X102000Y145900
X102000Y146700
X102000Y149100
X102000Y150700
X102000Y148300
X102000Y149900
X102000Y151500
X101200Y145900
X101200Y146700
X101200Y148300
X101200Y149900
X101200Y151500
X101200Y149100
X101200Y150700
X100400Y146700
X100400Y145900
X100400Y149100
X100400Y150700
X100400Y148300
X100400Y149900
X100400Y151500
X99600Y148300
X99600Y149900
X99600Y151500
X99600Y145900
X99600Y149100
X99600Y150700
X99600Y146700
X98800Y145900
X98800Y149100
X98800Y150700
X98800Y146700
X98800Y148300
X98800Y149900
X98800Y151500
X98000Y146700
X98000Y148300
X98000Y149900
X98000Y151500
X98000Y149100
X98000Y150700
X98000Y145900
X97200Y145900
X97200Y149100
X97200Y150700
X97200Y148300
X97200Y149900
X97200Y151500
X97200Y146700
X96400Y146700
X96400Y148300
X96400Y149900
X96400Y151500
X96400Y149100
X96400Y150700
X96400Y145900
X95600Y145900
X95600Y149100
X95600Y150700
X95600Y148300
X95600Y149900
X95600Y151500
X95600Y146700
X94800Y146700
X94800Y148300
X94800Y149900
X94800Y151500
X94800Y149100
X94800Y150700
X94800Y145900
X93200Y145900
X93200Y149100
X93200Y150700
X93200Y148300
X93200Y149900
X93200Y151500
X93200Y146700
X92400Y148300
X92400Y149900
X92400Y151500
X92400Y149100
X92400Y146700
X92400Y150700
X92400Y145900
X91600Y149100
X91600Y150700
X91600Y148300
X91600Y149900
X91600Y151500
X91600Y145900
X91600Y146700
X90800Y148300
X90800Y149900
X90800Y151500
X90800Y149100
X90800Y150700
X90800Y146700
X90800Y145900
X90000Y149100
X90000Y150700
X90000Y148300
X90000Y149900
X90000Y151500
X90000Y145900
X90000Y146700
X89200Y148300
X89200Y149900
X89200Y151500
X89200Y149100
X89200Y150700
X89200Y146700
X89200Y145900
X88400Y149100
X88400Y150700
X88400Y148300
X88400Y149900
X88400Y151500
X88400Y145900
X88400Y146700
X87600Y148300
X87600Y149900
X87600Y151500
X87600Y149100
X87600Y150700
X87600Y145900
X87600Y146700
X86800Y149100
X86800Y150700
X86800Y148300
X86800Y149900
X86800Y151500
X86800Y145900
X86800Y146700
X86000Y148300
X86000Y149900
X86000Y151500
X86000Y149100
X86000Y150700
X86000Y146700
X86000Y145900
X85200Y149100
X85200Y150700
X85200Y148300
X85200Y149900
X85200Y151500
X85200Y145900
X85200Y146700
X84400Y148300
X84400Y149900
X84400Y151500
X84400Y149100
X84400Y150700
X84400Y145900
X84400Y146700
X83600Y149100
X83600Y150700
X83600Y148300
X83600Y149900
X83600Y151500
X83600Y145900
X83600Y146700
X82800Y148300
X82800Y149900
X82800Y151500
X82800Y149100
X82800Y150700
X82800Y146700
X82800Y145900
X82000Y149100
X82000Y150700
X82000Y148300
X82000Y149900
X82000Y151500
X82000Y146700
X82000Y145900
X60000Y148300
X60000Y149900
X60000Y151500
X60000Y149100
X60000Y150700
X60000Y145900
X60000Y146700
X59200Y149100
X59200Y150700
X59200Y148300
X59200Y149900
X59200Y151500
X59200Y145900
X59200Y146700
X58400Y149900
X58400Y151500
X58400Y149100
X58400Y150700
X58400Y145900
X58400Y148300
X58400Y146700
X57600Y150700
X57600Y148300
X57600Y149900
X57600Y151500
X57600Y145900
X57600Y149100
X57600Y146700
X56800Y151500
X56800Y149100
X56800Y150700
X56800Y148300
X56800Y146700
X56800Y149900
X56800Y145900
X56000Y148300
X56000Y149900
X56000Y150700
X56000Y151500
X56000Y145900
X56000Y149100
X56000Y146700
X55200Y151500
X55200Y150700
X55200Y148300
X55200Y145900
X55200Y149100
X55200Y146700
X55200Y149900
X54400Y149100
X54400Y151500
X54400Y145900
X54400Y150700
X54400Y146700
X54400Y148300
X54400Y149900
X53600Y149100
X53600Y150700
X53600Y146700
X53600Y148300
X53600Y145900
X53600Y151500
X53600Y149900
X52800Y150700
X52800Y151500
X52800Y149100
X52800Y146700
X52800Y148300
X52800Y145900
X52800Y149900
X52000Y149100
X52000Y151500
X52000Y145900
X52000Y146700
X52000Y148300
X52000Y149900
X52000Y150700
X51200Y149900
X51200Y148300
X51200Y150700
X51200Y149100
X51200Y145900
X51200Y151500
X51200Y146700
X50400Y150700
X50400Y151500
X50400Y149100
X50400Y145900
X50400Y146700
X50400Y149900
X50400Y148300
X49600Y148300
X49600Y151500
X49600Y145900
X49600Y149900
X49600Y146700
X49600Y150700
X49600Y149100
X48800Y150700
X48800Y149100
X48800Y151500
X48800Y149900
X48800Y146700
X48800Y145900
X48800Y148300
X47200Y149100
X47200Y149900
X47200Y148300
X47200Y145900
X47200Y146700
X47200Y151500
X47200Y150700
X46400Y149900
X46400Y149100
X46400Y150700
X46400Y148300
X46400Y151500
X46400Y146700
X46400Y145900
X45600Y149900
X45600Y149100
X45600Y145900
X45600Y148300
X45600Y150700
X45600Y146700
X45600Y151500
X44800Y145900
X44800Y148300
X44800Y146700
X44800Y149900
X44800Y150700
X44800Y151500
X44800Y149100
X44000Y151500
X44000Y149100
X44000Y148300
X44000Y150700
X44000Y146700
X44000Y145900
X44000Y149900
X43200Y149900
X43200Y146700
X43200Y145900
X43200Y148300
X43200Y150700
X43200Y151500
X43200Y149100
X42400Y146700
X42400Y150700
X42400Y148300
X42400Y151500
X42400Y149100
X42400Y145900
X42400Y149900
X41600Y151500
X41600Y149900
X41600Y149100
X41600Y145900
X41600Y150700
X41600Y146700
X41600Y148300
X40800Y150700
X40800Y151500
X40800Y149900
X40800Y146700
X40800Y148300
X40800Y145900
X40800Y149100
X40000Y151500
X40000Y150700
X40000Y145900
X40000Y149100
X40000Y149900
X40000Y146700
X40000Y148300
X39200Y149900
X39200Y151500
X39200Y149100
X39200Y145900
X39200Y150700
X39200Y148300
X39200Y146700
X38400Y148300
X38400Y145900
X38400Y146700
X38400Y150700
X38400Y151500
X38400Y149900
X38400Y149100
X37600Y149100
X37600Y149900
X37600Y151500
X37600Y145900
X37600Y146700
X37600Y150700
X37600Y148300
X36800Y145900
X36800Y148300
X36800Y149100
X36800Y146700
X36800Y151500
X36800Y149900
X36800Y150700
X36000Y145900
X36000Y151500
X36000Y149900
X36000Y149100
X36000Y146700
X36000Y150700
X36000Y148300
X36000Y153100
X36000Y154700
X36000Y156300
X36000Y157100
X36000Y152300
X36000Y153900
X36000Y155500
X36000Y157900
X36800Y153900
X36800Y155500
X36800Y157100
X36800Y156300
X36800Y153100
X36800Y154700
X36800Y152300
X36800Y157900
X37600Y153100
X37600Y154700
X37600Y156300
X37600Y157100
X37600Y152300
X37600Y153900
X37600Y155500
X37600Y157900
X38400Y153900
X38400Y155500
X38400Y157100
X38400Y156300
X38400Y153100
X38400Y154700
X38400Y152300
X38400Y157900
X39200Y154700
X39200Y156300
X39200Y157100
X39200Y152300
X39200Y153900
X39200Y155500
X39200Y153100
X39200Y157900
X40000Y153900
X40000Y155500
X40000Y157100
X40000Y156300
X40000Y153100
X40000Y154700
X40000Y152300
X40000Y157900
X40800Y154700
X40800Y156300
X40800Y157100
X40800Y152300
X40800Y153900
X40800Y155500
X40800Y153100
X40800Y157900
X41600Y154700
X41600Y156300
X41600Y152300
X41600Y153900
X41600Y155500
X41600Y157100
X41600Y153100
X41600Y157900
X42400Y157100
X42400Y153900
X42400Y153100
X42400Y154700
X42400Y156300
X42400Y155500
X42400Y152300
X42400Y157900
X43200Y156300
X43200Y152300
X43200Y153900
X43200Y155500
X43200Y157100
X43200Y153100
X43200Y154700
X43200Y157900
X44000Y153900
X44000Y157100
X44000Y153100
X44000Y154700
X44000Y156300
X44000Y155500
X44000Y152300
X44000Y157900
X44800Y156300
X44800Y152300
X44800Y153900
X44800Y155500
X44800Y157100
X44800Y154700
X44800Y153100
X44800Y157900
X45600Y153100
X45600Y154700
X45600Y153900
X45600Y156300
X45600Y155500
X45600Y152300
X45600Y157100
X45600Y157900
X46400Y152300
X46400Y153900
X46400Y155500
X46400Y157100
X46400Y154700
X46400Y153100
X46400Y157900
X46400Y156300
X47200Y155500
X47200Y153100
X47200Y154700
X47200Y156300
X47200Y152300
X47200Y157100
X47200Y153900
X47200Y157900
X48800Y154700
X48800Y152300
X48800Y156300
X48800Y153900
X48800Y155500
X48800Y157100
X48800Y153100
X48800Y157900
X49600Y153100
X49600Y155500
X49600Y154700
X49600Y156300
X49600Y157100
X49600Y152300
X49600Y153900
X49600Y157900
X50400Y152300
X50400Y153900
X50400Y155500
X50400Y157100
X50400Y154700
X50400Y153100
X50400Y156300
X50400Y157900
X51200Y153100
X51200Y154700
X51200Y155500
X51200Y157100
X51200Y156300
X51200Y152300
X51200Y153900
X51200Y157900
X52000Y155500
X52000Y157100
X52000Y153900
X52000Y153100
X52000Y154700
X52000Y156300
X52000Y152300
X52000Y157900
X52800Y156300
X52800Y154700
X52800Y152300
X52800Y153900
X52800Y155500
X52800Y157100
X52800Y153100
X52800Y157900
X53600Y157100
X53600Y153900
X53600Y152300
X53600Y153100
X53600Y154700
X53600Y156300
X53600Y155500
X53600Y157900
X54400Y154700
X54400Y156300
X54400Y153100
X54400Y152300
X54400Y153900
X54400Y155500
X54400Y157100
X54400Y157900
X55200Y153900
X55200Y155500
X55200Y157100
X55200Y153100
X55200Y154700
X55200Y156300
X55200Y152300
X55200Y157900
X56000Y156300
X56000Y153100
X56000Y154700
X56000Y152300
X56000Y153900
X56000Y155500
X56000Y157100
X56000Y157900
X56800Y157100
X56800Y155500
X56800Y153900
X56800Y153100
X56800Y154700
X56800Y156300
X56800Y152300
X56800Y157900
X57600Y153100
X57600Y152300
X57600Y153900
X57600Y155500
X57600Y157100
X57600Y154700
X57600Y156300
X57600Y157900
X58400Y155500
X58400Y152300
X58400Y153100
X58400Y154700
X58400Y156300
X58400Y157100
X58400Y153900
X58400Y157900
X59200Y156300
X59200Y154700
X59200Y152300
X59200Y153900
X59200Y155500
X59200Y157100
X59200Y153100
X59200Y157900
X60000Y152300
X60000Y157100
X60000Y155500
X60000Y153100
X60000Y154700
X60000Y156300
X60000Y153900
X60000Y157900
X82000Y157100
X82000Y152300
X82000Y155500
X82000Y153100
X82000Y154700
X82000Y153900
X82000Y156300
X82000Y157900
X82800Y153100
X82800Y157100
X82800Y156300
X82800Y154700
X82800Y152300
X82800Y155500
X82800Y153900
X82800Y157900
X83600Y157100
X83600Y154700
X83600Y152300
X83600Y156300
X83600Y155500
X83600Y153100
X83600Y153900
X83600Y157900
X84400Y153900
X84400Y155500
X84400Y153100
X84400Y152300
X84400Y157100
X84400Y154700
X84400Y156300
X84400Y157900
X85200Y154700
X85200Y156300
X85200Y153900
X85200Y155500
X85200Y152300
X85200Y157100
X85200Y153100
X85200Y157900
X86000Y156300
X86000Y157100
X86000Y155500
X86000Y154700
X86000Y153100
X86000Y152300
X86000Y153900
X86000Y157900
X86800Y154700
X86800Y157100
X86800Y153900
X86800Y155500
X86800Y153100
X86800Y156300
X86800Y152300
X86800Y157900
X87600Y153900
X87600Y152300
X87600Y154700
X87600Y157100
X87600Y155500
X87600Y156300
X87600Y153100
X87600Y157900
X88400Y153100
X88400Y152300
X88400Y155500
X88400Y153900
X88400Y157100
X88400Y156300
X88400Y154700
X88400Y157900
X89200Y152300
X89200Y155500
X89200Y153100
X89200Y156300
X89200Y154700
X89200Y157100
X89200Y153900
X89200Y157900
X90000Y153100
X90000Y157100
X90000Y156300
X90000Y154700
X90000Y155500
X90000Y153900
X90000Y157900
X90000Y152300
X90800Y153100
X90800Y157100
X90800Y153900
X90800Y152300
X90800Y155500
X90800Y156300
X90800Y154700
X90800Y157900
X91600Y154700
X91600Y153900
X91600Y155500
X91600Y157100
X91600Y152300
X91600Y153100
X91600Y156300
X91600Y157900
X92400Y157100
X92400Y153900
X92400Y156300
X92400Y153100
X92400Y155500
X92400Y152300
X92400Y154700
X92400Y157900
X93200Y153100
X93200Y154700
X93200Y152300
X93200Y153900
X93200Y157100
X93200Y156300
X93200Y155500
X93200Y157900
X94800Y153100
X94800Y154700
X94800Y152300
X94800Y157100
X94800Y156300
X94800Y155500
X94800Y153900
X94800Y157900
X95600Y157100
X95600Y154700
X95600Y153100
X95600Y156300
X95600Y152300
X95600Y153900
X95600Y155500
X95600Y157900
X96400Y153100
X96400Y157100
X96400Y155500
X96400Y152300
X96400Y156300
X96400Y153900
X96400Y154700
X96400Y157900
X97200Y154700
X97200Y157100
X97200Y155500
X97200Y152300
X97200Y153100
X97200Y156300
X97200Y153900
X97200Y157900
X98000Y153900
X98000Y154700
X98000Y157100
X98000Y153100
X98000Y155500
X98000Y152300
X98000Y156300
X98000Y157900
X98800Y157100
X98800Y154700
X98800Y153900
X98800Y152300
X98800Y153100
X98800Y155500
X98800Y156300
X98800Y157900
X99600Y155500
X99600Y157100
X99600Y156300
X99600Y152300
X99600Y153900
X99600Y154700
X99600Y153100
X99600Y157900
X100400Y157100
X100400Y152300
X100400Y154700
X100400Y153900
X100400Y155500
X100400Y153100
X100400Y156300
X100400Y157900
X101200Y154700
X101200Y153900
X101200Y153100
X101200Y156300
X101200Y152300
X101200Y155500
X101200Y157900
X101200Y157100
X102000Y155500
X102000Y153900
X102000Y152300
X102000Y157100
X102000Y153100
X102000Y156300
X102000Y154700
X102000Y157900
X102800Y153100
X102800Y156300
X102800Y157100
X102800Y153900
X102800Y154700
X102800Y155500
X102800Y152300
X102800Y157900
X103600Y156300
X103600Y153100
X103600Y154700
X103600Y155500
X103600Y157100
X103600Y152300
X103600Y153900
X103600Y157900
X104400Y152300
X104400Y155500
X104400Y154700
X104400Y153100
X104400Y157100
X104400Y156300
X104400Y153900
X104400Y157900
X105200Y154700
X105200Y157100
X105200Y155500
X105200Y152300
X105200Y156300
X105200Y153900
X105200Y153100
X105200Y157900
X106000Y154700
X106000Y152300
X106000Y153100
X106000Y156300
X106000Y155500
X106000Y157900
X106000Y157100
X106000Y153900
X106000Y159500
X106000Y158700
X105200Y158700
X105200Y159500
X104400Y159500
X104400Y158700
X103600Y158700
X103600Y159500
X102800Y159500
X102800Y158700
X102000Y158700
X102000Y159500
X101200Y159500
X101200Y158700
X100400Y158700
X100400Y159500
X99600Y159500
X99600Y158700
X98800Y158700
X98800Y159500
X98000Y159500
X98000Y158700
X97200Y158700
X97200Y159500
X96400Y159500
X96400Y158700
X95600Y158700
X95600Y159500
X94800Y159500
X94800Y158700
X93200Y158700
X93200Y159500
X92400Y159500
X92400Y158700
X91600Y158700
X91600Y159500
X90800Y159500
X90800Y158700
X90000Y158700
X90000Y159500
X89200Y159500
X89200Y158700
X88400Y158700
X88400Y159500
X87600Y159500
X87600Y158700
X86800Y158700
X86800Y159500
X86000Y159500
X86000Y158700
X85200Y158700
X85200Y159500
X84400Y159500
X84400Y158700
X83600Y158700
X83600Y159500
X82800Y158700
X82800Y159500
X82000Y158700
X82000Y159500
X60000Y158700
X60000Y159500
X59200Y159500
X59200Y158700
X58400Y158700
X58400Y159500
X57600Y159500
X57600Y158700
X56800Y159500
X56800Y158700
X56000Y159500
X56000Y158700
X55200Y158700
X55200Y159500
X54400Y159500
X54400Y158700
X53600Y159500
X53600Y158700
X52800Y159500
X52800Y158700
X52000Y158700
X52000Y159500
X51200Y158700
X51200Y159500
X50400Y159500
X50400Y158700
X49600Y159500
X49600Y158700
X48800Y158700
X48800Y159500
X47200Y159500
X47200Y158700
X46400Y159500
X46400Y158700
X45600Y159500
X45600Y158700
X44800Y158700
X44800Y159500
X44000Y158700
X44000Y159500
X43200Y158700
X43200Y159500
X42400Y159500
X42400Y158700
X41600Y158700
X41600Y159500
X40800Y158700
X40800Y159500
X40000Y158700
X40000Y159500
X39200Y159500
X39200Y158700
X38400Y159500
X38400Y158700
X37600Y158700
X37600Y159500
X36800Y158700
X36800Y159500
X36000Y159500
X36000Y158700
T2C.3F95S300
X35000Y37800
X37000Y37800
X39000Y37800
X41000Y37800
X43000Y39500
X43000Y37800
X45000Y39500
X45000Y37800
X46700Y43800
X47000Y42700
X47000Y41500
X47000Y37800
X47000Y39500
X47800Y42700
X48600Y42700
X49000Y41500
X49000Y37800
X49000Y39500
X49400Y42700
X50200Y42700
X51000Y37800
X51000Y39500
X51000Y42700
X51000Y41500
X51800Y42700
X52100Y43700
X53000Y37800
X53000Y39500
X55000Y37800
X55000Y39500
X57000Y37800
X57000Y39500
X59000Y37800
X61000Y37800
X63000Y37800
X65000Y37800
X67000Y37800
X67000Y39500
X69000Y37800
X69000Y39500
X70700Y43800
X71000Y41500
X71000Y39500
X71000Y37800
X71000Y42700
X71800Y42700
X72600Y42700
X73000Y41500
X73000Y39500
X73000Y37800
X73400Y42700
X74200Y42700
X75000Y41500
X75000Y42700
X75000Y39500
X75000Y37800
X75800Y42700
X76100Y43700
X77000Y39500
X77000Y37800
X79000Y39500
X79000Y37800
X81000Y39500
X81000Y37800
X83000Y37800
X85000Y37800
X87000Y37800
X89000Y37800
X91000Y39500
X91000Y37800
X93000Y39500
X93000Y37800
X94700Y43800
X95000Y41500
X95000Y39500
X95000Y42700
X95000Y37800
X95800Y42700
X96600Y42700
X97000Y41500
X97000Y39500
X97000Y37800
X97400Y42700
X98200Y42700
X99000Y39500
X99000Y42700
X99000Y41500
X99000Y37800
X99800Y42700
X100100Y43700
X101000Y39500
X101000Y37800
X103000Y39500
X103000Y37800
X105000Y39500
X105000Y37800
X107000Y37800
X109000Y37800
X111000Y37800
X113000Y37800
X115000Y37800
X115000Y39500
X117000Y37800
X117000Y39500
X118700Y43800
X119000Y41500
X119000Y37800
X119000Y42700
X119000Y39500
X119800Y42700
X120600Y42700
X121000Y39500
X121000Y41500
X121000Y37800
X121400Y42700
X122200Y42700
X123000Y42700
X123000Y41500
X123000Y37800
X123000Y39500
X123800Y42700
X124100Y43700
X125000Y39500
X125000Y37800
X124100Y45500
X124100Y44900
X124100Y44300
X124100Y47900
X124100Y47300
X124100Y46700
X124100Y46100
X123300Y45200
X123300Y46750
X122700Y45200
X122700Y46750
X122200Y47500
X122200Y46000
X122100Y45200
X122100Y46750
X121400Y45200
X121400Y46750
X120700Y47500
X120700Y45200
X120700Y46750
X120700Y46000
X120100Y45200
X120100Y46750
X119500Y46750
X119500Y45200
X118700Y44400
X118700Y45000
X118700Y45600
X118700Y46200
X118700Y46800
X112400Y48400
X112100Y50300
X100100Y46100
X100100Y46700
X100100Y47300
X100100Y47900
X100100Y44900
X100100Y44300
X100100Y45500
X99300Y45200
X99300Y46750
X98700Y46750
X98700Y45200
X98200Y46000
X98200Y47500
X98100Y46750
X98100Y45200
X97400Y46750
X97400Y45200
X96700Y46000
X96700Y47500
X96700Y46750
X96700Y45200
X96100Y46750
X96100Y45200
X95500Y46750
X95500Y45200
X94700Y46800
X94700Y46200
X94700Y45600
X94700Y45000
X94700Y44400
X88400Y48400
X88100Y50300
X76100Y46700
X76100Y47300
X76100Y47900
X76100Y46100
X76100Y45500
X76100Y44300
X76100Y44900
X75300Y46750
X75300Y45200
X74700Y46750
X74700Y45200
X74200Y47500
X74200Y46000
X74100Y46750
X74100Y45200
X73400Y46750
X73400Y45200
X72700Y47500
X72700Y46750
X72700Y46000
X72700Y45200
X72100Y46750
X72100Y45200
X71500Y46750
X71500Y45200
X70700Y46800
X70700Y45000
X70700Y44400
X70700Y45600
X70700Y46200
X64400Y48400
X64100Y50300
X52100Y44900
X52100Y44300
X52100Y46700
X52100Y46100
X52100Y45500
X52100Y47300
X52100Y47900
X51300Y46750
X51300Y45200
X50700Y46750
X50700Y45200
X50200Y47500
X50200Y46000
X50100Y45200
X50100Y46750
X49400Y45200
X49400Y46750
X48700Y47500
X48700Y46750
X48700Y46000
X48700Y45200
X48100Y45200
X48100Y46750
X47500Y45200
X47500Y46750
X46700Y45600
X46700Y46200
X46700Y45000
X46700Y44400
X46700Y46800
X40400Y48400
X40100Y50300
X32400Y55600
X32400Y52400
X32400Y51600
X32400Y54800
X32400Y53200
X32400Y54000
X32400Y56400
X33200Y55600
X33200Y54000
X33200Y53200
X33200Y54800
X33200Y52400
X33200Y51600
X33200Y56400
X40500Y51100
X43700Y54000
X43700Y53200
X43700Y54800
X43700Y51600
X43700Y52400
X43700Y55600
X43700Y56400
X44500Y51600
X44500Y52400
X44500Y54800
X44500Y53200
X44500Y54000
X44500Y55600
X44500Y56400
X47700Y52700
X47700Y56100
X47700Y54200
X48500Y52100
X48500Y55300
X48500Y54500
X48500Y53700
X48500Y52900
X48500Y56100
X49300Y52700
X49300Y54200
X49300Y56100
X50100Y52100
X50100Y52900
X50100Y54500
X50100Y53700
X50100Y55300
X50100Y56100
X56500Y55600
X56500Y52400
X56500Y51600
X56500Y54800
X56500Y53200
X56500Y54000
X56500Y56400
X57300Y55600
X57300Y54000
X57300Y53200
X57300Y54800
X57300Y52400
X57300Y51600
X57300Y56400
X64500Y51100
X67700Y55600
X67700Y54000
X67700Y53200
X67700Y52400
X67700Y51600
X67700Y54800
X67700Y56400
X68500Y54000
X68500Y55600
X68500Y51600
X68500Y53200
X68500Y54800
X68500Y52400
X68500Y56400
X71700Y54200
X71700Y52700
X71700Y56100
X72500Y54500
X72500Y53700
X72500Y55300
X72500Y52100
X72500Y56100
X72500Y52900
X73300Y54200
X73300Y52700
X73300Y56100
X74100Y52900
X74100Y54500
X74100Y55300
X74100Y53700
X74100Y52100
X74100Y56100
X80500Y54700
X80500Y51500
X80500Y52300
X80500Y55500
X80500Y53100
X80500Y53900
X80500Y56300
X81300Y55500
X81300Y53900
X81300Y54700
X81300Y51500
X81300Y53100
X81300Y52300
X81300Y56300
X88500Y51100
X91700Y55600
X91700Y53200
X91700Y54800
X91700Y51600
X91700Y52400
X91700Y54000
X91700Y56400
X92500Y53200
X92500Y54000
X92500Y51600
X92500Y52400
X92500Y54800
X92500Y55600
X92500Y56400
X95700Y52700
X95700Y54200
X95700Y56100
X96500Y52900
X96500Y52100
X96500Y55300
X96500Y54500
X96500Y53700
X96500Y56100
X97300Y52700
X97300Y54200
X97300Y56100
X98100Y52900
X98100Y52100
X98100Y54500
X98100Y53700
X98100Y55300
X98100Y56100
X104500Y52300
X104500Y53100
X104500Y54700
X104500Y55500
X104500Y53900
X104500Y51500
X104500Y56300
X105300Y55500
X105300Y54700
X105300Y53100
X105300Y53900
X105300Y51500
X105300Y52300
X105300Y56300
X112500Y51100
X115700Y53200
X115700Y51600
X115700Y52400
X115700Y54000
X115700Y54800
X115700Y55600
X115700Y56400
X116500Y53200
X116500Y54000
X116500Y51600
X116500Y52400
X116500Y54800
X116500Y55600
X116500Y56400
X119700Y56100
X119700Y54200
X119700Y52700
X120500Y54500
X120500Y52900
X120500Y53700
X120500Y52100
X120500Y55300
X120500Y56100
X121300Y54200
X121300Y56100
X121300Y52700
X122100Y56100
X122100Y54500
X122100Y53700
X122100Y52100
X122100Y52900
X122100Y55300
X122100Y58500
X122100Y57700
X122100Y56900
X122100Y60900
X122100Y60100
X122100Y59300
X121300Y58300
X121300Y59800
X120500Y60900
X120500Y56900
X120500Y57700
X120500Y58500
X120500Y60100
X120500Y59300
X119700Y58300
X119700Y59800
X116500Y62800
X116500Y62000
X116500Y60400
X116500Y61200
X116500Y57200
X116500Y59600
X116500Y58800
X116500Y58000
X115700Y62800
X115700Y62000
X115700Y60400
X115700Y58800
X115700Y57200
X115700Y59600
X115700Y58000
X115700Y61200
X105300Y59500
X105300Y58700
X105300Y60300
X105300Y61100
X105300Y57100
X105300Y57900
X105300Y61900
X105300Y62700
X104500Y58700
X104500Y57900
X104500Y61100
X104500Y60300
X104500Y57100
X104500Y59500
X104500Y61900
X104500Y62700
X98100Y56900
X98100Y59300
X98100Y57700
X98100Y58500
X98100Y60900
X98100Y60100
X97300Y59800
X97300Y58300
X96500Y59300
X96500Y60900
X96500Y60100
X96500Y56900
X96500Y57700
X96500Y58500
X95700Y58300
X95700Y59800
X92500Y62800
X92500Y62000
X92500Y57200
X92500Y58000
X92500Y59600
X92500Y58800
X92500Y60400
X92500Y61200
X91700Y62800
X91700Y62000
X91700Y59600
X91700Y57200
X91700Y58800
X91700Y58000
X91700Y61200
X91700Y60400
X81300Y59500
X81300Y58700
X81300Y60300
X81300Y61100
X81300Y57100
X81300Y57900
X81300Y61900
X81300Y62700
X80500Y57900
X80500Y61100
X80500Y60300
X80500Y57100
X80500Y59500
X80500Y58700
X80500Y61900
X80500Y62700
X74100Y60900
X74100Y58500
X74100Y60100
X74100Y57700
X74100Y59300
X74100Y56900
X73300Y58300
X73300Y59800
X72500Y56900
X72500Y58500
X72500Y60100
X72500Y57700
X72500Y60900
X72500Y59300
X71700Y59800
X71700Y58300
X68500Y57200
X68500Y62800
X68500Y59600
X68500Y62000
X68500Y61200
X68500Y58800
X68500Y60400
X68500Y58000
X67700Y57200
X67700Y58000
X67700Y61200
X67700Y58800
X67700Y62000
X67700Y60400
X67700Y62800
X67700Y59600
X57300Y58800
X57300Y59600
X57300Y58000
X57300Y57200
X57300Y61200
X57300Y62800
X57300Y62000
X57300Y60400
X56500Y60400
X56500Y62800
X56500Y62000
X56500Y61200
X56500Y59600
X56500Y57200
X56500Y58000
X56500Y58800
X50100Y56900
X50100Y60900
X50100Y60100
X50100Y59300
X50100Y57700
X50100Y58500
X49300Y58300
X49300Y59800
X48500Y60100
X48500Y59300
X48500Y60900
X48500Y56900
X48500Y57700
X48500Y58500
X47700Y58300
X47700Y59800
X44500Y62800
X44500Y62000
X44500Y59600
X44500Y58800
X44500Y60400
X44500Y61200
X44500Y57200
X44500Y58000
X43700Y57200
X43700Y59600
X43700Y58800
X43700Y58000
X43700Y62800
X43700Y61200
X43700Y62000
X43700Y60400
X33200Y59600
X33200Y58000
X33200Y61200
X33200Y58800
X33200Y57200
X33200Y62800
X33200Y62000
X33200Y60400
X32400Y58000
X32400Y62000
X32400Y57200
X32400Y60400
X32400Y58800
X32400Y59600
X32400Y61200
X32400Y62800
X32400Y65200
X32400Y66000
X32400Y64400
X32400Y63600
X32400Y66800
X32400Y69200
X32400Y68400
X32400Y67600
X33200Y66000
X33200Y64400
X33200Y66800
X33200Y69200
X33200Y65200
X33200Y63600
X33200Y67600
X33200Y68400
X38600Y69500
X38600Y68700
X39300Y65800
X39300Y67000
X39700Y65200
X39700Y66400
X40100Y65800
X40100Y67000
X40500Y65200
X40500Y66400
X40900Y65800
X40900Y67000
X41300Y65200
X41300Y66400
X41700Y65800
X41700Y67000
X42100Y65200
X42100Y66400
X42500Y65800
X42500Y67000
X42900Y65200
X42900Y66400
X43300Y65800
X43300Y67000
X44000Y69500
X44000Y68700
X56500Y64400
X56500Y66000
X56500Y65200
X56500Y63600
X56500Y67600
X56500Y68400
X56500Y69200
X56500Y66800
X57300Y65200
X57300Y66000
X57300Y64400
X57300Y63600
X57300Y68400
X57300Y67600
X57300Y69200
X57300Y66800
X62600Y69500
X62600Y68700
X63400Y65800
X63400Y67000
X63800Y65200
X63800Y66400
X64200Y67000
X64200Y65800
X64600Y65200
X64600Y66400
X65000Y65800
X65000Y67000
X65400Y65200
X65400Y66400
X65800Y65800
X65800Y67000
X66200Y65200
X66200Y66400
X66600Y65800
X66600Y67000
X67000Y65200
X67000Y66400
X67400Y65800
X67400Y67000
X68000Y68700
X68000Y69500
X80500Y65900
X80500Y63500
X80500Y64300
X80500Y65100
X80500Y66700
X80500Y69100
X80500Y68300
X80500Y67500
X81300Y63500
X81300Y64300
X81300Y65100
X81300Y66700
X81300Y69100
X81300Y65900
X81300Y67500
X81300Y68300
X86600Y68700
X86600Y69500
X87400Y65800
X87400Y67000
X87800Y65200
X87800Y66400
X88200Y65800
X88200Y67000
X88600Y65200
X88600Y66400
X89000Y65800
X89000Y67000
X89400Y65200
X89400Y66400
X89800Y65800
X89800Y67000
X90200Y65200
X90200Y66400
X90600Y65800
X90600Y67000
X91000Y65200
X91000Y66400
X91400Y65800
X91400Y67000
X92000Y68700
X92000Y69500
X104500Y63500
X104500Y65900
X104500Y64300
X104500Y65100
X104500Y66700
X104500Y69100
X104500Y68300
X104500Y67500
X105300Y65100
X105300Y65900
X105300Y63500
X105300Y64300
X105300Y66700
X105300Y69100
X105300Y67500
X105300Y68300
X110600Y69500
X110600Y68700
X111400Y67000
X111400Y65800
X111800Y65200
X111800Y66400
X112200Y67000
X112200Y65800
X112600Y65200
X112600Y66400
X113000Y65800
X113000Y67000
X113400Y65200
X113400Y66400
X113800Y65800
X113800Y67000
X114200Y66400
X114200Y65200
X114600Y67000
X114600Y65800
X115000Y66400
X115000Y65200
X115400Y67000
X115400Y65800
X116000Y68700
X116000Y69500
X116000Y71900
X116000Y71100
X116000Y70300
X116000Y72700
X110600Y72725
X110600Y71100
X110600Y71900
X110600Y70300
X105300Y69900
X105300Y70700
X105300Y71500
X104500Y71500
X104500Y70700
X104500Y69900
X92000Y71100
X92000Y72700
X92000Y71900
X92000Y70300
X86600Y72725
X86600Y70300
X86600Y71900
X86600Y71100
X81300Y69900
X81300Y70700
X81300Y71500
X80500Y71500
X80500Y70700
X80500Y69900
X68000Y70300
X68000Y72700
X68000Y71900
X68000Y71100
X62600Y71900
X62600Y71100
X62600Y72725
X62600Y70300
X57300Y70800
X57300Y71600
X57300Y70000
X56500Y71600
X56500Y70000
X56500Y70800
X44000Y71900
X44000Y70300
X44000Y71100
X44000Y72700
X38600Y72725
X38600Y71100
X38600Y70300
X38600Y71900
X33200Y70000
X33200Y71600
X33200Y70800
X32400Y70800
X32400Y70000
X32400Y71600
X39000Y77900
X43000Y81900
X47000Y77900
X51000Y81900
X55000Y77900
X59000Y81900
X63000Y78000
X67000Y81900
X71000Y78000
X75000Y81900
X79000Y77900
X83000Y81900
X87000Y78000
X91000Y81900
X95000Y78000
X99000Y81900
X103000Y77900
X123200Y79900
X123200Y79100
X129500Y93000
X116300Y94800
X116300Y94000
X116300Y93200
X116300Y91800
X116300Y91000
X116300Y90200
X116300Y89400
X110800Y89300
X110800Y90100
X110800Y90900
X110800Y91700
X106000Y84500
X101000Y84500
X96000Y84500
X91000Y84500
X86000Y84500
X81000Y84500
X76800Y93300
X76800Y94100
X76800Y94900
X76000Y89500
X76000Y84500
X71000Y93300
X71000Y94100
X71000Y94900
X71000Y84500
X71000Y89500
X66000Y89500
X66000Y84500
X65200Y93200
X65200Y94800
X65200Y94000
X61000Y84500
X56000Y84500
X51000Y84500
X46000Y84500
X41000Y84500
X36000Y84500
X31200Y90800
X31200Y90000
X31200Y89200
X31200Y91600
X25900Y93600
X25900Y94400
X25900Y96000
X25900Y95200
X31200Y98800
X31200Y98000
X31200Y97200
X31200Y99600
X65200Y95600
X65200Y101200
X71000Y95700
X71000Y101100
X71000Y97100
X71000Y97900
X71000Y98700
X71000Y99500
X76800Y95700
X110800Y99700
X110800Y97300
X110800Y98100
X110800Y98900
X116300Y95600
X116300Y99600
X116300Y98800
X116300Y98000
X116300Y97200
X128400Y95500
X128400Y96300
X129000Y98600
X135500Y105000
X131000Y103500
X131000Y106500
X126000Y103500
X123000Y105800
X110800Y106200
X110800Y105400
X110800Y107000
X76800Y102900
X76800Y103700
X76800Y101300
X76800Y102100
X71000Y106300
X71000Y105500
X71000Y101900
X71000Y102700
X71000Y103500
X71000Y107100
X65200Y102800
X65200Y103600
X65200Y102000
X31200Y106900
X31200Y106100
X31200Y105300
X25900Y101600
X25900Y102400
X25900Y104000
X25900Y103200
X25900Y109400
X25900Y111800
X25900Y111000
X25900Y110200
X31200Y113900
X31200Y107700
X31200Y113100
X65200Y110100
X65200Y109300
X65200Y111700
X65200Y110900
X71000Y110100
X71000Y109300
X71000Y107900
X71000Y113300
X71000Y111700
X71000Y110900
X76800Y111000
X76800Y110200
X76800Y109400
X76800Y111800
X110800Y107800
X110800Y113200
X125800Y112700
X131000Y112700
X131200Y108600
X135500Y108000
X138500Y117000
X138500Y120000
X137000Y118500
X135500Y118500
X129200Y114900
X129200Y119900
X128300Y114100
X126600Y118600
X122000Y118100
X122000Y117200
X120000Y116500
X110800Y114000
X110800Y115600
X110800Y114800
X94800Y114700
X94000Y118400
X92100Y115900
X91600Y117500
X71000Y114100
X48800Y114700
X48000Y118500
X46100Y115900
X45600Y117500
X31200Y114700
X31200Y115500
X25900Y118300
X25900Y119100
X25900Y117500
X25900Y119900
X25900Y126300
X25900Y125500
X25900Y127900
X25900Y127100
X31200Y121900
X31200Y122700
X31200Y123500
X31200Y121100
X31200Y131600
X31200Y130800
X31200Y130000
X31200Y129200
X37700Y121200
X45600Y121200
X50400Y127000
X50400Y130800
X58400Y127900
X83700Y121200
X96400Y127000
X96400Y130700
X104400Y127900
X110800Y121200
X110800Y123600
X110800Y122800
X110800Y122000
X114800Y130100
X114800Y130900
X114800Y131700
X114800Y132500
X128000Y121000
X128800Y121700
X130300Y138900
X129400Y137700
X128800Y136000
X128000Y136000
X127100Y138100
X126600Y135700
X125700Y136400
X110800Y137400
X110800Y138200
X110800Y139000
X94800Y134100
X93200Y134100
X76800Y134900
X76800Y135700
X76800Y133300
X76800Y134100
X71000Y134300
X71000Y135100
X71000Y138900
X71000Y138100
X71000Y137300
X71000Y133500
X71000Y135900
X65200Y135700
X65200Y134100
X65200Y134900
X65200Y133300
X48800Y134100
X47200Y134100
X31200Y138900
X31200Y138100
X31200Y137300
X25900Y134900
X25900Y133300
X25900Y134100
X25900Y135700
X25900Y143900
X25900Y141500
X25900Y142300
X25900Y143100
X31200Y139700
X31200Y145300
X65200Y142100
X65200Y142900
X65200Y141300
X65200Y143700
X71000Y141300
X71000Y145300
X71000Y143700
X71000Y139700
X71000Y142900
X71000Y142100
X76800Y143700
X76800Y141300
X76800Y142100
X76800Y142900
X110800Y145400
X110800Y139800
X126300Y143900
X129400Y141400
X130300Y140400
X130400Y144100
X131100Y143500
X131800Y144100
X132500Y143500
X133200Y144100
X133900Y142700
X134200Y141800
X134400Y140900
X138600Y142500
X136700Y149700
X135800Y149700
X135500Y148500
X131200Y150600
X131000Y146800
X110800Y147000
X110800Y147800
X110800Y146200
X76800Y151800
X76800Y151000
X76800Y150200
X76800Y149400
X71000Y147700
X71000Y149100
X71000Y149900
X71000Y150700
X71000Y151500
X71000Y146100
X71000Y146900
X65200Y149400
X65200Y151800
X65200Y151000
X65200Y150200
X31200Y147700
X31200Y146100
X31200Y146900
X25900Y149500
X25900Y150300
X25900Y151100
X25900Y151900
X25900Y157300
X25900Y158100
X31200Y155800
X31200Y153400
X31200Y154200
X31200Y155000
X71000Y154700
X71000Y153100
X71000Y155500
X71000Y153900
X110800Y153500
X110800Y154300
X110800Y155900
X110800Y155100
X116200Y153300
X116200Y154100
X116200Y154900
X116200Y155700
X116200Y157200
X116200Y158000
X131000Y154500
X135500Y152800
X136200Y153400
X137000Y154500
X138500Y156000
X138500Y153000
X137500Y160600
X131000Y159500
X131000Y164500
X126000Y159500
X116200Y158800
X116200Y159600
X106000Y164500
X101000Y164500
X96000Y164500
X91000Y164500
X86000Y164500
X81000Y164500
X76000Y159500
X76000Y164500
X71000Y164500
X71000Y159500
X66000Y159500
X66000Y164500
X61000Y164500
X56000Y164500
X51000Y164500
X46000Y164500
X41000Y164500
X36000Y164500
X25900Y158900
X25900Y159700
X39000Y171000
X43000Y167300
X47000Y171000
X51000Y167300
X55000Y171000
X59000Y167300
X63000Y171100
X67000Y167300
X71000Y171100
X75000Y167300
X79000Y171000
X83000Y167300
X87000Y171100
X91000Y167300
X95000Y171100
X99000Y167300
X103000Y171000
X136000Y169500
X127200Y177300
X126400Y177300
X121000Y176275
X121000Y177100
X115600Y177100
X115600Y176300
X103200Y177300
X102400Y177300
X97000Y177100
X97000Y176275
X91600Y177100
X91600Y176300
X79200Y177400
X78400Y177400
X73000Y177100
X73000Y176275
X67600Y176300
X67600Y177100
X55100Y177400
X54300Y177400
X49000Y177100
X49000Y176275
X43600Y177100
X43600Y176300
X43600Y177900
X43600Y179500
X43600Y178700
X43600Y180300
X44300Y182700
X44700Y182100
X44700Y183300
X45100Y182700
X45500Y182100
X45500Y183300
X45900Y182700
X46300Y182100
X46300Y183300
X46700Y182700
X47100Y182100
X47100Y183300
X47500Y182700
X47900Y182100
X47900Y183300
X48300Y182700
X49000Y180300
X49000Y177900
X49000Y178700
X49000Y179500
X54300Y182200
X54300Y183800
X54300Y183000
X54300Y179800
X54300Y179000
X54300Y180600
X54300Y178200
X54300Y181400
X55100Y180600
X55100Y179000
X55100Y179800
X55100Y183800
X55100Y182200
X55100Y178200
X55100Y181400
X55100Y183000
X67600Y179500
X67600Y178700
X67600Y177900
X67600Y180300
X68400Y182700
X68800Y182100
X68800Y183300
X69200Y182700
X69600Y182100
X69600Y183300
X70000Y182700
X70400Y183300
X70400Y182100
X70800Y182700
X71200Y183300
X71200Y182100
X71600Y182700
X72000Y183300
X72000Y182100
X72400Y182700
X73000Y179500
X73000Y180300
X73000Y178700
X73000Y177900
X78400Y182200
X78400Y183800
X78400Y183000
X78400Y179800
X78400Y179000
X78400Y180600
X78400Y178200
X78400Y181400
X79200Y180600
X79200Y179000
X79200Y179800
X79200Y183800
X79200Y182200
X79200Y178200
X79200Y181400
X79200Y183000
X91600Y179500
X91600Y178700
X91600Y180300
X91600Y177900
X92400Y182700
X92800Y183300
X92800Y182100
X93200Y182700
X93600Y183300
X93600Y182100
X94000Y182700
X94400Y182100
X94400Y183300
X94800Y182700
X95200Y183300
X95200Y182100
X95600Y182700
X96000Y182100
X96000Y183300
X96400Y182700
X97000Y177900
X97000Y178700
X97000Y179500
X97000Y180300
X102400Y182900
X102400Y183700
X102400Y182100
X102400Y181300
X102400Y178100
X102400Y180500
X102400Y178900
X102400Y179700
X103200Y182100
X103200Y182900
X103200Y183700
X103200Y179700
X103200Y178900
X103200Y180500
X103200Y181300
X103200Y178100
X115600Y179500
X115600Y178700
X115600Y177900
X115600Y180300
X116400Y182700
X116800Y183300
X116800Y182100
X117200Y182700
X117600Y182100
X117600Y183300
X118000Y182700
X118400Y182100
X118400Y183300
X118800Y182700
X119200Y183300
X119200Y182100
X119600Y182700
X120000Y182100
X120000Y183300
X120400Y182700
X121000Y178700
X121000Y180300
X121000Y179500
X121000Y177900
X126400Y182900
X126400Y183700
X126400Y182100
X126400Y181300
X126400Y178100
X126400Y180500
X126400Y178900
X126400Y179700
X127200Y182100
X127200Y182900
X127200Y183700
X127200Y179700
X127200Y178900
X127200Y180500
X127200Y181300
X127200Y178100
X127200Y187700
X127200Y186900
X127200Y186100
X127200Y184500
X127200Y185300
X127200Y190100
X127200Y189300
X127200Y188500
X126400Y187700
X126400Y185300
X126400Y186100
X126400Y186900
X126400Y184500
X126400Y188500
X126400Y189300
X126400Y190100
X120400Y183900
X119600Y183900
X118800Y183900
X118000Y183900
X117200Y183900
X116400Y183900
X115900Y186200
X115900Y187000
X115900Y187800
X115900Y189400
X115900Y188600
X115100Y186200
X115100Y187000
X115100Y187800
X115100Y189400
X115100Y188600
X111900Y189200
X111100Y188100
X111100Y188900
X111100Y189700
X110300Y189200
X109500Y188100
X109500Y188900
X109500Y189700
X103200Y186100
X103200Y187700
X103200Y184500
X103200Y190100
X103200Y189300
X103200Y188500
X103200Y185300
X103200Y186900
X102400Y187700
X102400Y186900
X102400Y185300
X102400Y184500
X102400Y188500
X102400Y189300
X102400Y190100
X102400Y186100
X96400Y183900
X95600Y183900
X94800Y183900
X94000Y183900
X93200Y183900
X92400Y183900
X91900Y186200
X91900Y187000
X91900Y188600
X91900Y189400
X91900Y187800
X91100Y186200
X91100Y189400
X91100Y188600
X91100Y187000
X91100Y187800
X87900Y189200
X87100Y188100
X87100Y188900
X87100Y189700
X86300Y189200
X85500Y188100
X85500Y188900
X85500Y189700
X79200Y185400
X79200Y184600
X79200Y188600
X79200Y189400
X79200Y186200
X79200Y187800
X79200Y187000
X78400Y189400
X78400Y188600
X78400Y187000
X78400Y186200
X78400Y187800
X78400Y185400
X78400Y184600
X72400Y183900
X71600Y183900
X70800Y183900
X70000Y183900
X69200Y183900
X68400Y183900
X67900Y188600
X67900Y189400
X67900Y187000
X67900Y187800
X67900Y186200
X67100Y189400
X67100Y188600
X67100Y186200
X67100Y187000
X67100Y187800
X63900Y189200
X63100Y189700
X63100Y188100
X63100Y188900
X62300Y189200
X61500Y188900
X61500Y188100
X61500Y189700
X55100Y185400
X55100Y184600
X55100Y187000
X55100Y189400
X55100Y187800
X55100Y186200
X55100Y188600
X54300Y184600
X54300Y187800
X54300Y186200
X54300Y188600
X54300Y185400
X54300Y189400
X54300Y187000
X48300Y183900
X47500Y183900
X46700Y183900
X45900Y183900
X45100Y183900
X44300Y183900
X43900Y189400
X43900Y187000
X43900Y188600
X43900Y187800
X43900Y186200
X43100Y187000
X43100Y189400
X43100Y187800
X43100Y188600
X43100Y186200
X39900Y189200
X39100Y188900
X39100Y188100
X39100Y189700
X38300Y189200
X37500Y188900
X37500Y188100
X37500Y189700
X37500Y191300
X37500Y196100
X37500Y195300
X37500Y193700
X37500Y192100
X37500Y192900
X37500Y194500
X37500Y190500
X38300Y194800
X38300Y196300
X38300Y190700
X38300Y192900
X39100Y193700
X39100Y192900
X39100Y196100
X39100Y191300
X39100Y190500
X39100Y192100
X39100Y195300
X39100Y194500
X39900Y194800
X39900Y196300
X39900Y190700
X39900Y192900
X43100Y195000
X43100Y195800
X43100Y193400
X43100Y194200
X43100Y191000
X43100Y191800
X43100Y190200
X43100Y192600
X43900Y192600
X43900Y194200
X43900Y195800
X43900Y193400
X43900Y191000
X43900Y195000
X43900Y191800
X43900Y190200
X54300Y195800
X54300Y193400
X54300Y194200
X54300Y191000
X54300Y191800
X54300Y190200
X54300Y195000
X54300Y192600
X55100Y194200
X55100Y193400
X55100Y195000
X55100Y190200
X55100Y195800
X55100Y191000
X55100Y191800
X55100Y192600
X61500Y190500
X61500Y192100
X61500Y193700
X61500Y196100
X61500Y194500
X61500Y195300
X61500Y192900
X61500Y191300
X62300Y196300
X62300Y194800
X62300Y192900
X62300Y190700
X63100Y192900
X63100Y191300
X63100Y196100
X63100Y193700
X63100Y194500
X63100Y190500
X63100Y192100
X63100Y195300
X63900Y194800
X63900Y192900
X63900Y190700
X63900Y196300
X67100Y191800
X67100Y191000
X67100Y192600
X67100Y193400
X67100Y190200
X67100Y195800
X67100Y195000
X67100Y194200
X67900Y195000
X67900Y193400
X67900Y194200
X67900Y191800
X67900Y192600
X67900Y190200
X67900Y191000
X67900Y195800
X78400Y191000
X78400Y193400
X78400Y195000
X78400Y195800
X78400Y194200
X78400Y190200
X78400Y191800
X78400Y192600
X79200Y194200
X79200Y195000
X79200Y191000
X79200Y193400
X79200Y190200
X79200Y191800
X79200Y192600
X79200Y195800
X85500Y190500
X85500Y193700
X85500Y196100
X85500Y194500
X85500Y195300
X85500Y192900
X85500Y192100
X85500Y191300
X86300Y196300
X86300Y194800
X86300Y192900
X86300Y190700
X87100Y192100
X87100Y195300
X87100Y191300
X87100Y196100
X87100Y190500
X87100Y193700
X87100Y192900
X87100Y194500
X87900Y192900
X87900Y190700
X87900Y196300
X87900Y194800
X91100Y195000
X91100Y195800
X91100Y191800
X91100Y192600
X91100Y191000
X91100Y194200
X91100Y190200
X91100Y193400
X91900Y191000
X91900Y195000
X91900Y195800
X91900Y194200
X91900Y193400
X91900Y191800
X91900Y192600
X91900Y190200
X102400Y195700
X102400Y193300
X102400Y196500
X102400Y194100
X102400Y194900
X102400Y192500
X102400Y191700
X102400Y190900
X103200Y194100
X103200Y193300
X103200Y196500
X103200Y194900
X103200Y195700
X103200Y192500
X103200Y191700
X103200Y190900
X109500Y194500
X109500Y195300
X109500Y191300
X109500Y190500
X109500Y193700
X109500Y192900
X109500Y196100
X109500Y192100
X110300Y196300
X110300Y192900
X110300Y190700
X110300Y194800
X111100Y191300
X111100Y190500
X111100Y195300
X111100Y194500
X111100Y192900
X111100Y196100
X111100Y192100
X111100Y193700
X111900Y192900
X111900Y194800
X111900Y196300
X111900Y190700
X115100Y192600
X115100Y190200
X115100Y191800
X115100Y191000
X115100Y194200
X115100Y193400
X115100Y195800
X115100Y195000
X115900Y195800
X115900Y194200
X115900Y191000
X115900Y191800
X115900Y195000
X115900Y193400
X115900Y192600
X115900Y190200
X126400Y194100
X126400Y194900
X126400Y192500
X126400Y191700
X126400Y195700
X126400Y190900
X126400Y193300
X126400Y196500
X127200Y192500
X127200Y194900
X127200Y195700
X127200Y194100
X127200Y193300
X127200Y190900
X127200Y191700
X127200Y196500
X127200Y197300
X126400Y197300
X119500Y198700
X119200Y200600
X119100Y197900
X115900Y196600
X115900Y197400
X115100Y196600
X115100Y197400
X112900Y202200
X112900Y202800
X112100Y202250
X111500Y202250
X111100Y196900
X110900Y201500
X110900Y202250
X110200Y202250
X109500Y196900
X109500Y202250
X109400Y201500
X108900Y202250
X108300Y202250
X107500Y202300
X107500Y201700
X107500Y201100
X103200Y197300
X102400Y197300
X95500Y198700
X95200Y200600
X95100Y197900
X91900Y197400
X91900Y196600
X91100Y197400
X91100Y196600
X88900Y202200
X88900Y202800
X88100Y202250
X87500Y202250
X87100Y196900
X86900Y201500
X86900Y202250
X86200Y202250
X85500Y196900
X85500Y202250
X85400Y201500
X84900Y202250
X84300Y202250
X83500Y202300
X83500Y201700
X83500Y201100
X79200Y196600
X79200Y197400
X78400Y197400
X78400Y196600
X71500Y198700
X71200Y200600
X71100Y197900
X67900Y197400
X67900Y196600
X67100Y196600
X67100Y197400
X64900Y202200
X64900Y202800
X64100Y202250
X63500Y202250
X63100Y196900
X62900Y201500
X62900Y202250
X62200Y202250
X61500Y196900
X61500Y202250
X61400Y201500
X60900Y202250
X60300Y202250
X59500Y201700
X59500Y202300
X59500Y201100
X55100Y196600
X55100Y197400
X54300Y197400
X54300Y196600
X47500Y198700
X47200Y200600
X47100Y197900
X43900Y196600
X43900Y197400
X43100Y197400
X43100Y196600
X40900Y202800
X40900Y202200
X40100Y202250
X39500Y202250
X39100Y196900
X38900Y201500
X38900Y202250
X38200Y202250
X37500Y196900
X37500Y202250
X37400Y201500
X36900Y202250
X36300Y202250
X35500Y201700
X35500Y201100
X35500Y202300
X35500Y202900
X35500Y203500
X35500Y204100
X35500Y204700
X35500Y205300
X35800Y206300
X36300Y203800
X36600Y207500
X36600Y206300
X36900Y203800
X37400Y206300
X37400Y203000
X37500Y203800
X38200Y203800
X38200Y206300
X38600Y207500
X38900Y203800
X38900Y203000
X39000Y206300
X39500Y203800
X39800Y206300
X40100Y203800
X40600Y207500
X40600Y206300
X40900Y204600
X40900Y204000
X40900Y203400
X40900Y205200
X59500Y204700
X59500Y204100
X59500Y203500
X59500Y205300
X59500Y202900
X59800Y206300
X60300Y203800
X60600Y207500
X60600Y206300
X60900Y203800
X61400Y206300
X61400Y203000
X61500Y203800
X62200Y203800
X62200Y206300
X62600Y207500
X62900Y203800
X62900Y203000
X63000Y206300
X63500Y203800
X63800Y206300
X64100Y203800
X64600Y206300
X64600Y207500
X64900Y204000
X64900Y204600
X64900Y203400
X64900Y205200
X83500Y202900
X83500Y204100
X83500Y204700
X83500Y203500
X83500Y205300
X83800Y206300
X84300Y203800
X84600Y207500
X84600Y206300
X84900Y203800
X85400Y203000
X85400Y206300
X85500Y203800
X86200Y203800
X86200Y206300
X86600Y207500
X86900Y203800
X86900Y203000
X87000Y206300
X87500Y203800
X87800Y206300
X88100Y203800
X88600Y207500
X88600Y206300
X88900Y204000
X88900Y203400
X88900Y205200
X88900Y204600
X107500Y205300
X107500Y204700
X107500Y204100
X107500Y203500
X107500Y202900
X107800Y206300
X108300Y203800
X108600Y206300
X108600Y207500
X108900Y203800
X109400Y206300
X109400Y203000
X109500Y203800
X110200Y206300
X110200Y203800
X110600Y207500
X110900Y203800
X110900Y203000
X111000Y206300
X111500Y203800
X111800Y206300
X112100Y203800
X112600Y206300
X112600Y207500
X112900Y204600
X112900Y205200
X112900Y203400
X112900Y204000
X124600Y211200
X122600Y211200
X120600Y211200
X118600Y211200
X116600Y209500
X116600Y211200
X114600Y209500
X114600Y211200
X112600Y209500
X112600Y211200
X110600Y209500
X110600Y211200
X108600Y209500
X108600Y211200
X106600Y209500
X106600Y211200
X104600Y209500
X104600Y211200
X102600Y209500
X102600Y211200
X100600Y211200
X98600Y211200
X96600Y211200
X94600Y211200
X92600Y209500
X92600Y211200
X90600Y209500
X90600Y211200
X88600Y209500
X88600Y211200
X86600Y209500
X86600Y211200
X84600Y209500
X84600Y211200
X82600Y209500
X82600Y211200
X80600Y211200
X80600Y209500
X78600Y209500
X78600Y211200
X76600Y211200
X74600Y211200
X72600Y211200
X70600Y211200
X68600Y209500
X68600Y211200
X66600Y209500
X66600Y211200
X64600Y209500
X64600Y211200
X62600Y211200
X62600Y209500
X60600Y209500
X60600Y211200
X58600Y209500
X58600Y211200
X56600Y211200
X56600Y209500
X54600Y211200
X54600Y209500
X52600Y211200
X50600Y211200
X48600Y211200
X46600Y211200
X44600Y209500
X44600Y211200
X42600Y209500
X42600Y211200
X40600Y211200
X40600Y209500
X38600Y211200
X38600Y209500
X36600Y209500
X36600Y211200
X34600Y211200
X34600Y209500
T3C.9F197S550
X135800Y116400
X135800Y120800
T4C1.15F139S550
X118436Y140730
X118436Y143270
X118436Y145810
X118436Y148350
X118436Y150890
T5C1.2F139S550
X136900Y103000
X136900Y106500
X136900Y110000
T6C1.8F81S550
X24850Y56500
X24850Y60700
X30350Y60700
X30350Y56500
X131550Y60700
X131550Y56500
X137050Y56500
X137050Y60700
X137050Y64900
X131550Y64900
X30350Y64900
X24850Y64900
X24850Y184200
X24850Y188400
X30350Y184200
X30350Y188400
X131550Y188400
X131550Y184200
X137050Y184200
X137050Y188400
X137050Y192600
X131550Y192600
X30350Y192600
X24850Y192600
T7C4.F35S900
X26000Y41500
X28500Y72000
X133500Y72000
X136000Y41500
X112250Y83250
X71000Y124500
X29750Y83250
X28500Y177000
X29750Y165750
X112250Y165750
X133500Y177000
X136000Y207500
X26000Y207500
M30
