M48
;Layer_Color=9474304
;FILE_FORMAT=4:4
METRIC,LZ
;TYPE=PLATED
T1F00S00C0.2000
T2F00S00C0.3000
T3F00S00C1.1500
T4F00S00C1.8000
T5F00S00C4.0000
%
T01
X01986Y0033
X01994
X02002
X0201
X02018
X02026
X02034
X02042
Y00338
Y00346
X02034
Y00338
X02026
Y00346
X02018
Y00338
X0201
X02002
Y00346
X0201
Y00354
X02002
Y00362
X0201
X02018
Y00354
X02026
X02034
Y00362
X02026
Y0037
X02034
X02042
Y00362
Y00354
X02058
Y00362
X02066
X02074
Y00354
X02066
Y00346
X02074
Y00338
X02066
Y0033
X02074
X02082
X0209
X02098
X02106
X02114
X02122
X0213
X02138
X02146
X02154
X02162
X0217
Y00338
Y00346
Y00354
Y00362
Y0037
Y00378
Y00386
Y00394
Y00402
Y0041
Y00418
Y00426
Y00434
Y00442
X02162
X02154
Y00434
X02162
Y00426
X02154
Y00418
X02162
Y0041
Y00402
X02154
Y0041
X02146
Y00402
X02138
Y0041
Y00418
X02146
Y00426
Y00434
X02138
Y00426
X0213
Y00434
Y00442
X02138
X02146
Y00458
X02138
Y00466
Y00474
X02146
Y00466
X02154
Y00474
X02162
Y00466
X0217
Y00474
Y00482
Y0049
Y00498
Y00506
Y00514
Y00522
Y0053
Y00538
X02162
X02154
X02146
X02138
X0213
X02122
X02114
X02106
X02098
X0209
X02082
X02074
X02066
X02058
Y0053
X02066
X02074
X02082
X0209
X02098
X02106
X02114
X02122
X0213
X02138
X02146
X02154
X02162
Y00522
X02154
Y00514
X02162
Y00506
X02154
X02146
X02138
Y00514
Y00522
X02146
Y00514
X0213
Y00522
X02122
X02114
Y00514
X02122
Y00506
X02114
X02106
Y00514
Y00522
X02098
X0209
Y00514
X02098
Y00506
X0209
X02082
Y00514
Y00522
X02074
X02066
Y00514
X02074
Y00506
X02066
X02058
Y00514
Y00522
X02042
Y00514
Y00506
Y00498
Y0049
Y00482
Y00474
Y00466
Y00458
X02034
X02026
Y00466
X02034
Y00474
X02026
Y00482
X02034
Y0049
Y00498
X02026
Y0049
X02018
Y00498
Y00506
X02026
X02034
Y00514
Y00522
X02026
Y00514
X02018
Y00522
Y0053
X02026
X02034
X02042
Y00538
X02034
X02026
X02018
X0201
X02002
Y0053
X0201
Y00522
Y00514
X02002
Y00522
X01994
Y00514
Y00506
X02002
X0201
Y00498
Y0049
X02002
Y00498
X01994
Y0049
Y00482
X02002
X0201
X02018
Y00474
Y00466
Y00458
X0201
X02002
Y00466
X0201
Y00474
X02002
X01994
Y00466
Y00458
X01986
Y00466
Y00474
Y00482
Y0049
Y00498
Y00506
Y00514
Y00522
Y0053
X01994
Y00538
X01986
Y00442
Y00434
Y00426
Y00418
Y0041
Y00402
Y00394
Y00386
Y00378
Y0037
Y00362
Y00354
Y00346
Y00338
X01994
Y00346
Y00354
Y00362
Y0037
X02002
X0201
X02018
Y00378
Y00386
X02026
Y00378
X02034
Y00386
X02042
Y00378
X02058
Y00386
X02066
X02074
Y00378
X02066
Y0037
X02074
X02082
X0209
X02098
X02106
X02114
X02122
X0213
X02138
X02146
X02154
X02162
Y00378
Y00386
X02154
Y00378
X02146
Y00386
X02138
Y00378
X0213
Y00386
Y00394
X02138
X02146
X02154
X02162
Y00362
Y00354
X02154
Y00362
X02146
Y00354
X02138
Y00362
X0213
Y00354
Y00346
Y00338
X02138
X02146
Y00346
X02138
X02154
X02162
Y00338
X02154
X02122
Y00346
X02114
Y00338
X02106
Y00346
Y00354
Y00362
X02114
X02122
Y00354
X02114
X02098
Y00362
X0209
Y00354
Y00346
X02098
Y00338
X0209
X02082
Y00346
Y00354
Y00362
Y00378
Y00386
X0209
X02098
Y00378
X0209
X02106
Y00386
X02114
X02122
Y00378
X02114
Y00394
X02122
Y00402
Y0041
X02114
Y00402
X02106
Y0041
Y00418
X02114
X02122
X0213
Y0041
Y00402
X02122Y00426
Y00434
X02114
Y00426
X02106
Y00434
Y00442
X02114
X02122
Y00458
X02114
Y00466
Y00474
X02122
Y00466
X0213
Y00474
Y00482
Y0049
Y00498
Y00506
X02122Y00498
X02114
Y0049
X02122
Y00482
X02114
X02106
Y0049
Y00498
X02098
X0209
Y0049
X02098
Y00482
X0209
X02082
Y0049
Y00498
X02074
X02066
Y0049
X02074
Y00482
X02066
X02058
Y0049
Y00498
Y00474
Y00466
X02066
Y00474
X02074
Y00466
X02082
Y00474
X0209
X02098
Y00466
X0209
Y00458
X02098
X02106
Y00466
Y00474
X02098Y00442
X0209
Y00434
X02098
Y00426
X0209
Y00418
X02098
Y0041
Y00402
X0209
Y0041
X02082
Y00402
Y00394
X0209
X02098
X02106
X02074
X02066
Y00402
X02074
Y0041
X02066
Y00418
X02074
X02082
Y00426
Y00434
Y00442
X02074
X02066
Y00434
X02074
Y00426
X02066
X02058
Y00434
Y00442
Y00458
X02066
X02074
X02082
X0213
X02154
X02162
X0217
X02162Y00482
X02154
Y0049
Y00498
X02162
Y0049
X02146
Y00498
X02138
Y0049
Y00482
X02146
X02042Y00442
Y00434
Y00426
Y00418
Y0041
Y00402
Y00394
X02034
X02026
X02018
X0201
X02002
Y00386
Y00378
X0201
Y00386
X01994
Y00378
Y00394
Y00402
Y0041
X02002
Y00402
X0201
Y0041
X02018
Y00402
X02026
X02034
Y0041
X02026
Y00418
X02034
Y00426
X02026
Y00434
X02034
Y00442
X02026
X02018
Y00434
Y00426
Y00418
X0201
X02002
X01994
Y00426
Y00434
X02002
Y00426
X0201
Y00434
Y00442
X02002
X01994
X02058Y00418
Y0041
Y00402
Y00394
Y0037
Y00346
Y00338
Y0033
X01978
X0197
X01962
X01954
X01946
X01938
X0193
Y00338
Y00346
X01938
Y00338
X01946
Y00346
X01954
Y00338
X01962
Y00346
X0197
Y00338
X01978
Y00346
Y00354
Y00362
X0197
Y00354
X01962
X01954
Y00362
X01962
Y0037
X01954
X01946
X01938
Y00362
Y00354
X01946
Y00362
X0193
Y00354
Y0037
Y00378
Y00386
X01938
Y00378
X01946
Y00386
X01954
Y00378
X01962
Y00386
X0197
Y00378
Y0037
X01978
Y00378
Y00386
Y00394
X0197
X01962
X01954
X01946
X01938
X0193
Y00402
Y0041
X01938
Y00402
X01946
Y0041
X01954
Y00402
X01962
Y0041
X0197
Y00402
X01978
Y0041
Y00418
X0197
X01962
X01954
X01946
X01938
X0193
Y00426
Y00434
X01938
Y00426
X01946
Y00434
X01954
Y00426
X01962
Y00434
X0197
Y00426
X01978
Y00434
Y00442
X0197
X01962
X01954
X01946
X01938
X0193
Y00458
X01938
X01946
X01954
X01962
X0197
X01978
Y00466
Y00474
Y00482
Y0049
Y00498
Y00506
Y00514
Y00522
Y0053
Y00538
X0197
Y0053
Y00522
Y00514
Y00506
Y00498
Y0049
Y00482
Y00474
Y00466
X01962
Y00474
X01954
Y00466
X01946
Y00474
X01938
Y00466
X0193
Y00474
Y00482
X01938
X01946
X01954
X01962
Y0049
Y00498
X01954
Y0049
X01946
Y00498
X01938
Y0049
X0193
Y00498
Y00506
X01938
X01946
X01954
X01962
Y00514
Y00522
X01954
Y00514
X01946
Y00522
X01938
Y00514
X0193
Y00522
Y0053
X01938
X01946
X01954
X01962
Y00538
X01954
X01946
X01938
X0193
X0057
Y0053
Y00522
Y00514
Y00506
Y00498
Y0049
Y00482
Y00474
Y00466
Y00458
X00562
X00554
X00546
X00538
X0053
X00522
X00514
X00506
X00498
X0049
X00482
X00474
X00466
X00458
Y00466
Y00474
X00466
Y00466
X00474
Y00474
X00482
Y00466
X0049
X00498
Y00474
X0049
Y00482
X00498
X00506
Y00474
Y00466
X00514
X00522
Y00474
X00514
Y00482
X00522
X0053
Y00474
Y00466
X00538
X00546
Y00474
X00538
Y00482
X00546
X00554
X00562
Y00474
Y00466
X00554
Y00474
Y0049
X00562
Y00498
X00554
X00546
Y0049
X00538
Y00498
X0053
Y0049
X00522
X00514
Y00498
X00522
Y00506
X00514
X00506
Y00498
Y0049
X00498
X0049
Y00498
X00498
Y00506
X0049
X00482
Y00498
Y0049
Y00482
X00474
X00466
X00458
Y0049
Y00498
X00466
Y0049
X00474
Y00498
Y00506
X00466
X00458
Y00514
Y00522
X00466
Y00514
X00474
Y00522
X00482
Y00514
X0049
X00498
Y00522
X0049
Y0053
X00498
X00506
Y00522
Y00514
X00514
X00522
Y00522
X00514
Y0053
X00522
X0053
Y00522
Y00514
Y00506
X00538
X00546
X00554
X00562
Y00514
X00554
Y00522
X00562
Y0053
X00554
X00546
X00538
Y00522
Y00514
X00546
Y00522
Y00538
X00538
X0053
X00522
X00514
X00506
X00498
X0049
X00482
Y0053
X00474
X00466
X00458
Y00538
X00466
X00474
X00442
X00434
X00426
X00418
X0041
X00402
X00394
Y0053
Y00522
Y00514
Y00506
Y00498
Y0049
Y00482
Y00474
Y00466
Y00458
X00402
X0041
Y00466
X00402
Y00474
X0041
Y00482
X00402
Y0049
Y00498
X0041
Y0049
X00418
Y00498
Y00506
X0041
X00402
Y00514
Y00522
X0041
Y00514
X00418
Y00522
Y0053
X0041
X00402
X00426
X00434
Y00522
X00426
Y00514
X00434
Y00506
X00426
Y00498
Y0049
X00434
Y00498
X00442
Y0049
Y00482
X00434
X00426
X00418
Y00474
Y00466
Y00458
X00426
X00434
Y00466
X00426
Y00474
X00434
X00442
Y00466
Y00458
Y00442
Y00434
Y00426
Y00418
Y0041
Y00402
Y00394
Y00386
Y00378
Y0037
Y00362
Y00354
Y00346
Y00338
Y0033
X00434
X00426
X00418
X0041
X00402
X00394
Y00338
Y00346
X00402
Y00338
X0041
Y00346
X00418
Y00338
X00426
X00434
Y00346
X00426
Y00354
X00434
Y00362
X00426
X00418
Y00354
X0041
X00402
Y00362
X0041
Y0037
X00402
X00394
Y00362
Y00354
Y00378
Y00386
X00402
Y00378
X0041
Y00386
X00418
Y00378
Y0037
X00426
X00434
Y00378
X00426
Y00386
X00434
Y00394
X00426
X00418
X0041
X00402
X00394
Y00402
Y0041
X00402
Y00402
X0041
Y0041
X00418
Y00402
X00426
X00434
Y0041
X00426
Y00418
X00434
Y00426
X00426
Y00434
X00434
Y00442
X00426
X00418
Y00434
Y00426
Y00418
X0041
X00402
X00394
Y00426
Y00434
X00402
Y00426
X0041
Y00434
Y00442
X00402
X00394
X00458
X00466
X00474
X00482
X0049
X00498
X00506
X00514
X00522
X0053
X00538
X00546
X00554
X00562
X0057
Y00434
Y00426
Y00418
Y0041
Y00402
Y00394
Y00386
Y00378
Y0037
Y00362
Y00354
Y00346
Y00338
Y0033
X00562
X00554
Y00338
X00562
Y00346
X00554
Y00354
X00562
Y00362
X00554
Y0037
X00562
Y00378
Y00386
X00554
Y00378
X00546
Y00386
X00538
Y00378
Y0037
X00546
Y00362
Y00354
X00538
Y00362
X0053
Y00354
Y00346
Y00338
X00538
X00546
Y00346
X00538
Y0033
X00546
X0053
X00522
X00514
Y00338
X00522
Y00346
X00514
Y00354
X00522
Y00362
X00514
Y0037
X00522
X0053
Y00378
Y00386
Y00394
X00538
X00546
X00554
X00562
Y00402
Y0041
X00554
Y00402
X00546
Y0041
X00538
Y00402
X0053
Y0041
Y00418
X00538
X00546
X00554
X00562
Y00426
Y00434
X00554
Y00426
X00546
Y00434
X00538
Y00426
X0053
Y00434
X00522
Y00426
X00514
Y00434
X00506
Y00426
Y00418
X00514
X00522
Y0041
Y00402
X00514
Y0041
X00506
Y00402
Y00394
X00514
X00522
Y00386
Y00378
X00514
Y00386
X00506
Y00378
Y0037
Y00362
Y00354
Y00346
Y00338
Y0033
X00498
X0049
Y00338
X00498
Y00346
X0049
Y00354
X00498
Y00362
X0049
Y0037
X00498
Y00378
Y00386
X0049
Y00378
X00482
Y00386
Y00394
X0049
X00498
Y00402
Y0041
X0049
Y00402
X00482
Y0041
Y00418
X0049
X00498
Y00426
Y00434
X0049
Y00426
X00482
Y00434
X00474
Y00426
X00466
Y00434
X00458
Y00426
Y00418
X00466
X00474
Y0041
Y00402
X00466
Y0041
X00458
Y00402
Y00394
X00466
X00474
Y00386
Y00378
X00466
Y00386
X00458
Y00378
Y0037
X00466
X00474
X00482
Y00362
Y00354
Y00346
Y00338
Y0033
X00474
X00466
Y00338
X00474
Y00346
X00466
Y00354
X00474
Y00362
X00466
X00458
Y00354
Y00346
Y00338
Y0033
X00442Y00506
Y00514
Y00522
Y0053
X00554Y00538
X00562
X00386
X00378
X0037
X00362
X00354
X00346
X00338
X0033
Y0053
Y00522
Y00514
Y00506
Y00498
Y0049
Y00482
Y00474
Y00466
Y00458
X00338
X00346
Y00466
X00338
Y00474
X00346
Y00482
X00338
Y0049
Y00498
X00346
Y0049
X00354
Y00498
X00362
Y0049
Y00482
X00354
Y00474
Y00466
X00362
Y00474
X0037
Y00466
Y00458
X00362
X00354
Y00442
X00362
Y00434
Y00426
X00354
Y00434
X00346
Y00426
X00338
Y00434
X0033
Y00426
Y00418
Y0041
Y00402
Y00394
Y00386
Y00378
Y0037
Y00362
Y00354
Y00346
Y00338
Y0033
X00338
X00346
X00354
X00362
X0037
X00378
X00386
Y00338
X00378
Y00346
X00386
Y00354
X00378
Y00362
X00386
Y0037
X00378
X0037
Y00362
Y00354
Y00346
Y00338
X00362
X00354
Y00346
X00362
Y00354
X00354
Y00362
X00362
Y0037
X00354
X00346
X00338
Y00362
Y00354
X00346
Y00362
Y00346
Y00338
X00338
Y00346
Y00378
X00346
Y00386
X00338
Y00394
X00346
X00354
X00362
Y00386
Y00378
X00354
Y00386
X0037
Y00378
X00378
X00386
Y00386
X00378
Y00394
X00386
Y00402
X00378
Y0041
X00386
Y00418
X00378
X0037
Y0041
Y00402
Y00394
X00362Y00402
X00354
Y0041
X00362
Y00418
X00354
X00346
X00338
Y0041
Y00402
X00346
Y0041
Y00442
X00338
X0033
X0037
Y00434
Y00426
X00378
X00386
Y00434
X00378
Y00442
X00386
Y00458
X00378
Y00466
Y00474
X00386
Y00466
Y00482
X00378
X0037
Y0049
Y00498
Y00506
X00362
X00354
X00346
X00338
Y00514
Y00522
X00346
Y00514
X00354
Y00522
X00362
Y00514
X0037
Y00522
Y0053
X00362
X00354
X00346
X00338
X00378
X00386
Y00522
X00378
Y00514
X00386
Y00506
X00378
Y00498
Y0049
X00386
Y00498
Y00546
X00378
X0037
X00362
X00354
X00346
X00338
X0033
Y00554
Y00562
Y0057
X00338
X00346
Y00562
X00338
Y00554
X00346
X00354
Y00562
X00362
Y00554
X0037
Y00562
Y0057
X00362
X00354
X00378
X00386
Y00562
X00378
Y00554
X00386
X00394
Y00562
Y0057
X00402
X0041
Y00562
X00402
Y00554
X0041
Y00546
X00402
X00394
X00418
Y00554
Y00562
Y0057
X00426
X00434
Y00562
X00426
Y00554
X00434
Y00546
X00426
X00442
Y00554
Y00562
Y0057
X00458
Y00562
Y00554
Y00546
X00466
X00474
X00482
X0049
X00498
X00506
X00514
X00522
X0053
X00538
X00546
X00554
X00562
X0057
Y00554
Y00562
X00562
Y00554
X00554
Y00562
X00546
Y00554
X00538
Y00562
X0053
Y00554
X00522
X00514
Y00562
X00522
Y0057
X00514
X00506
Y00562
Y00554
X00498
X0049
Y00562
X00498
Y0057
X0049
X00482
Y00562
Y00554
X00474
X00466
Y00562
X00474
Y0057
X00466
X0053
X00538
X00546
X00554
X00562
X0057
X0193
X01938
X01946
X01954
X01962
X0197
X01978
Y00562
Y00554
Y00546
X0197
Y00554
Y00562
X01962
Y00554
X01954
Y00562
X01946
Y00554
X01938
Y00562
X0193
Y00554
Y00546
X01938
X01946
X01954
X01962
X01986
X01994
X02002
X0201
X02018
X02026
X02034
X02042
Y00554
Y00562
Y0057
X02034
X02026
Y00562
X02034
Y00554
X02026
X02018
Y00562
Y0057
X0201
X02002
Y00562
X0201
Y00554
X02002
X01994
Y00562
Y0057
X01986
Y00562
Y00554
X02058
Y00562
Y0057
X02066
X02074
X02082
X0209
X02098
X02106
X02114
X02122
X0213
X02138
X02146
X02154
X02162
X0217
Y00562
Y00554
X02162
Y00562
X02154
Y00554
X02146
Y00562
X02138
Y00554
X0213
Y00562
X02122
X02114
Y00554
X02122
Y00546
X02114
X02106
Y00554
Y00562
X02098
X0209
Y00554
X02098
Y00546
X0209
X02082
Y00554
Y00562
X02074
X02066
Y00554
X02074
Y00546
X02066
X02058
X0213
X02138
X02146
X02154
X02162
X0217
Y0193
Y01938
Y01946
Y01954
Y01962
Y0197
Y01978
Y01986
Y01994
Y02002
Y0201
Y02018
Y02026
Y02034
Y02042
X02162
X02154
Y02034
X02162
Y02026
X02154
Y02018
X02162
Y0201
Y02002
X02154
Y0201
X02146
Y02002
X02138
Y0201
Y02018
X02146
Y02026
Y02034
X02138
Y02026
X0213
Y02034
Y02042
X02138
X02146
Y02058
X02138
Y02066
Y02074
X02146
Y02066
X02154
Y02074
X02162
Y02066
Y02058
X02154
X0217
Y02066
Y02074
Y02082
Y0209
Y02098
Y02106
Y02114
Y02122
Y0213
X02162
X02154
X02146
X02138
X0213
X02122
X02114
X02106
X02098
X0209
X02082
X02074
X02066
X02058
Y02122
Y02114
X02066
Y02122
X02074
Y02114
X02082
Y02122
X0209
X02098
Y02114
X0209
Y02106
X02098
X02106
Y02114
Y02122
X02114
X02122
Y02114
X02114
Y02106
X02122
X0213
Y02114
Y02122
X02138
X02146
Y02114
X02138
Y02106
X02146
X02154
X02162
Y02114
Y02122
X02154
Y02114
Y02098
X02162
Y0209
X02154
X02146
Y02098
X02138
Y0209
X0213
Y02098
X02122
X02114
Y0209
X02122
Y02082
X02114
X02106
Y0209
Y02098
X02098
X0209
Y0209
X02098
Y02082
X0209
X02082
Y0209
Y02098
Y02106
X02074
X02066
X02058
Y02098
Y0209
X02066
Y02098
X02074
Y0209
Y02082
X02066
X02058
Y02074
Y02066
X02066
Y02074
X02074
Y02066
X02082
Y02074
X0209
X02098
Y02066
X0209
Y02058
X02098
X02106
Y02066
Y02074
X02114
X02122
Y02066
X02114
Y02058
X02122
X0213
Y02066
Y02074
Y02082
X02138
X02146
X02154
X02162
X02122Y02042
X02114
Y02034
X02122
Y02026
X02114
Y02018
X02122
X0213
Y0201
Y02002
Y01994
X02138
X02146
X02154
X02162
Y01986
Y01978
X02154
Y01986
X02146
Y01978
X02138
Y01986
X0213
Y01978
Y0197
X02138
X02146
X02154
X02162
Y01962
Y01954
X02154
Y01962
X02146
Y01954
X02138
Y01962
X0213
Y01954
Y01946
Y01938
X02138
X02146
Y01946
X02138
X02154
X02162
Y01938
X02154
Y0193
X02162
X02146
X02138
X0213
X02122
X02114
Y01938
X02122
Y01946
X02114
Y01954
X02122
Y01962
X02114
Y0197
X02122
Y01978
Y01986
X02114
Y01978
X02106
Y01986
Y01994
X02114
X02122
Y02002
Y0201
X02114
Y02002
X02106
Y0201
Y02018
Y02026
Y02034
Y02042
X02098
X0209
Y02034
X02098
Y02026
X0209
Y02018
X02098
Y0201
Y02002
X0209
Y0201
X02082
Y02002
Y01994
X0209
X02098
Y01986
Y01978
X0209
Y01986
X02082
Y01978
Y0197
X0209
X02098
X02106
Y01962
Y01954
Y01946
Y01938
Y0193
X02098
X0209
Y01938
X02098
Y01946
X0209
Y01954
X02098
Y01962
X0209
X02082
Y01954
Y01946
Y01938
Y0193
X02074
X02066
Y01938
X02074
Y01946
X02066
Y01954
X02074
Y01962
X02066
Y0197
X02074
Y01978
Y01986
X02066
Y01978
X02058
Y01986
Y01994
X02066
X02074
Y02002
Y0201
X02066
Y02002
X02058
Y0201
Y02018
X02066
X02074
X02082
Y02026
Y02034
Y02042
X02074
X02066
Y02034
X02074
Y02026
X02066
X02058
Y02034
Y02042
Y02058
X02066
X02074
X02082
X02042
X02034
X02026
X02018
X0201
X02002
X01994
X01986
Y02066
Y02074
Y02082
Y0209
Y02098
Y02106
Y02114
Y02122
Y0213
X01994
Y02122
Y02114
Y02106
Y02098
Y0209
Y02082
Y02074
Y02066
X02002
Y02074
X0201
Y02066
X02018
Y02074
Y02082
X0201
X02002
Y0209
Y02098
X0201
Y0209
X02018
Y02098
Y02106
X0201
X02002
Y02114
Y02122
X0201
Y02114
X02018
Y02122
Y0213
X0201
X02002
X02026
X02034
Y02122
X02026
Y02114
X02034
Y02106
X02026
Y02098
Y0209
X02034
Y02098
X02042
Y0209
Y02082
X02034
X02026
Y02074
Y02066
X02034
Y02074
X02042
Y02066
Y02042
X02034
X02026
X02018
X0201
X02002
X01994
X01986
Y02034
Y02026
X01994
Y02034
X02002
X0201
Y02026
X02002
Y02018
X0201
X02018
Y02026
Y02034
X02026
X02034
Y02026
X02026
Y02018
X02034
X02042
Y02026
Y02034
Y0201
Y02002
X02034
Y0201
X02026
Y02002
X02018
Y0201
X0201
X02002
Y02002
X0201
Y01994
X02002
X01994
Y02002
Y0201
Y02018
X01986
Y0201
Y02002
Y01994
Y01986
Y01978
X01994
Y01986
X02002
X0201
Y01978
X02002
Y0197
X0201
X02018
Y01978
Y01986
Y01994
X02026
X02034
X02042
Y01986
Y01978
X02034
Y01986
X02026
Y01978
Y0197
X02034
X02042
Y01962
Y01954
X02034
Y01962
X02026
Y01954
X02018
Y01962
X0201
X02002
Y01954
X0201
Y01946
X02002
Y01938
X0201
X02018
Y01946
X02026
X02034
Y01938
X02026
Y0193
X02034
X02042
Y01938
Y01946
X02058
Y01938
Y0193
Y01954
Y01962
Y0197
X01994
X01986
Y01962
Y01954
X01994
Y01962
Y01946
Y01938
X01986
Y01946
Y0193
X01994
X02002
X0201
X02018
X02042Y02106
Y02114
Y02122
Y0213
X01978
X0197
X01962
X01954
X01946
X01938
X0193
Y02122
Y02114
Y02106
Y02098
Y0209
Y02082
Y02074
Y02066
Y02058
X01938
X01946
Y02066
X01938
Y02074
X01946
Y02082
X01938
Y0209
Y02098
X01946
Y0209
X01954
Y02098
X01962
Y0209
Y02082
X01954
Y02074
Y02066
X01962
Y02074
X0197
Y02066
Y02058
X01962
X01954
Y02042
X01962
X0197
X01978
Y02034
Y02026
X0197
Y02034
X01962
X01954
Y02026
X01962
Y02018
X01954
X01946
X01938
Y02026
Y02034
X01946
Y02026
Y02042
X01938
X0193
Y02034
Y02026
Y02018
Y0201
Y02002
X01938
Y0201
X01946
Y02002
X01954
Y0201
X01962
Y02002
X0197
Y0201
Y02018
X01978
Y0201
Y02002
Y01994
X0197
X01962
X01954
X01946
X01938
X0193
Y01986
Y01978
X01938
Y01986
X01946
Y01978
X01954
Y01986
X01962
Y01978
X0197
Y01986
X01978
Y01978
Y0197
X0197
X01962
X01954
X01946
X01938
X0193
Y01962
Y01954
X01938
Y01962
X01946
Y01954
X01954
Y01962
X01962
Y01954
X0197
Y01962
X01978
Y01954
Y01946
Y01938
X0197
Y01946
X01962
X01954
Y01938
X01962
Y0193
X01954
X01946
X01938
Y01938
Y01946
X01946
Y01938
X0193
Y01946
Y0193
X0197
X01978
Y02058
Y02066
Y02074
Y02082
X0197
Y0209
Y02098
Y02106
X01962
X01954
X01946
X01938
Y02114
Y02122
X01946
Y02114
X01954
Y02122
X01962
Y02114
X0197
Y02122
X01978
Y02114
Y02106
Y02098
Y0209
X0057
Y02098
Y02106
Y02114
Y02122
Y0213
X00562
X00554
X00546
X00538
X0053
X00522
X00514
X00506
X00498
X0049
X00482
X00474
X00466
X00458
Y02122
Y02114
X00466
Y02122
X00474
Y02114
X00482
Y02122
X0049
X00498
Y02114
X0049
Y02106
X00498
X00506
Y02114
Y02122
X00514
X00522
Y02114
X00514
Y02106
X00522
X0053
Y02114
Y02122
X00538
X00546
Y02114
X00538
Y02106
X00546
X00554
X00562
Y02114
Y02122
X00554
Y02114
Y02098
X00562
Y0209
X00554
X00546
Y02098
X00538
Y0209
X0053
Y02098
X00522
X00514
Y0209
X00522
Y02082
X00514
X00506
Y0209
Y02098
X00498
X0049
Y0209
X00498
Y02082
X0049
X00482
Y0209
Y02098
Y02106
X00474
X00466
X00458
Y02098
Y0209
X00466
Y02098
X00474
Y0209
Y02082
X00466
X00458
Y02074
Y02066
X00466
Y02074
X00474
Y02066
X00482
Y02074
X0049
X00498
Y02066
X0049
Y02058
X00498
X00506
Y02066
Y02074
X00514
X00522
Y02066
X00514
Y02058
X00522
X0053
Y02066
Y02074
Y02082
X00538
X00546
X00554
X00562
X0057
Y02074
Y02066
X00562
Y02074
X00554
Y02066
X00546
Y02074
X00538
Y02066
Y02058
X00546
X00554
X00562
X0057
Y02042
X00562
X00554
X00546
X00538
X0053
X00522
X00514
X00506
X00498
X0049
X00482
X00474
X00466
X00458
Y02034
Y02026
Y02018
Y0201
Y02002
Y01994
Y01986
Y01978
Y0197
Y01962
Y01954
Y01946
Y01938
Y0193
X00466
X00474
Y01938
X00466
Y01946
X00474
Y01954
X00466
Y01962
X00474
Y0197
X00466
Y01978
Y01986
X00474
Y01978
X00482
Y01986
Y01994
X00474
X00466
Y02002
Y0201
X00474
Y02002
X00482
Y0201
Y02018
X00474
X00466
Y02026
Y02034
X00474
Y02026
X00482
Y02034
X0049
Y02026
X00498
Y02034
X00506
Y02026
Y02018
X00498
X0049
Y0201
Y02002
X00498
Y0201
X00506
Y02002
Y01994
X00498
X0049
Y01986
Y01978
X00498
Y01986
X00506
Y01978
Y0197
X00498
X0049
X00482
Y01962
Y01954
Y01946
Y01938
Y0193
X0049
X00498
Y01938
X0049
Y01946
X00498
Y01954
X0049
Y01962
X00498
X00506
Y01954
Y01946
Y01938
Y0193
X00514
X00522
Y01938
X00514
Y01946
X00522
Y01954
X00514
Y01962
X00522
Y0197
X00514
Y01978
Y01986
X00522
Y01978
X0053
Y01986
Y01994
X00522
X00514
Y02002
Y0201
X00522
Y02002
X0053
Y0201
Y02018
X00522
X00514
Y02026
Y02034
X00522
Y02026
X0053
Y02034
X00538
Y02026
X00546
Y02034
X00554
Y02026
X00562
Y02034
X0057
Y02026
Y02018
X00562
X00554
X00546
X00538
Y0201
Y02002
X00546
Y0201
X00554
Y02002
X00562
Y0201
X0057
Y02002
Y01994
X00562
X00554
X00546
X00538
Y01986
Y01978
X00546
Y01986
X00554
Y01978
X00562
Y01986
X0057
Y01978
Y0197
X00562
X00554
X00546
X00538
X0053
Y01962
Y01954
Y01946
Y01938
Y0193
X00538
X00546
Y01938
X00538
Y01946
X00546
Y01954
X00538
Y01962
X00546
X00554
Y01954
X00562
Y01962
X0057
Y01954
Y01946
Y01938
X00562
X00554
Y01946
X00562
Y0193
X00554
X0057
X00442
X00434
X00426
X00418
X0041
X00402
X00394
Y01938
Y01946
X00402
Y01938
X0041
Y01946
X00418
Y01938
X00426
X00434
Y01946
X00426
Y01954
X00434
Y01962
X00426
X00418
Y01954
X0041
X00402
Y01962
X0041
Y0197
X00402
X00394
Y01962
Y01954
Y01978
Y01986
X00402
Y01978
X0041
Y01986
X00418
Y01978
Y0197
X00426
X00434
X00442
Y01962
Y01954
Y01946
Y01938
Y01978
Y01986
X00434
Y01978
X00426
Y01986
Y01994
X00434
X00442
Y02002
Y0201
X00434
Y02002
X00426
Y0201
X00418
Y02002
Y01994
X0041
X00402
X00394
Y02002
Y0201
X00402
Y02002
X0041
Y0201
Y02018
X00402
X00394
Y02026
Y02034
X00402
Y02026
X0041
Y02034
X00418
Y02026
Y02018
X00426
X00434
X00442
Y02026
Y02034
X00434
Y02026
X00426
Y02034
Y02042
X00434
X00442
Y02058
X00434
X00426
X00418
X0041
X00402
X00394
Y02066
Y02074
Y02082
Y0209
Y02098
Y02106
Y02114
Y02122
Y0213
X00402
X0041
Y02122
X00402
Y02114
X0041
Y02106
X00402
Y02098
Y0209
X0041
Y02098
X00418
Y0209
Y02082
X0041
X00402
Y02074
Y02066
X0041
Y02074
X00418
Y02066
X00426
Y02074
X00434
Y02066
X00442
Y02074
Y02082
X00434
X00426
Y0209
Y02098
X00434
Y0209
X00442
Y02098
Y02106
X00434
X00426
X00418
Y02114
Y02122
Y0213
X00426
X00434
Y02122
X00426
Y02114
X00434
X00442
Y02122
Y0213
X00458Y02058
X00466
X00474
X00482
X00418Y02042
X0041
X00402
X00394
X00386
X00378
Y02034
Y02026
X00386
Y02034
Y02018
X00378
Y0201
Y02002
X00386
Y0201
Y01994
X00378
Y01986
Y01978
X00386
Y01986
Y0197
X00378
Y01962
Y01954
X00386
Y01962
Y01946
Y01938
X00378
Y01946
X0037
Y01938
Y0193
X00378
X00386
X00362
X00354
X00346
X00338
X0033
Y01938
Y01946
X00338
Y01938
X00346
Y01946
X00354
Y01938
X00362
Y01946
Y01954
X00354
Y01962
X00362
X0037
Y01954
Y0197
X00362
X00354
X00346
X00338
Y01962
Y01954
X00346
Y01962
X0033
Y01954
Y0197
Y01978
Y01986
X00338
Y01978
X00346
Y01986
X00354
Y01978
X00362
Y01986
X0037
Y01978
Y01994
X00362
X00354
X00346
X00338
X0033
Y02002
Y0201
X00338
Y02002
X00346
Y0201
X00354
Y02002
X00362
Y0201
X0037
Y02002
Y02018
X00362
X00354
X00346
X00338
X0033
Y02026
Y02034
X00338
Y02026
X00346
Y02034
X00354
Y02026
X00362
Y02034
X0037
Y02026
Y02042
X00362
X00354
X00346
X00338
X0033
Y02058
Y02066
Y02074
Y02082
Y0209
Y02098
Y02106
Y02114
Y02122
Y0213
X00338
X00346
Y02122
X00338
Y02114
X00346
Y02106
X00338
Y02098
Y0209
X00346
Y02098
X00354
Y0209
X00362
Y02098
Y02106
X00354
Y02114
Y02122
X00362
Y02114
X0037
Y02122
Y0213
X00362
X00354
X00378
X00386
Y02122
X00378
Y02114
X00386
Y02106
X00378
X0037
Y02098
Y0209
Y02082
X00362
X00354
X00346
X00338
Y02074
Y02066
X00346
Y02074
X00354
Y02066
X00362
Y02074
X0037
Y02066
Y02058
X00362
X00354
X00346
X00338
X00378
X00386
Y02066
X00378
Y02074
X00386
Y02082
X00378
Y0209
Y02098
X00386
Y0209
Y02138
X00378
Y02146
X00386
Y02154
X00378
Y02162
X00386
Y0217
X00378
X0037
X00362
X00354
X00346
X00338
X0033
Y02162
Y02154
Y02146
Y02138
X00338
Y02146
X00346
Y02138
X00354
Y02146
X00362
Y02138
X0037
Y02146
Y02154
Y02162
X00362
X00354
Y02154
X00362
X00346
X00338
Y02162
X00346
X00394
Y02154
Y02146
Y02138
X00402
Y02146
X0041
Y02138
X00418
Y02146
Y02154
Y02162
X0041
X00402
Y02154
X0041
Y0217
X00402
X00394
X00418
X00426
X00434
Y02162
X00426
Y02154
X00434
Y02146
X00426
Y02138
X00434
X00442
Y02146
Y02154
Y02162
Y0217
X00458
X00466
X00474
X00482
X0049
X00498
X00506
X00514
X00522
X0053
X00538
X00546
X00554
X00562
X0057
Y02162
Y02154
X00562
Y02162
X00554
Y02154
X00546
Y02162
X00538
Y02154
X0053
Y02162
X00522
X00514
Y02154
X00522
Y02146
X00514
Y02138
X00522
X0053
Y02146
X00538
X00546
Y02138
X00538
X00554
Y02146
X00562
Y02138
X0057
Y02146
X00506
Y02138
X00498
Y02146
X0049
Y02138
X00482
Y02146
Y02154
Y02162
X00474
X00466
Y02154
X00474
Y02146
X00466
Y02138
X00474
X00458
Y02146
Y02154
Y02162
X0049
X00498
Y02154
X0049
X00506
Y02162
X0193
Y02154
Y02146
Y02138
X01938
Y02146
X01946
Y02138
X01954
Y02146
X01962
Y02138
X0197
Y02146
Y02154
Y02162
X01962
X01954
Y02154
X01962
X01946
X01938
Y02162
X01946
Y0217
X01938
X0193
X01954
X01962
X0197
X01978
Y02162
Y02154
Y02146
Y02138
X01986
Y02146
Y02154
Y02162
Y0217
X01994
Y02162
Y02154
Y02146
Y02138
X02002
Y02146
X0201
Y02138
X02018
Y02146
Y02154
Y02162
X0201
X02002
Y02154
X0201
Y0217
X02002
X02018
X02026
X02034
Y02162
X02026
Y02154
X02034
Y02146
X02026
Y02138
X02034
X02042
Y02146
Y02154
Y02162
Y0217
X02058
X02066
X02074
X02082
X0209
X02098
X02106
X02114
X02122
X0213
X02138
X02146
X02154
X02162
X0217
Y02162
Y02154
X02162
Y02162
X02154
Y02154
X02146
Y02162
X02138
Y02154
X0213
Y02162
X02122
X02114
Y02154
X02122
Y02146
X02114
Y02138
X02122
X0213
Y02146
X02138
X02146
Y02138
X02138
X02154
Y02146
X02162
Y02138
X0217
Y02146
X02106
Y02138
X02098
Y02146
X0209
Y02138
X02082
Y02146
Y02154
Y02162
X02074
X02066
Y02154
X02074
Y02146
X02066
Y02138
X02074
X02058
Y02146
Y02154
Y02162
X0209
X02098
Y02154
X0209
X02106
Y02162
T02
X02124Y00093
X02126Y00134
X02134Y00126
X02146Y00118
X02158Y0011
X02191Y00093
X02114Y00142
X02102Y0015
X02074
X02086Y00166
X0209Y00178
X0211
X0213
X0215
X0215Y00225
X0213
X02113
X0211Y00202
X0209
X0207
X0205
X0203
X0201
X0201Y00178
X0203
X0205
X0206Y00172
X0207Y00178
X02046Y00158
X02034
X02026
X02014
X02002Y0015
X0199Y00178
X0199Y00225
X02069Y0029275
X02192Y00244
X02188Y002005
X02188Y00166
X02191Y0015
X02296Y00284
Y0029
Y00296
Y00324
Y0033
Y00336
Y00364
Y0037
Y00376
Y00404
Y0041
Y00416
Y00444
Y0045
Y00456
Y00484
Y0049
Y00496
Y00524
Y0053
Y00536
X02326Y00536
Y0053
Y00524
Y00518
Y00502
Y00496
Y0049
Y00484
Y00478
Y00462
Y00456
Y0045
Y00444
Y00438
Y00422
Y00416
Y0041
Y00404
Y00398
Y00382
Y00376
Y0037
Y00364
Y00358
Y00342
Y00336
Y0033
Y00324
Y00318
Y00302
Y00296
Y0029
Y00284
Y00278
Y00542
X01804Y00536
Y0053
Y00524
Y00496
Y0049
Y00484
Y00456
Y0045
Y00444
Y00416
Y0041
Y00404
Y00376
Y0037
Y00364
Y00336
Y0033
Y00324
Y00296
Y0029
Y00284
X01774Y00284
Y0029
Y00296
Y00302
Y00318
Y00324
Y0033
Y00336
Y00342
Y00358
Y00364
Y0037
Y00376
Y00382
Y00398
Y00404
Y0041
Y00416
Y00422
Y00438
Y00444
Y0045
Y00456
Y00462
Y00478
Y00484
Y0049
Y00496
Y00502
Y00518
Y00524
Y0053
Y00536
Y00542
Y00278
X01868Y00204
X01875Y00178
X0186
X01895
X01914
X01931
X0195
X0197
X01978Y0015
X01958
X0195Y00225
X0197
X01941Y00244
X01868Y0015
X01526Y00278
Y00284
Y0029
Y00296
Y00302
Y00318
Y00324
Y0033
Y00336
Y00342
Y00358
Y00364
Y0037
Y00376
Y00382
Y00398
Y00404
Y0041
Y00416
Y00422
Y00438
Y00444
Y0045
Y00456
Y00462
Y00478
Y00484
Y0049
Y00496
Y00502
Y00518
Y00524
Y0053
Y00536
Y00542
X01496Y00536
Y0053
Y00524
Y00496
Y0049
Y00484
Y00456
Y0045
Y00444
Y00416
Y0041
Y00404
Y00376
Y0037
Y00364
Y00336
Y0033
Y00324
Y00296
Y0029
Y00284
X01004Y00284
Y0029
Y00296
Y00324
Y0033
Y00336
Y00364
Y0037
Y00376
Y00404
Y0041
Y00416
Y00444
Y0045
Y00456
Y00484
Y0049
Y00496
Y00524
Y0053
Y00536
X00974
Y0053
Y00524
Y00518
Y00502
Y00496
Y0049
Y00484
Y00478
Y00462
Y00456
Y0045
Y00444
Y00438
Y00422
Y00416
Y0041
Y00404
Y00398
Y00382
Y00376
Y0037
Y00364
Y00358
Y00342
Y00336
Y0033
Y00324
Y00318
Y00302
Y00296
Y0029
Y00284
Y00278
Y00542
X00726Y00542
Y00536
Y0053
Y00524
Y00518
Y00502
Y00496
Y0049
Y00484
Y00478
Y00462
Y00456
Y0045
Y00444
Y00438
Y00422
Y00416
Y0041
Y00404
Y00398
Y00382
Y00376
Y0037
Y00364
Y00358
Y00342
Y00336
Y0033
Y00324
Y00318
Y00302
Y00296
Y0029
Y00284
Y00278
X00696Y00284
Y0029
Y00296
Y00324
Y0033
Y00336
Y00364
Y0037
Y00376
Y00404
Y0041
Y00416
Y00444
Y0045
Y00456
Y00484
Y0049
Y00496
Y00524
Y0053
Y00536
X00616Y00204
X0061
X00604
X00576
X0057
X00564
X00536
X0053
X00524
X00496
X0049
X00484
X00456
X0045
X00444
X00416
X0041
X00404
Y00174
X0041
X00416
X00422
X00438
X00444
X0045
X00456
X00462
X00478
X00484
X0049
X00496
X00502
X00518
X00524
X0053
X00536
X00542
X00558
X00564
X0057
X00576
X00582
X00598
X00604
X0061
X00616
X00622
X00398
X00382
X00376
X0037
X00364
X00358
X00342
X00336
X0033
X00324
X00318
X00302
X00296
X0029
X00284
X00278
X00284Y00204
X0029
X00296
X00324
X0033
X00336
X00364
X0037
X00376
X00244Y00309
X002005Y00312
X00166Y00312
X0015Y00309
X00093
X0011Y00342
X00118Y00354
X00126Y00366
X00134Y00374
X00142Y00386
X0015Y00398
Y00426
X00166Y00414
X00178Y0041
Y0039
Y0037
Y0035
X00225Y0035
Y0037
Y00387
X00202Y0039
Y0041
Y0043
Y0045
Y0047
Y0049
X00178Y0049
Y0047
Y0045
X00172Y00439
X00178Y0043
X00158Y00466
Y00474
Y00486
X0015Y00498
X0015Y00522
Y00542
X00178Y0053
Y0051
X00225Y0051
Y0053
X0029275Y00431
X00093Y00376
X00178Y0055
Y00569
Y00586
Y00605
Y00625
Y0064
X00204Y00632
X0015
X00225Y0055
X00244Y0056
X00284Y00696
X0029
X00296
X00324
X0033
X00336
X00364
X0037
X00376
Y00726
X0037
X00364
X00358
X00342
X00336
X0033
X00324
X00318
X00302
X00296
X0029
X00284
X00278
X00382
X00398
X00404
X0041
X00416
X00422
X00438
X00444
X0045
X00456
X00462
X00478
X00484
X0049
X00496
X00502
X00518
X00524
X0053
X00536
X00542
X00558
X00564
X0057
X00576
X00582
X00598
X00604
X0061
X00616
X00622
X00616Y00696
X0061
X00604
X00576
X0057
X00564
X00536
X0053
X00524
X00496
X0049
X00484
X00456
X0045
X00444
X00416
X0041
X00404
X00696Y00616
Y0061
Y00604
Y00576
Y0057
Y00564
X00726
Y0057
Y00576
Y00582
Y00598
Y00604
Y0061
Y00616
Y00622
Y00558
X00974Y00558
Y00564
Y0057
Y00576
Y00582
Y00598
Y00604
Y0061
Y00616
Y00622
X01004Y00616
Y0061
Y00604
Y00576
Y0057
Y00564
X01084Y00696
X0109
X01096
X01124
X0113
X01136
X01164
X0117
X01176
Y00726
X0117
X01164
X01158
X01142
X01136
X0113
X01124
X01118
X01102
X01096
X0109
X01084
X01078
X01133Y00761
X01139
X01145
X01151
X01157
X01152Y0076925
X01145Y00769
X01138
X01182Y00726
X01152Y00891
X01145
X01138Y0089075
X01139Y00899
X01145
X01151
X01157
X01133
X009625Y009395
X009525
X009425
X009325
X009225
X009125
X01228Y00939
X01233Y00936
X01232999Y00910009
Y00904009
X01227999Y00907009
X01266999Y00904009
Y00910009
X01271999Y00907009
X01272Y00939
X01267Y00936
X01344Y00903
X0135
X01356
X01362
X01368
X01363Y00897
X01356
X01349Y0089675
X01348Y00769
X01355
X01362Y0076925
X01361Y00761
X01355
X01349
X01343
X01367
X0137Y00726
X01364
X01358
X01342
X01336
X0133
X01324
X01318
X01302
X01296
X0129
X01284
X01278
X01262
X01256
X0125
X01244
X01238
X01222
X01216
X0121
X01204
X01198
X01204Y00696
X0121
X01216
X01244
X0125
X01256
X01284
X0129
X01296
X01324
X0133
X01336
X01364
X0137
X01376
X01404
X0141
X01416
Y00726
X0141
X01404
X01398
X01382
X01376
X01422
X01496Y00616
Y0061
Y00604
Y00576
Y0057
Y00564
X01526
Y0057
Y00576
Y00582
Y00598
Y00604
Y0061
Y00616
Y00622
Y00558
X01774Y00558
Y00564
Y0057
Y00576
Y00582
Y00598
Y00604
Y0061
Y00616
Y00622
X01804Y00616
Y0061
Y00604
Y00576
Y0057
Y00564
X01884Y00696
X0189
X01896
X01924
X0193
X01936
X01964
X0197
X01976
Y00726
X0197
X01964
X01958
X01942
X01936
X0193
X01924
X01918
X01902
X01896
X0189
X01884
X01878
X01982
X01998
X02004
X0201
X02016
X02022
X02038
X02044
X0205
X02056
X02062
X02078
X02084
X0209
X02096
X02102
X02118
X02124
X0213
X02136
X02142
X02158
X02164
X0217
X02176
X02182
X02198
X02204
X0221
X02216
X02222
X02216Y00696
X0221
X02204
X02176
X0217
X02164
X02136
X0213
X02124
X02096
X0209
X02084
X02056
X0205
X02044
X02016
X0201
X02004
X02296Y00616
Y0061
Y00604
Y00576
Y0057
Y00564
X02326
Y0057
Y00576
Y00582
Y00598
Y00604
Y0061
Y00616
Y00622
Y00558
X02222Y00974
X02216
X0221
X02204
X02198
X02182
X02176
X0217
X02164
X02158
X02142
X02136
X0213
X02124
X02118
X02102
X02096
X0209
X02084
X02078
X02062
X02056
X0205
X02044
X02038
X02022
X02016
X0201
X02004
X01998
X01982
X02004Y01004
X0201
X02016
X02044
X0205
X02056
X02084
X0209
X02096
X02124
X0213
X02136
X02164
X0217
X02176
X02204
X0221
X02216
X01976
X0197
X01964
X01936
X0193
X01924
X01896
X0189
X01884
Y00974
X0189
X01896
X01902
X01918
X01924
X0193
X01936
X01942
X01958
X01964
X0197
X01976
X01878
X01804Y01084
Y0109
Y01096
Y01124
Y0113
Y01136
Y01164
Y0117
Y01176
Y01204
Y0121
Y01216
Y01244
Y0125
Y01256
Y01284
Y0129
Y01296
Y01324
Y0133
Y01336
X01774
Y0133
Y01324
Y01318
Y01302
Y01296
Y0129
Y01284
Y01278
Y01262
Y01256
Y0125
Y01244
Y01238
Y01222
Y01216
Y0121
Y01204
Y01198
Y01182
Y01176
Y0117
Y01164
Y01158
Y01142
Y01136
Y0113
Y01124
Y01118
Y01102
Y01096
Y0109
Y01084
Y01078
X01706Y01024
X017
X01694
Y00994
X017
X01706
X01712
X01688
X01592499Y00989502
X01597248Y00982003
X01597499Y00974502
X01597248Y00967003
Y00959503
Y00952003
Y00944503
X01587499Y00944002
Y00951502
Y00959002
Y00966502
Y00974002
X01587499Y00981002
X01587499Y01043502
Y01051002
Y01058502
Y01066002
Y01073502
X01587499Y01080502
X01597248Y01072003
Y01062003
Y01052003
Y01042003
Y01104503
Y01112003
Y01119503
Y01127003
X01597499Y01134502
X01597248Y01142003
X01587499Y01141002
X01587499Y01134002
Y01126502
Y01119002
Y01111502
Y01104002
X01592499Y01149502
X01597248Y01202003
Y01212003
Y01222003
Y01232003
X01587499Y01233502
X01587499Y01240502
X01587499Y01226002
Y01218502
Y01211002
Y01203502
Y01263002
Y01270502
Y01278002
Y01285502
Y01293002
X01587499Y01300002
X01597248Y01301003
X01597499Y01293502
X01597248Y01286003
Y01278503
Y01271003
Y01263503
X01592499Y01308502
X01688Y01314
X01694
X017
X01706
X01712
X01706Y01184
X017
X01694
Y01154
X017
X01706
X01712
X01688
X01582499Y01149502
X01572499
X01562499
X01552499
X01542499
X01532248Y01149503
X01522248
X01527248Y01144503
X01527496Y01136753
Y01129253
Y01121753
Y01114253
Y01106753
X01517499Y01107002
Y01114502
Y01122002
Y01129502
Y01137002
X01507499Y01137003
Y01129503
Y01122003
Y01114503
Y01107003
X01497499Y01107002
Y01114502
Y01122002
Y01129502
Y01137002
X01484999Y01142002
X01472499
X01473998Y01133002
X01481498
X01481499Y01123002
X01473999
X01466499
X01458999
X01451499
X01452299Y01114502
Y01107002
X01439999
Y01114502
X01433775Y01112002
Y01104502
X01427499Y01107002
X01427497Y01114502
X01433775Y01119502
Y01127002
Y01134502
Y01141824
X01420052Y01141646
X01416498Y01133002
X01408998
X01401498
X01393998
X01386498
X01386499Y01123002
X01393999
X01401499
X01408999
X01416499
X01414999Y01114502
X01415251Y01107002
X01402551
Y01114502
X01389751
X01389851Y01107002
X01374999
X01367499
Y01119502
X01374999
Y01132002
X01367499
X01382552Y01141646
X01395052
X01407552
X01402549Y01158252
X01402499Y01164502
X01402551Y01170752
X013915Y01170751
Y01164501
X01391499Y01158252
X01415251
Y01164502
Y01170752
X01430999Y01169752
X01437749Y01170002
X01434249Y01164752
Y01158502
X01427999Y01158252
Y01164502
X01453947
Y01158252
X01464997
X01464947Y01164502
X01464999Y01170752
X01453947
X01477699
Y01164502
Y01158252
X01490447
Y01164502
Y01170752
X01496749Y01170752
Y01164502
Y01158252
X01499499Y01199002
X01506999
X01491999
X01484499
X01476999
X01469499
X01461999
X01454499
X01446999
X01439499
X01431999
X01424499
X01416999
X01409499
X01401999
X01379999Y01195001
Y01185002
X01341749Y01180502
Y01173002
X01326749
Y01180502
Y01205502
Y01213002
X01342Y01213
X01341749Y01205502
X0134725Y01223751
X01370999Y01238002
X01388498Y01229002
X013925Y01219001
X01431999Y01219002
X01439499
X01446999
X01454499
X01461999
X01469499
X01476999
X01484499
X01491999
X01499499
X01506999
X01527499Y01222003
Y01212003
Y01202003
X01537499Y01203502
Y01211002
Y01218502
Y01226002
Y01233502
Y01240502
X01547499
X01547499Y01233502
Y01226002
Y01218502
Y01211002
Y01203502
X01577499
Y01211002
Y01218502
Y01226002
Y01233502
X01577499Y01240502
X01567499
X01557499
X01557499Y01263002
X01547499
Y01270502
Y01278002
Y01285502
Y01293002
X01547499Y01300002
X01537499
Y01293002
Y01285502
Y01278002
Y01270502
Y01263002
X01527496Y01265753
Y01273253
Y01280753
Y01288253
Y01295753
X01527248Y01303503
X01522248Y01308503
X01532248
X01542499Y01308502
X01552499
X01562499
X01572499
X01582499
X01577499Y01300002
X01577499Y01293002
Y01285502
Y01278002
Y01270502
Y01263002
X01567499
X01517499Y01266002
Y01273502
Y01281002
Y01288502
Y01296002
X01507499Y01296003
Y01288503
Y01281003
Y01273503
Y01266003
X01497499Y01266002
Y01273502
Y01281002
Y01288502
Y01296002
X01484999Y01301002
X01472499
X01473998Y01292002
X01481498
X01481499Y01282002
X01473999
X01466499
X01458999
X01451499
X01452299Y01273502
Y01266002
X01439999
Y01273502
X01433775Y01271002
Y01263502
X01427499Y01266002
X01427497Y01273502
X01433775Y01278502
Y01286002
Y01293502
Y01300824
X01420052Y01300646
X01416498Y01292002
X01408998
X01401498
X01393998
X01386498
X01386499Y01282002
X01393999
X01401499
X01408999
X01416499
X01414999Y01273502
X01415251Y01266002
X01402551
Y01273502
X01389751
X01389851Y01266002
X01375749
X01369Y01266001
X01368999Y01278502
X01375749
Y01291002
X01368999
X01382552Y01300646
X01395052
X01407552
X01402549Y01317252
X01402499Y01323502
X01402551Y01329752
X013915Y01330001
Y01323501
X01391499Y01317252
X01415251
Y01323502
Y01329752
X01430999Y01328752
X01437749Y01329002
X01434249Y01323752
Y01317502
X01427999Y01317252
Y01323502
X01453947
Y01317252
X01464997
X01464947Y01323502
X01464999Y01329752
X01453947
X01477699
Y01323502
Y01317252
X01490447
Y01323502
Y01329752
X01496749Y01329752
Y01323502
Y01317252
X01489999Y01273502
Y01266002
X01477699
Y01273502
X01464999
Y01266002
X01466498Y01292002
X01458998
X01451498
X01447499Y01301002
X01459999
X01429499Y01229002
X01527499Y01232003
X01537499Y01141002
Y01134002
Y01126502
Y01119002
Y01111502
Y01104002
X01547499
Y01111502
Y01119002
Y01126502
Y01134002
X01547499Y01141002
X01577499
X01577499Y01134002
Y01126502
Y01119002
Y01111502
Y01104002
X01567499
X01557499
X01557499Y01080502
X01547499
X01547499Y01073502
Y01066002
Y01058502
Y01051002
Y01043502
X01537499
Y01051002
Y01058502
Y01066002
Y01073502
Y01080502
X01527499Y01072003
Y01062003
Y01052003
Y01042003
X01507Y01039001
X014995
X01492
X014845
X01477
X014695
X01462
X014545
X01447
X014395
X01432
X014245
X01417
X014095
X01402
X01379999Y01035001
Y01025002
X013915Y01010751
Y01004501
X01391499Y00998252
X01402549
X01402499Y01004502
X01402551Y01010752
X01415251
Y01004502
Y00998252
X01427999
Y01004502
X01434249Y01004752
Y00998502
X01430999Y01009752
X01437749Y01010002
X01453947Y01010752
Y01004502
Y00998252
X01464997
X01464947Y01004502
X01464999Y01010752
X01477699
Y01004502
Y00998252
X01490447
Y01004502
Y01010752
X01496749Y01010752
Y01004502
Y00998252
X01497499Y00977002
Y00969502
Y00962002
Y00954502
Y00947002
X01489999Y00947002
Y00954502
X01477699
Y00947002
X01464999
Y00954502
X01466499Y00963002
X01458999
X01451499
X01452299Y00954502
Y00947002
X01439999
Y00954502
X01433775Y00952002
Y00944502
X01427499Y00947002
X01427497Y00954502
X01433775Y00959502
Y00967002
Y00974502
Y00981824
X01447499Y00982002
X01459999
X01458998Y00973002
X01451498
X01466498
X01473998
X01481498
X01481499Y00963002
X01473999
X01472499Y00982002
X01484999
X01507499Y00977003
Y00969503
Y00962003
Y00954503
Y00947003
X01517499Y00947002
Y00954502
Y00962002
Y00969502
Y00977002
X01527496Y00976753
Y00969253
Y00961753
Y00954253
Y00946753
X01537499Y00944002
Y00951502
Y00959002
Y00966502
Y00974002
Y00981002
X01547499
X01547499Y00974002
Y00966502
Y00959002
Y00951502
Y00944002
X01557499
X01567499
X01577499
Y00951502
Y00959002
Y00966502
Y00974002
X01577499Y00981002
X01572499Y00989502
X01562499
X01552499
X01542499
X01532248Y00989503
X01522248
X01527248Y00984503
X01582499Y00989502
X01577499Y01043502
Y01051002
Y01058502
Y01066002
Y01073502
X01577499Y01080502
X01567499
X01507Y01059001
X014995
X01492
X014845
X01477
X014695
X01462
X014545
X01447
X014395
X01432
X014295Y01069001
X01388498Y01069002
X013925Y01059001
X01370999Y01078002
X0134275Y01056502
Y01049002
X0132775
Y01056502
Y01024002
Y01016502
X0134275
Y01024002
X01342144Y00992002
Y00979502
X01332999Y00981002
Y00988502
X01322999Y009885
Y00981
Y009735
Y00966
Y009585
X01314999Y00959554
X01307499Y00959302
Y00947054
X01314999Y00947056
X01312499Y00940778
X01304999
X01319999
X01327499
X01334999
X01342321
X01342144Y00954502
Y00967002
X01332999Y00966002
Y00958502
Y00973502
X01314999Y00972002
X01307499
Y00984702
X01314999Y00984802
X0132Y00999001
X013325
X013075
X01281Y01
Y01006
X01276Y01003
X01272Y01035
X01267Y01032
Y01038
X01233
Y01032
X01228Y01035
X011925Y010353
Y01048
Y010607
Y01072948
X01195Y01079224
X011875
X01192499Y01021001
X01219Y01006
Y01
X01224Y01003
X01228Y00971
X01233Y00968
Y00974
Y00942
X01267
Y00968
Y00974
X01272Y00971
X01367499Y00972002
X01374999
X01386498Y00973002
X01393998
X01401498
X01408998
X01416498
X01416499Y00963002
X01408999
X01401499
X01393999
X01386499
X01389751Y00954502
X01389851Y00947002
X01402551
Y00954502
X01414999
X01415251Y00947002
X01420052Y00981646
X01407552
X01395052
X01382552
X01374999Y00959502
X01367499
Y00947002
X01374999
X01342Y01100751
X01334999Y01100778
X01327499
X01319999
X01312499
X01304999
X01307499Y01107054
X01314999Y01107056
Y01119554
X01307499Y01119302
Y01132002
X01314999
X01322999Y011335
Y01141
Y011485
X01332999Y01148502
Y01141002
Y01133502
Y01126002
Y01118502
X01322999Y011185
Y01126
X01342144Y01127002
Y01114502
Y01139502
Y01152002
X013325Y01159001
X0132
X013075
X01307499Y01144702
X01314999Y01144802
X01281Y01159
Y01165
X01276Y01162
X01272Y0113
X01267Y01133
Y01127
X01233
Y01133
X01228Y0113
X01224Y01162
X01219Y01159
Y01165
X01228Y01194
X01233Y01191
Y01197
Y01223
Y01229
X01228Y01226
X01224Y01258
X01219Y01255
Y01261
X01228Y0129
X01233Y01293
Y01287
Y01319
Y01325
X01228Y01322
X01267Y01319
Y01325
X01272Y01322
Y0129
X01267Y01293
Y01287
X01276Y01258
X01281Y01255
Y01261
X01304999Y01259778
X01312499
X01319999
X01327499
X01334999
X01342Y01259751
X01342144Y01273502
Y01286002
X01332999Y01285002
Y01277502
X01322999Y012775
Y01285
Y012925
Y013
Y013075
X01332999Y01307502
Y01300002
Y01292502
X01342144Y01298502
Y01311002
X013325Y01318001
X0132
X013075
X01307499Y01303702
X01314999Y01303802
Y01291002
X01307499
Y01278302
X01314999Y01278554
Y01266056
X01307499Y01266054
X01316003Y01236003
X01272Y01226
X01267Y01229
Y01223
Y01197
Y01191
X01272Y01194
X011925Y011953
Y01208
Y012207
Y01232948
X01195Y01239224
X011875
X01192499Y01181001
X013265Y01334999
X013415
X01447499Y01142002
X01459999
X01458998Y01133002
X01451498
X01466498
X01464999Y01114502
Y01107002
X01477699
Y01114502
X01489999
Y01107002
X01172749Y01125002
Y01132502
X01157749
Y01125002
X0115275Y0111625
X01129Y01102
X01111501Y01111
X01107499Y01121001
X01097999Y01141001
X01090499
X01082999
X01075499
X01067999
X01060499
X01052999
X01045499
X01037999
X01030499
X01022999
X01015499
X01007999
X01000499
X00992999
Y01121001
X01000499
X01007999
X01015499
X01022999
X01030499
X01037999
X01045499
X01052999
X01060499
X01067999
X01070499Y01111001
X01066224Y010755
Y01068
Y010605
Y01053
Y010455
Y01038178
X010525Y01038
X0104
X01041001Y01047
X01048501
X010485Y01057
X01041
X010335
X01026
X010185
X01018501Y01047
X01026001
X01033501
X010275Y01038
X01015
X010025Y01043
Y010505
Y01058
Y010655
Y01073
X0101Y01073
Y010655
X010223
Y01073
X01035
Y010655
X010477
Y01073
X0106
Y010655
X01072502
X010725Y01073
X01084748
X01085Y010655
X010835Y01057
X01091
X010985
X01106
X011135
X01113501Y01047
X01106001
X01098501
X01091001
X01083501
X01079948Y01038356
X01092448
X01104948
X01117448
X01125Y01048
X011325
Y010605
X01125
Y01073
X011325
X01110148
X01110248Y010655
X01097448
Y01073
X0109745Y0102175
X010975Y010155
X01097448Y0100925
X01108499Y01009251
Y01015501
X011085Y0102175
X01084748
Y010155
Y0100925
X01069Y0101025
X0106225Y0101
X0106575Y0101525
Y010215
X01072Y0102175
Y010155
X01046052
Y0100925
X01035
X01035052Y010155
X01035002Y0102175
X01046052
X010223
Y010155
Y0100925
X01009552
Y010155
Y0102175
X0100325Y0102175
Y010155
Y0100925
X010005Y00981
X00993
X01008
X010155
X01023
X010305
X01038
X010455
X01053
X010605
X01068
X010755
X01083
X010905
X01098
X0112Y00985001
Y00995
X0115925Y00999499
Y01006999
X0117425
Y00999499
Y00974499
Y00966999
X0115925
Y00974499
X0115275Y0095625
X01129Y00942
X01111501Y00951
X01107499Y00961001
X01068Y00961
X010605
X01053
X010455
X01038
X010305
X01023
X010155
X01008
X010005
X00993
X009725Y00957999
Y00947999
X009625Y009465
Y00954
Y009615
Y00969
Y009765
X009525
Y00969
Y009615
Y00954
Y009465
X009225
Y00954
Y009615
Y00969
Y009765
X009125
Y00969
Y009615
Y00954
Y009465
X00902751Y00947999
Y00957999
Y00967999
Y00977999
X009075Y010305
X009175
X009275
X009375
X009475
X009575
X00967751Y01030499
X00977751
X00972751Y01035499
X00972504Y01043249
Y01050749
Y01058249
Y01065749
Y01073249
X009825Y01073
Y010655
Y01058
Y010505
Y01043
X009925Y01042999
Y01050499
Y01057999
Y01065499
Y01072999
X009625Y01076
Y010685
Y01061
Y010535
Y01046
Y01039
X009525
X009525Y01046
Y010535
Y01061
Y010685
Y01076
X009425
X009325
X009225
Y010685
Y01061
Y010535
Y01046
X009225Y01039
X009125
X009125Y01046
Y010535
Y01061
Y010685
Y01076
X00902751Y01075499
Y01067999
Y01060499
Y01052999
X009025Y010455
X00902751Y01037999
Y01107999
Y01117999
Y01127999
Y01137999
X009125Y011365
Y01129
Y011215
Y01114
Y011065
X009125Y010995
X009225
X009225Y011065
Y01114
Y011215
Y01129
Y011365
X009525
Y01129
Y011215
Y01114
Y011065
X009525Y010995
X009625
Y011065
Y01114
Y011215
Y01129
Y011365
X009725Y01137999
Y01127999
Y01117999
Y01107999
X009425Y010995
X009325
X009275Y011905
X009375
X009475
X009575
X00967751Y01190499
X00977751
X00972751Y01195499
X00972504Y01203249
Y01210749
Y01218249
Y01225749
Y01233249
X009825Y01233
Y012255
Y01218
Y012105
Y01203
X009925Y01202999
Y01210499
Y01217999
Y01225499
Y01232999
X010025Y01233
Y012255
Y01218
Y012105
Y01203
X01015Y01198
X010275
X01026001Y01207
X01018501
X010185Y01217
X01026
X010335
X01041
X010485
X010477Y012255
Y01233
X0106
Y012255
X01066224Y01228
Y012355
X010725Y01233
X01072502Y012255
X01066224Y012205
Y01213
Y012055
Y01198178
X01079948Y01198356
X01083501Y01207
X01091001
X01098501
X01106001
X01113501
X011135Y01217
X01106
X010985
X01091
X010835
X01085Y012255
X01084748Y01233
X01097448
Y012255
X01110248
X01110148Y01233
X01125
Y012205
Y01208
X01117448Y01198356
X01104948
X01092448
X0109745Y0118175
X010975Y011755
X01097448Y0116925
X01108499Y01169251
Y01175501
X011085Y0118175
X01084748
Y011755
Y0116925
X01069Y0117025
X0106225Y0117
X0106575Y0117525
Y011815
X01072Y0118175
Y011755
X01046052
Y0118175
X01035002
X01035052Y011755
X01035Y0116925
X01046052
X010223
Y011755
Y0118175
X01009552
Y011755
Y0116925
X0100325Y0116925
Y011755
Y0118175
X0101Y012255
Y01233
X010223
Y012255
X01035
Y01233
X01033501Y01207
X01041001
X01048501
X010525Y01198
X0104
X009625Y01199
Y01206
Y012135
Y01221
Y012285
Y01236
X009525
Y012285
Y01221
Y012135
Y01206
X009525Y01199
X009225
X009225Y01206
Y012135
Y01221
Y012285
Y01236
X009325
X009425
X009425Y012595
X009525
X009525Y012665
Y01274
Y012815
Y01289
Y012965
X009625
Y01289
Y012815
Y01274
Y012665
Y012595
X009725Y01267999
Y01277999
Y01287999
Y01297999
X00993Y01301
X010005
X01008
X010155
X01023
X010305
X01038
X010455
X01053
X010605
X01068
X010755
X01083
X010905
X01098
X0112Y01305001
Y01315
X01108499Y01329251
Y01335501
X010975Y013355
X01097448Y0132925
X01084748
Y013355
X01072
X0106575Y0133525
X01069Y0133025
X0106225Y0133
X01046052Y0132925
Y013355
X01035052
X01035Y0132925
X010223
Y013355
X01009552
Y0132925
X0100325Y0132925
Y013355
X010005Y01281
X01008
X010155
X01023
X010305
X01038
X010455
X01053
X010605
X01068
X010705Y01271
X01111501Y01271
X01107499Y01281001
X01129Y01262
X0115275Y0127625
X011585Y01285999
Y01293499
X011735
Y01285999
Y01318499
Y01325999
X011585
Y01318499
X01157678Y01239224
X01165
X011725
X0118
X01185Y01232946
Y01220448
X01177Y01221501
Y01214001
Y01206501
Y01199001
Y01191501
X01167Y011915
Y01199
Y012065
Y01214
Y012215
X01157856Y012255
Y01213
Y012005
Y01188
X01167499Y01181001
X01179999
X01185Y011952
Y01208
X01172749Y01165002
Y01157502
X01157749
Y01165002
X0112Y01155
Y01145001
X01157999Y01079251
X01165Y01079224
X011725
X0118
X01185Y01072946
Y01060448
X01177Y01061501
Y01054001
Y01046501
Y01039001
Y01031501
X01167Y010315
Y01039
Y010465
Y01054
Y010615
X01157856Y010655
Y01053
Y010405
Y01028
X01167Y01022
X01179999Y01021001
X01185Y010352
Y01048
X010705Y00951
X009725Y00967999
Y00977999
X00806Y00996
X008
X00794
X00794Y01026
X008
X00806
X00812
X00806Y01156
X008
X00794
X00794Y01186
X008
X00806
X00812
X009075Y011905
X009175
X009125Y01199
X009125Y01206
Y012135
Y01221
Y012285
Y01236
X00902751Y01235499
Y01227999
Y01220499
Y01212999
X009025Y012055
X00902751Y01197999
Y01267999
Y01277999
Y01287999
Y01297999
X009125Y012965
Y01289
Y012815
Y01274
Y012665
X009125Y012595
X009225
X009225Y012665
Y01274
Y012815
Y01289
Y012965
X009325Y012595
X00993Y01281
X00806Y01316
X008
X00794
X00726Y01318
Y01324
Y0133
Y01336
X00696Y01336
Y0133
Y01324
Y01296
Y0129
Y01284
Y01256
Y0125
Y01244
Y01216
Y0121
Y01204
Y01176
Y0117
Y01164
Y01136
Y0113
Y01124
Y01096
Y0109
Y01084
X00726
Y0109
Y01096
Y01102
Y01118
Y01124
Y0113
Y01136
Y01142
Y01158
Y01164
Y0117
Y01176
Y01182
Y01198
Y01204
Y0121
Y01216
Y01222
Y01238
Y01244
Y0125
Y01256
Y01262
Y01278
Y01284
Y0129
Y01296
Y01302
X00788Y01186
Y01026
X00726Y01078
X00616Y01004
X0061
X00604
X00576
X0057
X00564
X00536
X0053
X00524
X00496
X0049
X00484
X00456
X0045
X00444
X00416
X0041
X00404
Y00974
X0041
X00416
X00422
X00438
X00444
X0045
X00456
X00462
X00478
X00484
X0049
X00496
X00502
X00518
X00524
X0053
X00536
X00542
X00558
X00564
X0057
X00576
X00582
X00598
X00604
X0061
X00616
X00622
X00398
X00382
X00376
X0037
X00364
X00358
X00342
X00336
X0033
X00324
X00318
X00302
X00296
X0029
X00284
X00278
X00284Y01004
X0029
X00296
X00324
X0033
X00336
X00364
X0037
X00376
X00376Y01496
X0037
X00364
X00336
X0033
X00324
X00296
X0029
X00284
X00284Y01526
X0029
X00296
X00302
X00318
X00324
X0033
X00336
X00342
X00358
X00364
X0037
X00376
X00382
X00278
X00398
X00404
X0041
X00416
X00422
X00438
X00444
X0045
X00456
X00462
X00478
X00484
X0049
X00496
X00502
X00518
X00524
X0053
X00536
X00542
X00558
X00564
X0057
X00576
X00582
X00598
X00604
X0061
X00616
X00622
X00616Y01496
X0061
X00604
X00576
X0057
X00564
X00536
X0053
X00524
X00496
X0049
X00484
X00456
X0045
X00444
X00416
X0041
X00404
X00696Y01416
Y0141
Y01404
Y01376
Y0137
Y01364
X00726
Y0137
Y01376
Y01382
Y01398
Y01404
Y0141
Y01416
Y01422
Y01358
Y01342
X00788Y01346
Y01506
X00794
X008
X00806
X00812
X00806Y01476
X008
X00794
X00902751Y01457999
Y01447999
Y01437999
Y01427999
X009125Y014265
X009125Y014195
X009225
X009225Y014265
Y01434
Y014415
Y01449
Y014565
X009125
Y01449
Y014415
Y01434
X009325Y014195
X009425
X009525
X009525Y014265
Y01434
Y014415
Y01449
Y014565
X009625
Y01449
Y014415
Y01434
Y014265
Y014195
X009725Y01427999
Y01437999
Y01447999
Y01457999
X00992999Y01461001
X01000499
X01007999
X01015499
X01022999
X01030499
X01037999
X01045499
X01052999
X01060499
X01067999
X01075499
X01082999
X01090499
X01097999
X0112Y01465001
Y01475
X01108499Y01489251
Y01495501
X011085Y0150175
X0109745
X010975Y014955
X01097448Y0148925
X01084748
Y014955
Y0150175
X01072
Y014955
X0106575Y0149525
Y015015
X01069Y0149025
X0106225Y0149
X01046052Y0148925
Y014955
Y0150175
X01035002
X01035052Y014955
X01035Y0148925
X010223
Y014955
Y0150175
X01009552
Y014955
Y0148925
X0100325Y0148925
Y014955
Y0150175
X010025Y01523
Y015305
Y01538
Y015455
Y01553
X0101Y01553
Y015455
X010223
Y01553
X01035
Y015455
X010335Y01537
X01026
X010185
X01018501Y01527
X01026001
X01033501
X01041001
X01048501
X010485Y01537
X01041
X010477Y015455
Y01553
X0106
Y015455
X01066224Y01548
Y015555
X010725Y01553
X01072502Y015455
X01066224Y015405
Y01533
Y015255
Y01518178
X01079948Y01518356
X01083501Y01527
X01091001
X01098501
X01106001
X01113501
X011135Y01537
X01106
X010985
X01091
X010835
X01085Y015455
X01084748Y01553
X01097448
Y015455
X01110248
X01110148Y01553
X0111Y015795
X0115275Y015725
X01157678Y01559224
X01165
X011725
X0118
X01185Y01552946
Y01540448
X01177Y01541501
Y01534001
Y01526501
Y01519001
Y01511501
X01167Y015115
Y01519
Y015265
Y01534
Y015415
X01157856Y015455
Y01533
Y015205
Y01508
X01167499Y01501001
X01179999
X01185Y015152
Y01528
X01173251Y01484998
Y01477498
X01158251
Y01484998
Y01452498
Y01444998
X0115275Y0143675
X01173251Y01444998
Y01452498
X01183248Y01424001
X0118Y01399224
X011725
X01165
X01157999Y01399251
X01157856Y013855
Y01373
X01167Y01374
Y013815
X01177Y01381501
Y01374001
Y01366501
Y01359001
Y01351501
X01167Y013515
Y01359
Y013665
X01157856Y013605
Y01348
X01167499Y01341001
X01179999
X01185Y013552
Y01368
Y01380448
Y01392946
X01125Y01393
Y013805
Y01368
X01113501Y01367
X01106001
X01098501
X01091001
X01083501
X010835Y01377
X01091
X010985
X01106
X011135
X01110248Y013855
X01110148Y01393
X01097448
Y013855
X01085
X01084748Y01393
X010725
X01072502Y013855
X01066224Y01388
Y013955
X0106Y01393
Y013855
X01066224Y013805
Y01373
Y013655
Y01358178
X010525Y01358
X0104
X01041001Y01367
X01048501
X010485Y01377
X01041
X010335
X01026
X010185
X01018501Y01367
X01026001
X01033501
X010275Y01358
X01015
X010025Y01363
Y013705
Y01378
Y013855
Y01393
X0101Y01393
Y013855
X010223
Y01393
X01035
Y013855
X010477
Y01393
X01045499Y01441001
X01037999
X01030499
X01022999
X01015499
X01007999
X01000499
X00992999
X009925Y01392999
Y01385499
Y01377999
Y01370499
Y01362999
X009825Y01363
Y013705
Y01378
Y013855
Y01393
X00972504Y01393249
Y01385749
Y01378249
Y01370749
Y01363249
X00972751Y01355499
X00977751Y01350499
X00967751
X009575Y013505
X009475
X009375
X009275
X009175
X009075
X00902751Y01357999
X009025Y013655
X00902751Y01372999
Y01380499
Y01387999
Y01395499
X009125Y01396
Y013885
Y01381
Y013735
Y01366
X009125Y01359
X009225
X009225Y01366
Y013735
Y01381
Y013885
Y01396
X009325
X009425
X009525
Y013885
Y01381
Y013735
Y01366
X009525Y01359
X009625
Y01366
Y013735
Y01381
Y013885
Y01396
X0100325Y0134175
X01009552Y0134175
X010223
X01035002
X01046052
X0106575Y013415
X01072Y0134175
X01084748
X0109745
X011085
X01104948Y01358356
X01117448
X01092448
X01079948
X01070499Y01431001
X01067999Y01441001
X01060499
X01052999
X01107499
X01111501Y01431
X01129Y01422
X01117448Y01518356
X01104948
X01092448
X010525Y01518
X0104
X010275
X01015
X009925Y01522999
Y01530499
Y01537999
Y01545499
Y01552999
X009825Y01553
Y015455
Y01538
Y015305
Y01523
X00972504Y01523249
Y01530749
Y01538249
Y01545749
Y01553249
X009625Y01556
Y015485
Y01541
Y015335
Y01526
Y01519
X009525
X009525Y01526
Y015335
Y01541
Y015485
Y01556
X009425
X009325
X009225
Y015485
Y01541
Y015335
Y01526
X009225Y01519
X009125
X009125Y01526
Y015335
Y01541
Y015485
Y01556
X00902751Y01555499
Y01547999
Y01540499
Y01532999
X009025Y015255
X00902751Y01517999
X009075Y015105
X009175
X009275
X009375
X009475
X009575
X00967751Y01510499
X00977751
X00972751Y01515499
X01051Y0162
Y0164
Y0166
Y0168
X01095
Y0166
Y0164
Y0162
X0114Y016425
Y01665
X011625Y016425
X0117Y01635
X01165Y016275
X0117Y0162
X01165Y016125
X0117Y0158
X0118Y016775
X01165Y01725
X0111Y017205
Y016855
X00812Y01346
X00806
X008
X00794
X01192499Y01341001
X011925Y013553
Y01368
Y013807
Y01392948
X01195Y01399224
X011875
X01228Y01418
X01233Y01421
Y01415
Y01447
Y01453
X01228Y0145
X01224Y01482
X01219Y01485
Y01479
X01228Y01514
X01233Y01511
Y01517
X01229997Y01534997
X012325Y015435
X0126Y01546
X01275
X012905
X013075Y01549
X013155Y015555
X0132775Y01533001
Y01525501
X0134275
Y01533001
X0134725Y0154375
X01371003Y01558002
X0136Y0157
X0136Y016025
X01371003Y01593997
X01379Y016095
Y01635
X01365Y0163
X01364Y0165
X01365Y0166
X01379
Y016855
Y01711
X01345Y016925
X01337Y016855
X013225Y016775
Y016675
X0132Y016575
X012885Y0166525
X012925Y016725
X012775Y01685
X0127Y0168
X0126
X0125Y01675
X0124Y0167
Y0166
Y0168
Y0169
X01246Y016955
X0127Y0169
X012775Y017275
X012205Y01725
X011875Y0172
X011925Y017
X0121125Y0167125
X0122Y016675
X012075Y016625
Y016475
X0122
X01215Y0164
X0122Y0163
X012125Y016225
X012075Y016075
X0122
X012275Y01614
X012425Y016225
X0125Y01615
X01275Y0161
X01285Y01625
X0128Y016325
X01275Y0164
X01285Y01645
X012925Y0164
X0128Y016525
X012675Y016475
X0127Y015775
X0128
X012925
X012575
X0122Y0158
X01195Y01559224
X011875
X011925Y01552948
Y015407
Y01528
Y015153
X01192499Y01501001
X01267Y01511
Y01517
X01272Y01514
X01276Y01482
X01281Y01485
Y01479
X01307504Y01479001
X01320004
X01332504
X01333003Y01468502
Y01461002
Y01453502
Y01446002
Y01438502
X01323003Y014385
Y01446
Y014535
Y01461
Y014685
X01315003Y01464802
X01307503Y01464702
Y01452002
X01315003
Y01439554
X01307503Y01439302
Y01427054
X01315003Y01427056
X01312503Y01420778
X01305003
X01320003
X01327503
X01335003
X01342004Y01420751
X01342148Y01434502
Y01447002
Y01459502
Y01472002
X0134275Y01493001
Y01500501
X0132775
Y01493001
X01380003Y01505002
Y01515001
X01401998Y01519
X01409498
X01416998
X01424498
X01431998
X01439498
X01446998
X01454498
X01461998
X01469498
X01476998
X01484498
X01491998
X01499498
X01506998
Y01539
X01499498
X01491998
X01484498
X01476998
X01469498
X01461998
X01454498
X01446998
X01439498
X01431998
X01429498Y01549
X01388502Y01549002
X01392504Y01539001
X01391504Y01490751
Y01484501
X01391503Y01478252
X01402553
X01402503Y01484502
X01402556Y01490752
X01415255
Y01484502
Y01478252
X01428003
Y01484502
X01434253Y01484752
Y01478502
X01431003Y01489752
X01437753Y01490002
X01453951Y01490752
Y01484502
Y01478252
X01465001
X01464951Y01484502
X01465003Y01490752
X01477703
Y01484502
Y01478252
X01490451
Y01484502
Y01490752
X01496753Y01490752
Y01484502
Y01478252
X01497503Y01457002
Y01449502
Y01442002
Y01434502
Y01427002
X01490003Y01427002
Y01434502
X01477703
Y01427002
X01465003
Y01434502
X01466503Y01443002
X01474003
X01481503
X01481502Y01453002
X01474002
X01466502
X01459002
X01451502
X01451503Y01443002
X01459003
X01452303Y01434502
Y01427002
X01440003
Y01434502
X01433779Y01432002
Y01424502
X01427503Y01427002
X01427501Y01434502
X01433779Y01439502
Y01447002
Y01454502
Y01461824
X01420056Y01461646
X01416502Y01453002
X01409002
X01401502
X01394002
X01386502
X01386503Y01443002
X01394003
X01401503
X01409003
X01416503
X01415003Y01434502
X01415255Y01427002
X01402556
Y01434502
X01389756
X01389855Y01427002
X01375003
Y01439502
Y01452002
X01382556Y01461646
X01395056
X01407556
X01447503Y01462002
X01460003
X01472503
X01485003
X01507503Y01457003
Y01449503
Y01442003
Y01434503
Y01427003
X01517503Y01427002
Y01434502
Y01442002
Y01449502
Y01457002
X015275Y01456753
Y01449253
Y01441753
Y01434253
Y01426753
X01537503Y01424002
Y01431502
Y01439002
Y01446502
Y01454002
Y01461002
X01547503
X01547503Y01454002
Y01446502
Y01439002
Y01431502
Y01424002
X01557503
X01567503
X01577503
Y01431502
Y01439002
Y01446502
Y01454002
X01577503Y01461002
X01572503Y01469502
X01562503
X01552503
X01542503
X01532252Y01469503
X01522252
X01527252Y01464503
X01527498Y01522001
Y01532001
Y01542001
Y01552001
X01537503Y01553502
Y01560502
X01547503
X01547503Y01553502
Y01546002
Y01538502
Y01531002
Y01523502
X01537503
Y01531002
Y01538502
Y01546002
X01557503Y01560502
X01567503
X01577503
X01577503Y01553502
Y01546002
Y01538502
Y01531002
Y01523502
X01582503Y01469502
X01577499Y01399502
X01577499Y01392502
Y01385002
Y01377502
Y01370002
Y01362502
X01547499
Y01370002
Y01377502
Y01385002
Y01392502
X01547499Y01399502
X01537499
Y01392502
Y01385002
Y01377502
Y01370002
Y01362502
X01527499Y01361003
Y01371003
Y01381003
Y01391003
X01506999Y01378002
X01499499
X01491999
X01484499
X01476999
X01469499
X01461999
X01454499
X01446999
X01439499
X01431999
X014305Y01388003
X01431999Y01358002
X01424499
X01416999
X01409499
X01401999
X01379999Y01354001
Y01344002
X013415Y01342499
X013265
Y01367499
Y01374999
X013415
Y01367499
X0134725Y01382751
X01371506Y01396007
X01388499Y01388002
X013925Y01378001
X01439499Y01358002
X01446999
X01454499
X01461999
X01469499
X01476999
X01484499
X01491999
X01499499
X01506999
X01557499Y01399502
X01567499
X01272Y01418
X01267Y01421
Y01415
Y01447
Y01453
X01272Y0145
X013245Y015925
X01325Y01607
X013275Y01615
X013375Y01635
X01395Y016295
X01422499Y01637001
X01405Y016695
X01587503Y01560502
X01587503Y01553502
Y01546002
Y01538502
Y01531002
Y01523502
X01597252Y01522003
Y01532003
Y01542003
Y01552003
X01592503Y01469502
X01597252Y01462003
X01597503Y01454502
X01597252Y01447003
Y01439503
Y01432003
Y01424503
X01587503Y01424002
Y01431502
Y01439002
Y01446502
Y01454002
X01587503Y01461002
X01587499Y01399502
X01587499Y01392502
Y01385002
Y01377502
Y01370002
Y01362502
X01597248Y01361003
Y01371003
Y01381003
Y01391003
X01694Y01344
X017
X01706
X01774Y01342
Y01358
Y01364
Y0137
Y01376
Y01382
Y01398
Y01404
Y0141
Y01416
Y01422
X01804Y01416
Y0141
Y01404
Y01376
Y0137
Y01364
X01712Y01474
X01706
X017
X01694
X01688
X01694Y01504
X017
X01706
X01884Y01496
X0189
X01896
X01924
X0193
X01936
X01964
X0197
X01976
Y01526
X0197
X01964
X01958
X01942
X01936
X0193
X01924
X01918
X01902
X01896
X0189
X01884
X01878
X01982
X01998
X02004
X0201
X02016
X02022
X02038
X02044
X0205
X02056
X02062
X02078
X02084
X0209
X02096
X02102
X02118
X02124
X0213
X02136
X02142
X02158
X02164
X0217
X02176
X02182
X02198
X02204
X0221
X02216
X02222
X02216Y01496
X0221
X02204
X02176
X0217
X02164
X02136
X0213
X02124
X02096
X0209
X02084
X02056
X0205
X02044
X02016
X0201
X02004
X02407Y02124
X02366Y02126
X02358Y02114
X0235Y02102
Y02074
X02334Y02086
X02322Y0209
Y0211
Y0213
X02298Y0211
Y0209
Y0207
Y0205
Y0203
Y0201
X02322Y0201
Y0203
Y0205
X02328Y0206
X02322Y0207
X02342Y02034
Y02026
Y02014
X0235Y02002
X0235Y01978
Y01958
X02322Y0195
X02322Y01931
Y01914
Y01895
Y01875
Y0186
X02296Y01868
X0235
X02322Y0197
Y0199
X02275Y0199
Y0197
Y0195
X02256Y01939
X02216Y01804
X0221
X02204
X02176
X0217
X02164
X02136
X0213
X02124
X02096
X0209
X02084
X02056
X0205
X02044
X02016
X0201
X02004
Y01774
X0201
X02016
X02022
X02038
X02044
X0205
X02056
X02062
X02078
X02084
X0209
X02096
X02102
X02118
X02124
X0213
X02136
X02142
X02158
X02164
X0217
X02176
X02182
X02198
X02204
X0221
X02216
X02222
X01998
X01982
X02207Y02069
X02274Y02113
X02275Y0213
X01804Y0213
Y02124
Y02096
Y0209
Y02084
Y02056
Y0205
Y02044
Y02016
Y0201
Y02004
Y01976
Y0197
Y01964
Y01936
Y0193
Y01924
Y01896
Y0189
Y01884
X01774Y01884
Y0189
Y01896
Y01902
Y01918
Y01924
Y0193
Y01936
Y01942
Y01958
Y01964
Y0197
Y01976
Y01982
Y01998
Y02004
Y0201
Y02016
Y02022
Y02038
Y02044
Y0205
Y02056
Y02062
Y02078
Y02084
Y0209
Y02096
Y02102
Y02118
Y02124
Y0213
X017026Y02125
X01695
Y02115
X017026Y02115
Y02105
X01695
Y02095
Y020875
Y0208
Y020725
Y02065
Y020575
Y0205
Y020425
Y02035
Y020275
X0165Y0201
X015976Y02025
Y020325
Y0204
Y020475
Y02055
Y020625
Y0207
Y020775
Y02085
Y020925
Y021
Y0211
Y0212
X016075Y019
X01618Y018655
X01599Y01846
Y01805
X016375Y01791
Y01781
X01662Y01796501
X01678Y0182725
X01685618Y0185
X01659Y0184725
X01654Y01875
X01715Y01873
X01704Y0192
X01774Y01878
X01884Y01804
X0189
X01896
X01924
X0193
X01936
X01964
X0197
X01976
X01976Y01774
X0197
X01964
X01958
X01942
X01936
X0193
X01924
X01918
X01902
X01896
X0189
X01884
X01878
X01645697Y0174
X01635
X01625
X01615
X01605
X01595
X0158Y01755
X015775Y01765
X01574Y01775
X015525Y017825
Y017925
X01545Y017975
X01541826Y0181095
X01486Y01829975
X01468Y0183
X01450826Y01837951
X01416Y01804
X0141
X01404
Y01796
X0141
X01416
X01422
X01398
X01382
X01376
X0137
X01364
X01358
X01364Y01804
X0137
X01376
X01336
X0133
X01324
X01324Y01796
X0133
X01336
X01342
X01318
X01302
X01296
X0129
X01284
X01278
X01284Y01804
X0129
X01296
X01256
X0125
X01244
Y01796
X0125
X01256
X01262
X01238
X01222
X01216
X0121
X01204
X01198
X01204Y01804
X0121
X01216
X012375Y017725
X01245Y017575
X012525Y017625
X0126Y017575
X012875Y017625
X01275Y0174
X01225
X012045Y017425
X01195Y0174075
X0132Y01765
X01335Y017655
X0135Y01765
X0137Y017575
Y01742
X01377Y01857001
X01395Y01856976
X01496Y01884
Y0189
Y01896
Y01924
Y0193
Y01936
Y01964
Y0197
Y01976
Y02004
Y0201
Y02016
Y02044
Y0205
Y02056
Y02084
Y0209
Y02096
Y02124
Y0213
X01526
Y02124
Y02118
Y02102
Y02096
Y0209
Y02084
Y02078
Y02062
Y02056
Y0205
Y02044
Y02038
Y02022
Y02016
Y0201
Y02004
Y01998
Y01982
Y01976
Y0197
Y01964
Y01958
Y01942
Y01936
Y0193
Y01924
Y01918
Y01902
Y01896
Y0189
Y01884
Y01878
X01176Y01804
X0117
X01164
X01164Y01796
X0117
X01176
X01182
X01158
X01142
X01136
X0113
X01124
X01118
X01124Y01804
X0113
X01136
X01096
X0109
X01084
Y01796
X0109
X01096
X01102
X01078
X01185Y01745
X01004Y01884
Y0189
Y01896
Y01924
Y0193
Y01936
Y01964
Y0197
Y01976
Y02004
Y0201
Y02016
Y02044
Y0205
Y02056
Y02084
Y0209
Y02096
Y02124
Y0213
X00974
Y02124
Y02118
Y02102
Y02096
Y0209
Y02084
Y02078
Y02062
Y02056
Y0205
Y02044
Y02038
Y02022
Y02016
Y0201
Y02004
Y01998
Y01982
Y01976
Y0197
Y01964
Y01958
Y01942
Y01936
Y0193
Y01924
Y01918
Y01902
Y01896
Y0189
Y01884
Y01878
X00726
Y01884
Y0189
Y01896
Y01902
Y01918
Y01924
Y0193
Y01936
Y01942
Y01958
Y01964
Y0197
Y01976
Y01982
Y01998
Y02004
Y0201
Y02016
Y02022
Y02038
Y02044
Y0205
Y02056
Y02062
Y02078
Y02084
Y0209
Y02096
Y02102
Y02118
Y02124
Y0213
X00696
Y02124
Y02096
Y0209
Y02084
Y02056
Y0205
Y02044
Y02016
Y0201
Y02004
Y01976
Y0197
Y01964
Y01936
Y0193
Y01924
Y01896
Y0189
Y01884
X00616Y01804
X0061
X00604
X00576
X0057
X00564
X00536
X0053
X00524
X00496
X0049
X00484
X00456
X0045
X00444
X00416
X0041
X00404
Y01774
X0041
X00416
X00422
X00438
X00444
X0045
X00456
X00462
X00478
X00484
X0049
X00496
X00502
X00518
X00524
X0053
X00536
X00542
X00558
X00564
X0057
X00576
X00582
X00598
X00604
X0061
X00616
X00622
X00398
X00382
X00376
X0037
X00364
X00358
X00342
X00336
X0033
X00324
X00318
X00302
X00296
X0029
X00284
X00278
X00284Y01804
X0029
X00296
X00324
X0033
X00336
X00364
X0037
X00376
X00204Y01884
Y0189
Y01896
Y01924
Y0193
Y01936
Y01964
Y0197
Y01976
Y02004
Y0201
Y02016
Y02044
Y0205
Y02056
Y02084
Y0209
Y02096
Y02124
Y0213
X00174
Y02124
Y02118
Y02102
Y02096
Y0209
Y02084
Y02078
Y02062
Y02056
Y0205
Y02044
Y02038
Y02022
Y02016
Y0201
Y02004
Y01998
Y01982
Y01976
Y0197
Y01964
Y01958
Y01942
Y01936
Y0193
Y01924
Y01918
Y01902
Y01896
Y0189
Y01884
Y01878
Y02136
Y02142
Y02158
Y02164
Y0217
Y02176
Y02182
Y02198
Y02204
Y0221
Y02216
Y02222
X00204Y02216
Y0221
Y02204
Y02176
Y0217
Y02164
Y02136
X00309Y02256
X00312Y022995
X00312Y02334
X00309Y0235
Y02407
X00342Y0239
X00354Y02382
X00366Y02374
X00374Y02366
X00386Y02358
X0039Y02322
X00368Y02322
X0035Y02322
Y02275
X00368Y02275
X00385Y02275
X0039Y02298
X0041
X0043
X0045
X0047
X0049
Y02322
X0047
X0045
X0044Y02328
X0043Y02322
X0041
X00398Y0235
X00426
X00454Y02342
X00474
X00486
X00498Y0235
X00522Y0235
X00542
X0055Y02322
X00569
X00586
X00605
X00625
X0064
X00632Y02296
Y0235
X0053Y02322
X0051
Y02275
X0053
X0055
X0056Y02256
X00696Y02216
Y0221
Y02204
Y02176
Y0217
Y02164
Y02136
X00726Y02136
Y02142
Y02158
Y02164
Y0217
Y02176
Y02182
Y02198
Y02204
Y0221
Y02216
Y02222
X00429Y0220725
X00974Y0221
Y02204
Y02198
Y02182
Y02176
Y0217
Y02164
Y02158
Y02142
Y02136
X01004
Y02164
Y0217
Y02176
Y02204
Y0221
Y02216
X00974
Y02222
X01496Y02216
Y0221
Y02204
X01496Y02176
Y0217
Y02164
Y02136
X01526Y02136
Y02142
Y02158
Y02164
Y0217
Y02176
X01526Y02182
Y02198
Y02204
Y0221
Y02216
Y02222
X015675Y021925
X0153Y02328
X01522Y02334
Y02342
Y0235
Y02358
Y02366
Y02374
Y02382
Y0239
X01466Y02397
X01458
X0145
X01434
X01414Y0239
Y02382
Y02374
Y02366
Y02358
Y0235
Y02342
Y02334
Y02322
X01406Y02328
X014055Y02436
Y02442
Y02448
Y02454
Y0246
X01419Y02475
X01425
X01431
X01437
X01443
X01457
X01463
X01469
X01475
X01481
X014945Y0246
Y02454
Y02448
Y02442
Y02436
X01522Y02322
X016Y02334
X01615Y02366
X01625Y02374
X01642Y02382
X01634Y02358
X01669605Y02349605
X01678Y02342
X017Y02329
X0159Y0239
X015875Y022125
Y022
X01695Y02135
X01774Y02136
Y02142
Y02158
Y02164
Y0217
Y02176
Y02182
Y02198
Y02204
Y0221
Y02216
Y02222
X01804Y02216
Y0221
Y02204
Y02176
Y0217
Y02164
Y02136
X01884Y02296
X0189
X01896
X01924
X0193
X01936
X01964
X0197
X01976
Y02326
X0197
X01964
X01958
X01942
X01936
X0193
X01924
X01918
X01902
X01896
X0189
X01884
X01878
X01982
X01998
X02004
X0201
X02016
X02022
X02038
X02044
X0205
X02056
X02062
X02078
X02084
X0209
X02096
X02102
X02118
X02124
X0213
X02136
X02142
X02158
X02164
X0217
X02176
X02182
X02198
X02204
X0221
X02216
X02222
X02216Y02296
X0221
X02204
X02176
X0217
X02164
X02136
X0213
X02124
X02096
X0209
X02084
X02056
X0205
X02044
X02016
X0201
X02004
X02256Y0219
X022995Y02188
X02334Y02188
X0235Y02191
X02322Y0215
X02275Y0215
X02374Y02134
X02382Y02146
X0239Y02158
X02407Y02191
T03
X0109Y005625
Y005875
Y006125
Y006375
X0119
Y006125
Y005875
Y005625
X0131
Y005875
Y006125
Y006375
X0141
Y006125
Y005875
Y005625
T04
X00996Y0085
X01038
X0108
Y00905
X01038
X00996
X01208Y008695
X0125
X01292
Y008145
X0125
X01208
X0142Y00852
X01462
X01504
Y00907
X01462
X0142
T05
X0005Y0005
X0085
X0165
X0245
X0005Y0085
X0085
X0165
X0245
X0125Y0108
X0005Y0165
X0085
X0125Y0137
X0165Y0165
X0245
X0005Y0245
X0085
X0165Y0245
X0245
M30
